<svg width="32" height="32" viewBox="0 0 32 32" fill="none" xmlns="http://www.w3.org/2000/svg">
<path d="M6.47 17.4699C6.61062 17.3295 6.80125 17.2506 7 17.2506C7.19875 17.2506 7.38938 17.3295 7.53 17.4699L15.25 25.1887L15.25 4.99993C15.25 4.80102 15.329 4.61025 15.4697 4.4696C15.6103 4.32895 15.8011 4.24993 16 4.24993C16.1989 4.24993 16.3897 4.32895 16.5303 4.4696C16.671 4.61025 16.75 4.80102 16.75 4.99993L16.75 25.1887L24.47 17.4699C24.6122 17.3374 24.8002 17.2653 24.9945 17.2688C25.1888 17.2722 25.3742 17.3509 25.5116 17.4883C25.649 17.6257 25.7277 17.8111 25.7312 18.0054C25.7346 18.1997 25.6625 18.3878 25.53 18.5299L16.53 27.5299C16.3894 27.6704 16.1988 27.7493 16 27.7493C15.8013 27.7493 15.6106 27.6704 15.47 27.5299L6.47 18.5299C6.32955 18.3893 6.25066 18.1987 6.25066 17.9999C6.25066 17.8012 6.32955 17.6106 6.47 17.4699Z" fill="white"/>
</svg>
