<svg width="121" height="122" viewBox="0 0 121 122" fill="none" xmlns="http://www.w3.org/2000/svg">
<path d="M30.5235 70.0289C27.5078 71.1331 24.6413 72.5184 22.1718 74.3352C20.1458 75.8257 18.5541 77.6892 17.3593 79.7725C17.0609 80.2906 16.8545 80.8101 16.688 81.3309C16.6813 81.1085 16.684 80.8847 16.6827 80.6622C16.4642 81.271 16.2937 81.8944 16.1592 82.5257C16.1872 82.9906 16.2231 83.4541 16.2684 83.919C16.2551 85.3269 16.5175 86.7548 16.8252 88.232C16.8492 88.3412 16.9264 88.3745 17.0157 88.3652C17.2075 89.171 17.4192 89.9756 17.671 90.7721C18.9404 94.7948 21.1795 98.499 23.5198 102.087C25.2234 104.703 26.9257 107.467 29.8495 109.132C30.0319 109.238 30.2384 108.967 30.2451 108.835C30.2784 108.215 30.0386 107.585 29.7269 106.956C29.9614 107.322 30.2144 107.687 30.4915 108.052C31.6663 109.597 33.1315 110.868 34.7872 111.919C38.8072 113.531 43.0549 114.522 47.3973 114.5C32.5867 105.577 28.1698 86.7135 30.5235 70.0289Z" fill="#1F1F1D"/>
<path d="M46.3144 117.83C44.1553 117.92 42.0161 117.721 39.9182 117.284C42.3198 118.068 44.8572 118.597 47.4307 118.927C47.0351 118.59 46.6674 118.217 46.3144 117.83Z" fill="#1F1F1D"/>
<path d="M70.8258 113.78C75.8488 112.34 80.6586 110.166 84.9304 107.338C84.7559 107.539 84.5787 107.742 84.3922 107.935C83.9913 108.352 83.4052 108.896 83.2654 109.457C82.8058 111.303 88.0632 108.309 88.6693 107.972C97.1808 103.247 103.786 94.2378 103.708 84.8352C103.668 79.8935 101.135 75.3048 96.8984 72.3651C94.1238 70.4416 90.7499 69.2868 87.304 68.4263C87.1961 69.3001 87.0495 70.1726 86.923 71.0237C86.4155 74.4976 85.7456 77.9927 84.8731 81.4053C83.3253 87.4566 81.2407 93.4559 77.9693 98.9105C76.291 101.708 74.3782 104.357 72.2204 106.855C70.4049 108.959 68.2297 111.588 65.647 112.922C65.5937 112.95 65.5378 112.975 65.4832 113.004C66.947 113.609 68.8531 113.809 70.8258 113.78Z" fill="#1F1F1D"/>
<path d="M25.981 83.6591C27.5648 77.3202 26.2874 71.3794 22.7869 66.3045C21.981 63.5659 20.5412 60.9685 17.9264 61.9728C15.7912 62.7933 14.6697 64.3918 14.3101 66.3751C14.4925 68.6635 15.1439 70.9212 15.6993 73.191C15.7486 73.3375 15.8005 73.4867 15.8405 73.6305C16.4146 75.6432 16.6051 77.7011 17.078 79.7324C17.6494 82.186 18.374 84.3478 20.7703 85.452C22.6857 86.3351 25.4083 85.9489 25.981 83.6591Z" fill="#9E4C0B"/>
<path d="M21.5829 84.6855C18.2796 83.9303 17.8467 80.0622 17.4351 77.4994C16.9236 74.3279 13.214 66.1987 16.5067 63.6746C16.7864 63.2576 17.1474 62.9086 17.6136 62.6676C19.3958 61.7458 20.8224 63.0512 21.6083 64.6189C21.7535 64.848 21.8986 65.0985 22.0465 65.3782C22.546 66.3226 22.9536 67.2869 23.2812 68.2646C24.9409 71.3136 25.9492 74.5796 25.7548 78.3545C25.6189 80.9613 25.6309 85.6113 21.5829 84.6855Z" fill="#F9CEB2"/>
<path d="M21.5829 84.6855C18.2796 83.9303 17.8467 80.0622 17.4351 77.4994C16.9236 74.3279 13.214 66.1987 16.5067 63.6746C16.7864 63.2576 17.1474 62.9086 17.6136 62.6676C19.3958 61.7458 20.8224 63.0512 21.6083 64.6189C21.7535 64.848 21.8986 65.0985 22.0465 65.3782C22.546 66.3226 22.9536 67.2869 23.2812 68.2646C24.9409 71.3136 25.9492 74.5796 25.7548 78.3545C25.6189 80.9613 25.6309 85.6113 21.5829 84.6855Z" fill="#FAD6BE"/>
<path d="M18.3036 74.1638C18.5233 74.4542 18.9736 74.4608 19.2053 74.1971C20.3295 72.9197 20.3948 70.3916 19.5743 68.9317C19.3372 68.5081 18.6805 67.8421 18.1664 67.7356C17.0515 67.5065 16.4454 68.568 16.1737 69.4339C16.2723 69.1195 16.0831 68.584 16.1217 68.2351C16.1644 67.8221 16.2896 67.4132 16.5134 67.0562C16.877 66.4781 17.6789 66.0412 18.4101 66.3729C19.593 66.9084 20.0751 68.2591 20.3788 69.3513C20.6945 70.4875 20.8876 71.6543 20.9116 72.8252C20.9356 74.0226 20.7265 75.1788 20.524 76.3523C20.5093 76.4375 20.4974 76.5281 20.4827 76.6134C20.4774 76.6427 20.4601 76.6533 20.4428 76.66C20.2843 77.2461 20.0911 77.8028 19.8607 78.301C19.7728 78.4915 19.5104 78.1771 19.5304 78.0506C19.7395 76.6759 19.8221 75.2814 19.85 73.8868C19.7248 74.3396 19.5317 74.967 19.1294 75.1175C18.2956 75.4265 17.856 73.9387 17.5043 72.961C17.7588 73.3606 18.0039 73.7668 18.3036 74.1638Z" fill="#9E4C0B"/>
<path d="M93.4722 85.452C95.8685 84.3478 96.5931 82.186 97.1645 79.7324C97.6374 77.7011 97.8292 75.6432 98.4019 73.6305C98.4419 73.4867 98.4938 73.3375 98.5431 73.191C99.0986 70.9212 99.7513 68.6635 99.9324 66.3751C99.5728 64.3931 98.4512 62.7933 96.316 61.9728C93.7013 60.9685 92.2614 63.5659 91.4555 66.3045C87.955 71.3808 86.6763 77.3215 88.2614 83.6591C88.8355 85.9489 91.5581 86.3351 93.4722 85.452Z" fill="#9E4C0B"/>
<path d="M88.4904 78.3597C88.296 74.5848 89.3043 71.3188 90.964 68.2698C91.2917 67.2921 91.6993 66.3278 92.1988 65.3834C92.3453 65.1036 92.4904 64.8532 92.637 64.6241C93.4228 63.0564 94.8481 61.751 96.6316 62.6727C97.0978 62.9138 97.4575 63.2628 97.7385 63.6797C101.031 66.2038 97.3216 74.333 96.8101 77.5045C96.3985 80.0673 95.9656 83.9341 92.6623 84.6907C88.613 85.6138 88.625 80.9637 88.4904 78.3597Z" fill="#F9CEB2"/>
<path d="M88.4904 78.3597C88.296 74.5848 89.3043 71.3188 90.964 68.2698C91.2917 67.2921 91.6993 66.3278 92.1988 65.3834C92.3453 65.1036 92.4904 64.8532 92.637 64.6241C93.4228 63.0564 94.8481 61.751 96.6316 62.6727C97.0978 62.9138 97.4575 63.2628 97.7385 63.6797C101.031 66.2038 97.3216 74.333 96.8101 77.5045C96.3985 80.0673 95.9656 83.9341 92.6623 84.6907C88.613 85.6138 88.625 80.9637 88.4904 78.3597Z" fill="#FAD6BE"/>
<path d="M95.9403 74.1638C95.7205 74.4542 95.2703 74.4608 95.0385 74.1971C93.9143 72.9197 93.849 70.3916 94.6695 68.9317C94.9066 68.5081 95.5633 67.8421 96.0775 67.7356C97.1924 67.5065 97.7984 68.568 98.0701 69.4339C97.9716 69.1195 98.1607 68.584 98.1221 68.2351C98.0795 67.8221 97.9543 67.4132 97.7305 67.0562C97.3668 66.4781 96.565 66.0412 95.8337 66.3729C94.6522 66.9084 94.1687 68.2591 93.865 69.3513C93.5493 70.4875 93.3562 71.6543 93.3322 72.8252C93.3082 74.0226 93.5174 75.1788 93.7198 76.3523C93.7345 76.4375 93.7464 76.5281 93.7611 76.6134C93.7651 76.6427 93.7837 76.6533 93.8011 76.66C93.9596 77.2461 94.1527 77.8028 94.3832 78.301C94.4711 78.4915 94.7335 78.1771 94.7135 78.0506C94.5044 76.6759 94.4218 75.2814 94.3938 73.8868C94.5203 74.3396 94.7122 74.967 95.1144 75.1175C95.9483 75.4265 96.3892 73.9387 96.7395 72.961C96.4851 73.3606 96.24 73.7668 95.9403 74.1638Z" fill="#9E4C0B"/>
<path d="M95.381 49.1232C95.2278 44.8648 94.7243 40.5931 94.1342 36.364C94.0743 32.9887 93.969 29.3191 92.0283 26.4819C89.9944 23.5049 86.4059 21.6521 83.2318 20.1815C74.6444 16.2068 65.4762 14.3074 56.0816 13.6174C48.4812 13.0593 41.4283 13.8212 34.5458 17.3018C29.7746 19.714 25.5029 23.425 23.1372 28.1922C23.1013 28.1123 22.9601 28.1029 22.9241 28.2121C22.7363 28.7716 22.5578 29.3324 22.3927 29.8932C22.0597 30.7656 21.7866 31.67 21.5895 32.6051C21.5762 32.6637 21.6001 32.7037 21.6321 32.7357C20.9781 35.5022 20.5665 38.3074 20.424 41.2005C20.1722 46.2195 20.8209 51.2571 20.8862 56.2748C20.9101 58.0703 20.9208 59.8658 20.9328 61.6627C21.8186 65.7319 21.3124 70.6657 21.2844 74.7429C21.2698 76.9221 21.1912 79.1225 21.1739 81.3203C21.2698 82.7469 21.4257 84.1708 21.6827 85.5801C23.2079 93.9544 29.0966 100.513 36.5318 104.375C38.3833 105.335 49.6267 113.208 61.72 112.304C68.8036 109.773 75.0733 105.109 81.5268 100.905C84.1535 98.98 86.715 96.7969 88.5478 94.1062C90.5751 91.1345 91.8072 87.8352 92.5545 84.3293C92.7583 83.3703 92.9114 82.4073 93.046 81.4389C92.9581 75.5714 93.5055 69.5002 94.0463 63.6727C94.033 63.6966 94.0157 63.7193 94.0023 63.7446C94.0263 63.3996 94.0517 63.0546 94.081 62.711C94.4752 58.1036 95.5461 53.7852 95.381 49.1232Z" fill="#F9CEB2"/>
<path d="M95.381 49.1232C95.2278 44.8648 94.7243 40.5931 94.1342 36.364C94.0743 32.9887 93.969 29.3191 92.0283 26.4819C89.9944 23.5049 86.4059 21.6521 83.2318 20.1815C74.6444 16.2068 65.4762 14.3074 56.0816 13.6174C48.4812 13.0593 41.4283 13.8212 34.5458 17.3018C29.7746 19.714 25.5029 23.425 23.1372 28.1922C23.1013 28.1123 22.9601 28.1029 22.9241 28.2121C22.7363 28.7716 22.5578 29.3324 22.3927 29.8932C22.0597 30.7656 21.7866 31.67 21.5895 32.6051C21.5762 32.6637 21.6001 32.7037 21.6321 32.7357C20.9781 35.5022 20.5665 38.3074 20.424 41.2005C20.1722 46.2195 20.8209 51.2571 20.8862 56.2748C20.9101 58.0703 20.9208 59.8658 20.9328 61.6627C21.8186 65.7319 21.3124 70.6657 21.2844 74.7429C21.2698 76.9221 21.1912 79.1225 21.1739 81.3203C21.2698 82.7469 21.4257 84.1708 21.6827 85.5801C23.2079 93.9544 29.0966 100.513 36.5318 104.375C38.3833 105.335 49.6267 113.208 61.72 112.304C68.8036 109.773 75.0733 105.109 81.5268 100.905C84.1535 98.98 86.715 96.7969 88.5478 94.1062C90.5751 91.1345 91.8072 87.8352 92.5545 84.3293C92.7583 83.3703 92.9114 82.4073 93.046 81.4389C92.9581 75.5714 93.5055 69.5002 94.0463 63.6727C94.033 63.6966 94.0157 63.7193 94.0023 63.7446C94.0263 63.3996 94.0517 63.0546 94.081 62.711C94.4752 58.1036 95.5461 53.7852 95.381 49.1232ZM85.8705 90.5298C82.7616 95.1398 78.5778 98.7096 74.1649 102.025C69.5615 105.483 64.2215 109.146 58.2901 109.585C52.4333 110.02 46.438 107.521 41.439 104.668C36.5572 101.88 31.3224 98.318 27.9218 93.7533C21.6547 85.3403 21.8519 73.3696 24.388 63.6434C24.5132 63.1612 25.1579 63.2091 25.3031 63.6434C25.704 64.8368 26.1236 66.021 26.6831 67.1239C26.6631 58.5818 33.7067 52.4053 40.697 48.1256C45.0753 45.4443 49.6787 42.9974 54.3434 40.8529C57.4376 39.4303 60.6797 38.0809 63.4396 36.051C66.3074 33.9411 67.9271 31.0427 70.2541 28.4426C70.4819 28.1882 70.9881 28.3067 71.0467 28.6557C71.9058 33.7986 73.0354 38.9867 75.5142 43.6261C77.9464 48.1802 81.2631 52.1429 84.1868 56.372C87.722 61.4909 90.6231 67.0866 90.5844 73.4655C90.5472 79.4036 89.2298 85.5508 85.8705 90.5298Z" fill="#FAD6BE"/>
<path d="M95.381 49.1232C95.2278 44.8648 94.7243 40.5931 94.1342 36.364C94.0743 32.9887 93.969 29.3191 92.0283 26.4819C89.9944 23.5049 86.4059 21.6521 83.2318 20.1815C74.6444 16.2068 65.4762 14.3074 56.0816 13.6174C48.4812 13.0593 41.4283 13.8212 34.5458 17.3018C29.7746 19.714 25.5029 23.425 23.1372 28.1922C23.1013 28.1123 22.9601 28.1029 22.9241 28.2121C22.7363 28.7716 22.5578 29.3324 22.3927 29.8932C22.0597 30.7656 21.7866 31.67 21.5895 32.6051C21.5762 32.6637 21.6001 32.7037 21.6321 32.7357C20.9781 35.5022 20.5665 38.3074 20.424 41.2005C20.1722 46.2195 20.8209 51.2571 20.8862 56.2748C20.9101 58.0703 20.9208 59.8658 20.9328 61.6627C21.8186 65.7319 21.3124 70.6657 21.2844 74.7429C21.2698 76.9221 21.1912 79.1225 21.1739 81.3203C21.2698 82.7469 21.4257 84.1708 21.6827 85.5801C23.2079 93.9544 29.0966 100.513 36.5318 104.375C38.8495 105.579 48.6917 112.451 56.2801 112.72C57.6388 112.766 60.3174 112.78 61.6227 112.316C68.7436 109.791 75.0453 105.127 81.5255 100.906C84.1522 98.9813 86.7137 96.7982 88.5465 94.1076C90.5738 91.1359 91.8059 87.8365 92.5531 84.3307C92.7569 83.3716 93.399 80.3906 93.5348 79.4223C93.4536 73.9597 93.4309 70.3393 93.9331 64.8848C93.9371 64.8155 93.9371 64.7476 93.9411 64.6797C93.9451 64.673 93.9491 64.6677 93.9531 64.6597C93.9837 64.3293 94.0143 64.003 94.045 63.674C94.0317 63.698 94.0144 63.7206 94.001 63.7459C94.025 63.4009 94.0503 63.0559 94.0796 62.7123C94.4752 58.1036 95.5461 53.7852 95.381 49.1232ZM93.5774 60.6717C92.6956 66.715 93.07 72.8662 92.5598 78.9481C92.5212 79.0267 92.5078 79.1172 92.5331 79.2078C92.4692 79.9391 92.4 80.669 92.3054 81.3963C91.8565 84.8595 90.9507 88.2454 89.3603 91.3623C87.5115 94.9867 84.5292 97.7 81.339 100.132C78.1675 102.552 74.7323 104.625 71.3211 106.687C67.686 108.885 63.6354 111.551 59.4103 112.107C58.0836 112.103 56.7876 111.88 55.4023 111.821C47.9724 111.493 30.6564 100.974 27.5835 96.364C24.8476 92.2614 22.8482 88.2801 22.2448 83.4303C21.716 79.1519 21.9025 74.8042 21.8332 70.5045C21.752 65.4975 21.772 60.4892 21.6987 55.4849C21.6294 50.9188 21.058 46.3913 21.1046 41.8186C21.1446 38.1449 21.6441 34.4939 22.4753 30.9174C24.7264 25.1206 29.4696 20.8249 34.9841 17.9931C41.4296 14.683 48.2654 13.9837 55.3863 14.4353C64.3946 15.0054 72.9594 16.8262 81.2991 20.2881C84.5958 21.6547 87.8965 23.3344 90.4206 25.9051C93.5028 29.0433 92.8195 33.4696 93.5748 37.4336C93.5908 37.5175 93.6361 37.5748 93.696 37.6081C93.9824 40.6983 94.3673 43.7819 94.5631 46.8815C94.8548 51.6088 94.2554 56.0123 93.5774 60.6717Z" fill="#9E4C0B"/>
<path d="M120.601 93.188C119.179 87.7707 117.158 82.5346 115.089 77.3052C113.979 74.4986 112.797 71.768 112.011 68.8829C108.352 58.2029 107.429 47.0541 105.47 35.84C104.505 30.3188 102.871 24.1677 100.112 18.7771C98.6219 16.2982 96.8983 14.0005 94.7232 12.0518C93.21 10.6958 91.6276 9.41976 90.0985 8.08377C89.567 7.76275 89.0315 7.44572 88.4974 7.12871C84.215 4.9682 79.6276 3.74143 74.8457 3.88129C71.3626 2.23627 67.8274 0.966868 63.7608 0.404764C57.298 -0.491673 50.6713 0.184993 44.3429 1.6089C34.6846 3.7814 25.9147 9.14004 18.7325 15.828C17.5923 16.891 16.5054 18.0245 15.4491 19.1926C14.5461 20.6232 13.5924 22.0232 12.8744 23.5563C11.5997 26.2856 10.5048 29.1241 9.42852 31.9346C9.3779 32.0678 9.33263 32.2023 9.28068 32.3368C8.77185 34.789 7.87541 37.1494 7.53442 39.6455C7.05357 43.154 6.76851 46.6132 6.80714 50.1577C6.83911 53.0814 6.94567 56.0038 6.99362 58.9236C7.22406 62.3615 7.34394 65.794 6.951 69.3584C6.76185 71.0687 6.47415 72.7591 6.12516 74.4374C5.8268 76.7564 5.58703 79.122 4.89838 81.3518C4.07521 84.0211 3.01228 86.6132 2.07987 89.2452C2.0559 89.3119 2.03326 89.3784 2.00929 89.4437C-0.00336583 96.8683 -0.806565 104.09 1.5897 111.602C1.75354 112.04 1.93336 112.471 2.12117 112.899C5.00362 118.353 9.97731 122.753 16.2151 121.895C13.4405 121.24 11.3573 119.269 9.54575 117.096C7.69294 114.874 7.03225 112.39 6.55806 109.793C7.9207 113.217 10.1571 116.229 13.258 117.943C18.8404 121.029 25.579 121.394 31.4319 119.065C32.0512 119.367 32.7026 119.635 33.3712 119.877C36.4828 120.377 39.5198 120.86 42.7312 120.474C45.0889 120.19 47.1974 119.436 49.2313 118.425C48.6519 118.266 48.0992 118.11 47.6157 117.995C42.5367 116.795 38.1838 114.014 34.5301 110.331C30.6793 106.449 28.0352 101.994 25.8414 97.0068C24.572 94.1217 23.4984 91.182 22.7978 88.1517C22.3902 86.9915 22.0239 85.814 21.7509 84.6365C17.7922 85.132 16.0019 73.0627 15.5664 69.8459C16.4575 67.507 17.6549 64.5979 18.7445 62.0125C19.1215 63.2632 19.5184 64.5193 19.922 65.7927C20.0565 66.8902 20.2563 67.9865 20.4855 69.0801C20.5387 69.8446 20.5761 70.6105 20.6213 71.3778C21.0289 73.3678 21.4365 75.3565 21.7122 77.3691C21.8002 77.2625 21.8628 77.1453 21.8654 77.0374C22.0266 71.5909 22.1744 65.9645 23.4385 60.6445C23.617 59.8919 23.8887 59.1287 24.1991 58.3574C24.2244 59.9825 24.5933 61.5036 25.4565 62.7903C25.6789 63.1233 26.3036 62.512 26.1704 62.1976C26.1078 62.0485 26.0572 61.8926 26.0053 61.7354C26.1198 61.6595 26.2197 61.5542 26.249 61.4464C29.8867 47.7254 47.0096 43.4151 58.0199 37.2892C62.7472 34.6585 68.9516 30.2482 71.8634 24.851C71.8154 24.9975 71.7781 25.1467 71.7275 25.2919C71.8953 26.6665 72.1418 28.0611 72.548 29.509C72.941 30.9076 73.4285 32.2875 73.9813 33.6435C75.4638 38.3042 77.5443 42.8383 79.7635 46.9409C84.4135 55.5416 90.8817 61.6062 90.947 71.9119C90.9483 72.3941 92.4721 68.4301 92.7571 66.7491C92.7665 66.8423 92.7851 66.9356 92.7918 67.0301C92.9303 67.7734 93.0502 68.5233 93.17 69.2799C93.5537 67.9745 94.1105 66.7197 94.6766 65.4703C94.8004 65.0827 94.9256 64.7164 95.0495 64.3355C95.1121 64.3088 95.1654 64.2635 95.2014 64.2103V64.213C95.3945 63.9372 95.6676 63.6175 95.8967 63.3698C96.0659 63.1873 96.2177 63.1353 96.3616 63.17C96.4095 63.2219 96.4534 63.2765 96.5054 63.3272C96.5627 63.3804 96.6266 63.4018 96.6946 63.4084C96.7225 63.4364 96.7505 63.459 96.7758 63.4923C96.7998 63.5216 96.8091 63.5576 96.8291 63.5882C96.9396 64.0451 97.0529 64.4993 97.1421 64.9455C97.286 65.6595 97.4285 66.3734 97.571 67.0874C97.6189 67.4937 97.6709 67.8972 97.7029 68.3088C98.0239 72.5739 97.7855 83.8466 92.2963 85.3225L92.2936 85.3251C92.1564 85.3638 92.0072 85.485 91.9326 85.6129C91.8514 85.7274 91.7994 85.8513 91.8034 85.9552C89.8321 92.105 87.1281 97.2892 83.2373 102.471C79.1787 107.877 72.6693 114.04 65.7189 115.142C65.4285 115.189 64.941 115.647 65.1341 115.978C67.1175 119.399 72.5321 118.963 76.2883 118.435C80.0685 118.392 83.93 117.316 87.4451 115.507C87.3359 115.655 87.2347 115.808 87.1254 115.956C86.4981 116.369 85.8574 116.734 85.1981 117.024C84.8544 117.175 84.1178 118.078 84.7824 118.32C88.7745 119.78 93.0475 119.05 96.9343 117.338C96.7212 117.568 96.5041 117.79 96.2976 118.034C96.207 118.142 96.1124 118.299 96.0592 118.457C102.313 119.109 108.866 117.83 113.783 114.214C115.927 112.234 117.659 109.807 118.888 107.013C119.179 106.387 119.432 105.743 119.646 105.085C119.652 105.068 119.658 105.055 119.664 105.037C119.684 104.977 119.697 104.919 119.716 104.859C119.774 104.668 119.835 104.478 119.887 104.285C120.982 100.619 121.103 96.8869 120.601 93.188Z" fill="#1F1F1D"/>
<path d="M118.818 103.815C118.558 104.566 118.241 105.284 117.904 105.99C117.836 106.132 117.765 106.271 117.696 106.411C117.587 106.628 117.48 106.846 117.363 107.058C116.736 108.231 116.038 109.329 115.369 110.295C114.108 112.113 112.38 113.599 110.423 114.709C109.503 115.276 108.504 115.752 107.468 116.137C104.628 117.418 101.492 118.099 98.2476 118.008C98.1557 118.006 98.0785 117.974 98.0105 117.928C98.0012 117.935 97.9879 117.939 97.9786 117.944C97.9879 117.939 97.9959 117.931 98.0052 117.926C97.7335 117.747 97.6749 117.309 98.0145 117.124C99.6223 116.245 100.902 115.006 102.132 113.705C97.4791 116.49 92.2004 118.211 86.7431 117.928C86.3502 117.908 86.0931 117.418 86.4088 117.123C87.8913 115.727 89.5337 114.526 90.9602 113.067C91.4677 112.547 92.7038 111.436 93.4524 110.348C93.3618 110.411 93.2753 110.479 93.186 110.544C93.2193 110.513 93.2566 110.484 93.2912 110.452C93.3445 110.403 93.3805 110.349 93.4071 110.293C89.9013 112.872 85.932 114.798 81.7015 116.073C77.6363 117.298 70.257 119.93 66.7085 116.294C66.4488 116.028 66.586 115.613 66.923 115.503C74.6965 112.945 81.3459 107.23 85.8454 100.485C87.9925 97.2624 90.566 93.59 91.3159 89.7272C91.5077 88.7376 91.6116 87.1086 92.4281 86.348C92.4388 86.2681 92.4574 86.1855 92.4668 86.1029C94.6899 85.7259 96.0725 83.363 96.9809 80.9587C97.6549 78.0723 98.233 75.0766 98.5114 72.1142C98.7764 73.67 99.0215 75.2324 99.2053 76.8055C100.11 84.4832 99.6835 92.1675 97.9373 99.6826C99.7248 96.0289 99.9087 91.5694 100.375 87.632C100.781 84.1954 100.793 80.7776 100.705 77.353C100.413 74.1215 99.7661 70.9167 99.0628 67.7612C98.9376 67.2018 98.7485 66.5944 98.5367 65.967C98.3662 64.8841 98.0132 63.9357 97.5004 62.9247C97.1074 61.6727 96.8157 60.4392 96.8584 59.3376C96.9969 58.9021 97.1474 58.4692 97.2753 58.0323C97.2872 58.011 97.2979 57.991 97.3112 57.9723C97.3725 57.7472 97.4191 57.5182 97.4764 57.2931C97.9026 55.7266 98.233 54.1375 98.4821 52.5338C98.5913 48.017 98.3995 43.5148 96.9662 39.1605C96.163 36.7203 95.0681 34.4186 94.0438 32.0689C93.8427 31.6054 93.6216 31.0606 93.3699 30.5025C95.0042 35.5268 97.0901 40.1821 97.6176 45.5927C98.2863 52.4618 95.7755 58.633 94.0532 65.1132C94.0199 65.2384 94.0545 65.2983 94.1158 65.321C93.8627 65.4249 93.5097 65.3263 93.4564 65.0186C93.3752 64.5564 93.2766 64.1009 93.1873 63.6414C93.8081 57.4875 93.166 51.1325 90.5233 45.6367C90.6192 45.8711 90.7138 46.1042 90.7991 46.3427C91.5503 48.4779 92.2243 50.673 92.6346 52.9028C93.4418 57.2864 91.7368 67.3909 91.6303 68.1302C91.4917 65.5488 90.5686 63.1179 89.4551 60.8002C86.9855 55.6613 83.533 51.1019 80.6878 46.1788C78.2436 42.3053 76.0405 38.2587 74.606 33.9097C73.6989 31.1645 72.6146 28.1888 72.2882 25.3024C72.1217 23.8398 72.4641 22.4386 72.7545 21.0173C72.4494 21.6634 72.1164 22.2987 71.7235 22.9048C69.3086 27.696 64.4694 31.5881 60.3163 34.4785C54.9523 38.2134 48.7971 40.8109 43.0362 43.8611C36.0365 47.5668 27.8341 52.5924 25.7695 60.7896C25.1861 57.6301 26.3276 53.4649 27.3719 50.7915C28.0206 49.1305 28.869 47.5588 29.8307 46.0549C30.4448 44.8122 31.1508 43.6187 31.934 42.4719C32.8863 40.9254 33.9253 39.4349 35.0508 38.003C33.19 39.8318 31.4292 41.7925 29.8174 43.9637C27.946 46.4852 25.595 50.6437 24.6373 54.721C24.2297 55.5255 23.8207 56.3327 23.4464 57.1545C22.7725 60.0103 22.2144 62.8968 21.7202 65.8059C21.6389 66.2774 20.9037 66.2521 20.8038 65.8059C19.7422 61.02 17.4431 56.7123 17.2513 51.724C17.1554 49.2265 17.1301 46.6437 17.4112 44.1528C17.5044 43.327 17.8001 42.4426 18.0505 41.5648C17.0955 43.4003 16.8358 45.7739 16.7838 48.0156C16.3935 52.1622 17.0755 56.029 18.1371 59.9064C17.1141 62.3493 16.1085 64.7949 15.1627 67.2577C14.6513 69.4502 14.0852 71.6307 13.5404 73.8232C12.7478 77.004 11.6436 80.8961 12.0459 84.3833C12.3096 82.1215 12.6746 79.9411 13.1261 77.9151C13.7468 75.1419 14.0652 73.2451 15.0349 70.6131C15.244 74.9141 17.619 87.0086 21.3313 85.6873C22.213 90.4612 24.0033 94.9194 26.0639 99.307C27.2254 101.779 28.4641 104.435 30.1238 106.713C31.3945 108.309 32.7585 109.834 34.2037 111.294C36.9982 114.123 40.2497 116.869 44.1538 117.947C44.3203 117.992 44.4148 118.102 44.4588 118.228C45.2753 118.486 46.1025 118.718 46.9523 118.886C44.1045 119.547 41.246 119.721 38.4608 119.35C33.2153 118.999 27.3266 115.713 24.0152 112.586C22.9363 111.565 21.9906 110.452 21.1741 109.272C21.9839 110.87 22.9789 112.389 24.1298 113.788C25.3952 115.327 27.1921 116.756 29.1914 117.751C29.4551 117.935 29.7228 118.115 30.0039 118.285C27.4518 118.809 24.893 118.878 22.4395 118.556C15.1135 118.373 8.49342 113.858 5.42583 107.259C5.70022 111.21 5.94664 114.708 8.50408 118.138C9.06219 118.886 9.75484 119.721 10.5381 120.484C5.10883 118.055 2.58601 111.673 1.56569 105.796C0.886373 101.899 1.19805 97.9777 1.95196 94.0909C2.03322 93.4462 2.12647 92.8015 2.24369 92.1621C2.65261 89.9177 3.35857 87.7959 4.12714 85.6953C4.12314 85.674 4.11781 85.6553 4.11248 85.634C4.75584 83.4708 5.4205 81.3343 6.00925 79.2351C8.81444 69.2211 8.41483 59.9251 7.72486 49.69C7.28663 43.1712 8.26567 36.9241 10.4635 30.7942C10.8045 29.8418 13.1767 24.8855 14.197 22.1988C14.4008 21.9444 14.6166 21.6953 14.8258 21.4436C16.0725 19.1925 18.2543 17.2558 20.0712 15.724C20.3602 15.4789 20.6666 15.2578 20.9623 15.022C27.561 9.16119 35.5743 4.96539 44.1178 2.76226C48.199 1.70998 52.3829 1.21979 56.5773 1.17317C59.5157 0.669678 62.6819 0.90812 65.3432 1.51684C69.4644 2.4599 73.6776 3.56812 77.6043 5.26509C77.242 5.07594 76.8797 4.88281 76.5187 4.70033C76.7558 4.7283 76.9929 4.7576 77.2287 4.80022C84.0831 5.52083 90.1171 8.93209 95.7635 13.8805C96.1497 14.4479 96.516 15.0233 96.8703 15.6067C97.4418 16.2781 97.9759 16.988 98.4621 17.7526C101.02 21.7779 102.633 26.4159 103.536 31.1805C105.203 37.1492 105.825 43.5681 106.735 49.6034C107.204 52.7096 107.641 55.8052 108.15 58.8981C109.375 63.1831 110.871 67.363 112.367 71.6147C113.618 75.1738 114.998 78.7476 116.167 82.3559C119.373 89.1345 121.297 96.683 118.818 103.815Z" fill="#424241"/>
<path opacity="0.5" d="M116.165 82.356C114.995 78.7476 113.615 75.1725 112.364 71.6147C110.868 67.3643 109.373 63.1831 108.147 58.8981C107.64 55.8065 107.201 52.7096 106.733 49.6034C105.823 43.5681 105.201 37.1492 103.533 31.1805C102.63 26.4159 101.017 21.7766 98.4596 17.7526C97.9734 16.988 97.4392 16.2781 96.8678 15.6067C96.5148 15.0233 96.1472 14.4479 95.7609 13.8805C90.1146 8.93074 84.0806 5.52082 77.2261 4.80021C76.9904 4.75758 76.7533 4.72828 76.5162 4.70031C76.8772 4.8828 77.2395 5.07593 77.6018 5.26507C73.675 3.56811 69.4633 2.45989 65.3407 1.51683C62.6781 0.908106 59.5119 0.669684 56.5748 1.17318C54.9018 1.19183 53.2341 1.30372 51.5705 1.47155C58.2212 1.16652 65.3127 1.8405 70.9737 5.34765C69.5751 5.30636 68.1725 5.34767 66.8472 5.34101C62.8459 5.32103 58.8792 5.52616 54.8965 5.90977C49.3767 6.43991 43.9488 7.59741 39.3227 10.5012C40.3803 10.0816 41.4539 9.73129 42.6021 9.41827C46.3743 8.39662 50.1492 7.95706 53.9601 7.76392C57.1169 7.40028 60.2924 7.24177 63.4666 7.13788C64.423 7.23511 65.3794 7.36564 66.3344 7.55345C67.0737 7.69864 67.8369 7.85849 68.6121 8.03165C67.1709 8.7576 65.8162 9.63671 64.5828 10.5398C65.5459 10.0696 66.5608 9.69665 67.5172 9.3863C70.1519 8.52716 73.2208 7.53215 76.0273 7.68666C80.5415 7.93175 84.7986 12.1662 87.2508 16.3633C86.2611 14.2241 84.8239 12.3114 83.3334 10.3959C83.019 9.99102 83.4 9.38363 83.9008 9.65003C87.0616 11.3284 89.8308 13.5035 92.1885 16.0503C98.3823 21.337 102.301 29.5341 103.895 37.3383C105.187 43.6667 105.085 50.1242 106.031 56.4912C106.715 61.0999 107.824 65.6247 108.821 70.1708C109.191 71.2977 109.563 72.4219 109.937 73.5474C110.155 74.2028 110.368 74.8621 110.577 75.5255C113.136 81.285 116.188 86.8848 116.793 93.1944C117.211 97.5674 116.801 102.156 114.675 106.076C113.132 108.921 110.842 112.449 107.347 112.917C107.01 112.963 106.671 112.716 106.77 112.339C107.804 108.415 108.572 104.405 108.612 100.385C108.258 101.606 107.792 102.799 107.174 103.948C104.616 108.699 99.8901 113.635 94.6607 115.319C94.2851 115.44 93.9001 114.965 94.1292 114.629C95.3294 112.868 96.9424 111.583 98.4635 110.115C100.113 108.523 101.294 106.626 102.052 104.458C102.192 104.057 102.32 103.653 102.442 103.248C100.68 106.216 98.3264 108.596 95.1349 109.489C94.6873 109.614 94.3344 109.02 94.6807 108.698C99.8661 103.86 101.808 96.1994 102.558 89.3742C103.488 80.9254 102.141 72.583 100.073 64.3939C99.9367 63.8531 100.649 63.6067 100.941 64.0409C102.485 66.32 103.737 68.7709 105.078 71.1698C104.787 70.2028 104.483 69.2411 104.176 68.2767C102.959 65.61 101.8 62.9141 101.008 60.1009C99.657 55.3083 99.7263 50.4439 99.1429 45.5368C98.4742 39.9331 96.9531 34.0949 94.1745 29.1412C92.6014 26.3387 90.373 24.1022 88.1712 21.8232C89.8016 24.7176 91.0856 27.7666 92.0566 30.9128C95.1402 38.2641 96.2738 46.5304 95.1709 54.3067C95.1655 54.3453 95.1615 54.3879 95.1562 54.4265C95.0723 55.0006 94.2771 54.7955 94.2252 54.3067C94.0826 52.9507 93.8229 51.636 93.4885 50.3453C93.3926 50.292 93.3194 50.1988 93.2954 50.0523C93.2301 49.6353 93.1356 49.2331 93.053 48.8242C91.7516 44.6856 89.6644 40.8162 87.6344 36.9374C88.3084 39.724 88.676 42.5704 88.7106 45.3609C88.716 45.682 88.4402 45.8445 88.1818 45.8139C87.8115 44.659 87.4186 43.5148 87.0257 42.392C86.5915 41.1492 86.1386 39.7745 85.6071 38.4252C84.9118 37.4289 84.1965 36.4459 83.4559 35.4828C85.2861 40.4845 86.5142 45.654 88.0287 50.7329C88.1099 51.4096 88.1845 52.0876 88.2365 52.7669C88.2724 53.2278 87.7156 53.329 87.4293 53.1026C85.1156 51.2777 83.7489 48.5391 82.5488 45.9124C81.9761 44.6563 81.3593 43.4189 80.7426 42.1815C76.4629 34.998 73.7043 26.7636 73.0157 18.4346C69.021 22.958 65.0343 27.5122 60.4096 31.4069C55.3787 35.644 49.4912 39.4855 42.6914 39.5295C42.4596 39.5321 42.2971 39.3523 42.2492 39.1485C42.9724 38.4439 43.6637 37.702 44.3377 36.98C44.764 36.5218 45.2008 36.0676 45.6311 35.6081C50.9204 31.3843 55.8409 26.5211 59.1549 21.1558C59.3214 20.8868 59.0044 20.8349 58.8525 21.028C56.5202 24.009 53.4326 26.6224 50.3677 29.0893C48.4376 30.4386 46.5994 31.9557 44.7187 33.3303C42.5994 34.8768 40.4056 36.5178 37.727 36.8135C37.3873 36.8495 37.1209 36.3833 37.3168 36.1062C39.3361 33.2597 42.4143 31.0326 45.1835 28.8242C41.8881 30.5651 38.4676 32.2048 35.4599 34.4212C33.8349 35.6174 32.2764 36.9014 30.9751 38.4505C29.9041 39.7253 28.8878 41.0266 27.5785 42.0722C28.1925 40.1435 28.9318 38.2761 30.1692 36.3846C32.5242 32.7789 35.9168 30.0616 39.3347 27.5268C39.4999 27.4043 39.5372 27.0087 39.2508 27.1565C35.6731 29.0093 31.0377 32.6057 27.9874 36.8548C23.9182 41.0759 21.053 46.0629 20.0047 52.2994C17.3834 32.2647 34.2598 20.1489 51.4026 14.6037C50.2864 14.7809 49.1715 14.9687 48.0713 15.2218C45.1009 15.9038 42.1852 16.9507 39.3787 18.1349C38.5701 18.4759 37.7803 18.8515 36.9864 19.2191C34.1386 20.7496 31.428 22.5331 28.9078 24.5378C23.1229 29.1372 18.2012 34.9181 16.1073 42.1255C13.9774 49.4542 15.6438 57.0892 13.5445 64.4046C11.3454 72.0743 9.5512 79.3869 10.4183 87.4508C11.2442 95.1378 13.7443 102.413 17.2581 109.274C17.5099 109.765 16.9171 110.181 16.5122 109.842C9.67505 104.109 6.66474 96.0463 6.31709 87.4269C5.05568 92.0396 5.04636 96.8534 4.55485 101.629C4.49891 102.164 3.80626 102.269 3.62378 101.749C2.13593 97.5141 2.66475 92.9587 3.27747 88.6044C3.3121 88.3606 3.3414 88.1182 3.3747 87.8731C2.91383 89.273 2.51155 90.693 2.24249 92.1688C2.12527 92.8082 2.03204 93.4529 1.95079 94.0975C1.19821 97.9843 0.88651 101.906 1.5645 105.803C2.58614 111.68 5.10896 118.062 10.5369 120.491C9.75232 119.728 9.061 118.893 8.50289 118.144C5.94412 114.714 5.69771 111.216 5.42465 107.266C8.49225 113.864 15.111 118.381 22.4383 118.562C24.8918 118.885 27.4506 118.814 30.0027 118.292C29.7217 118.122 29.4539 117.94 29.1902 117.758C27.1909 116.762 25.3927 115.334 24.1286 113.795C22.9778 112.395 21.9827 110.878 21.1729 109.278C21.6564 109.976 22.1999 110.642 22.774 111.288C18.8632 105.503 17.4206 98.7049 16.9265 91.5428C16.8892 90.994 17.719 90.9154 17.8575 91.4216C19.2868 96.6523 20.9331 102.016 24.09 106.497C25.8042 108.931 27.5731 111.592 30.0733 113.286C31.424 114.2 32.9158 115.089 33.6497 116.602C33.7976 116.908 33.6151 117.322 33.2382 117.309C32.1339 117.268 31.043 117.072 29.9961 116.748C32.6747 118.14 35.6584 119.168 38.4596 119.356C41.2448 119.728 44.1033 119.553 46.9511 118.893C46.1013 118.725 45.2741 118.493 44.4576 118.235C44.4136 118.108 44.3191 117.999 44.1526 117.954C40.2485 116.875 36.9957 114.13 34.2025 111.3C32.7586 109.839 31.3933 108.315 30.1226 106.72C28.4629 104.443 27.2242 101.787 26.0627 99.3136C24.0021 94.926 22.2105 90.4679 21.3301 85.694C17.6164 87.014 15.2428 74.9207 15.0337 70.6197C14.064 73.2531 13.747 75.1485 13.1249 77.9217C12.6734 79.949 12.3084 82.1282 12.0447 84.3899C11.6424 80.9028 12.7467 77.0106 13.5392 73.8298C14.084 71.6373 14.6501 69.4568 15.1616 67.2644C16.1086 64.8015 17.1143 62.356 18.1359 59.9131C17.0743 56.0356 16.3923 52.1702 16.7826 48.0223C16.8346 45.7805 17.0943 43.4069 18.0494 41.5714C17.799 42.4492 17.5019 43.3337 17.41 44.1595C17.1289 46.649 17.1543 49.2331 17.2502 51.7306C17.442 56.7189 19.7397 61.0266 20.8026 65.8125C20.9025 66.2587 21.6364 66.284 21.719 65.8125C22.2145 62.9034 22.7726 60.0156 23.4453 57.1612C23.8183 56.3393 24.2285 55.5321 24.6361 54.7276C25.5938 50.649 27.9448 46.4918 29.8162 43.9704C31.428 41.7992 33.1875 39.8385 35.0497 38.0097C33.9228 39.4402 32.8852 40.9308 31.9328 42.4785C31.1496 43.6254 30.4423 44.8202 29.8296 46.0616C28.8665 47.5654 28.0194 49.1372 27.3707 50.7982C26.3264 53.4715 25.1849 57.6367 25.7683 60.7962C27.8329 52.5991 36.0354 47.5734 43.035 43.8678C48.7946 40.8175 54.9511 38.2201 60.3151 34.4852C64.4683 31.5947 69.3074 27.7027 71.7223 22.9114C72.1153 22.3054 72.4483 21.67 72.7533 21.024C72.4629 22.4439 72.1206 23.8465 72.2871 25.309C72.6134 28.1955 73.6977 31.1712 74.6048 33.9164C76.0393 38.2654 78.2438 42.312 80.6867 46.1855C83.5332 51.1072 86.9844 55.6666 89.4539 60.8068C90.5675 63.1245 91.4905 65.5554 91.6291 68.1368C91.7356 67.3976 93.4406 57.293 92.6334 52.9094C92.2231 50.6797 91.5492 48.4845 90.7979 46.3493C90.7127 46.1095 90.6181 45.8778 90.5222 45.6433C93.1649 51.1392 93.8069 57.4941 93.1862 63.648C93.2754 64.1075 93.3753 64.5644 93.4553 65.0253C93.5085 65.3316 93.8615 65.4316 94.1146 65.3277C94.0533 65.3037 94.0187 65.2437 94.052 65.1199C95.7743 58.6397 98.2851 52.4685 97.6164 45.5994C97.0889 40.1875 95.003 35.5335 93.3687 30.5091C93.6204 31.0673 93.8402 31.612 94.0426 32.0756C95.0669 34.4266 96.1618 36.7269 96.965 39.1672C98.3983 43.5228 98.5901 48.0236 98.4809 52.5404C98.2318 54.1442 97.9015 55.7333 97.4752 57.2997C97.418 57.5248 97.3713 57.7539 97.31 57.979C97.2967 57.9977 97.2861 58.0176 97.2741 58.0389C97.1462 58.4758 96.9957 58.9087 96.8572 59.3443C96.8145 60.4459 97.1049 61.6806 97.4992 62.9314C98.012 63.9424 98.3637 64.8907 98.5355 65.9737C98.7473 66.601 98.9364 67.2085 99.0616 67.7679C99.7649 70.9234 100.412 74.1282 100.704 77.3596C100.791 80.7829 100.78 84.2021 100.374 87.6387C99.9088 91.5761 99.7236 96.0356 97.9361 99.6893C99.6837 92.1741 100.109 84.4898 99.2041 76.8121C99.019 75.2377 98.7752 73.6767 98.5102 72.1209C98.2305 75.0832 97.6524 78.0789 96.9797 80.9653C96.0713 83.3709 94.69 85.7326 92.4656 86.1095C92.4562 86.1921 92.4376 86.2733 92.4269 86.3546C91.6104 87.1152 91.5065 88.7442 91.3147 89.7339C90.7167 92.8215 88.9517 95.7825 87.1708 98.4931C89.4699 95.9317 91.4759 93.1065 92.5881 89.8831C92.7853 89.3117 93.6883 89.5381 93.5032 90.1242C92.7439 92.5271 92.3883 95.0992 91.3893 97.4222C90.4756 99.5468 89.1356 101.53 87.6424 103.299C87.3547 103.796 87.071 104.294 86.8285 104.815C89.7616 103.246 91.661 99.8931 93.7736 97.4701C94.0906 97.1078 94.6847 97.4875 94.5661 97.9244C92.4016 105.899 87.6491 112.79 79.5718 115.517C79.1749 115.653 78.8458 115.164 79.0403 114.827C80.1206 112.951 81.4939 111.287 82.8299 109.595C81.2155 110.613 79.4226 111.347 77.5632 111.853C77.5219 111.864 77.4872 111.858 77.4499 111.86C76.8518 112.233 76.2485 112.598 75.6411 112.949C73.0863 114.424 69.9934 115.527 67.1043 116.068C66.9511 116.097 66.7899 116.125 66.6248 116.154C66.6474 116.205 66.6647 116.255 66.706 116.299C70.2545 119.934 77.6337 117.304 81.699 116.078C85.9281 114.803 89.8975 112.877 93.4046 110.299C93.378 110.355 93.3407 110.408 93.2887 110.457C93.2554 110.489 93.2168 110.518 93.1835 110.549C93.2714 110.484 93.358 110.416 93.4499 110.353C92.7013 111.441 91.4666 112.552 90.9577 113.072C89.5325 114.532 87.8888 115.732 86.4063 117.128C86.0906 117.425 86.3477 117.915 86.7406 117.934C92.1978 118.216 97.4766 116.495 102.129 113.71C100.9 115.013 99.6197 116.25 98.012 117.129C97.6723 117.314 97.731 117.753 98.0027 117.931C97.9934 117.936 97.9854 117.944 97.976 117.95C97.9854 117.944 97.9987 117.94 98.008 117.934C98.076 117.978 98.1532 118.011 98.2451 118.014C101.49 118.103 104.625 117.424 107.465 116.142C108.503 115.757 109.502 115.282 110.421 114.714C112.379 113.605 114.105 112.118 115.367 110.3C116.035 109.334 116.733 108.237 117.361 107.063C117.478 106.851 117.584 106.633 117.694 106.416C117.763 106.276 117.834 106.136 117.901 105.995C118.24 105.29 118.555 104.571 118.815 103.82C121.297 96.6869 119.373 89.1385 116.165 82.356Z" fill="#424241"/>
<path opacity="0.5" d="M24.1285 113.788C22.9777 112.388 21.9826 110.871 21.1728 109.271C21.6563 109.969 22.1998 110.635 22.7739 111.281C19.966 107.128 18.4342 102.447 17.6084 97.4879C17.282 96.4876 16.985 95.4766 16.7572 94.4429C16.1645 91.7403 15.6157 88.8778 15.5105 86.0753C13.9321 96.9764 16.8878 108.642 24.5881 116.614C24.9411 116.978 24.5787 117.468 24.1339 117.405C16.0912 116.284 6.5834 110.636 4.14317 102.756C3.56642 105.356 3.39459 108.005 3.97135 110.544C4.4562 112.681 5.32466 114.567 6.64068 116.308C7.45986 117.392 8.60006 118.965 9.94005 119.843C9.40858 119.267 8.91175 118.684 8.50549 118.139C5.94672 114.709 5.70029 111.212 5.42723 107.261C8.49483 113.86 15.1136 118.376 22.4409 118.557C24.8944 118.88 27.4532 118.809 30.0053 118.287C29.7242 118.117 29.4565 117.935 29.1928 117.753C27.1908 116.755 25.3939 115.326 24.1285 113.788Z" fill="#424241"/>
<path opacity="0.5" d="M44.4588 118.226C44.4149 118.099 44.3203 117.99 44.1538 117.945C40.2497 116.866 36.997 114.121 34.2038 111.291C32.7599 109.83 31.3946 108.306 30.1238 106.711C28.4641 104.434 27.2254 101.778 26.0639 99.3048C24.0033 94.9172 22.2118 90.459 21.3313 85.6851C21.306 85.6958 21.282 85.6971 21.2567 85.7051C20.7852 91.4727 22.4688 97.3894 25.306 102.454C27.0576 105.58 29.1382 108.746 31.685 111.288C33.9667 113.563 36.5867 115.415 39.1455 117.361C39.4518 117.596 39.4785 118.119 39.0309 118.229C36.2097 118.923 33.5338 118.363 31.0975 117.023C30.7259 116.943 30.3583 116.851 29.996 116.739C32.6746 118.131 35.6583 119.16 38.4595 119.347C41.2447 119.719 44.1032 119.545 46.951 118.884C46.1025 118.716 45.274 118.484 44.4588 118.226Z" fill="#424241"/>
<path opacity="0.5" d="M71.5279 23.2632C67.6331 28.807 61.5712 33.1866 55.7184 35.9092C46.7967 40.0584 36.4377 41.1826 29.9082 49.3171C29.6085 49.6901 28.9865 49.2905 29.117 48.8616C29.8803 46.3347 31.0311 44.0264 32.3631 41.8179C32.2219 42.0377 32.0687 42.2508 31.9328 42.4733C31.1496 43.6201 30.4424 44.815 29.8296 46.0564C28.8666 47.5602 28.0194 49.132 27.3708 50.793C26.3265 53.4663 25.1849 57.6315 25.7684 60.791C27.833 52.5939 36.0354 47.5682 43.0351 43.8626C48.7947 40.8123 54.9512 38.2149 60.3151 34.4799C64.3618 31.6628 69.0571 27.8892 71.5279 23.2632Z" fill="#424241"/>
<path opacity="0.5" d="M77.4499 111.854C76.8518 112.227 76.2484 112.592 75.641 112.944C73.3367 114.274 70.5967 115.277 67.9607 115.862C70.2784 116.798 73.703 115.705 75.8821 115.364C76.9877 115.192 78.0679 114.96 79.1295 114.678C80.1965 112.861 81.5271 111.236 82.8298 109.588C81.2154 110.606 79.4226 111.34 77.5631 111.846C77.5218 111.858 77.4885 111.853 77.4499 111.854Z" fill="#424241"/>
<path opacity="0.5" d="M107.609 105.832C107.801 105.236 107.992 104.644 108.19 104.063C108.231 103.942 108.308 103.863 108.397 103.81C108.516 102.668 108.603 101.528 108.613 100.384C108.259 101.605 107.793 102.799 107.175 103.947C105.44 107.168 102.708 110.47 99.501 112.792C102.739 111.079 105.463 108.795 107.609 105.832Z" fill="#424241"/>
<path opacity="0.5" d="M116.164 82.3513C114.995 78.7429 113.615 75.1678 112.364 71.6101C111.398 68.8661 110.442 66.1515 109.548 63.4209C109.876 66.3313 110.403 69.2138 111.181 72.035C113.073 78.8934 116.92 85.1165 118.419 92.0949C120.48 101.68 113.576 113.824 103.449 115.511C103.015 115.586 102.627 115.069 102.995 114.72C104.756 113.055 105.813 110.893 106.653 108.633C105.185 110.299 103.5 111.765 101.602 112.902C98.2383 114.921 93.3725 117.049 89.3805 116.458C89.174 116.428 89.0275 116.196 89.0275 116C89.0275 115.376 89.7002 115.18 90.1171 114.793C91.0801 113.904 91.9713 112.941 92.7039 111.85C93.6016 110.514 94.3755 109.114 94.9456 107.634C92.3122 109.442 89.6163 111.166 86.8337 112.686C84.552 113.933 82.1637 114.802 79.7075 115.462C79.6622 115.478 79.6196 115.495 79.573 115.511C79.5264 115.529 79.4824 115.534 79.4384 115.534C77.5617 116.024 75.6502 116.401 73.7095 116.716C71.5384 117.066 68.6106 117.585 66.6792 116.244C66.6899 116.263 66.6939 116.28 66.7085 116.296C70.257 119.931 77.6363 117.3 81.7015 116.075C85.9306 114.8 89.9 112.874 93.4071 110.295C93.3805 110.351 93.3432 110.405 93.2912 110.454C93.2579 110.486 93.2193 110.515 93.186 110.546C93.274 110.48 93.3605 110.413 93.4524 110.35C92.7038 111.438 91.4691 112.549 90.9602 113.069C89.535 114.528 87.8913 115.729 86.4088 117.124C86.0931 117.422 86.3502 117.912 86.7432 117.93C92.2004 118.213 97.4791 116.492 102.132 113.707C100.902 115.009 99.6223 116.247 98.0145 117.126C97.6749 117.311 97.7335 117.749 98.0052 117.928C97.9959 117.933 97.9879 117.941 97.9786 117.946C97.9879 117.941 98.0012 117.937 98.0105 117.93C98.0785 117.974 98.1557 118.008 98.2476 118.01C101.492 118.1 104.628 117.42 107.468 116.139C108.505 115.754 109.504 115.278 110.423 114.711C112.381 113.601 114.108 112.115 115.369 110.297C116.038 109.331 116.736 108.233 117.363 107.06C117.48 106.848 117.587 106.63 117.696 106.413C117.765 106.273 117.836 106.133 117.904 105.992C118.242 105.287 118.558 104.568 118.818 103.816C121.297 96.6823 119.373 89.1338 116.164 82.3513Z" fill="#424241"/>
<path opacity="0.5" d="M104.717 114.244C105.929 113.895 107.082 113.379 108.163 112.735C107.899 112.809 107.63 112.872 107.349 112.912C107.012 112.957 106.674 112.711 106.773 112.334C107.086 111.146 107.357 109.948 107.608 108.745C106.886 110.718 106.02 112.631 104.717 114.244Z" fill="#424241"/>
<path opacity="0.5" d="M95.1787 109.473C94.5953 110.668 93.8946 111.808 93.1114 112.891C92.3082 114.002 91.3585 114.983 90.3115 115.862C90.7657 115.48 92.7384 115.254 94.0838 114.965C94.0531 114.853 94.0598 114.733 94.1304 114.626C95.3305 112.865 96.9436 111.58 98.4647 110.112C100.114 108.52 101.295 106.624 102.053 104.455C102.193 104.054 102.321 103.651 102.443 103.246C100.692 106.2 98.3488 108.57 95.1787 109.473Z" fill="#424241"/>
<path opacity="0.5" d="M84.4428 51.3509C82.2303 48.0808 80.1364 44.7149 78.3649 41.1811C75.3479 35.1631 73.1781 28.6936 72.5534 21.9936C72.3336 23.0845 72.1578 24.1781 72.2856 25.3036C72.612 28.19 73.6962 31.1657 74.6033 33.911C76.0379 38.26 78.2423 42.3066 80.6852 46.18C83.5317 51.1018 86.9829 55.6612 89.4525 60.8014C90.566 63.1191 91.4891 65.55 91.6276 68.1314C91.7342 67.3922 93.4391 57.2876 92.6319 52.904C92.3362 51.2963 91.9007 49.7059 91.3999 48.1434C91.0429 47.5134 90.6686 46.8913 90.2876 46.2706C90.6193 47.3908 90.9496 48.511 91.1854 49.6526C91.8474 52.8467 91.8287 56.3099 91.1374 59.504C91.0562 59.8797 90.602 59.9383 90.3449 59.7185C89.1607 58.7035 88.4814 57.3516 87.6556 56.0529C86.6406 54.4518 85.5044 52.9226 84.4428 51.3509Z" fill="#424241"/>
<path opacity="0.5" d="M94.1091 56.3109C93.9706 53.575 93.0262 51.1614 91.7954 48.861C93.3419 53.547 93.6909 58.6566 93.186 63.6436C93.2753 64.1031 93.3752 64.56 93.4551 65.0209C93.5084 65.3272 93.8613 65.4271 94.1144 65.3232C94.0531 65.2992 94.0185 65.2393 94.0518 65.1154C95.7741 58.6352 98.2849 52.4641 97.6162 45.5949C97.6016 45.4458 97.5736 45.3019 97.5576 45.1527C97.4577 49.1287 96.7198 53.0355 94.9935 56.5467C94.7724 56.9942 94.1317 56.7545 94.1091 56.3109Z" fill="#424241"/>
<path opacity="0.5" d="M34.4022 38.664C35.1121 37.6291 35.8407 36.6008 36.5667 35.5738C28.564 41.063 21.7509 48.1452 21.0622 58.2045C21.0382 58.5734 20.54 58.8851 20.255 58.5388C18.1331 55.9641 17.563 52.0307 17.1914 48.718C17.1927 49.729 17.2127 50.736 17.25 51.7296C17.4418 56.718 19.7395 61.0256 20.8025 65.8115C20.9024 66.2577 21.6363 66.2831 21.7189 65.8115C22.2144 62.9024 22.7725 60.0147 23.4452 57.1602C23.8181 56.3383 24.2284 55.5312 24.6359 54.7266C25.5937 50.648 27.9446 46.4909 29.8161 43.9694C31.2387 42.0527 32.7811 40.3064 34.4022 38.664Z" fill="#424241"/>
<path opacity="0.5" d="M54.1916 10.0369C44.9222 10.583 35.9299 13.6892 28.5879 18.9613C23.6862 21.9024 18.3742 28.565 18.5633 28.1042C21.9453 19.903 29.2326 13.889 36.845 9.71322C40.9116 7.48212 45.1633 5.56006 49.6735 4.42386C53.1087 3.55939 56.5933 2.98929 60.0978 2.52309C57.3925 2.39389 54.5646 2.41653 51.8593 2.90137C37.5856 4.2094 24.8423 11.5541 16.167 23.3676C13.9412 26.4005 12.2803 29.7825 11.0655 33.3336C9.48306 40.0695 9.3765 47.1424 9.49771 54.1061C9.60027 59.9923 10.5993 66.1501 9.63758 71.9589C9.8587 71.3689 10.0758 70.7761 10.2836 70.1834C11.1387 65.8211 10.9243 61.4974 10.9429 56.6223C10.9602 52.5983 11.3279 48.6183 11.8367 44.641C11.6129 48.3719 11.7608 52.0722 12.4201 55.2863C12.524 55.7871 13.146 55.2956 13.1594 54.9653C13.5483 44.3772 16.7691 32.7395 24.4521 25.0659C33.1966 16.3293 45.82 12.9407 57.5137 10.6976C57.5896 10.6829 57.6789 10.619 57.7561 10.5364C56.5786 10.3153 55.3891 10.1488 54.1916 10.0369Z" fill="#424241"/>
<path opacity="0.5" d="M83.9165 40.4754C83.9099 40.4394 83.9019 40.4021 83.8939 40.3662C82.4673 35.4564 81.9332 30.5999 81.2299 25.5623C82.4913 28.4661 83.6528 31.7908 86.1676 33.2839C86.438 33.4438 86.7564 33.0468 86.8136 32.8337C87.0441 31.9852 87.1107 30.9969 87.0601 29.9393C88.837 33.9086 90.2222 38.0005 91.9352 42.0045C90.9028 36.4634 90.0304 30.8317 88.2748 25.501C87.1666 22.1324 85.3444 18.8677 83.2199 16.0225C82.053 14.4601 80.7157 11.9146 78.7923 11.0581C81.4071 15.1234 83.9258 19.7894 83.9844 24.5567C83.9884 24.9789 83.469 25.1694 83.1773 24.891C81.6468 23.4364 80.797 21.5503 79.9112 19.6789C79.9099 21.882 79.9498 24.0865 80.0431 26.2896C80.0671 26.857 79.2825 26.893 79.1133 26.4108C78.2742 24.0012 77.78 21.5264 77.4496 18.9996C77.3084 17.91 77.2512 16.7458 77.1366 15.5963C77.0341 14.9756 76.9502 14.3735 76.8796 13.8074C76.7903 13.3572 76.6838 12.9163 76.5399 12.4927C76.2389 11.6136 75.6355 11.4298 74.9015 11.6083C74.5339 11.8733 74.2262 12.1424 74.1543 12.2037C73.2325 12.9869 72.3041 13.7621 71.3651 14.5254C70.1583 15.5044 69.0074 16.534 67.8166 17.5263C67.2146 18.0258 64.9129 20.3395 64.1203 18.9862C63.3598 17.6862 64.8889 15.9186 65.6242 14.9769C66.7084 13.5863 68.1017 12.3289 69.2312 10.937C66.835 11.8947 64.5186 13.3519 62.3368 14.6386C60.5719 15.6775 58.7337 16.8976 56.6425 17.0708C56.2522 17.1014 55.9871 16.5154 56.3082 16.2623C56.7424 15.9226 59.6848 13.9659 61.9225 12.4008C61.2112 12.6099 60.4946 12.8044 59.7714 12.9842C57.3098 14.1484 54.7177 14.8863 52.1443 15.7614C50.1064 16.4541 48.0458 17.2946 46.0198 18.2496C42.8749 19.559 39.8393 21.3479 37.2699 23.0315C34.791 24.6552 31.6581 26.7851 29.11 29.2586C27.8406 30.8091 26.7111 32.4674 25.7361 34.231C27.0494 32.8004 28.6865 31.6429 30.2928 30.5733C32.3814 29.1814 34.4913 27.86 36.6958 26.7012C40.7917 24.1291 45.2472 22.1497 49.6868 20.2716C50.4207 19.9612 51.152 19.6456 51.8819 19.3285C48.0058 21.9925 44.4174 25.1374 40.6078 27.8267C40.3707 27.9932 40.1523 28.4434 40.2256 28.7125C41.9279 28.5234 43.7074 27.7601 45.1913 27.2646C45.812 27.0568 46.4247 26.8331 47.0428 26.6173C48.6079 25.8261 50.1343 24.9363 51.6222 24.0651C54.9415 22.5746 57.8812 20.2516 61.1113 18.564C63.1773 17.4864 60.4666 21.898 60.5879 21.7368C59.7767 22.8171 59.0427 23.9546 58.2981 25.0801C56.4134 27.9213 54.1397 30.4494 51.8886 33.0002C51.826 33.0708 51.77 33.1867 51.7367 33.3052C52.2535 33.2013 52.769 33.0868 53.2752 32.9243C54.6431 32.4807 55.9618 31.872 57.2219 31.1687C59.4663 29.565 61.503 27.5443 63.3997 25.7768C64.1563 25.0721 64.8529 24.3222 65.5229 23.5536C67.2199 22.1204 68.809 20.5313 70.2981 18.9449C71.6794 17.4731 73.2805 15.9239 74.5539 14.2243C74.1317 17.6755 75.0374 21.9206 75.6981 24.6672C77.2898 31.2966 80.0777 38.5067 84.2242 43.9759C84.3734 44.1717 84.6411 44.0159 84.793 43.8014C84.432 42.7132 84.1256 41.6063 83.9165 40.4754Z" fill="#424241"/>
<path opacity="0.5" d="M9.91729 94.669C9.36851 92.0756 9.04485 89.4476 9.13276 86.7916C9.22733 83.9371 9.48706 81.0893 9.14341 78.2654C7.57031 87.6627 6.96556 97.8019 13.6815 105.538C13.824 105.703 14.1077 105.55 14.2489 105.349C12.155 102.107 10.7098 98.4146 9.91729 94.669Z" fill="#424241"/>
<path opacity="0.5" d="M110.282 77.8084C108.639 73.169 107.02 68.3512 105.578 63.4467C105.426 62.6395 105.295 61.8297 105.163 61.0212C104.254 56.8707 103.678 52.6788 103.321 48.3658C103.207 46.9952 103.103 45.6166 102.984 44.2419C102.613 41.4754 102.184 38.7142 101.604 35.9649C100.636 31.3748 98.8896 27.5014 96.5346 24.0182C95.2613 22.2506 93.8267 20.6136 92.2456 19.1111C95.9206 24.3965 98.7751 30.3079 100.051 36.5443C101.004 41.1997 101.302 45.9469 101.295 50.6902C101.295 51.7851 101.291 52.8813 101.302 53.9776C102.63 61.1664 104.716 68.2965 107.003 75.1244C107.568 77.6325 108.187 80.0701 108.597 82.5436C107.773 78.4144 105.835 74.5276 104.001 70.6928C103.733 70.3292 102.184 68.0182 101.911 67.6599C103.935 72.6775 105.395 80.2246 105.338 85.506C105.27 91.9276 104.132 97.9775 101.604 103.78C103.897 101.14 105.686 98.7301 106.931 96.0315C106.679 98.0202 106.328 100.051 105.967 102.221C106.919 101.47 107.753 100.488 108.354 99.5759C108.491 99.3655 108.712 99.3282 108.901 99.3855C109.756 97.7484 110.244 95.9848 110.609 94.1067C111.389 98.4064 110.844 102.835 110.827 107.184C112.352 105.94 113.4 103.884 114.07 101.72C115.604 93.8204 112.874 85.1277 110.282 77.8084Z" fill="#424241"/>
<path opacity="0.5" d="M30.369 115.226C22.73 110.534 20.1365 102.626 17.9081 94.37C17.8748 94.2421 17.6577 94.4006 17.671 94.5019C18.9004 103.009 21.4739 112.078 30.1172 115.593C30.2957 115.665 30.5648 115.346 30.369 115.226Z" fill="#424241"/>
<path d="M71.9766 56.1469C70.1744 56.7543 68.5307 57.652 66.8577 58.5445C66.165 58.9148 65.4657 59.2784 64.7771 59.662C65.4724 59.2744 60.8863 60.9994 61.3179 59.4303C61.3405 59.349 61.242 59.3437 61.1954 59.3756C61.1514 59.4063 61.1087 59.4369 61.0648 59.4689C61.0075 59.5075 60.9396 59.5888 60.9516 59.6647C61.4058 62.5019 64.0805 61.2498 65.6682 60.4319C69.9826 58.2115 74.9616 55.1759 79.3811 59.1372C79.5423 59.2824 79.7728 59.004 79.7341 58.8442C78.9669 55.7247 74.4874 55.3011 71.9766 56.1469Z" fill="#FAD6BE"/>
<path d="M80.0082 58.3096C79.9522 58.2111 79.8963 58.1205 79.839 58.0233C79.8377 58.0193 79.8417 58.014 79.839 58.0086C79.8044 57.9474 79.7658 57.8941 79.7285 57.8341C79.6765 57.7529 79.6246 57.673 79.5726 57.5917C79.5527 57.5637 79.534 57.5344 79.514 57.5064C75.7937 51.9999 69.3322 54.6626 63.9656 56.7046C63.4887 56.8698 62.9959 57.0536 62.471 57.2494C62.4697 57.2201 62.4724 57.1868 62.4724 57.1561C62.4537 57.1694 62.4351 57.1801 62.4165 57.1921C61.9343 57.5557 60.9992 58.1858 60.9446 58.8677C61.2603 60.2903 62.2086 61.2893 64.0441 60.2544C66.3418 58.9597 68.7315 57.9194 71.2569 57.1428C73.5027 56.4502 75.3342 56.5861 77.1777 57.344C77.9329 57.7116 78.6868 58.1778 79.4847 58.7425C79.7085 58.9011 80.1494 58.564 80.0082 58.3096Z" fill="#424241"/>
<path d="M73.6428 55.4299C71.1812 55.5964 68.7277 56.6967 66.5512 57.7876C64.5678 58.7799 62.7337 60.2625 61.0593 59.2581C61.4563 60.4596 62.3833 61.1948 64.0457 60.2584C66.3434 58.9637 68.733 57.9234 71.2585 57.1469C73.5042 56.4542 75.3357 56.5901 77.1792 57.348C77.9345 57.7157 78.6884 58.1819 79.4862 58.7466C79.5395 58.7839 79.6061 58.7919 79.674 58.7799C78.0783 57.1069 76.035 55.2688 73.6428 55.4299Z" fill="#424241"/>
<path d="M61.4017 61.9751C59.433 61.666 58.482 60.414 58.7377 57.1812C58.7511 57.016 58.5526 57.1266 58.5233 57.2212C58.0664 58.7476 57.9891 60.0397 58.811 61.4383C59.3425 62.344 60.2815 63.006 61.3045 62.4506C61.451 62.3733 61.7068 62.023 61.4017 61.9751Z" fill="#E9C8B2"/>
<path d="M54.9867 59.5232C54.5951 60.124 53.9411 61.1776 54.2568 61.9155C54.3527 62.1379 54.671 61.9075 54.723 61.7676C54.8482 61.424 54.8575 61.6345 54.9375 61.2775C55.0267 60.8872 55.1426 59.9335 55.2172 59.5405C55.2465 59.3754 55.0387 59.4393 54.9867 59.5232Z" fill="#E9C8B2"/>
<path d="M50.4406 57.7863C50.3088 57.6784 50.1223 57.6624 49.9731 57.7477C49.1313 58.2245 48.5625 59.7657 47.5568 59.7803C45.3111 59.8163 43.2745 56.9232 41.6281 55.6698C39.0041 53.6731 36.3467 55.6058 34.5991 57.6371C34.5046 57.749 34.5045 57.9941 34.7057 57.8955C36.4786 57.0404 37.9118 55.8229 39.9951 56.6381C41.8492 57.3614 43.1892 59.4567 44.8755 60.5342C45.443 60.8979 45.8079 61.2975 46.4566 61.3627C47.5156 61.7104 48.4746 61.5053 49.5895 60.4676C50.2142 59.8869 51.4236 58.5908 50.4406 57.7863Z" fill="#FAD6BE"/>
<path d="M45.2697 57.0058C44.998 56.746 41.5321 54.126 40.8262 53.833C40.3307 53.6305 39.8418 53.5373 39.3676 53.5346C38.7363 53.6145 38.0982 53.821 37.4349 54.2365C36.5118 54.8186 35.3423 55.8603 34.6843 56.9512C34.6937 57.175 34.7003 57.4001 34.7083 57.6252C34.7043 57.5239 35.5701 56.9885 35.7113 56.8779C36.2694 56.4437 36.8475 56.0121 37.5402 55.8243C38.9521 55.442 40.2974 56.4157 41.355 57.2242C42.5218 58.114 43.6247 59.113 44.9061 59.8416C45.5974 60.2332 46.346 60.5462 47.1399 60.6435C48.6797 60.8326 49.8984 59.6938 50.5018 58.3618C50.5058 57.7997 50.4139 57.2416 50.1608 56.8579C48.5451 57.1017 46.7256 58.4044 45.2697 57.0058Z" fill="#424241"/>
<path d="M50.3446 58.0397C49.7919 58.7483 49.1419 59.357 48.2108 59.5529C47.7433 59.6501 47.1239 59.6141 46.5485 59.4543C46.0623 59.3664 45.5454 59.1346 44.9767 58.7097C43.682 57.7453 42.5778 56.2655 41.1632 55.5062C38.8096 54.2408 35.9324 55.2452 34.7283 57.5908C34.8375 57.4416 35.5808 56.9794 35.7087 56.8782C36.2668 56.444 36.8448 56.0124 37.5375 55.8246C38.9494 55.4423 40.2947 56.416 41.3523 57.2245C42.5192 58.1143 43.622 59.1133 44.9034 59.8419C45.5947 60.2335 46.3433 60.5465 47.1372 60.6438C48.673 60.8329 49.8904 59.6994 50.4952 58.37C50.4619 58.2541 50.4152 58.1436 50.3446 58.0397Z" fill="#424241"/>
<path d="M50.7495 61.5104C51.0798 61.5903 51.4315 61.5943 51.7831 61.5437C52.3359 61.1214 52.7595 60.5074 52.934 59.864C52.9619 59.7575 52.982 59.6389 52.9953 59.515C52.9433 58.7944 52.7795 57.878 52.2746 57.7648C52.3825 58.3082 52.3453 58.8943 52.2787 59.4285C52.1614 60.3329 51.4235 60.9789 50.7495 61.5104Z" fill="#E9C8B2"/>
<path d="M68.6332 74.465C69.511 74.3811 70.2969 74.2599 70.7977 74.1906C73.8666 73.7711 78.161 72.9186 80.9169 71.1004C81.2752 70.7394 81.5709 70.3372 81.7881 69.887C81.5217 69.9949 81.142 70.3585 80.881 70.4677C80.2603 68.487 79.2026 66.7075 77.5949 65.6126C76.1457 64.6269 74.4354 63.8596 72.5679 63.9595C73.2766 63.8183 74.0025 63.7025 74.7338 63.5946C70.7618 63.2643 67.2533 64.6122 64.8863 67.0884C63.6262 68.7894 62.9083 71.0738 63.4251 73.0318C63.525 73.4088 63.7514 73.6965 64.0631 73.9176C66.5992 77.4168 72.4667 76.3658 75.6489 74.1627C75.7834 74.0708 75.8713 73.6805 75.5982 73.7697C72.8517 74.6835 69.9665 75.1883 67.2786 74.5449C67.7368 74.5329 68.1963 74.5036 68.6332 74.465Z" fill="#FAD6BE"/>
<path d="M80.4946 70.6004C80.3641 70.1862 79.8686 69.4696 79.6861 69.0687C78.9735 67.7127 78.1676 66.651 76.2322 65.8092C74.3395 64.986 72.5066 64.9501 70.3661 65.3763C65.9838 66.2475 64.1589 69.4442 64.3894 72.3307C64.2735 72.8062 64.2935 73.3044 65.0061 73.4629C66.9761 73.9025 69.1566 73.7413 71.2119 73.5681C73.483 73.3777 76.4746 72.8395 78.5686 71.742C78.5872 71.7286 80.071 71.1186 80.4946 70.6004Z" fill="#81400F"/>
<path d="M67.2731 73.4564C64.9434 73.3618 64.5612 72.1044 64.737 71.4011C65.1139 68.6159 67.2265 66.205 71.6021 65.5456C76.0084 64.8836 78.2927 67.6396 79.7646 69.9879C79.3144 71.7634 73.8852 73.0914 70.7949 73.3125C69.9185 73.3751 68.3574 73.4804 67.2731 73.4564Z" fill="white"/>
<path d="M71.7368 63.884C71.0855 63.9652 70.4474 64.0731 69.8267 64.2036C65.936 65.4744 63.3759 68.522 63.6982 71.8387C63.7035 71.8867 63.7515 71.8893 63.8021 71.8733C63.8541 71.7108 63.9033 71.547 63.9686 71.3871C64.1324 69.5263 64.7984 67.7681 66.4621 66.2523C68.1031 64.7565 70.6832 64.0824 73.1687 63.8067C72.6066 63.8267 71.9899 63.8547 71.7368 63.884Z" fill="#81400F"/>
<path d="M68.2176 75.5602C68.3654 75.5682 68.5146 75.5762 68.6625 75.5789C68.7424 75.5829 68.8183 75.5856 68.8956 75.5882C69.1793 75.5909 69.4657 75.5842 69.752 75.5696C69.772 75.5682 69.792 75.5682 69.8133 75.5669C69.9825 75.5589 70.153 75.5416 70.3235 75.5296C71.9112 75.3684 73.5349 74.9329 74.9895 74.4107C71.4823 75.1034 67.5769 75.5163 64.3428 73.9006C65.3857 74.9315 66.7377 75.4284 68.2176 75.5602Z" fill="#81400F"/>
<path d="M44.2242 76.0161C44.0764 76.0374 43.9286 76.0588 43.7807 76.0761C43.7034 76.0881 43.6275 76.0974 43.5516 76.1067C43.2692 76.136 42.9828 76.156 42.6951 76.1693C42.6765 76.1693 42.6565 76.1706 42.6365 76.172C42.4673 76.18 42.2942 76.1799 42.125 76.1826C40.5293 76.172 38.8736 75.8896 37.3738 75.506C40.9302 75.8669 44.857 75.9122 47.9259 73.9995C46.9842 75.1263 45.6854 75.747 44.2242 76.0161Z" fill="#81400F"/>
<mask id="mask0_30_142" style="mask-type:luminance" maskUnits="userSpaceOnUse" x="64" y="65" width="16" height="9">
<path d="M67.2731 73.4642C64.9434 73.3696 64.5612 72.1122 64.737 71.4089C65.1139 68.6237 67.2265 66.2128 71.6021 65.5534C76.0084 64.8914 78.2927 67.6474 79.7646 69.9957C79.3144 71.7713 73.8852 73.0992 70.7949 73.3203C69.9185 73.3829 68.3574 73.4882 67.2731 73.4642Z" fill="white"/>
</mask>
<g mask="url(#mask0_30_142)">
<path d="M75.3396 69.7616C75.5221 72.5521 73.9583 74.9271 71.8484 75.0656C69.7412 75.2041 67.8831 73.0503 67.7006 70.2624C67.5194 67.4719 69.0805 65.0982 71.1878 64.961C73.2977 64.8225 75.1571 66.9737 75.3396 69.7616Z" fill="#220300"/>
<path d="M71.2104 65.3091C69.2817 65.437 67.8538 67.6068 68.0203 70.163C68.1881 72.7151 69.8877 74.6838 71.8151 74.5572C73.7466 74.4307 75.1745 72.2582 75.008 69.7048C74.8415 67.1486 73.1418 65.1826 71.2104 65.3091Z" fill="#7F4A23"/>
<path d="M73.8677 69.5785C73.9822 71.3394 72.9979 72.8366 71.6685 72.9246C70.3365 73.0111 69.1657 71.6551 69.0498 69.8956C68.9353 68.1347 69.9223 66.6388 71.2516 66.5509C72.581 66.463 73.7518 67.8176 73.8677 69.5785Z" fill="#0A000B"/>
<path d="M70.824 68.7416C70.7042 69.5368 70.206 70.1216 69.7145 70.0456C69.223 69.9724 68.9233 69.2638 69.0445 68.4659C69.1684 67.672 69.6626 67.0886 70.1554 67.1618C70.6469 67.2391 70.9479 67.9437 70.824 68.7416Z" fill="#FFFAE2"/>
<path d="M73.5721 72.1526C71.4502 74.7513 69.0832 72.9971 68.7888 70.1559C68.7795 70.0774 68.3027 70.5689 68.3106 70.6235C68.5198 72.1913 69.2511 73.5712 70.8055 74.128C72.1455 74.6048 73.2763 73.7017 73.9264 72.6454C73.981 72.5602 73.6293 72.0847 73.5721 72.1526Z" fill="#7F4A23"/>
<path d="M74.1168 68.2443C74.1168 68.2443 74.6483 70.0451 73.8491 71.6848L74.2021 71.8647C74.2021 71.8647 75.2477 70.3355 74.1168 68.2443Z" fill="#7F4A23"/>
</g>
<path d="M47.6674 66.6838C45.2125 64.0744 41.696 62.7823 37.8092 63.3764C38.5352 63.455 39.2558 63.5402 39.959 63.6561C38.1196 63.6535 36.4785 64.6018 35.1026 65.778C33.5774 67.0847 31.8405 69.2065 32.2255 71.3244C31.963 71.2192 31.4649 70.8609 31.1985 70.757C31.4356 71.2419 31.7473 71.6721 32.1176 72.053C34.9188 73.9112 39.1838 74.6065 42.2235 74.8995C42.5392 74.9289 42.9734 74.9768 43.4702 75.0181C41.3004 75.3657 39.0493 75.4257 36.9248 75.3084C38.8255 77.1333 42.4153 76.7217 44.717 76.2155C46.7416 75.7706 49.2791 73.8965 49.4083 73.1919C49.8132 70.9888 48.99 68.498 47.6674 66.6838Z" fill="#FAD6BE"/>
<path d="M34.4525 72.5577C36.5677 73.7032 39.5354 74.1454 41.7772 74.2307C43.8085 74.3093 45.961 74.3652 47.8724 73.7378C48.565 73.5114 48.5597 72.936 48.4225 72.3912C48.5011 69.0359 46.5457 65.4448 42.1954 64.6989C40.0696 64.3339 38.2687 64.4871 36.4518 65.5514C34.5923 66.641 33.8531 67.921 33.2217 69.5327C33.0632 70.0069 32.6144 70.8674 32.5051 71.3536C32.946 71.9263 34.4365 72.543 34.4525 72.5577Z" fill="#81400F"/>
<path d="M40.7715 63.5286C41.4176 63.5806 42.0476 63.6645 42.6643 63.775C46.5537 64.9605 49.2244 68.192 49.0752 71.8869C49.0739 71.9402 49.0273 71.9442 48.9753 71.9322C48.9167 71.7537 48.8608 71.5766 48.7902 71.4034C48.5318 69.3482 47.7899 67.438 46.0769 65.853C44.3879 64.2892 41.8158 63.6885 39.3596 63.526C39.9137 63.5153 40.5211 63.51 40.7715 63.5286Z" fill="#81400F"/>
<path d="M42.1742 73.9165C39.1252 73.8432 33.7226 72.6324 33.1885 70.6011C34.5165 67.7946 36.6237 64.4686 40.9873 64.9721C45.3203 65.4729 47.5194 68.1369 48.0309 71.3391C48.2401 72.1436 47.927 73.6194 45.6426 73.8685C44.5784 73.9618 43.0413 73.9351 42.1742 73.9165Z" fill="white"/>
<mask id="mask1_30_142" style="mask-type:luminance" maskUnits="userSpaceOnUse" x="33" y="64" width="16" height="10">
<path d="M42.1742 73.9131C39.1252 73.8398 33.7226 72.629 33.1885 70.5977C34.5165 67.7912 36.6237 64.4652 40.9873 64.9687C45.3203 65.4695 47.5194 68.1335 48.0309 71.3356C48.2401 72.1402 47.927 73.616 45.6426 73.8651C44.5784 73.9583 43.0413 73.9317 42.1742 73.9131Z" fill="white"/>
</mask>
<g mask="url(#mask1_30_142)">
<path d="M45.1111 69.8703C44.9818 72.6302 43.185 74.7907 41.0977 74.6935C39.0132 74.5962 37.4267 72.2772 37.5559 69.5173C37.6852 66.7587 39.478 64.5982 41.5653 64.6955C43.6512 64.7927 45.2403 67.109 45.1111 69.8703Z" fill="#220300"/>
<path d="M41.5478 65.0386C39.6404 64.9494 37.998 66.9234 37.8808 69.4515C37.7622 71.9783 39.2141 74.0989 41.1216 74.1881C43.0317 74.276 44.6753 72.3007 44.7925 69.7752C44.9111 67.2471 43.4579 65.1279 41.5478 65.0386Z" fill="#7F4A23"/>
<path d="M43.6858 69.5291C43.6045 71.2713 42.4724 72.6326 41.1577 72.57C39.8417 72.5088 38.8386 71.0476 38.9199 69.3053C39.0011 67.5644 40.1347 66.2044 41.452 66.2657C42.7654 66.3256 43.7657 67.7868 43.6858 69.5291Z" fill="#0A000B"/>
<path d="M40.7887 68.3659C40.5823 69.1331 40.0295 69.6526 39.5553 69.5234C39.0811 69.3969 38.864 68.6683 39.0718 67.8984C39.2809 67.1338 39.831 66.613 40.3079 66.7409C40.7821 66.8714 41.0005 67.596 40.7887 68.3659Z" fill="#FFFAE2"/>
<path d="M43.1115 72.025C40.7406 74.3427 38.608 72.3594 38.6334 69.5355C38.6334 69.4569 38.1112 69.8885 38.1126 69.9418C38.1432 71.5042 38.7106 72.9401 40.1745 73.6581C41.4399 74.2761 42.6493 73.5129 43.4046 72.5459C43.4672 72.4699 43.1755 71.9638 43.1115 72.025Z" fill="#7F4A23"/>
<path d="M44.0776 68.2391C44.0776 68.2391 44.4012 70.0653 43.4355 71.5904L43.7605 71.8049C43.7605 71.8049 44.958 70.4196 44.0776 68.2391Z" fill="#7F4A23"/>
</g>
<path d="M53.1473 68.6932C53.1473 68.6932 54.8137 70.9243 55.0255 72.5054C55.0255 72.5054 54.4954 77.3219 52.1404 80.1484C52.1404 80.1484 54.2703 75.8647 53.8467 72.4667L53.1473 68.6932Z" fill="#AC641B"/>
<path d="M58.1051 85.0946C57.0248 85.4183 55.3811 84.683 53.6921 83.8998C52.0098 83.1193 50.514 81.8778 51.7141 80.4939C51.7141 80.4939 51.6475 81.8233 56.223 82.4599C56.223 82.4599 57.2845 82.8582 60.175 81.8659C60.175 81.8659 58.5926 83.4763 56.4174 83.3151C54.2423 83.1513 52.817 82.1976 52.817 82.1976C52.817 82.1976 53.9678 83.5509 56.9648 84.5112C56.9648 84.5112 57.8959 85.1772 60.163 83.439C60.163 83.439 59.1853 84.763 58.1051 85.0946Z" fill="#AC641B"/>
<path d="M58.1051 85.0946C57.0248 85.4183 55.3811 84.683 53.6921 83.8998C52.0098 83.1193 50.514 81.8778 51.7141 80.4939C51.7141 80.4939 51.6475 81.8233 56.223 82.4599C56.223 82.4599 57.2845 82.8582 60.175 81.8659C60.175 81.8659 63.128 80.2728 60.1643 83.4403C60.1643 83.4403 59.1853 84.763 58.1051 85.0946Z" fill="#FAD6BE"/>
<path d="M54.9229 77.9099C55.4304 76.3754 56.1764 74.8649 56.183 73.2372C56.1937 71.19 55.3359 69.9485 54.1278 68.5579C54.1064 68.6125 54.0998 68.6685 54.1197 68.7138C54.3875 69.2959 54.6432 69.8486 54.8723 70.3828C55.3186 71.9332 55.4264 73.4584 54.9935 75.162C54.5926 76.7364 53.6376 78.0537 53.1394 79.5509C53.7694 79.0248 54.3715 78.4867 54.9229 77.9099Z" fill="#FAEDE6"/>
<path d="M57.7173 81.3324C58.2674 80.6145 56.7077 80.3041 56.3547 80.3174C55.8725 80.3361 55.409 80.456 54.9388 80.5465C54.7949 80.8129 54.8096 81.1832 55.044 81.4176C55.3264 81.7014 55.6994 81.9291 56.0963 82.0384C56.7144 82.0517 57.3311 81.8346 57.7173 81.3324Z" fill="#FAEDE6"/>
<path d="M63.0894 101.066C58.0371 102.103 47.1333 103.079 44.6904 97.9308C44.6504 97.8442 44.6278 97.7456 44.5905 97.655C43.822 96.375 43.2878 94.5342 43.4543 93.029C43.4543 92.8905 43.4543 92.752 43.473 92.6054L43.4796 92.4136C43.4836 92.3484 43.5063 92.2911 43.5382 92.2418C43.8286 90.9711 44.8036 89.6764 46.5379 89.8788C49.8399 90.2611 53.0754 90.2278 56.3574 90.1559C58.2022 89.984 60.0404 89.7709 61.8919 89.6404C63.79 89.5059 65.3844 89.2075 67.2825 89.4539C69.752 89.7736 70.3035 91.8209 70.3701 93.4539C70.4207 94.6474 70.1729 96.0447 69.8372 97.1955C69.11 99.6837 65.7027 100.532 63.0894 101.066Z" fill="#8C0C00"/>
<path d="M64.8783 89.0622C61.9452 89.1901 59.0641 89.5324 56.155 89.8228C53.1873 90.1171 50.3887 89.8427 47.4344 89.6363C46.6272 89.5777 45.9758 89.6243 45.4417 89.7588C45.146 89.8108 44.8649 89.8827 44.6292 90.0026C42.173 91.2427 43.3691 95.0362 43.85 96.9383C44.8436 100.886 48.9755 101.722 53.3112 102.116C57.7401 102.521 62.7684 101.939 66.791 100.399C70.0065 99.1667 70.5846 96.7878 70.7777 94.0865C71.0348 90.5074 69.2485 88.8717 64.8783 89.0622Z" fill="#81400F"/>
<path d="M63.0894 101.066C58.0371 102.103 47.1333 103.079 44.6904 97.9308C44.6504 97.8442 44.6278 97.7456 44.5905 97.655C43.822 96.375 43.2878 94.5342 43.4543 93.029C43.4543 92.8905 43.4543 92.752 43.473 92.6054L43.4796 92.4136C43.4836 92.3484 43.5063 92.2911 43.5382 92.2418C43.8286 90.9711 44.8036 89.6764 46.5379 89.8788C49.8399 90.2611 53.0754 90.2278 56.3574 90.1559C58.2022 89.984 60.0404 89.7709 61.8919 89.6404C63.79 89.5059 65.3844 89.2075 67.2825 89.4539C69.752 89.7736 70.3035 91.8209 70.3701 93.4539C70.4207 94.6474 70.1729 96.0447 69.8372 97.1955C69.11 99.6837 65.7027 100.532 63.0894 101.066Z" fill="#8C0C00"/>
<path d="M67.1159 93.8863C66.4979 93.5334 65.8439 93.2683 65.1752 93.0485C62.711 93.4654 60.1709 93.6107 57.7106 93.8158C54.3407 94.0968 51.0294 94.2327 47.6567 94.198C46.3527 95.3409 45.363 97.0312 45.1819 98.7215C48.3321 102.963 58.318 102.044 63.0906 101.065C65.704 100.53 69.1113 99.6819 69.8412 97.1937C69.8679 97.1045 69.8891 97.0046 69.9131 96.91C69.2418 95.6673 68.3187 94.5683 67.1159 93.8863Z" fill="white"/>
<path opacity="0.6" d="M67.116 93.8863C66.4979 93.5334 65.8439 93.2683 65.1752 93.0485C62.711 93.4654 60.1709 93.6107 57.7107 93.8158C54.3407 94.0968 51.0294 94.2327 47.6568 94.198C46.779 94.9679 46.0517 95.9869 45.6082 97.0858C45.9718 96.7475 46.3674 96.4731 46.775 96.3359C48.0204 95.9123 49.2672 96.3572 50.5592 96.3159C52.424 96.2586 54.2982 96.2267 56.1603 96.1148C58.6551 95.9643 61.2086 95.9003 63.6635 95.4501C64.6718 95.265 65.483 95.2477 66.4527 95.61C67.6781 96.0682 68.131 97.5946 68.6172 98.9666C69.1899 98.4897 69.6268 97.9117 69.8399 97.1937C69.8666 97.1045 69.8879 97.0046 69.9118 96.91C69.2418 95.6673 68.3188 94.5683 67.116 93.8863Z" fill="#B8A997"/>
<path d="M58.4019 92.8143C59.7459 92.6944 61.1232 92.5985 62.4965 92.4559C60.8861 92.2521 59.2305 92.2522 57.6401 92.2828C54.9507 92.3361 51.7153 92.0697 49.2191 93.1712C49.1632 93.1965 49.1099 93.2338 49.054 93.2605C52.1788 93.2471 55.2691 93.0926 58.4019 92.8143Z" fill="white"/>
<path d="M48.4601 95.8441C50.6765 95.8548 54.3568 95.6909 56.5706 95.6003C59.188 95.4925 66.3382 95.1435 67.2453 94.6094C68.2057 94.0459 69.0981 91.3753 69.4178 90.5441C68.9502 89.9966 68.2803 89.5811 67.2866 89.4545C65.3885 89.2068 63.7941 89.5064 61.896 89.641C60.0432 89.7715 58.205 89.9846 56.3615 90.1564C53.0794 90.2284 49.844 90.2617 46.542 89.8794C45.8627 89.7995 45.3046 89.9567 44.853 90.2444C45.4591 92.7565 45.3539 95.8308 48.4601 95.8441Z" fill="white"/>
<path opacity="0.6" d="M46.6684 91.1954C47.9831 90.8118 49.359 90.9424 50.7124 91.0596C52.4613 91.2088 54.2195 91.1448 55.9724 91.0876C58.787 90.997 61.5788 90.7785 64.3747 90.4562C65.3964 90.339 66.2248 90.4442 67.064 90.9756C67.8126 91.4498 68.1549 92.2917 68.3161 93.2014C68.8196 92.2251 69.2245 91.0476 69.419 90.5441C68.9515 89.9967 68.2814 89.581 67.2878 89.4545C65.3897 89.2068 63.7953 89.5065 61.8972 89.641C60.0444 89.7715 58.2062 89.9847 56.3627 90.1565C53.0807 90.2284 49.8453 90.2617 46.5432 89.8794C45.8639 89.7995 45.3058 89.9567 44.8542 90.2444C45.0847 91.2034 45.2152 92.2411 45.4563 93.1641C45.427 92.2744 45.6907 91.4818 46.6684 91.1954Z" fill="#B8A997"/>
<path d="M41.6722 94.8147C41.6136 94.3205 41.6535 93.8223 41.6415 93.3295C41.2885 93.9528 40.9875 94.6735 41.1247 95.3914C41.2432 96.0175 41.7547 96.5796 42.2795 96.9605C42.0211 96.2599 41.7574 95.5486 41.6722 94.8147Z" fill="#81400F"/>
<path d="M71.8591 96.5283C72.0523 96.3151 72.2561 96.1073 72.4559 95.8875C73.4615 94.7873 73.1445 93.7057 72.5185 92.6375C72.5051 93.2582 72.7489 93.8536 72.6104 94.4956C72.4585 95.2002 72.0936 95.8463 71.8591 96.5283Z" fill="#81400F"/>
<path d="M55.3238 104.657C54.819 104.977 54.3674 105.36 54.0051 105.817C55.826 105.323 57.9745 105.011 59.7421 105.208C59.9658 105.234 60.2069 105.252 60.4533 105.272C60.2429 105.014 60.0044 104.785 59.738 104.59C58.3128 104.083 56.7797 104.132 55.3238 104.657Z" fill="#FAD6BE"/>
<path d="M51.1387 88.7252C53.5096 89.6923 56.6971 89.27 59.1667 88.6467C56.5186 88.949 53.7507 88.8598 51.1387 88.7252Z" fill="#FAD6BE"/>
</svg>
