<svg width="121" height="122" viewBox="0 0 121 122" fill="none" xmlns="http://www.w3.org/2000/svg">
<path d="M30.5237 70.0288C27.508 71.1344 24.6415 72.5183 22.172 74.3365C20.1461 75.8256 18.5544 77.6918 17.3596 79.7724C17.0612 80.2918 16.8547 80.81 16.6882 81.3321C16.6816 81.1084 16.6842 80.8846 16.6829 80.6635C16.4645 81.2708 16.294 81.8956 16.1594 82.5256C16.1874 82.9918 16.2234 83.454 16.2686 83.9188C16.2553 85.3281 16.5177 86.756 16.8254 88.2332C16.8494 88.3411 16.9267 88.3744 17.0159 88.3664C17.2077 89.1722 17.4195 89.9768 17.6712 90.7733C18.9406 94.7959 21.1797 98.5002 23.52 102.089C25.2237 104.703 26.9259 107.467 29.8497 109.134C30.0321 109.237 30.2386 108.968 30.2453 108.836C30.2786 108.216 30.0388 107.584 29.7271 106.956C29.9616 107.323 30.2146 107.688 30.4917 108.053C31.6665 109.598 33.1317 110.869 34.7874 111.92C38.8073 113.532 43.0551 114.521 47.3974 114.501C32.5869 105.578 28.17 86.7134 30.5237 70.0288Z" fill="#1F1F1D"/>
<path d="M46.3142 117.828C44.155 117.92 42.0159 117.72 39.918 117.283C42.3196 118.068 44.857 118.595 47.4304 118.927C47.0348 118.589 46.6672 118.216 46.3142 117.828Z" fill="#1F1F1D"/>
<path d="M70.8258 113.779C75.8487 112.339 80.6586 110.166 84.9303 107.338C84.7558 107.54 84.5786 107.741 84.3921 107.936C83.9912 108.353 83.4052 108.898 83.2653 109.458C82.8058 111.305 88.0631 108.31 88.6692 107.972C97.1806 103.249 103.786 94.239 103.707 84.8351C103.667 79.8934 101.135 75.3047 96.8983 72.3663C94.1237 70.4416 90.7498 69.2867 87.3039 68.4263C87.196 69.3001 87.0495 70.1725 86.9229 71.025C86.4154 74.4988 85.7455 77.994 84.873 81.4066C83.3252 87.4578 81.2407 93.4571 77.9693 98.9103C76.291 101.709 74.3782 104.357 72.2204 106.856C70.4049 108.96 68.2297 111.588 65.647 112.922C65.5937 112.95 65.5378 112.975 65.4832 113.005C66.947 113.61 68.8531 113.809 70.8258 113.779Z" fill="#1F1F1D"/>
<path d="M25.9817 83.6574C27.5655 77.3197 26.2881 71.3777 22.7876 66.3028C21.9817 63.5655 20.5419 60.9681 17.9272 61.9725C15.792 62.793 14.6704 64.3914 14.3108 66.3734C14.4933 68.6631 15.1446 70.9195 15.7001 73.1905C15.7493 73.3357 15.8013 73.4849 15.8412 73.6301C16.4153 75.6427 16.6058 77.7007 17.0787 79.732C17.6501 82.1842 18.3747 84.3473 20.771 85.4515C22.6864 86.3333 25.409 85.9471 25.9817 83.6574Z" fill="#9E4C0B"/>
<path d="M21.5834 84.6844C18.2801 83.9292 17.8471 80.0624 17.4356 77.4983C16.9241 74.3268 13.2145 66.1976 16.5072 63.6749C16.7869 63.2579 17.1478 62.9076 17.614 62.6679C19.3963 61.7448 20.8229 63.0515 21.6087 64.6179C21.7539 64.847 21.8991 65.0974 22.0469 65.3771C22.5464 66.3229 22.954 67.2872 23.2817 68.2649C24.9414 71.3138 25.9497 74.5799 25.7552 78.3548C25.6193 80.9615 25.6313 85.6088 21.5834 84.6844Z" fill="#F9CEB2"/>
<path d="M21.5834 84.6844C18.2801 83.9292 17.8471 80.0624 17.4356 77.4983C16.9241 74.3268 13.2145 66.1976 16.5072 63.6749C16.7869 63.2579 17.1478 62.9076 17.614 62.6679C19.3963 61.7448 20.8229 63.0515 21.6087 64.6179C21.7539 64.847 21.8991 65.0974 22.0469 65.3771C22.5464 66.3229 22.954 67.2872 23.2817 68.2649C24.9414 71.3138 25.9497 74.5799 25.7552 78.3548C25.6193 80.9615 25.6313 85.6088 21.5834 84.6844Z" fill="#FAD6BE"/>
<path d="M18.304 74.1633C18.5238 74.4537 18.974 74.4603 19.2058 74.1953C20.33 72.9179 20.3953 70.3898 19.5748 68.9312C19.3377 68.5077 18.681 67.8417 18.1668 67.7351C17.052 67.506 16.4459 68.5676 16.1742 69.4334C16.2727 69.1177 16.0836 68.5836 16.1222 68.2346C16.1649 67.8204 16.2901 67.4114 16.5138 67.0558C16.8775 66.4777 17.6794 66.0408 18.4106 66.3725C19.5934 66.9079 20.0756 68.2586 20.3793 69.3508C20.695 70.4857 20.8881 71.6538 20.9121 72.8247C20.9361 74.0235 20.7269 75.1783 20.5245 76.3518C20.5098 76.437 20.4979 76.5263 20.4832 76.6128C20.4779 76.6421 20.4606 76.6515 20.4432 76.6595C20.2847 77.2469 20.0916 77.8023 19.8611 78.3018C19.7732 78.491 19.5109 78.1779 19.5308 78.0514C19.74 76.6768 19.8225 75.2822 19.8505 73.8876C19.7253 74.3405 19.5321 74.9678 19.1299 75.117C18.296 75.4274 17.8565 73.9395 17.5048 72.9618C17.7592 73.3588 18.0043 73.7651 18.304 74.1633Z" fill="#9E4C0B"/>
<path d="M93.4724 85.4515C95.8687 84.3473 96.5933 82.1842 97.1647 79.732C97.6376 77.7007 97.8294 75.6427 98.4021 73.6301C98.4421 73.4849 98.494 73.3357 98.5433 73.1905C99.0988 70.9195 99.7514 68.6617 99.9326 66.3734C99.573 64.3927 98.4514 62.793 96.3162 61.9725C93.7015 60.9681 92.2616 63.5655 91.4558 66.3028C87.9553 71.379 86.6766 77.3197 88.2616 83.6574C88.8357 85.9484 91.5583 86.3347 93.4724 85.4515Z" fill="#9E4C0B"/>
<path d="M88.4907 78.3597C88.2962 74.5848 89.3046 71.3187 90.9642 68.2698C91.2919 67.2921 91.6995 66.3277 92.199 65.382C92.3455 65.1023 92.4907 64.8519 92.6372 64.6228C93.4231 63.0564 94.8483 61.7497 96.6318 62.6728C97.098 62.9125 97.4577 63.2628 97.7388 63.6797C101.031 66.2012 97.3218 74.3317 96.8103 77.5032C96.3987 80.0673 95.9659 83.9327 92.6625 84.6893C88.6132 85.6124 88.6252 80.965 88.4907 78.3597Z" fill="#F9CEB2"/>
<path d="M88.4907 78.3597C88.2962 74.5848 89.3046 71.3187 90.9642 68.2698C91.2919 67.2921 91.6995 66.3277 92.199 65.382C92.3455 65.1023 92.4907 64.8519 92.6372 64.6228C93.4231 63.0564 94.8483 61.7497 96.6318 62.6728C97.098 62.9125 97.4577 63.2628 97.7388 63.6797C101.031 66.2012 97.3218 74.3317 96.8103 77.5032C96.3987 80.0673 95.9659 83.9327 92.6625 84.6893C88.6132 85.6124 88.6252 80.965 88.4907 78.3597Z" fill="#FAD6BE"/>
<path d="M95.9405 74.1633C95.7207 74.4537 95.2705 74.4603 95.0387 74.1953C93.9145 72.9179 93.8493 70.3898 94.6698 68.9312C94.9069 68.5077 95.5635 67.8417 96.0777 67.7351C97.1926 67.506 97.7986 68.5676 98.0704 69.4334C97.9718 69.1177 98.1609 68.5836 98.1223 68.2346C98.0797 67.8204 97.9545 67.4114 97.7307 67.0558C97.3671 66.4777 96.5652 66.0408 95.8339 66.3725C94.6524 66.9079 94.1689 68.2586 93.8652 69.3508C93.5496 70.4857 93.3564 71.6538 93.3324 72.8247C93.3085 74.0235 93.5176 75.1783 93.7201 76.3518C93.7347 76.437 93.7467 76.5263 93.7613 76.6128C93.7653 76.6421 93.784 76.6515 93.8013 76.6595C93.9598 77.2469 94.153 77.8023 94.3834 78.3018C94.4713 78.491 94.7337 78.1779 94.7138 78.0514C94.5046 76.6768 94.422 75.2822 94.394 73.8876C94.5206 74.3405 94.7124 74.9678 95.1147 75.117C95.9485 75.4274 96.3894 73.9395 96.7397 72.9618C96.4853 73.3588 96.2402 73.7651 95.9405 74.1633Z" fill="#9E4C0B"/>
<path d="M95.3812 49.1242C95.228 44.8659 94.7245 40.5942 94.1344 36.3637C94.0745 32.9898 93.9692 29.3188 92.0285 26.4817C89.9946 23.5047 86.4062 21.6518 83.232 20.1827C74.6446 16.2066 65.4765 14.3086 56.082 13.6172C48.4816 13.0591 41.4287 13.8211 34.5463 17.3016C29.7751 19.7138 25.5033 23.4247 23.1377 28.1933C23.1018 28.1147 22.9606 28.1027 22.9246 28.2119C22.7368 28.7714 22.5583 29.3335 22.3932 29.8929C22.0602 30.7667 21.7871 31.6711 21.59 32.6062C21.5766 32.6648 21.6006 32.7034 21.6326 32.7354C20.9786 35.5019 20.567 38.3071 20.4245 41.2002C20.1727 46.2192 20.8214 51.2568 20.8866 56.2757C20.9106 58.0713 20.9213 59.8655 20.9333 61.6637C21.8191 65.7316 21.3129 70.6653 21.2849 74.7439C21.2703 76.923 21.1917 79.1221 21.1744 81.3213C21.2703 82.7478 21.4261 84.1717 21.6832 85.5796C23.2083 93.9552 29.0971 100.513 36.5323 104.374C38.3837 105.334 49.6271 113.208 61.7203 112.305C68.8039 109.773 75.0736 105.109 81.5271 100.906C84.1538 98.9795 86.7152 96.7964 88.548 94.1071C90.5753 91.1341 91.8074 87.8347 92.5547 84.3289C92.7585 83.3699 92.9117 82.4068 93.0462 81.4385C92.9583 75.571 93.5057 69.5011 94.0465 63.6723C94.0332 63.6963 94.0159 63.7203 94.0025 63.7442C94.0265 63.4006 94.0518 63.0556 94.0812 62.7119C94.4754 58.1046 95.5463 53.7849 95.3812 49.1242Z" fill="#F9CEB2"/>
<path d="M95.3812 49.1242C95.228 44.8659 94.7245 40.5942 94.1344 36.3637C94.0745 32.9898 93.9692 29.3188 92.0285 26.4817C89.9946 23.5047 86.4062 21.6518 83.232 20.1827C74.6446 16.2066 65.4765 14.3086 56.082 13.6172C48.4816 13.0591 41.4287 13.8211 34.5463 17.3016C29.7751 19.7138 25.5033 23.4247 23.1377 28.1933C23.1018 28.1147 22.9606 28.1027 22.9246 28.2119C22.7368 28.7714 22.5583 29.3335 22.3932 29.8929C22.0602 30.7667 21.7871 31.6711 21.59 32.6062C21.5766 32.6648 21.6006 32.7034 21.6326 32.7354C20.9786 35.5019 20.567 38.3071 20.4245 41.2002C20.1727 46.2192 20.8214 51.2568 20.8866 56.2757C20.9106 58.0713 20.9213 59.8655 20.9333 61.6637C21.8191 65.7316 21.3129 70.6653 21.2849 74.7439C21.2703 76.923 21.1917 79.1221 21.1744 81.3213C21.2703 82.7478 21.4261 84.1717 21.6832 85.5796C23.2083 93.9552 29.0971 100.513 36.5323 104.374C38.3837 105.334 49.6271 113.208 61.7203 112.305C68.8039 109.773 75.0736 105.109 81.5271 100.906C84.1538 98.9795 86.7152 96.7964 88.548 94.1071C90.5753 91.1341 91.8074 87.8347 92.5547 84.3289C92.7585 83.3699 92.9117 82.4068 93.0462 81.4385C92.9583 75.571 93.5057 69.5011 94.0465 63.6723C94.0332 63.6963 94.0159 63.7203 94.0025 63.7442C94.0265 63.4006 94.0518 63.0556 94.0812 62.7119C94.4754 58.1046 95.5463 53.7849 95.3812 49.1242ZM85.8707 90.5293C82.7619 95.1394 78.5781 98.7104 74.1652 102.024C69.5618 105.482 64.2218 109.147 58.2904 109.586C52.4337 110.019 46.4383 107.522 41.4394 104.668C36.5576 101.879 31.3229 98.3188 27.9223 93.7541C21.6552 85.3399 21.8523 73.3706 24.3885 63.6443C24.5137 63.1621 25.1584 63.2101 25.3036 63.6443C25.7045 64.8365 26.1241 66.0206 26.6835 67.1248C26.6635 58.5814 33.7071 52.405 40.6974 48.1266C45.0757 45.444 49.6791 42.9971 54.3437 40.8526C57.438 39.4313 60.68 38.0807 63.4399 36.052C66.3077 33.9408 67.9274 31.0424 70.2544 28.4437C70.4822 28.1893 70.9883 28.3078 71.047 28.6568C71.9061 33.7996 73.0356 38.9878 75.5145 43.6271C77.9467 48.1799 81.2633 52.1425 84.1871 56.373C87.7222 61.4918 90.6233 67.0862 90.5847 73.4651C90.5474 79.4018 89.23 85.5503 85.8707 90.5293Z" fill="#FAD6BE"/>
<path d="M95.3812 49.1242C95.228 44.8659 94.7245 40.5942 94.1344 36.3637C94.0745 32.9898 93.9692 29.3188 92.0285 26.4817C89.9946 23.5047 86.4062 21.6518 83.232 20.1827C74.6446 16.2066 65.4765 14.3086 56.082 13.6172C48.4816 13.0591 41.4287 13.8211 34.5463 17.3016C29.7751 19.7138 25.5033 23.4247 23.1377 28.1933C23.1018 28.1147 22.9606 28.1027 22.9246 28.2119C22.7368 28.7714 22.5583 29.3335 22.3932 29.8929C22.0602 30.7667 21.7871 31.6711 21.59 32.6062C21.5766 32.6648 21.6006 32.7034 21.6326 32.7354C20.9786 35.5019 20.567 38.3071 20.4245 41.2002C20.1727 46.2192 20.8214 51.2568 20.8866 56.2757C20.9106 58.0713 20.9213 59.8655 20.9333 61.6637C21.8191 65.7316 21.3129 70.6653 21.2849 74.7439C21.2703 76.923 21.1917 79.1221 21.1744 81.3213C21.2703 82.7478 21.4261 84.1717 21.6832 85.5796C23.2083 93.9552 29.0971 100.513 36.5323 104.374C38.8499 105.578 48.6921 112.45 56.2805 112.719C57.6391 112.767 60.3177 112.78 61.6231 112.315C68.7439 109.79 75.0456 105.125 81.5258 100.907C84.1525 98.9808 86.7139 96.7977 88.5467 94.1084C90.574 91.1354 91.8061 87.836 92.5534 84.3302C92.7571 83.3712 93.3992 80.3915 93.535 79.4232C93.4538 73.9606 93.4311 70.3403 93.9333 64.8844C93.9373 64.8165 93.9373 64.7472 93.9413 64.6806C93.9453 64.674 93.9493 64.6673 93.9533 64.6606C93.9839 64.3303 94.0145 64.004 94.0452 63.6736C94.0319 63.6976 94.0146 63.7216 94.0012 63.7456C94.0252 63.4019 94.0505 63.0569 94.0798 62.7133C94.4754 58.1046 95.5463 53.7849 95.3812 49.1242ZM93.5776 60.6727C92.6958 66.7146 93.0702 72.8657 92.56 78.949C92.5214 79.0275 92.508 79.1168 92.5333 79.2087C92.4694 79.9386 92.4002 80.6699 92.3056 81.3972C91.8567 84.8617 90.951 88.2463 89.3605 91.3632C87.5117 94.9862 84.5294 97.6995 81.3393 100.133C78.1678 102.552 74.7326 104.624 71.3213 106.688C67.6863 108.883 63.6357 111.552 59.4106 112.108C58.0839 112.102 56.788 111.881 55.4027 111.82C47.9728 111.494 30.6569 100.974 27.5839 96.3635C24.848 92.2623 22.8487 88.2796 22.2453 83.4311C21.7165 79.1514 21.903 74.8064 21.8337 70.5054C21.7524 65.4985 21.7724 60.4915 21.6992 55.4859C21.6299 50.9198 21.0585 46.391 21.1051 41.8196C21.1451 38.1446 21.6446 34.4936 22.4758 30.9172C24.7268 25.1204 29.47 20.8247 34.9845 17.9942C41.43 14.6829 48.2658 13.9836 55.3867 14.4364C64.3949 15.0052 72.9597 16.826 81.2993 20.2879C84.596 21.6559 87.8967 23.3355 90.4208 25.9062C93.503 29.0431 92.8197 33.4693 93.575 37.4333C93.591 37.5186 93.6363 37.5758 93.6962 37.6078C93.9826 40.6994 94.3675 43.7816 94.5633 46.8812C94.855 51.6071 94.2556 56.0133 93.5776 60.6727Z" fill="#9E4C0B"/>
<path d="M120.601 93.1876C119.178 87.7717 117.158 82.5356 115.089 77.3049C113.978 74.4983 112.797 71.7677 112.011 68.884C108.352 58.2014 107.429 47.0552 105.47 35.8398C104.505 30.3187 102.871 24.1676 100.112 18.7783C98.6218 16.2981 96.8982 14.0004 94.7231 12.0517C93.2099 10.6958 91.6275 9.41971 90.0983 8.08372C89.5669 7.76271 89.0314 7.44701 88.4973 7.12866C84.2149 4.96817 79.6275 3.74274 74.8457 3.87993C71.3625 2.23492 67.8274 0.966867 63.7608 0.404765C57.298 -0.491668 50.6713 0.184984 44.343 1.60889C34.6847 3.78004 25.9148 9.13999 18.7327 15.8266C17.5925 16.8895 16.5056 18.0244 15.4493 19.1926C14.5462 20.6231 13.5926 22.023 12.8746 23.5548C11.5999 26.2854 10.505 29.1239 9.42873 31.9344C9.37811 32.0676 9.33283 32.2022 9.28089 32.3354C8.77206 34.7889 7.87563 37.1478 7.53463 39.6453C7.05378 43.1538 6.76873 46.6117 6.80736 50.1574C6.83933 53.0798 6.94588 56.0036 6.99384 58.922C7.22427 62.3612 7.34415 65.7937 6.95122 69.3568C6.76207 71.0671 6.47437 72.7588 6.12538 74.4371C5.82702 76.7561 5.58725 79.1203 4.89861 81.3501C4.07544 84.0194 3.01251 86.6115 2.08011 89.2422C2.05614 89.3088 2.0335 89.3754 2.00952 89.442C-0.00312122 96.8665 -0.806318 104.089 1.58994 111.598C1.75378 112.037 1.9336 112.47 2.12141 112.897C5.00385 118.35 9.97751 122.753 16.2152 121.892C13.4407 121.237 11.3575 119.267 9.54596 117.096C7.69315 114.874 7.03247 112.388 6.55828 109.792C7.92091 113.215 10.1573 116.228 13.2582 117.941C18.8406 121.029 25.5792 121.394 31.432 119.063C32.0514 119.367 32.7027 119.634 33.3714 119.875C36.4829 120.376 39.5199 120.86 42.7313 120.473C45.0889 120.188 47.1974 119.436 49.2314 118.424C48.652 118.265 48.0992 118.108 47.6157 117.993C42.5368 116.795 38.1838 114.012 34.5302 110.329C30.6794 106.449 28.0354 101.992 25.8416 97.0064C24.5722 94.1213 23.4986 91.1816 22.7979 88.1513C22.3904 86.9911 22.0241 85.8123 21.751 84.6362C17.7923 85.1303 16.0021 73.0625 15.5666 69.8444C16.4577 67.5067 17.6551 64.5989 18.7447 62.0122C19.1216 63.2616 19.5186 64.519 19.9222 65.7911C20.0567 66.89 20.2565 67.9862 20.4856 69.0784C20.5389 69.843 20.5762 70.6089 20.6215 71.3775C21.0291 73.3675 21.4367 75.3561 21.7124 77.3675C21.8003 77.2622 21.8629 77.145 21.8656 77.0371C22.0267 71.5893 22.1746 65.9629 23.4387 60.6442C23.6171 59.8917 23.8889 59.1284 24.1992 58.3559C24.2245 59.9823 24.5935 61.5021 25.4566 62.7901C25.6791 63.1218 26.3038 62.5117 26.1706 62.196C26.108 62.0482 26.0574 61.891 26.0054 61.7338C26.12 61.6579 26.2198 61.554 26.2492 61.4448C29.8868 47.7252 47.0097 43.4149 58.0199 37.2877C62.7472 34.6584 68.9516 30.2481 71.8633 24.8495C71.8154 24.9974 71.7781 25.1452 71.7275 25.2918C71.8953 26.6664 72.1417 28.0597 72.548 29.5075C72.9409 30.9075 73.4285 32.2874 73.9812 33.6434C75.4638 38.304 77.5443 42.8368 79.7634 46.9407C84.4134 55.5414 90.8816 61.6046 90.9469 71.9116C90.9482 72.3924 92.472 68.4298 92.757 66.7474C92.7663 66.842 92.785 66.9339 92.7916 67.0298C92.9302 67.7731 93.05 68.523 93.1699 69.2783C93.5535 67.9729 94.1103 66.7181 94.6764 65.4701C94.8003 65.0825 94.9255 64.7162 95.0494 64.3339C95.112 64.3099 95.1653 64.2619 95.2012 64.21V64.2127C95.3944 63.9369 95.6674 63.6173 95.8966 63.3682C96.0657 63.187 96.2176 63.1351 96.3614 63.1697C96.4094 63.2203 96.4533 63.2763 96.5052 63.3256C96.5625 63.3788 96.6265 63.4002 96.6944 63.4068C96.7224 63.4348 96.7503 63.4574 96.7756 63.4921C96.7996 63.5187 96.809 63.5573 96.8289 63.588C96.9395 64.0435 97.0527 64.4991 97.142 64.9439C97.2858 65.6579 97.4283 66.3732 97.5709 67.0858C97.6188 67.492 97.6708 67.8956 97.7027 68.3086C98.0237 72.5736 97.7853 83.8463 92.2962 85.3221L92.2935 85.3248C92.1563 85.3621 92.0071 85.4833 91.9325 85.6112C91.8513 85.7257 91.7993 85.8509 91.8033 85.9548C89.8319 92.1046 87.128 97.2888 83.2372 102.47C79.1786 107.877 72.6692 114.04 65.7189 115.142C65.4285 115.188 64.941 115.646 65.1341 115.977C67.1175 119.399 72.532 118.963 76.2882 118.433C80.0685 118.392 83.9299 117.315 87.445 115.506C87.3358 115.653 87.2346 115.806 87.1253 115.955C86.498 116.37 85.8573 116.733 85.198 117.022C84.8543 117.174 84.1177 118.076 84.7824 118.32C88.7744 119.78 93.0474 119.05 96.9342 117.338C96.7211 117.567 96.5039 117.788 96.2975 118.033C96.2069 118.141 96.1123 118.297 96.059 118.456C102.313 119.108 108.866 117.829 113.783 114.212C115.927 112.232 117.659 109.804 118.888 107.011C119.178 106.384 119.432 105.742 119.646 105.084C119.651 105.066 119.658 105.053 119.663 105.036C119.683 104.976 119.697 104.917 119.715 104.857C119.774 104.665 119.835 104.475 119.887 104.283C120.982 100.619 121.103 96.8865 120.601 93.1876Z" fill="#1F1F1D"/>
<path d="M118.817 103.813C118.558 104.563 118.241 105.281 117.904 105.987C117.836 106.13 117.765 106.268 117.696 106.408C117.587 106.625 117.48 106.844 117.363 107.056C116.736 108.23 116.038 109.328 115.369 110.292C114.108 112.11 112.38 113.598 110.423 114.709C109.503 115.277 108.504 115.752 107.468 116.137C104.628 117.417 101.492 118.099 98.2475 118.009C98.1556 118.005 98.0783 117.974 98.0104 117.929C98.0011 117.934 97.9878 117.939 97.9784 117.945C97.9878 117.939 97.9957 117.931 98.0051 117.926C97.7333 117.746 97.6747 117.309 98.0144 117.123C99.6221 116.244 100.902 115.006 102.132 113.705C97.479 116.49 92.2002 118.211 86.7431 117.929C86.3501 117.907 86.093 117.418 86.4087 117.121C87.8912 115.726 89.5336 114.527 90.9601 113.066C91.4676 112.546 92.7037 111.436 93.4523 110.348C93.3617 110.411 93.2752 110.479 93.1859 110.544C93.2192 110.513 93.2565 110.483 93.2911 110.452C93.3444 110.403 93.3804 110.35 93.407 110.294C89.9012 112.872 85.9319 114.798 81.7014 116.072C77.6362 117.297 70.2569 119.928 66.7085 116.294C66.4488 116.027 66.586 115.614 66.923 115.503C74.6965 112.946 81.3458 107.23 85.8453 100.483C87.9924 97.2627 90.5659 93.5904 91.3158 89.7276C91.5076 88.7379 91.6115 87.1089 92.428 86.3484C92.4387 86.2658 92.4573 86.1858 92.4666 86.1019C94.6897 85.725 96.0724 83.3634 96.9808 80.9591C97.6548 78.0727 98.2328 75.077 98.5112 72.1147C98.7763 73.6704 99.0214 75.2315 99.2052 76.806C100.11 84.4836 99.6834 92.1678 97.9371 99.6816C99.7247 96.028 99.9085 91.5698 100.375 87.6324C100.781 84.1958 100.793 80.778 100.705 77.3534C100.413 74.122 99.766 70.9172 99.0627 67.7604C98.9375 67.2009 98.7483 66.5949 98.5365 65.9662C98.3661 64.8833 98.0131 63.9362 97.5002 62.9252C97.1073 61.6745 96.8156 60.4397 96.8582 59.3368C96.9967 58.9013 97.1472 58.4697 97.2751 58.0315C97.2871 58.0102 97.2978 57.9902 97.3111 57.9702C97.3724 57.7464 97.419 57.5173 97.4762 57.2922C97.9025 55.7258 98.2328 54.1354 98.4819 52.533C98.5911 48.0149 98.3993 43.514 96.9661 39.1584C96.1629 36.7182 95.068 34.4165 94.0437 32.0682C93.8426 31.6047 93.6215 31.0599 93.3697 30.5005C95.0041 35.5247 97.09 40.1814 97.6175 45.5906C98.2861 52.4611 95.7753 58.6309 94.0531 65.1124C94.0198 65.2376 94.0544 65.2962 94.1157 65.3202C93.8626 65.4227 93.5096 65.3255 93.4563 65.0178C93.3751 64.5556 93.2765 64.1 93.1872 63.6405C93.8079 57.4854 93.1659 51.1317 90.5232 45.6346C90.6191 45.8703 90.7137 46.1035 90.799 46.3419C91.5502 48.4771 92.2242 50.6709 92.6345 52.902C93.4417 57.2856 91.7367 67.3887 91.6301 68.1293C91.4916 65.5479 90.5685 63.117 89.455 60.798C86.9855 55.6605 83.5329 51.0998 80.6878 46.178C78.2436 42.3033 76.0405 38.2567 74.6059 33.909C73.6988 31.1638 72.6146 28.1881 72.2882 25.3017C72.1217 23.8378 72.464 22.4379 72.7544 21.0167C72.4494 21.6613 72.1164 22.298 71.7235 22.9041C69.3086 27.6953 64.4694 31.586 60.3163 34.4765C54.9523 38.2114 48.7971 40.8101 43.0363 43.8604C36.0366 47.566 27.8342 52.5903 25.7696 60.7887C25.1862 57.6292 26.3277 53.4641 27.372 50.7894C28.0207 49.1298 28.8692 47.5567 29.8309 46.0542C30.4449 44.8101 31.1509 43.6179 31.9341 42.4684C32.8865 40.9233 33.9254 39.4328 35.051 38.0009C33.1902 39.8311 31.4293 41.7918 29.8176 43.9616C27.9461 46.4831 25.5951 50.6416 24.6374 54.7188C24.2298 55.5247 23.8209 56.3319 23.4466 57.1537C22.7726 60.0095 22.2145 62.8972 21.7204 65.8037C21.6391 66.2765 20.9039 66.2499 20.804 65.8037C19.7424 61.0178 17.4433 56.7115 17.2515 51.7231C17.1556 49.2256 17.1303 46.6416 17.4114 44.1507C17.5046 43.3262 17.8003 42.4405 18.0507 41.5627C17.0957 43.3982 16.8359 45.7731 16.784 48.0135C16.3937 52.1614 17.0757 56.0268 18.1373 59.9042C17.1143 62.3471 16.1087 64.7927 15.1629 67.2569C14.6514 69.448 14.0854 71.6298 13.5406 73.821C12.748 77.0031 11.6438 80.8952 12.0461 84.381C12.3098 82.1193 12.6748 79.9388 13.1263 77.9142C13.747 75.1396 14.0654 73.2429 15.0351 70.6122C15.2442 74.9145 17.6192 87.0077 21.3314 85.6864C22.2132 90.4602 24.0034 94.9184 26.064 99.3047C27.2255 101.778 28.4642 104.436 30.1239 106.711C31.3946 108.306 32.7586 109.833 34.2038 111.293C36.9984 114.12 40.2498 116.868 44.1538 117.945C44.3203 117.99 44.4149 118.099 44.4589 118.226C45.2754 118.485 46.1025 118.716 46.9523 118.885C44.1045 119.546 41.2461 119.72 38.4609 119.347C33.2155 118.997 27.3267 115.711 24.0154 112.583C22.9365 111.564 21.9907 110.451 21.1742 109.269C21.9841 110.868 22.9791 112.388 24.1299 113.787C25.3953 115.325 27.1922 116.754 29.1915 117.75C29.4553 117.935 29.723 118.114 30.004 118.286C27.4519 118.809 24.8932 118.878 22.4396 118.556C15.1137 118.372 8.49364 113.858 5.42605 107.259C5.70044 111.21 5.94687 114.708 8.5043 118.136C9.06241 118.885 9.75505 119.719 10.5383 120.485C5.10905 118.054 2.58624 111.674 1.56594 105.797C0.886619 101.898 1.1983 97.978 1.95221 94.0899C2.03346 93.4466 2.12671 92.8005 2.24393 92.1625C2.65285 89.9181 3.35881 87.7949 4.12737 85.6957C4.12337 85.6744 4.11804 85.6544 4.11272 85.6344C4.75607 83.4712 5.42073 81.3347 6.00947 79.2342C8.81465 69.2189 8.41505 59.9242 7.72507 49.6905C7.28685 43.1704 8.26588 36.9233 10.4637 30.7948C10.8047 29.8411 13.1769 24.8861 14.1972 22.1995C14.401 21.9437 14.6168 21.6946 14.826 21.4429C16.0727 19.1918 18.2545 17.2564 20.0713 15.7246C20.3604 15.4782 20.6667 15.2571 20.9624 15.0213C27.5612 9.16055 35.5744 4.96477 44.1179 2.76298C48.1991 1.71071 52.3829 1.22053 56.5774 1.17258C59.5157 0.669088 62.6819 0.908851 65.3432 1.51624C69.4644 2.46063 73.6775 3.56884 77.6042 5.26447C77.2419 5.07666 76.8796 4.88352 76.5187 4.69971C76.7558 4.72901 76.9928 4.75698 77.2286 4.7996C84.0831 5.52155 90.117 8.93279 95.7633 13.8798C96.1496 14.4486 96.5159 15.024 96.8702 15.6061C97.4416 16.2787 97.9758 16.9874 98.462 17.7519C101.019 21.7759 102.632 26.4152 103.536 31.1798C105.203 37.1485 105.825 43.5673 106.735 49.6039C107.204 52.7088 107.641 55.8057 108.15 58.8973C109.375 63.181 110.871 67.3621 112.367 71.6125C113.617 75.1729 114.997 78.7467 116.167 82.3564C119.373 89.1336 121.296 96.682 118.817 103.813Z" fill="#424241"/>
<path opacity="0.5" d="M116.164 82.3564C114.995 78.7467 113.615 75.1729 112.364 71.6125C110.868 67.3634 109.372 63.181 108.147 58.8973C107.64 55.8057 107.201 52.7088 106.732 49.6039C105.823 43.5673 105.201 37.1484 103.533 31.1798C102.63 26.4152 101.017 21.7759 98.4594 17.7519C97.9732 16.9874 97.4391 16.2787 96.8677 15.6061C96.5147 15.024 96.1471 14.4486 95.7608 13.8798C90.1145 8.93145 84.0805 5.52155 77.2261 4.7996C76.9903 4.75698 76.7532 4.72901 76.5161 4.69971C76.8771 4.88352 77.2394 5.07666 77.6017 5.26447C73.675 3.56884 69.4632 2.46063 65.3407 1.51624C62.6781 0.908851 59.5119 0.669088 56.5748 1.17258C54.9018 1.19123 53.2342 1.30445 51.5705 1.47228C58.2212 1.16725 65.3127 1.83991 70.9737 5.34839C69.5751 5.3071 68.1725 5.34705 66.8472 5.34172C62.8459 5.32041 58.8792 5.52687 54.8965 5.91049C49.3767 6.44062 43.9488 7.59679 39.3228 10.5019C40.3804 10.0823 41.454 9.73198 42.6022 9.41896C46.3744 8.39598 50.1493 7.95644 53.9601 7.76463C57.117 7.401 60.2924 7.24115 63.4666 7.13725C64.4229 7.23582 65.3793 7.36636 66.3344 7.55417C67.0736 7.69936 67.8369 7.8592 68.6121 8.03103C67.1709 8.75697 65.8162 9.63609 64.5828 10.5405C65.5458 10.0677 66.5608 9.69735 67.5172 9.38566C70.1518 8.52786 73.2208 7.53287 76.0273 7.68738C80.5414 7.9338 84.7985 12.1669 87.2507 16.364C86.261 14.2235 84.8238 12.3121 83.3333 10.394C83.0189 9.98906 83.3999 9.38167 83.9007 9.6494C87.0615 11.3264 89.8307 13.5029 92.1884 16.0496C98.3821 21.335 102.301 29.5321 103.895 37.3376C105.187 43.6646 105.085 50.1234 106.03 56.489C106.715 61.0991 107.823 65.6225 108.821 70.1699C109.191 71.2968 109.563 72.4197 109.937 73.5466C110.154 74.2006 110.367 74.8599 110.577 75.5246C113.135 81.2828 116.188 86.8838 116.793 93.1935C117.211 97.5651 116.801 102.156 114.675 106.075C113.131 108.92 110.842 112.447 107.346 112.915C107.009 112.96 106.671 112.714 106.77 112.338C107.803 108.414 108.572 104.402 108.612 100.384C108.258 101.605 107.791 102.797 107.173 103.945C104.616 108.697 99.89 113.633 94.6606 115.318C94.285 115.439 93.9 114.964 94.1291 114.627C95.3292 112.866 96.9423 111.58 98.4634 110.112C100.112 108.521 101.294 106.623 102.052 104.454C102.192 104.053 102.32 103.65 102.442 103.245C100.68 106.214 98.3262 108.594 95.1348 109.486C94.6872 109.612 94.3342 109.016 94.6805 108.695C99.866 103.856 101.808 96.1971 102.558 89.372C103.488 80.9231 102.141 72.5795 100.072 64.3904C99.9366 63.8496 100.649 63.6045 100.941 64.0374C102.485 66.3165 103.737 68.7687 105.078 71.1676C104.786 70.2006 104.483 69.2376 104.176 68.2732C102.959 65.6079 101.8 62.9106 101.008 60.0987C99.6569 55.3049 99.7261 50.4418 99.1427 45.5334C98.4741 39.9283 96.9529 34.0915 94.1744 29.1378C92.6013 26.3353 90.3729 24.0989 88.1711 21.8199C89.8014 24.7143 91.0855 27.7632 92.0565 30.9081C95.1401 38.2593 96.2736 46.527 95.1707 54.3019C95.1654 54.3405 95.1614 54.3818 95.1561 54.4218C95.0721 54.9945 94.277 54.7907 94.225 54.3019C94.0825 52.9459 93.8227 51.6312 93.4884 50.3392C93.3925 50.2873 93.3193 50.194 93.2953 50.0475C93.23 49.6306 93.1354 49.2283 93.0529 48.8194C91.7515 44.6809 89.6643 40.8114 87.6343 36.9327C88.3083 39.7192 88.6759 42.5643 88.7105 45.3562C88.7159 45.6772 88.4401 45.8397 88.1817 45.8091C87.8114 44.6542 87.4185 43.51 87.0256 42.3858C86.5914 41.1444 86.1385 39.7698 85.607 38.4205C84.9117 37.4242 84.1964 36.4412 83.4558 35.4768C85.286 40.4784 86.5141 45.6492 88.0286 50.7281C88.1098 51.4035 88.1844 52.0814 88.2364 52.7621C88.2723 53.223 87.7155 53.3242 87.4292 53.0964C85.1155 51.2729 83.7489 48.5343 82.5487 45.9063C81.976 44.6502 81.3593 43.4128 80.7426 42.1754C76.4629 34.992 73.7043 26.7575 73.0157 18.4299C69.021 22.9534 65.0343 27.5075 60.4096 31.4022C55.3787 35.6393 49.4913 39.4794 42.6915 39.5247C42.4597 39.5274 42.2972 39.3476 42.2492 39.1438C42.9725 38.4378 43.6638 37.6972 44.3378 36.974C44.764 36.5158 45.2009 36.0615 45.6311 35.6033C50.9205 31.3796 55.8409 26.5164 59.1549 21.1485C59.3214 20.8808 59.0044 20.8275 58.8526 21.0206C56.5202 24.0017 53.4326 26.6164 50.3677 29.0832C48.4376 30.4312 46.5995 31.9483 44.7187 33.3243C42.5995 34.8694 40.4057 36.5104 37.7271 36.8061C37.3874 36.8434 37.1211 36.3759 37.3169 36.1002C39.3362 33.2537 42.4144 31.0266 45.1836 28.8168C41.8882 30.5591 38.4677 32.1988 35.46 34.4152C33.835 35.6087 32.2766 36.8954 30.9752 38.4445C29.9043 39.7179 28.888 41.0192 27.5786 42.0662C28.1927 40.1361 28.9319 38.2687 30.1694 36.3786C32.5243 32.7715 35.9169 30.0556 39.3348 27.5194C39.5 27.3982 39.5373 27.0026 39.2509 27.1505C35.6732 29.002 31.0378 32.5997 27.9876 36.8487C23.9183 41.0698 21.0532 46.0568 20.0049 52.2919C17.3835 32.2574 34.2599 20.1415 51.4027 14.5978C50.2865 14.7736 49.1716 14.9614 48.0714 15.2145C45.101 15.8978 42.1853 16.9434 39.3787 18.1262C38.5702 18.4685 37.7804 18.8428 36.9865 19.2105C34.1387 20.7409 31.4281 22.5245 28.9079 24.5291C23.1231 29.1285 18.2014 34.908 16.1075 42.1155C13.9776 49.4441 15.6439 57.0804 13.5447 64.3944C11.3456 72.0654 9.55141 79.378 10.4185 87.4419C11.2444 95.1275 13.7445 102.404 17.2583 109.264C17.5101 109.756 16.9173 110.171 16.5124 109.833C9.67526 104.1 6.66496 96.0359 6.31731 87.4179C5.05591 92.0293 5.04659 96.8445 4.55508 101.618C4.49914 102.155 3.8065 102.26 3.62401 101.738C2.13617 97.5038 2.66498 92.9497 3.2777 88.5954C3.31233 88.3503 3.34163 88.1079 3.37493 87.8642C2.91406 89.2641 2.51179 90.684 2.24273 92.1599C2.12551 92.7979 2.03228 93.4439 1.95103 94.0872C1.19845 97.9753 0.886755 101.895 1.56474 105.794C2.58638 111.671 5.10919 118.051 10.5371 120.482C9.75253 119.718 9.06121 118.882 8.5031 118.134C5.94434 114.705 5.69794 111.207 5.42488 107.257C8.49246 113.855 15.1111 118.371 22.4384 118.553C24.892 118.876 27.4508 118.805 30.0029 118.283C29.7218 118.111 29.4541 117.931 29.1903 117.747C27.191 116.752 25.3928 115.323 24.1288 113.785C22.9779 112.385 21.9829 110.866 21.173 109.267C21.6565 109.966 22.2 110.631 22.7741 111.278C18.8634 105.493 17.4208 98.6933 16.9267 91.5325C16.8894 90.9837 17.7192 90.9051 17.8577 91.4113C19.287 96.642 20.9333 102.005 24.0901 106.487C25.8044 108.919 27.5733 111.582 30.0734 113.276C31.4241 114.191 32.9159 115.078 33.6498 116.591C33.7977 116.896 33.6152 117.312 33.2383 117.299C32.134 117.256 31.0432 117.062 29.9962 116.738C32.6748 118.128 35.6585 119.157 38.4597 119.345C41.2449 119.718 44.1034 119.543 46.9512 118.882C46.1014 118.713 45.2742 118.483 44.4577 118.223C44.4137 118.096 44.3191 117.987 44.1526 117.942C40.2486 116.864 36.9958 114.118 34.2026 111.29C32.7587 109.829 31.3935 108.304 30.1227 106.708C28.4631 104.433 27.2243 101.776 26.0628 99.302C24.0022 94.9158 22.2107 90.4576 21.3302 85.6837C17.6166 87.0037 15.243 74.9105 15.0339 70.6095C14.0642 73.2415 13.7472 75.137 13.1251 77.9115C12.6736 79.9375 12.3086 82.1166 12.0449 84.3783C11.6426 80.8925 12.7468 77.0004 13.5394 73.8183C14.0842 71.6272 14.6503 69.4453 15.1617 67.2542C16.1088 64.79 17.1144 62.3445 18.1361 59.9016C17.0745 56.0242 16.3925 52.1587 16.7828 48.0109C16.8347 45.7705 17.0945 43.3955 18.0495 41.56C17.7991 42.4378 17.5021 43.3236 17.4102 44.1481C17.1291 46.6376 17.1544 49.223 17.2503 51.7205C17.4421 56.7088 19.7398 61.0165 20.8028 65.801C20.9027 66.2472 21.6366 66.2739 21.7192 65.801C22.2147 62.8933 22.7728 60.0055 23.4455 57.151C23.8184 56.3292 24.2286 55.5207 24.6362 54.7161C25.5939 50.6389 27.9449 46.4804 29.8164 43.9589C31.4281 41.7891 33.1876 39.8284 35.0498 37.9983C33.9229 39.4302 32.8853 40.9207 31.9329 42.4658C31.1497 43.614 30.4424 44.8074 29.8297 46.0515C28.8667 47.554 28.0195 49.1257 27.3708 50.7867C26.3265 53.4614 25.185 57.6265 25.7684 60.786C27.833 52.5876 36.0355 47.5633 43.0351 43.8577C48.7947 40.8074 54.9511 38.2087 60.3151 34.4738C64.4682 31.5834 69.3074 27.6926 71.7223 22.9014C72.1152 22.2954 72.4482 21.6587 72.7533 21.014C72.4629 22.4339 72.1206 23.8352 72.2871 25.299C72.6134 28.1855 73.6976 31.1598 74.6047 33.9064C76.0393 38.254 78.2437 42.3006 80.6866 46.1754C83.5331 51.0958 86.9843 55.6565 89.4538 60.7953C90.5674 63.1144 91.4904 65.5453 91.629 68.1267C91.7355 67.3861 93.4405 57.2829 92.6333 52.8993C92.223 50.6682 91.549 48.4744 90.7978 46.3392C90.7125 46.0994 90.618 45.8677 90.5221 45.6319C93.1648 51.1291 93.8068 57.4813 93.1861 63.6378C93.2753 64.0974 93.3752 64.5542 93.4551 65.0151C93.5084 65.3215 93.8614 65.42 94.1145 65.3175C94.0532 65.2922 94.0186 65.2336 94.0519 65.1097C95.7741 58.6282 98.2849 52.4584 97.6163 45.588C97.0888 40.1774 95.0029 35.5221 93.3685 30.4978C93.6203 31.0572 93.84 31.602 94.0425 32.0655C95.0668 34.4152 96.1617 36.7156 96.9649 39.1558C98.3981 43.5114 98.5899 48.0122 98.4807 52.5303C98.2316 54.1327 97.9013 55.7231 97.4751 57.2896C97.4178 57.5147 97.3712 57.7437 97.3099 57.9675C97.2966 57.9875 97.2859 58.0075 97.274 58.0288C97.1461 58.4657 96.9955 58.8973 96.857 59.3342C96.8144 60.437 97.1048 61.6718 97.499 62.9225C98.0119 63.9335 98.3635 64.8806 98.5353 65.9635C98.7471 66.5922 98.9363 67.1983 99.0615 67.7577C99.7648 70.9145 100.412 74.1193 100.704 77.3507C100.79 80.7739 100.78 84.1932 100.374 87.6297C99.9086 91.5671 99.7235 96.0253 97.9359 99.679C99.6835 92.1652 100.108 84.4809 99.204 76.8033C99.0188 75.2275 98.7751 73.6664 98.51 72.112C98.2303 75.0743 97.6522 78.07 96.9796 80.9564C96.0712 83.362 94.6899 85.7223 92.4654 86.0993C92.4561 86.1832 92.4375 86.2631 92.4268 86.3457C91.6103 87.1063 91.5064 88.7353 91.3146 89.725C90.7165 92.8125 88.9516 95.7736 87.1707 98.4842C89.4698 95.9227 91.4758 93.0962 92.588 89.8741C92.7851 89.3027 93.6882 89.5292 93.5031 90.1152C92.7438 92.5182 92.3882 95.0889 91.3892 97.4132C90.4755 99.5364 89.1354 101.52 87.6423 103.289C87.3546 103.786 87.0709 104.285 86.8284 104.804C89.7615 103.235 91.6609 99.8828 93.7734 97.4612C94.0905 97.0989 94.6845 97.4772 94.566 97.9154C92.4015 105.89 87.649 112.78 79.5717 115.508C79.1748 115.643 78.8458 115.154 79.0402 114.818C80.1205 112.942 81.4938 111.279 82.8298 109.588C81.2154 110.605 79.4226 111.338 77.5631 111.844C77.5218 111.855 77.4871 111.849 77.4498 111.851C76.8518 112.224 76.2484 112.59 75.641 112.94C73.0863 114.416 69.9933 115.518 67.1042 116.059C66.9511 116.089 66.7899 116.116 66.6247 116.145C66.6474 116.194 66.6647 116.246 66.706 116.29C70.2544 119.925 77.6337 117.293 81.6989 116.068C85.928 114.794 89.8974 112.868 93.4045 110.29C93.3779 110.346 93.3406 110.399 93.2886 110.448C93.2553 110.479 93.2167 110.509 93.1834 110.54C93.2713 110.475 93.3579 110.407 93.4498 110.344C92.7012 111.432 91.4665 112.542 90.9576 113.062C89.5324 114.523 87.8887 115.722 86.4062 117.117C86.0905 117.416 86.3476 117.905 86.7405 117.925C92.1977 118.207 97.4764 116.486 102.129 113.701C100.9 115.004 99.6196 116.24 98.0119 117.119C97.6722 117.305 97.7308 117.742 98.0026 117.922C97.9932 117.927 97.9852 117.935 97.9759 117.941C97.9852 117.935 97.9986 117.93 98.0079 117.925C98.0758 117.969 98.153 118.001 98.2449 118.005C101.49 118.094 104.625 117.413 107.465 116.133C108.503 115.748 109.502 115.273 110.421 114.705C112.379 113.594 114.105 112.108 115.366 110.288C116.035 109.324 116.733 108.226 117.36 107.052C117.478 106.84 117.584 106.621 117.693 106.404C117.763 106.264 117.833 106.126 117.901 105.983C118.24 105.279 118.555 104.561 118.815 103.809C121.296 96.686 119.373 89.1376 116.164 82.3564Z" fill="#424241"/>
<path opacity="0.5" d="M24.1284 113.789C22.9776 112.389 21.9826 110.87 21.1727 109.271C21.6562 109.97 22.1997 110.635 22.7738 111.282C19.966 107.129 18.4341 102.448 17.6083 97.4891C17.282 96.4887 16.985 95.4764 16.7572 94.4428C16.1645 91.7415 15.6157 88.879 15.5104 86.0752C13.932 96.9762 16.8877 108.642 24.588 116.615C24.941 116.979 24.5787 117.469 24.1338 117.406C16.0912 116.285 6.58339 110.637 4.14317 102.757C3.56642 105.357 3.39459 108.005 3.97135 110.545C4.45619 112.683 5.32465 114.568 6.64066 116.309C7.45984 117.392 8.60004 118.966 9.94002 119.844C9.40856 119.269 8.91173 118.684 8.50547 118.139C5.94671 114.71 5.70028 111.213 5.42722 107.262C8.49481 113.861 15.1135 118.376 22.4408 118.559C24.8943 118.881 27.4531 118.81 30.0052 118.288C29.7241 118.116 29.4564 117.937 29.1927 117.753C27.1907 116.755 25.3938 115.326 24.1284 113.789Z" fill="#424241"/>
<path opacity="0.5" d="M44.4588 118.224C44.4148 118.097 44.3202 117.988 44.1537 117.943C40.2496 116.865 36.9969 114.119 34.2037 111.291C32.7598 109.83 31.3945 108.305 30.1238 106.709C28.4641 104.434 27.2254 101.776 26.0639 99.3029C24.0033 94.9166 22.2118 90.4584 21.3313 85.6846C21.306 85.6939 21.282 85.6952 21.2567 85.7045C20.7852 91.4721 22.4688 97.3888 25.306 102.452C27.0576 105.579 29.1381 108.744 31.6849 111.286C33.9666 113.562 36.5866 115.413 39.1454 117.359C39.4518 117.595 39.4784 118.119 39.0309 118.228C36.2097 118.922 33.5337 118.362 31.0975 117.021C30.7259 116.94 30.3582 116.849 29.9959 116.739C32.6746 118.129 35.6583 119.158 38.4594 119.345C41.2446 119.718 44.1031 119.544 46.9509 118.883C46.1024 118.715 45.2739 118.485 44.4588 118.224Z" fill="#424241"/>
<path opacity="0.5" d="M71.5277 23.2632C67.633 28.8083 61.5711 33.1879 55.7183 35.9105C46.7966 40.0596 36.4376 41.1839 29.9082 49.3183C29.6085 49.69 28.9865 49.2917 29.117 48.8628C29.8802 46.336 31.0311 44.0263 32.3631 41.8179C32.2219 42.039 32.0687 42.2521 31.9328 42.4732C31.1496 43.6214 30.4423 44.8149 29.8296 46.0589C28.8666 47.5614 28.0194 49.1332 27.3708 50.7942C26.3265 53.4688 25.1849 57.634 25.7684 60.7935C27.833 52.595 36.0354 47.5708 43.035 43.8651C48.7946 40.8149 54.9511 38.2162 60.315 34.4812C64.3616 31.6614 69.0569 27.8892 71.5277 23.2632Z" fill="#424241"/>
<path opacity="0.5" d="M77.4496 111.852C76.8515 112.225 76.2482 112.592 75.6408 112.942C73.3364 114.274 70.5965 115.277 67.9604 115.862C70.2781 116.798 73.7027 115.703 75.8819 115.363C76.9874 115.192 78.0676 114.958 79.1292 114.677C80.1962 112.861 81.5268 111.234 82.8295 109.588C81.2151 110.606 79.4223 111.338 77.5628 111.844C77.5215 111.856 77.4882 111.851 77.4496 111.852Z" fill="#424241"/>
<path opacity="0.5" d="M107.609 105.831C107.801 105.236 107.992 104.642 108.19 104.062C108.231 103.94 108.308 103.861 108.397 103.808C108.516 102.669 108.603 101.527 108.613 100.383C108.259 101.605 107.793 102.797 107.175 103.945C105.44 107.166 102.708 110.469 99.501 112.791C102.739 111.077 105.463 108.794 107.609 105.831Z" fill="#424241"/>
<path opacity="0.5" d="M116.164 82.3539C114.995 78.7442 113.615 75.1704 112.364 71.61C111.398 68.8688 110.442 66.1515 109.548 63.4209C109.876 66.3313 110.403 69.2151 111.181 72.0349C113.073 78.8947 116.919 85.1178 118.419 92.0948C120.48 101.681 113.576 113.824 103.449 115.513C103.015 115.586 102.627 115.069 102.995 114.721C104.756 113.056 105.813 110.893 106.652 108.633C105.185 110.3 103.5 111.766 101.601 112.903C98.2382 114.923 93.3724 117.048 89.3804 116.458C89.1739 116.428 89.0274 116.196 89.0274 116.001C89.0274 115.377 89.7001 115.18 90.117 114.795C91.08 113.904 91.9712 112.94 92.7038 111.85C93.6015 110.515 94.3754 109.115 94.9455 107.634C92.3121 109.441 89.6162 111.166 86.8336 112.687C84.5519 113.934 82.1637 114.801 79.7075 115.463C79.6622 115.478 79.6196 115.497 79.5729 115.513C79.5263 115.529 79.4824 115.535 79.4384 115.535C77.5616 116.025 75.6502 116.402 73.7095 116.715C71.5383 117.067 68.6106 117.585 66.6792 116.244C66.6899 116.261 66.6939 116.28 66.7085 116.296C70.2569 119.931 77.6362 117.299 81.7015 116.073C85.9305 114.8 89.8999 112.874 93.407 110.295C93.3804 110.351 93.3431 110.404 93.2911 110.454C93.2578 110.484 93.2192 110.515 93.1859 110.546C93.2739 110.48 93.3604 110.412 93.4523 110.35C92.7037 111.438 91.469 112.548 90.9601 113.067C89.5349 114.528 87.8912 115.727 86.4087 117.123C86.093 117.421 86.3501 117.91 86.7431 117.93C92.2003 118.213 97.479 116.492 102.132 113.706C100.902 115.009 99.6221 116.245 98.0144 117.124C97.6748 117.311 97.7333 117.748 98.0051 117.927C97.9957 117.933 97.9878 117.941 97.9784 117.946C97.9878 117.941 98.0011 117.935 98.0104 117.93C98.0783 117.974 98.1556 118.006 98.2475 118.01C101.492 118.099 104.628 117.419 107.468 116.139C108.505 115.754 109.504 115.278 110.423 114.711C112.381 113.6 114.108 112.113 115.369 110.294C116.038 109.329 116.736 108.232 117.363 107.057C117.48 106.845 117.587 106.627 117.696 106.41C117.765 106.27 117.836 106.131 117.904 105.989C118.242 105.284 118.558 104.566 118.818 103.815C121.296 96.6835 119.373 89.1351 116.164 82.3539Z" fill="#424241"/>
<path opacity="0.5" d="M104.717 114.244C105.929 113.895 107.081 113.378 108.163 112.734C107.899 112.809 107.63 112.873 107.349 112.91C107.012 112.956 106.673 112.709 106.772 112.334C107.085 111.145 107.357 109.947 107.607 108.745C106.885 110.718 106.019 112.631 104.717 114.244Z" fill="#424241"/>
<path opacity="0.5" d="M95.1787 109.467C94.5953 110.663 93.8946 111.804 93.1114 112.885C92.3082 113.997 91.3585 114.978 90.3115 115.857C90.7657 115.476 92.7384 115.249 94.0837 114.959C94.0531 114.849 94.0598 114.727 94.1304 114.622C95.3305 112.861 96.9435 111.576 98.4647 110.108C100.114 108.516 101.295 106.618 102.053 104.45C102.193 104.049 102.321 103.645 102.443 103.24C100.692 106.195 98.3488 108.567 95.1787 109.467Z" fill="#424241"/>
<path opacity="0.5" d="M84.4427 51.3522C82.2303 48.0821 80.1364 44.7161 78.3649 41.1824C75.3479 35.1617 73.1781 28.6936 72.5534 21.9937C72.3336 23.0859 72.1578 24.1794 72.2856 25.305C72.612 28.1914 73.6962 31.1658 74.6033 33.9123C76.0379 38.26 78.2423 42.3066 80.6852 46.1814C83.5317 51.1017 86.9829 55.6625 89.4524 60.8013C90.5659 63.1203 91.489 65.5512 91.6275 68.1326C91.7341 67.392 93.4391 57.2889 92.6319 52.9053C92.3362 51.2976 91.9006 49.7071 91.3998 48.1447C91.0428 47.5147 90.6685 46.8913 90.2875 46.2719C90.6192 47.3921 90.9496 48.511 91.1853 49.6539C91.8473 52.8466 91.8287 56.3099 91.1374 59.5053C91.0561 59.8796 90.6019 59.9395 90.3448 59.7198C89.1607 58.7048 88.4814 57.3528 87.6555 56.0541C86.6406 54.4517 85.5043 52.9226 84.4427 51.3522Z" fill="#424241"/>
<path opacity="0.5" d="M94.1088 56.3118C93.9703 53.5746 93.0259 51.161 91.7952 48.862C93.3416 53.5479 93.6906 58.6574 93.1858 63.6444C93.275 64.104 93.3749 64.5609 93.4548 65.0217C93.5081 65.3281 93.8611 65.4266 94.1142 65.3241C94.0529 65.2988 94.0183 65.2402 94.0516 65.1163C95.7738 58.6348 98.2846 52.465 97.616 45.5946C97.6013 45.4454 97.5733 45.3029 97.5574 45.1523C97.4575 49.1283 96.7196 53.0351 94.9933 56.5462C94.7722 56.9964 94.1315 56.7554 94.1088 56.3118Z" fill="#424241"/>
<path opacity="0.5" d="M34.4021 38.6599C35.1121 37.6236 35.8407 36.5967 36.5666 35.5684C28.564 41.0588 21.7508 48.1397 21.0622 58.2003C21.0382 58.5693 20.54 58.8809 20.255 58.5346C18.1331 55.9599 17.563 52.0265 17.1914 48.7138C17.1927 49.7235 17.2127 50.7304 17.25 51.7254C17.4418 56.7138 19.7395 61.0214 20.8024 65.806C20.9023 66.2522 21.6363 66.2788 21.7188 65.806C22.2143 62.8982 22.7725 60.0105 23.4451 57.156C23.8181 56.3342 24.2283 55.5256 24.6359 54.7211C25.5936 50.6439 27.9446 46.4854 29.8161 43.9639C31.2386 42.0485 32.7811 40.3023 34.4021 38.6599Z" fill="#424241"/>
<path opacity="0.5" d="M54.1917 10.0383C44.9223 10.5831 35.9301 13.6893 28.5881 18.9614C23.6864 21.9024 18.3744 28.5664 18.5635 28.1055C21.9454 19.9044 29.2328 13.8905 36.8452 9.71467C40.9117 7.48225 45.1634 5.56018 49.6736 4.42399C53.1088 3.56086 56.5933 2.98943 60.0978 2.52323C57.3925 2.39402 54.5647 2.41667 51.8594 2.90285C37.5857 4.20954 24.8425 11.5541 16.1672 23.3689C13.9415 26.4006 12.2805 29.7838 11.0657 33.3349C9.4833 40.0709 9.37674 47.1451 9.49795 54.1074C9.60052 59.9948 10.5995 66.1513 9.63783 71.9615C9.85894 71.3701 10.076 70.7787 10.2838 70.1859C11.139 65.825 10.9245 61.4973 10.9432 56.6249C10.9605 52.6009 11.3281 48.6196 11.837 44.6423C11.6132 48.3732 11.761 52.0735 12.4204 55.2889C12.5242 55.7897 13.1463 55.2982 13.1596 54.9679C13.5485 44.3799 16.7693 32.7422 24.4522 25.0686C33.1968 16.332 45.8201 12.9434 57.5137 10.7004C57.5896 10.6844 57.6789 10.6218 57.7562 10.5378C56.5787 10.3167 55.3892 10.1489 54.1917 10.0383Z" fill="#424241"/>
<path opacity="0.5" d="M83.9165 40.4753C83.9099 40.438 83.9019 40.4021 83.8939 40.3661C82.4673 35.4564 81.9332 30.5999 81.2299 25.5623C82.4913 28.4661 83.6528 31.7894 86.1676 33.2839C86.438 33.4424 86.7564 33.0455 86.8136 32.8324C87.0441 31.9852 87.1107 30.9969 87.0601 29.9392C88.8369 33.9086 90.2222 38.0005 91.9351 42.0045C90.9028 36.462 90.0304 30.8317 88.2748 25.5011C87.1666 22.1311 85.3444 18.8677 83.2199 16.0212C82.0531 14.4588 80.7158 11.9147 78.7924 11.0582C81.4071 15.1221 83.9258 19.7881 83.9845 24.5553C83.9885 24.9776 83.469 25.1681 83.1773 24.8897C81.6468 23.4365 80.797 21.5503 79.9112 19.6776C79.9099 21.8807 79.9499 24.0851 80.0431 26.2896C80.0671 26.8557 79.2825 26.8916 79.1134 26.4095C78.2742 24.0012 77.78 21.525 77.4497 18.9996C77.3085 17.9087 77.2512 16.7458 77.1367 15.5963C77.0341 14.9756 76.9502 14.3735 76.8796 13.8061C76.7904 13.3572 76.6838 12.9164 76.54 12.4928C76.2389 11.6123 75.6355 11.4299 74.9016 11.607C74.534 11.8721 74.2263 12.1425 74.1543 12.2037C73.2326 12.987 72.3042 13.7622 71.3651 14.5241C70.1583 15.5031 69.0075 16.5341 67.8167 17.5251C67.2146 18.0259 64.913 20.3396 64.1204 18.9849C63.3599 17.6862 64.889 15.9173 65.6242 14.977C66.7085 13.5864 68.1018 12.3289 69.2313 10.937C66.835 11.8934 64.5187 13.3519 62.3369 14.6373C60.572 15.6763 58.7339 16.8977 56.6426 17.0695C56.2523 17.1015 55.9873 16.5154 56.3083 16.2623C56.7425 15.924 59.6849 13.9673 61.9226 12.4022C61.2113 12.6113 60.4948 12.8058 59.7715 12.9843C57.3099 14.1485 54.7179 14.8864 52.1445 15.7615C50.1065 16.4541 48.0459 17.296 46.0199 18.251C42.8751 19.559 39.8395 21.3479 37.2701 23.0329C34.7912 24.6566 31.6584 26.7851 29.1103 29.2586C27.8409 30.8091 26.7113 32.4687 25.7363 34.2309C27.0497 32.8017 28.6867 31.6429 30.2931 30.5733C32.3816 29.1827 34.4915 27.86 36.696 26.7025C40.7919 24.1304 45.2474 22.1497 49.6869 20.2716C50.4208 19.9626 51.1521 19.6456 51.8821 19.3299C48.006 21.9926 44.4175 25.1374 40.608 27.828C40.3709 27.9932 40.1525 28.4447 40.2258 28.7138C41.9281 28.5247 43.7076 27.7601 45.1914 27.2659C45.8121 27.0582 46.4249 26.8344 47.0429 26.6186C48.608 25.8274 50.1345 24.9376 51.6223 24.0652C54.9416 22.576 57.8814 20.253 61.1114 18.5654C63.1774 17.4864 60.4667 21.8993 60.588 21.7382C59.7768 22.8184 59.0429 23.9546 58.2983 25.0801C56.4135 27.9226 54.1398 30.4507 51.8887 33.0002C51.8261 33.0708 51.7702 33.188 51.7369 33.3066C52.2537 33.2013 52.7692 33.0881 53.2753 32.9243C54.6433 32.4807 55.962 31.8733 57.222 31.17C59.4664 29.5663 61.5031 27.5443 63.3998 25.7781C64.1564 25.0721 64.853 24.3236 65.523 23.5537C67.22 22.1204 68.809 20.5314 70.2982 18.9463C71.6795 17.4744 73.2806 15.924 74.554 14.2257C74.1317 17.6756 75.0375 21.9206 75.6981 24.6672C77.2899 31.2966 80.0777 38.5067 84.2243 43.9758C84.3734 44.1716 84.6411 44.0158 84.793 43.8027C84.432 42.7118 84.1257 41.6049 83.9165 40.4753Z" fill="#424241"/>
<path opacity="0.5" d="M9.91753 94.6633C9.36875 92.0712 9.04509 89.4432 9.133 86.7872C9.22757 83.9327 9.4873 81.0849 9.14365 78.2598C7.57056 87.657 6.96581 97.7961 13.6817 105.534C13.8243 105.699 14.108 105.544 14.2492 105.345C12.1553 102.102 10.7101 98.4115 9.91753 94.6633Z" fill="#424241"/>
<path opacity="0.5" d="M110.282 77.8079C108.638 73.1685 107.02 68.3507 105.578 63.4477C105.426 62.6405 105.295 61.8293 105.163 61.0207C104.254 56.8716 103.678 52.6785 103.321 48.3668C103.207 46.9948 103.103 45.6189 102.984 44.2416C102.613 41.475 102.184 38.7152 101.604 35.9659C100.636 31.3759 98.8896 27.5011 96.5346 24.0179C95.2612 22.2517 93.8267 20.6147 92.2456 19.1108C95.9206 24.3975 98.7751 30.3076 100.051 36.5453C101.003 41.2007 101.302 45.9479 101.295 50.6911C101.295 51.7847 101.291 52.8809 101.302 53.9772C102.63 61.1673 104.716 68.2961 107.003 75.1239C107.568 77.6321 108.187 80.0696 108.597 82.5445C107.773 78.4153 105.835 74.5259 104 70.6924C103.733 70.3287 102.184 68.0191 101.911 67.6607C103.935 72.6784 105.395 80.2241 105.338 85.5068C105.27 91.9284 104.132 97.9783 101.604 103.78C103.897 101.14 105.685 98.7295 106.931 96.0309C106.679 98.0209 106.327 100.051 105.967 102.222C106.919 101.471 107.753 100.489 108.353 99.5754C108.491 99.3662 108.712 99.3276 108.901 99.3849C109.756 97.7479 110.244 95.9856 110.609 94.1062C111.389 98.4059 110.844 102.835 110.827 107.185C112.352 105.94 113.4 103.884 114.07 101.721C115.603 93.8198 112.874 85.1259 110.282 77.8079Z" fill="#424241"/>
<path opacity="0.5" d="M30.3689 115.23C22.7299 110.537 20.1365 102.631 17.9081 94.3749C17.8748 94.247 17.6577 94.4055 17.671 94.5054C18.9004 103.014 21.4739 112.081 30.1172 115.596C30.2957 115.67 30.5647 115.348 30.3689 115.23Z" fill="#424241"/>
<path d="M53.0864 71.3413C53.0864 71.3413 54.7527 73.5724 54.9645 75.1521C54.9645 75.1521 54.4343 79.9686 52.0793 82.7951C52.0793 82.7951 54.2092 78.5114 53.7856 75.1122L53.0864 71.3413Z" fill="#AC641B"/>
<path d="M58.0439 87.7428C56.9636 88.0678 55.3213 87.3312 53.6323 86.5493C51.95 85.7688 50.4542 84.5247 51.6543 83.1421C51.6543 83.1421 51.5877 84.4728 56.1631 85.1081C56.1631 85.1081 57.2247 85.5064 60.1152 84.514C60.1152 84.514 58.5327 86.1244 56.3576 85.9646C54.1824 85.8008 52.7585 84.847 52.7585 84.847C52.7585 84.847 53.9107 86.199 56.9077 87.1594C56.9077 87.1594 57.8388 87.8254 60.1045 86.0885C60.1045 86.0885 59.1268 87.4125 58.0439 87.7428Z" fill="#AC641B"/>
<path d="M58.0439 87.7428C56.9636 88.0678 55.3213 87.3312 53.6323 86.5493C51.95 85.7688 50.4542 84.5247 51.6543 83.1421C51.6543 83.1421 51.5877 84.4728 56.1631 85.1081C56.1631 85.1081 57.2247 85.5064 60.1152 84.514C60.1152 84.514 63.0682 82.9223 60.1045 86.0898C60.1045 86.0898 59.1268 87.4125 58.0439 87.7428Z" fill="#FAD6BE"/>
<path d="M54.863 80.5593C55.3718 79.0235 56.1151 77.513 56.1244 75.8867C56.1337 73.8381 55.2773 72.598 54.0678 71.2061C54.0478 71.2607 54.0398 71.3166 54.0611 71.3619C54.3289 71.9427 54.5859 72.4968 54.8124 73.0322C55.2586 74.5827 55.3678 76.1078 54.9349 77.8114C54.534 79.3858 53.579 80.7018 53.0808 82.2003C53.7108 81.6755 54.3102 81.1374 54.863 80.5593Z" fill="#FAEDE6"/>
<path d="M57.6561 83.9802C58.2062 83.2636 56.6465 82.9519 56.2935 82.9653C55.8113 82.9852 55.3491 83.1051 54.8776 83.1957C54.7337 83.4608 54.7497 83.8311 54.9828 84.0655C55.2679 84.3505 55.6408 84.577 56.0351 84.6862C56.6558 84.7009 57.2712 84.4824 57.6561 83.9802Z" fill="#FAEDE6"/>
<path d="M39.8091 59.7628C41.6046 60.3982 43.235 61.3159 44.8959 62.2323C45.5846 62.6119 46.2785 62.9849 46.9605 63.3765C46.2719 62.9796 50.834 64.7684 50.4237 63.1927C50.4011 63.1101 50.4996 63.1074 50.5462 63.1407C50.5902 63.1714 50.6302 63.2033 50.6755 63.2353C50.7327 63.2753 50.7993 63.3579 50.786 63.4324C50.2932 66.2629 47.6358 64.9762 46.0588 64.1357C41.7764 61.8554 36.8387 58.7531 32.3645 62.6519C32.202 62.7944 31.9769 62.5147 32.0169 62.3549C32.8267 59.2473 37.3129 58.8837 39.8091 59.7628Z" fill="#FAD6BE"/>
<path d="M31.748 61.82C31.8053 61.7214 31.8639 61.6308 31.9238 61.5363C31.9252 61.5296 31.9225 61.5243 31.9238 61.5203C31.9611 61.4603 31.9997 61.4057 32.037 61.3484C32.0903 61.2645 32.1423 61.1859 32.1956 61.1073C32.2156 61.0807 32.2355 61.0514 32.2542 61.0234C36.0517 55.5676 42.4746 58.3195 47.8132 60.436C48.2887 60.6078 48.7776 60.7957 49.2997 61.0021C49.3011 60.9728 49.2984 60.9382 49.2984 60.9089C49.317 60.9222 49.3357 60.9329 49.3543 60.9462C49.8312 61.3138 50.7583 61.9585 50.8022 62.6391C50.4679 64.0577 49.5075 65.0434 47.6853 63.9845C45.4063 62.6591 43.0313 61.5842 40.5165 60.7743C38.2801 60.0511 36.4473 60.1603 34.5918 60.8942C33.8326 61.2525 33.0733 61.7068 32.2661 62.2609C32.041 62.414 31.6055 62.0717 31.748 61.82Z" fill="#424241"/>
<path d="M38.1549 59.0248C40.6124 59.2246 43.0526 60.3594 45.2131 61.481C47.1818 62.5013 48.9947 64.0091 50.685 63.0261C50.2707 64.2222 49.333 64.9442 47.684 63.9865C45.4049 62.6611 43.03 61.5862 40.5152 60.7763C38.2788 60.0531 36.446 60.1623 34.5905 60.8962C33.8313 61.2545 33.072 61.7087 32.2648 62.2629C32.2115 62.2988 32.1449 62.3068 32.0757 62.2922C33.6954 60.6432 35.7653 58.833 38.1549 59.0248Z" fill="#424241"/>
<path d="M49.7539 65.7572C50.0123 66.2647 50.641 66.3513 51.2471 66.2767C51.648 66.0649 51.9943 65.7026 52.2514 65.2804C53.0932 63.8924 53.032 62.6004 52.5977 61.0673C52.5684 60.9727 52.3726 60.8595 52.3833 61.026C52.5937 64.2014 51.6573 65.4469 49.7539 65.7572Z" fill="#E9C8B2"/>
<path d="M61.1239 58.0578C61.273 57.9579 61.4888 57.9433 61.6593 58.0218C62.6317 58.4641 63.2843 59.8893 64.4405 59.904C67.0233 59.9373 69.3676 57.2586 71.2617 56.0984C74.2813 54.2483 77.3396 56.0412 79.3496 57.9193C79.4601 58.0232 79.4601 58.2496 79.227 58.1591C77.1864 57.3665 75.5374 56.241 73.1398 56.9936C71.0059 57.6649 69.4622 59.6056 67.5214 60.6033C66.8701 60.9389 66.4478 61.3092 65.7046 61.3692C64.4831 61.6902 63.3789 61.5024 62.0989 60.5407C61.3836 60.0025 59.9917 58.8011 61.1239 58.0578Z" fill="#FAD6BE"/>
<path d="M66.7712 56.9771C67.0815 56.7373 71.3746 54.6661 72.1884 54.3957C72.7572 54.2052 73.3193 54.1213 73.8654 54.1187C74.5927 54.1919 75.3266 54.385 76.0885 54.77C77.1528 55.3068 78.4954 56.2725 79.256 57.2835C79.2453 57.4899 79.2374 57.7004 79.228 57.9082C79.232 57.8136 78.2357 57.3194 78.0718 57.2155C77.4325 56.8133 76.7678 56.4123 75.9699 56.2405C74.3436 55.8862 72.7971 56.7893 71.5784 57.5365C70.2357 58.3611 68.9677 59.2855 67.4932 59.9594C66.6966 60.3231 65.8361 60.6121 64.9224 60.704C63.1495 60.8785 61.7456 59.8236 61.0529 58.5902C61.0476 58.068 61.1528 57.5539 61.4459 57.1969C63.304 57.4207 65.0942 58.2718 66.7712 56.9771Z" fill="#424241"/>
<path d="M61.2341 58.2921C61.8694 58.9488 62.618 59.5122 63.6863 59.6921C64.2257 59.7826 64.9397 59.7507 65.6003 59.6028C66.1584 59.5202 66.7565 59.3058 67.4105 58.9128C68.901 58.0204 70.1718 56.6498 71.7968 55.9452C74.5061 54.7743 77.8174 55.7027 79.2027 57.8752C79.0761 57.7367 78.2237 57.3104 78.0718 57.2159C77.4325 56.8136 76.7678 56.4127 75.9699 56.2409C74.3436 55.8865 72.7971 56.7896 71.5783 57.5369C70.2357 58.3614 68.9676 59.2858 67.4931 59.9598C66.6966 60.3234 65.8361 60.6125 64.9223 60.7044C63.1548 60.8789 61.7535 59.8279 61.0596 58.5985C61.0995 58.4906 61.1528 58.3894 61.2341 58.2921Z" fill="#424241"/>
<path d="M60.7694 61.5038C60.3884 61.5784 59.9821 61.5824 59.5772 61.5345C58.9419 61.1415 58.453 60.5727 58.2532 59.98C58.2226 59.8814 58.1999 59.7722 58.1826 59.6563C58.2439 58.9903 58.433 58.1405 59.0098 58.0366C58.8886 58.5388 58.9299 59.0822 59.0085 59.5764C59.1417 60.4129 59.9915 61.0097 60.7694 61.5038Z" fill="#E9C8B2"/>
<path d="M56.7082 59.9546C57.1584 60.5114 57.9097 61.4877 57.5487 62.171C57.4381 62.3775 57.0718 62.163 57.0132 62.0325C56.868 61.7142 56.8587 61.9073 56.7655 61.5796C56.6629 61.2187 56.5284 60.3356 56.4431 59.9706C56.4085 59.8214 56.6469 59.88 56.7082 59.9546Z" fill="#E9C8B2"/>
<path d="M82.1264 72.3558C81.856 72.5023 81.3618 72.9765 81.0954 73.1244C81.3219 70.5003 79.3266 68.0242 77.6176 66.531C76.0792 65.1844 74.2783 64.1401 72.3496 64.2746C73.0795 64.0815 73.8254 63.9256 74.5807 63.7791C70.4541 63.3276 66.8724 65.1604 64.5175 68.533C63.28 70.8507 62.6233 73.9635 63.2347 76.6315C63.9367 79.7058 69.1462 78.5336 70.9097 78.2153C74.0732 77.6412 78.4888 76.4837 81.2726 74.0102C81.6269 73.5173 81.9173 72.9685 82.1264 72.3558Z" fill="#FAD6BE"/>
<path d="M80.8033 73.1758C80.6502 72.5884 80.1067 71.5654 79.9003 70.9953C79.1037 69.0639 78.2246 67.5468 76.184 66.344C74.19 65.1665 72.2892 65.1066 70.0914 65.706C65.5893 66.9288 63.8324 71.4695 64.196 75.5787C64.0988 76.2554 64.1388 76.9613 64.8833 77.1878C66.9426 77.8218 69.1937 77.6007 71.3169 77.3609C73.6625 77.0972 76.7394 76.3446 78.86 74.7902C78.876 74.7729 80.3878 73.9111 80.8033 73.1758Z" fill="#81400F"/>
<path d="M67.2321 77.1894C64.8145 77.0469 64.3656 75.258 64.5175 74.2577C64.7892 70.2963 66.8737 66.8731 71.3759 65.954C75.9113 65.0283 78.3969 68.955 80.0206 72.2996C79.6316 74.8291 74.0652 76.6966 70.8711 77.0016C69.968 77.0868 68.3576 77.228 67.2321 77.1894Z" fill="white"/>
<path d="M71.4863 64.1709C70.8136 64.2801 70.1583 64.4253 69.5203 64.6078C65.539 66.3354 63.0068 70.4872 63.469 75.0054C63.4784 75.0706 63.5263 75.0746 63.5796 75.0547C63.6248 74.8322 63.6675 74.6098 63.7287 74.3913C63.8286 71.8552 64.448 69.4616 66.1144 67.3957C67.7541 65.3604 70.4034 64.4413 72.9648 64.0684C72.3827 64.095 71.746 64.131 71.4863 64.1709Z" fill="#81400F"/>
<path d="M29.1902 72.403C29.4566 72.5482 29.9374 73.0144 30.1985 73.1582C29.996 70.6181 31.986 68.2418 33.6777 66.8166C35.2068 65.5299 36.989 64.5389 38.8871 64.688C38.1732 64.4936 37.4379 64.3351 36.6933 64.1846C40.7639 63.793 44.2764 65.6045 46.5701 68.8932C47.7702 71.1482 48.3936 74.1679 47.7689 76.7439C47.0509 79.7103 41.9267 78.5195 40.1925 78.1918C37.0809 77.6044 32.74 76.4376 30.0187 74.012C29.6737 73.5325 29.3913 72.9997 29.1902 72.403Z" fill="#FAD6BE"/>
<path d="M32.3883 74.8006C34.4649 76.3284 37.4898 77.0903 39.7982 77.37C41.8868 77.6244 44.1032 77.8629 46.1385 77.2728C46.8724 77.061 46.9204 76.379 46.8298 75.7223C47.2201 71.753 45.5284 67.3374 41.1036 66.1067C38.9431 65.5033 37.0703 65.5406 35.0962 66.6568C33.0743 67.7996 32.1952 69.2582 31.3946 71.119C31.1882 71.6677 30.6447 72.6494 30.4875 73.2169C30.8885 73.9335 32.371 74.7846 32.3883 74.8006Z" fill="#81400F"/>
<path d="M39.741 64.6034C40.403 64.7166 41.045 64.8645 41.6724 65.047C45.5805 66.7626 48.0407 70.8065 47.5479 75.1728C47.5412 75.2367 47.4919 75.2394 47.4399 75.2181C47.396 75.005 47.356 74.7892 47.2961 74.576C47.2202 72.1185 46.6274 69.7969 45.0064 67.7802C43.4027 65.7929 40.8053 64.8751 38.2825 64.4849C38.8566 64.5182 39.4839 64.5621 39.741 64.6034Z" fill="#81400F"/>
<path d="M40.2378 77.0234C37.097 76.6944 31.6265 74.8269 31.2642 72.376C32.8932 69.1566 35.3707 65.3844 39.8329 66.3288C44.2604 67.2678 46.2877 70.6018 46.5221 74.4366C46.662 75.4076 46.2065 77.1312 43.8235 77.2458C42.714 77.2698 41.1302 77.1153 40.2378 77.0234Z" fill="white"/>
<path d="M75.1027 71.6979C75.1027 74.3738 73.463 76.545 71.4397 76.545C69.4151 76.545 67.7781 74.3738 67.7781 71.6979C67.7781 69.0219 69.4164 66.8521 71.4397 66.8521C73.4617 66.8521 75.1027 69.0219 75.1027 71.6979Z" fill="#220300"/>
<path d="M71.4398 67.1851C69.5896 67.1851 68.0898 69.1684 68.0898 71.6179C68.0898 74.0675 69.5896 76.0521 71.4398 76.0521C73.2899 76.0521 74.7898 74.0675 74.7898 71.6179C74.7898 69.1697 73.2899 67.1851 71.4398 67.1851Z" fill="#7F4A23"/>
<path d="M73.7081 71.4347C73.7081 73.1224 72.6744 74.4903 71.3984 74.4903C70.121 74.4903 69.0874 73.1224 69.0874 71.4347C69.0874 69.7444 70.121 68.3765 71.3984 68.3765C72.6731 68.3765 73.7081 69.7444 73.7081 71.4347Z" fill="#0A000B"/>
<path d="M70.5206 69.6312C70.3541 70.3838 69.8427 70.9112 69.3791 70.8087C68.9129 70.7061 68.6718 70.0122 68.8383 69.2596C69.0035 68.507 69.5137 67.9795 69.9799 68.0821C70.4434 68.1846 70.6858 68.8786 70.5206 69.6312Z" fill="#FFFAE2"/>
<path d="M73.2659 73.8699C71.0774 76.2209 68.9263 74.3961 68.821 71.6628C68.8197 71.5882 68.3322 72.0264 68.3362 72.0811C68.4374 73.5915 69.0502 74.9555 70.5007 75.5829C71.7501 76.1237 72.8863 75.3311 73.5736 74.3628C73.6296 74.2829 73.3258 73.8073 73.2659 73.8699Z" fill="#7F4A23"/>
<path d="M74.0306 70.1699C74.0306 70.1699 74.4249 71.9202 73.5591 73.4386L73.8841 73.6318C73.8841 73.6318 74.9803 72.2372 74.0306 70.1699Z" fill="#7F4A23"/>
<path d="M43.0911 71.8159C43.0911 74.4918 41.4514 76.663 39.4281 76.663C37.4062 76.663 35.7651 74.4918 35.7651 71.8159C35.7651 69.1399 37.4048 66.9688 39.4281 66.9688C41.4514 66.9688 43.0911 69.1399 43.0911 71.8159Z" fill="#220300"/>
<path d="M39.4267 67.3071C37.5753 67.3071 36.0754 69.2905 36.0754 71.74C36.0754 74.1896 37.5753 76.1742 39.4267 76.1742C41.2795 76.1742 42.778 74.1896 42.778 71.74C42.778 69.2905 41.2795 67.3071 39.4267 67.3071Z" fill="#7F4A23"/>
<path d="M41.6963 71.5514C41.6963 73.2391 40.6626 74.607 39.3866 74.607C38.1105 74.607 37.0769 73.2391 37.0769 71.5514C37.0769 69.8611 38.1105 68.4932 39.3866 68.4932C40.6626 68.4932 41.6963 69.8611 41.6963 71.5514Z" fill="#0A000B"/>
<path d="M38.5066 69.7479C38.3427 70.4992 37.8313 71.0279 37.3651 70.9241C36.9002 70.8228 36.6578 70.1288 36.8243 69.3763C36.9908 68.6237 37.5023 68.0962 37.9671 68.1988C38.432 68.3013 38.6731 68.9953 38.5066 69.7479Z" fill="#FFFAE2"/>
<path d="M41.2556 73.9856C39.0645 76.3379 36.9133 74.513 36.8107 71.7798C36.8067 71.7039 36.3192 72.1434 36.3245 72.1967C36.4244 73.7072 37.0372 75.0711 38.4877 75.6985C39.7398 76.2393 40.876 75.4468 41.5633 74.4784C41.6165 74.3985 41.3129 73.9243 41.2556 73.9856Z" fill="#7F4A23"/>
<path d="M42.0189 70.2881C42.0189 70.2881 42.4158 72.0383 41.5474 73.5568L41.875 73.75C41.875 73.75 42.9673 72.3553 42.0189 70.2881Z" fill="#7F4A23"/>
<path d="M69.9424 93.6191C68.8075 91.8396 66.972 93.1556 65.4229 93.2368C65.3377 93.2395 65.1805 93.3874 65.3004 93.4526C66.2728 93.9828 67.4023 93.4966 68.3347 94.1399L68.3333 94.1413C66.6723 95.2282 64.7969 94.9951 62.8975 95.2282C60.7277 95.4946 58.5752 96.1299 56.4613 96.6681C54.8322 97.0823 53.4124 97.9721 51.8073 98.4449C49.9838 98.9817 48.6398 98.5262 46.8709 98.5262C46.723 98.5262 46.5565 98.686 46.6072 98.8405C46.6218 98.8845 46.6365 98.9298 46.6511 98.9764C46.6805 99.0643 46.8137 98.9871 46.8416 98.9378C46.5393 99.4786 49.9052 99.7756 50.2369 99.7383C52.3747 99.4959 54.2422 98.2092 56.2735 97.6218C58.6431 96.9371 61.1046 96.3777 63.5515 96.0753C65.5481 95.8289 67.1319 96.1779 68.6024 94.6487C68.5917 94.8046 68.5771 94.9578 68.5545 95.1163C68.5452 95.1776 68.5345 95.2348 68.5252 95.2868C68.5198 95.2921 68.5025 95.3054 68.4985 95.3081C68.2401 95.5425 68.0257 95.9381 68.2068 96.2738C68.2667 96.3883 68.4119 96.4123 68.5238 96.3524C69.5708 95.7796 70.7869 94.9458 69.9424 93.6191Z" fill="#FAD6BE"/>
<path d="M62.434 100.48C61.3098 99.3454 59.6289 99.4466 58.1677 99.6744C56.6625 99.9088 54.2902 100.346 53.3884 101.728C53.2965 101.871 53.3645 102.104 53.5656 101.993C54.8923 101.465 56.5013 101.303 57.8999 101.029C59.2506 100.763 60.7011 100.787 62.0477 101.038C62.2782 101.081 62.6338 100.683 62.434 100.48Z" fill="#FAD6BE"/>
<path d="M68.2097 93.4213C67.593 93.2388 66.9683 93.2521 66.333 93.2974C66.1451 93.3121 65.9307 93.3067 65.7149 93.3094C66.213 93.4 66.7126 93.4932 67.1828 93.6797C68.0193 94.0114 66.8271 94.5628 66.4848 94.704C64.8025 95.3913 62.8471 95.0583 61.0716 95.3313C57.5218 95.8748 54.032 96.9324 50.5368 97.8355C50.1972 97.9714 49.8575 98.1032 49.5285 98.2604C48.4776 98.7652 47.665 98.7333 46.6128 98.648C46.6061 98.6507 46.5994 98.6534 46.5928 98.6574C47.8915 99.707 50.2344 98.9704 51.6423 98.5828C53.318 98.1219 54.9244 97.4479 56.5827 96.9298C58.2637 96.4023 59.9993 96.1106 61.7296 95.7922C62.8085 95.5951 63.9274 95.7616 65.0156 95.7523C65.5657 95.7469 66.1305 95.7216 66.6633 95.5658C67.2094 95.4073 67.5251 95.0343 68.0112 94.8026C68.0472 94.8345 68.0912 94.8598 68.1271 94.8945C68.3789 95.1396 68.3043 95.5218 68.5574 95.7776C68.58 95.7989 68.608 95.7976 68.632 95.8095C68.9157 95.4406 69.2527 95.1156 69.611 94.8145C69.623 94.1539 68.9636 93.6424 68.2097 93.4213Z" fill="#AC641B"/>
<path d="M73.8532 93.9349C73.3603 92.5043 71.8472 92.0022 70.1928 91.6412C69.4509 91.5946 68.6983 91.5546 67.9205 91.4467C66.9321 91.3109 66.2275 90.9832 65.4976 90.5942C66.2328 91.6638 67.3983 92.1673 68.701 92.5456C69.7 92.836 70.6657 92.9865 71.5395 93.5779C72.2694 94.0708 72.5891 94.8446 73.4336 95.1896C73.5242 95.2269 73.6201 95.2016 73.7107 95.1576C73.7919 94.7607 73.8465 94.3491 73.8532 93.9349Z" fill="#FAD6BE"/>
<path d="M55.7381 100.628C56.6372 100.36 57.5296 100.175 58.4553 100.038C59.786 99.839 61.0914 100.175 62.406 100.372C62.3994 100.362 62.3994 100.349 62.3914 100.341C62.1849 100.049 61.8666 99.8137 61.4923 99.6126C59.4903 98.9 57.2112 98.6456 55.433 99.9403C54.9695 100.279 54.0424 100.939 53.3271 101.663C54.1863 101.58 54.9255 100.869 55.7381 100.628Z" fill="#AC641B"/>
</svg>
