<svg width="121" height="122" viewBox="0 0 121 122" fill="none" xmlns="http://www.w3.org/2000/svg">
<path d="M30.5223 70.0298C27.5053 71.134 24.6401 72.5193 22.1692 74.3375C20.1432 75.8267 18.5515 77.6916 17.3566 79.7735C17.0583 80.293 16.8518 80.8112 16.6853 81.332C16.6786 81.1095 16.6813 80.8858 16.68 80.6646C16.4615 81.272 16.291 81.8954 16.1565 82.5268C16.1845 82.9917 16.2218 83.4552 16.2671 83.9201C16.2524 85.328 16.5161 86.7573 16.8238 88.2332C16.8465 88.3424 16.9237 88.3757 17.0143 88.3664C17.2061 89.1723 17.4192 89.9781 17.6697 90.7734C18.9391 94.7961 21.1795 98.5004 23.5186 102.089C25.2236 104.705 26.9246 107.469 29.8483 109.134C30.0308 109.239 30.2373 108.969 30.2439 108.837C30.2772 108.217 30.0375 107.585 29.7245 106.957C29.9589 107.324 30.212 107.69 30.489 108.054C31.6652 109.599 33.1291 110.871 34.7861 111.922C38.8062 113.532 43.054 114.523 47.3964 114.503C32.5843 105.58 28.1673 86.716 30.5223 70.0298Z" fill="#1F1F1D"/>
<path d="M46.3134 117.826C44.1528 117.918 42.0163 117.719 39.917 117.28C42.3186 118.065 44.8561 118.594 47.4296 118.925C47.034 118.588 46.6663 118.214 46.3134 117.826Z" fill="#1F1F1D"/>
<path d="M70.8241 113.778C75.8485 112.338 80.6571 110.164 84.9302 107.336C84.7557 107.538 84.5772 107.74 84.392 107.934C83.9898 108.35 83.405 108.894 83.2652 109.457C82.8043 111.301 88.0631 108.307 88.6692 107.97C97.1821 103.247 103.786 94.2356 103.708 84.8329C103.666 79.8911 101.136 75.3009 96.8984 72.3638C94.1238 70.439 90.7498 69.2828 87.3038 68.4224C87.1959 69.2975 87.0494 70.17 86.9229 71.0211C86.4154 74.495 85.744 77.9903 84.8729 81.4042C83.3251 87.4556 81.2405 93.455 77.969 98.9083C76.2907 101.707 74.3779 104.355 72.22 106.854C70.4031 108.957 68.228 111.587 65.6465 112.92C65.5919 112.948 65.5359 112.973 65.4827 113.002C66.9466 113.607 68.8527 113.807 70.8241 113.778Z" fill="#1F1F1D"/>
<path d="M25.9788 83.6541C27.5626 77.3164 26.2851 71.3742 22.7833 66.2992C21.9787 63.5619 20.5375 60.9632 17.9227 61.9675C15.7875 62.788 14.6659 64.3865 14.3076 66.3698C14.4888 68.6596 15.1415 70.9147 15.6982 73.1858C15.7475 73.3323 15.7981 73.4815 15.8394 73.6254C16.4122 75.6394 16.604 77.696 17.0769 79.7273C17.6483 82.1796 18.3729 84.3428 20.7693 85.447C22.6847 86.3302 25.406 85.9439 25.9788 83.6541Z" fill="#9E4C0B"/>
<path d="M21.5805 84.6807C18.277 83.9255 17.8455 80.0573 17.4339 77.4945C16.9224 74.3229 13.2127 66.1936 16.5041 63.6694C16.7852 63.2538 17.1448 62.9035 17.611 62.6624C19.3933 61.7407 20.8199 63.0461 21.6058 64.6138C21.7509 64.8429 21.8961 65.0934 22.0427 65.3731C22.5435 66.3175 22.9498 67.2819 23.2788 68.2596C24.9385 71.3086 25.9468 74.5747 25.751 78.3496C25.6178 80.9577 25.6298 85.6065 21.5805 84.6807Z" fill="#F9CEB2"/>
<path d="M21.5805 84.6807C18.277 83.9255 17.8455 80.0573 17.4339 77.4945C16.9224 74.3229 13.2127 66.1936 16.5041 63.6694C16.7852 63.2538 17.1448 62.9035 17.611 62.6624C19.3933 61.7407 20.8199 63.0461 21.6058 64.6138C21.7509 64.8429 21.8961 65.0934 22.0427 65.3731C22.5435 66.3175 22.9498 67.2819 23.2788 68.2596C24.9385 71.3086 25.9468 74.5747 25.751 78.3496C25.6178 80.9577 25.6298 85.6065 21.5805 84.6807Z" fill="#FAD6BE"/>
<path d="M18.3025 74.155C18.5209 74.4454 18.9712 74.4534 19.2029 74.187C20.3285 72.9109 20.3938 70.3827 19.5719 68.9228C19.3361 68.5006 18.6781 67.8333 18.1639 67.7267C17.049 67.4963 16.443 68.5579 16.1712 69.425C16.2698 69.1107 16.0807 68.5752 16.1193 68.2262C16.1619 67.8133 16.2871 67.403 16.5109 67.0474C16.8746 66.4679 17.6764 66.031 18.4077 66.3627C19.5905 66.8982 20.0727 68.2488 20.3764 69.3411C20.6921 70.4786 20.8866 71.6442 20.9106 72.815C20.9332 74.0125 20.7254 75.1687 20.523 76.3435C20.507 76.4301 20.4963 76.5194 20.4817 76.6046C20.4763 76.6339 20.459 76.6446 20.4417 76.6512C20.2845 77.2386 20.0914 77.7941 19.8596 78.2923C19.7717 78.4828 19.5093 78.1684 19.5293 78.0419C19.7384 76.6672 19.821 75.2726 19.849 73.878C19.7237 74.3309 19.5306 74.9596 19.1297 75.1088C18.2958 75.4191 17.8549 73.9299 17.5033 72.9535C17.7577 73.3531 18.0028 73.7581 18.3025 74.155Z" fill="#9E4C0B"/>
<path d="M93.4723 85.447C95.8686 84.3428 96.5932 82.1796 97.1646 79.7273C97.6362 77.696 97.828 75.6394 98.4021 73.6254C98.4434 73.4815 98.494 73.3323 98.5446 73.1858C99.1001 70.9147 99.7514 68.6596 99.9339 66.3698C99.5743 64.3878 98.4527 62.7894 96.3175 61.9675C93.704 60.9632 92.2628 63.5619 91.4583 66.2992C87.9564 71.3756 86.679 77.3164 88.2641 83.6541C88.8355 85.9439 91.5582 86.3302 93.4723 85.447Z" fill="#9E4C0B"/>
<path d="M88.4904 78.3545C88.296 74.5796 89.3043 71.3135 90.9627 68.2645C91.2917 67.2868 91.6979 66.3224 92.1975 65.378C92.344 65.0983 92.4905 64.8478 92.6357 64.6187C93.4216 63.0509 94.8468 61.7456 96.6304 62.6673C97.0953 62.9084 97.4563 63.2587 97.736 63.6743C101.03 66.1985 97.3191 74.3278 96.8076 77.4994C96.396 80.0622 95.9631 83.929 92.661 84.6856C88.613 85.61 88.625 80.9613 88.4904 78.3545Z" fill="#F9CEB2"/>
<path d="M88.4904 78.3545C88.296 74.5796 89.3043 71.3135 90.9627 68.2645C91.2917 67.2868 91.6979 66.3224 92.1975 65.378C92.344 65.0983 92.4905 64.8478 92.6357 64.6187C93.4216 63.0509 94.8468 61.7456 96.6304 62.6673C97.0953 62.9084 97.4563 63.2587 97.736 63.6743C101.03 66.1985 97.3191 74.3278 96.8076 77.4994C96.396 80.0622 95.9631 83.929 92.661 84.6856C88.613 85.61 88.625 80.9613 88.4904 78.3545Z" fill="#FAD6BE"/>
<path d="M95.9392 74.155C95.7207 74.4454 95.2705 74.4534 95.0374 74.187C93.9132 72.9109 93.8466 70.3827 94.6698 68.9228C94.9069 68.5006 95.5635 67.8333 96.0777 67.7267C97.1926 67.4963 97.7973 68.5579 98.0704 69.425C97.9718 69.1107 98.161 68.5752 98.1224 68.2262C98.0797 67.8133 97.9545 67.403 97.7307 67.0474C97.3671 66.4679 96.5652 66.031 95.8339 66.3627C94.6524 66.8982 94.1689 68.2488 93.8652 69.3411C93.5495 70.4786 93.3551 71.6442 93.3324 72.815C93.3071 74.0125 93.5162 75.1687 93.72 76.3435C93.7347 76.4301 93.7467 76.5194 93.7613 76.6046C93.7653 76.6339 93.784 76.6446 93.7999 76.6512C93.9585 77.2386 94.1516 77.7941 94.382 78.2923C94.4713 78.4828 94.7324 78.1684 94.7137 78.0419C94.5033 76.6672 94.422 75.2726 94.394 73.878C94.5192 74.3309 94.7124 74.9596 95.1147 75.1088C95.9485 75.4191 96.3894 73.9299 96.7397 72.9535C96.4853 73.3531 96.2402 73.7581 95.9392 74.155Z" fill="#9E4C0B"/>
<path d="M95.3798 49.1199C95.2266 44.8614 94.7231 40.5897 94.1343 36.3592C94.0744 32.9851 93.9691 29.3141 92.0284 26.4769C89.9944 23.4998 86.4059 21.647 83.2317 20.1751C74.6455 16.2004 65.4759 14.3022 56.0811 13.6109C48.4806 13.0528 41.4276 13.8147 34.545 17.2953C29.7737 19.7089 25.5019 23.4186 23.1376 28.1872C23.1016 28.106 22.9604 28.0966 22.9245 28.2059C22.7353 28.7653 22.5582 29.3261 22.393 29.8869C22.06 30.7607 21.7869 31.6638 21.5898 32.6002C21.5765 32.6575 21.6004 32.6974 21.6324 32.7294C20.9784 35.496 20.5681 38.3012 20.4243 41.1944C20.1738 46.2134 20.8212 51.2512 20.8865 56.2689C20.9104 58.0644 20.9211 59.86 20.9331 61.6569C21.8202 65.7262 21.3114 70.66 21.2847 74.7373C21.2701 76.9179 21.1902 79.1157 21.1742 81.3149C21.2701 82.7428 21.4246 84.1654 21.683 85.5747C23.2068 93.9504 29.097 100.508 36.5324 104.369C38.3826 105.33 49.6275 113.203 61.7196 112.299C68.8046 109.768 75.0731 105.103 81.5281 100.901C84.1548 98.9748 86.7163 96.7916 88.5491 94.1023C90.5765 91.1305 91.8086 87.8311 92.5559 84.3252C92.7597 83.3662 92.9142 82.4031 93.0487 81.4347C92.9595 75.5685 93.5083 69.4985 94.0477 63.6696C94.0344 63.6936 94.0184 63.7175 94.0051 63.7415C94.0291 63.3965 94.0544 63.0515 94.0837 62.7092C94.4753 58.0991 95.5462 53.7807 95.3798 49.1199Z" fill="#F9CEB2"/>
<path d="M95.3798 49.1199C95.2266 44.8614 94.7231 40.5897 94.1343 36.3592C94.0744 32.9851 93.9691 29.3141 92.0284 26.4769C89.9944 23.4998 86.4059 21.647 83.2317 20.1751C74.6455 16.2004 65.4759 14.3022 56.0811 13.6109C48.4806 13.0528 41.4276 13.8147 34.545 17.2953C29.7737 19.7089 25.5019 23.4186 23.1376 28.1872C23.1016 28.106 22.9604 28.0966 22.9245 28.2059C22.7353 28.7653 22.5582 29.3261 22.393 29.8869C22.06 30.7607 21.7869 31.6638 21.5898 32.6002C21.5765 32.6575 21.6004 32.6974 21.6324 32.7294C20.9784 35.496 20.5681 38.3012 20.4243 41.1944C20.1738 46.2134 20.8212 51.2512 20.8865 56.2689C20.9104 58.0644 20.9211 59.86 20.9331 61.6569C21.8202 65.7262 21.3114 70.66 21.2847 74.7373C21.2701 76.9179 21.1902 79.1157 21.1742 81.3149C21.2701 82.7428 21.4246 84.1654 21.683 85.5747C23.2068 93.9504 29.097 100.508 36.5324 104.369C38.3826 105.33 49.6275 113.203 61.7196 112.299C68.8046 109.768 75.0731 105.103 81.5281 100.901C84.1548 98.9748 86.7163 96.7916 88.5491 94.1023C90.5765 91.1305 91.8086 87.8311 92.5559 84.3252C92.7597 83.3662 92.9142 82.4031 93.0487 81.4347C92.9595 75.5685 93.5083 69.4985 94.0477 63.6696C94.0344 63.6936 94.0184 63.7175 94.0051 63.7415C94.0291 63.3965 94.0544 63.0515 94.0837 62.7092C94.4753 58.0991 95.5462 53.7807 95.3798 49.1199ZM85.8705 90.5258C82.7615 95.1359 78.5776 98.7057 74.1633 102.021C69.5599 105.479 64.2198 109.142 58.2883 109.582C52.4327 110.016 46.436 107.518 41.4382 104.664C36.5577 101.876 31.3215 98.3141 27.9209 93.7493C21.6537 85.3362 21.8509 73.3654 24.387 63.6389C24.5136 63.1568 25.1569 63.2047 25.3035 63.6389C25.7044 64.8311 26.1226 66.0166 26.6821 67.1195C26.6621 58.5773 33.7058 52.4007 40.6963 48.1209C45.076 45.4395 49.6781 42.9926 54.3428 40.8481C57.4358 39.4255 60.6793 38.0761 63.4392 36.0461C66.3071 33.9362 67.9268 31.0377 70.2538 28.4376C70.4803 28.1845 70.9864 28.3031 71.0464 28.6508C71.9055 33.795 73.0351 38.9832 75.514 43.6213C77.9463 48.1755 81.263 52.1383 84.1868 56.3688C87.722 61.4864 90.6231 67.0822 90.5845 73.4613C90.5472 79.3994 89.2298 85.5467 85.8705 90.5258Z" fill="#FAD6BE"/>
<path d="M95.3798 49.1199C95.2266 44.8615 94.7231 40.5897 94.1343 36.3592C94.0744 32.9851 93.9691 29.3141 92.0284 26.4769C89.9944 23.4998 86.4059 21.647 83.2317 20.1751C74.6455 16.2004 65.4759 14.3022 56.0811 13.6109C48.4806 13.0528 41.4276 13.8147 34.545 17.2953C29.7737 19.7089 25.5019 23.4186 23.1376 28.1872C23.1016 28.106 22.9604 28.0966 22.9245 28.2059C22.7353 28.7653 22.5582 29.3261 22.393 29.8869C22.06 30.7607 21.7869 31.6638 21.5898 32.6002C21.5765 32.6575 21.6004 32.6974 21.6324 32.7294C20.9784 35.496 20.5681 38.3012 20.4243 41.1944C20.1738 46.2135 20.8212 51.2512 20.8865 56.2689C20.9104 58.0644 20.9211 59.86 20.9331 61.6569C21.8202 65.7262 21.3114 70.66 21.2847 74.7374C21.2701 76.9179 21.1902 79.1157 21.1742 81.3149C21.2701 82.7428 21.4246 84.1654 21.683 85.5747C23.2068 93.9504 29.097 100.508 36.5324 104.369C38.8501 105.574 48.6924 112.446 56.2809 112.715C57.6396 112.763 60.3183 112.776 61.625 112.311C68.746 109.785 75.0478 105.122 81.5281 100.902C84.1548 98.9761 86.7163 96.793 88.5491 94.1036C90.5765 91.1319 91.8086 87.8325 92.5559 84.3266C92.7597 83.3675 93.403 80.3865 93.5376 79.4181C93.455 73.9568 93.4337 70.3364 93.9358 64.8804C93.9398 64.8125 93.9398 64.7432 93.9438 64.6753C93.9465 64.6699 93.9518 64.6619 93.9558 64.6566C93.9865 64.3263 94.0171 63.9986 94.0464 63.6696C94.0331 63.6936 94.0171 63.7175 94.0038 63.7415C94.0277 63.3965 94.053 63.0515 94.0824 62.7092C94.4753 58.0991 95.5462 53.7807 95.3798 49.1199ZM93.5762 60.6672C92.6944 66.7106 93.07 72.8619 92.5585 78.9439C92.5199 79.0238 92.5066 79.113 92.5319 79.2036C92.4679 79.9349 92.3987 80.6648 92.3041 81.3935C91.8552 84.8567 90.9494 88.2427 89.359 91.3596C87.5102 94.9827 84.5278 97.6961 81.3376 100.13C78.166 102.549 74.7308 104.621 71.3195 106.683C67.6844 108.88 63.6337 111.548 59.4099 112.105C58.0832 112.099 56.7871 111.878 55.4018 111.817C47.9718 111.489 30.6555 100.969 27.5825 96.36C24.8479 92.2574 22.8472 88.276 22.2438 83.4275C21.715 79.1477 21.9028 74.8 21.8322 70.5002C21.7509 65.4931 21.7709 60.4861 21.6963 55.4803C21.6271 50.9155 21.0556 46.3866 21.1023 41.8151C21.1422 38.1401 21.6417 34.489 22.4729 30.9125C24.724 25.1156 29.466 20.8198 34.9819 17.9879C41.4276 14.6779 48.2622 13.9785 55.3831 14.4301C64.3929 15.0002 72.9565 16.8211 81.2963 20.283C84.593 21.6497 87.8938 23.3307 90.4193 25.9001C93.5003 29.0397 92.8183 33.4647 93.5735 37.4288C93.5895 37.514 93.6348 37.5713 93.6947 37.6033C93.9811 40.6936 94.3661 43.7772 94.5605 46.8755C94.8549 51.6028 94.2555 56.0091 93.5762 60.6672Z" fill="#9E4C0B"/>
<path d="M120.6 93.188C119.178 87.7707 117.157 82.5345 115.09 77.305C113.979 74.4984 112.797 71.7678 112.011 68.8826C108.352 58.2012 107.429 47.0548 105.47 35.8392C104.505 30.318 102.871 24.1667 100.112 18.7773C98.6219 16.2984 96.8996 14.0007 94.7231 12.052C93.2099 10.6973 91.6274 9.41989 90.0983 8.08521C89.5668 7.76419 89.0313 7.44717 88.4972 7.12881C84.2148 4.96961 79.6273 3.74282 74.8453 3.88135C71.3621 2.2363 67.8269 0.966885 63.7602 0.404772C57.2973 -0.491678 50.6705 0.184989 44.342 1.60892C34.6822 3.78145 25.9135 9.1415 18.7313 15.8282C17.5911 16.8912 16.5041 18.0247 15.4478 19.1929C14.5447 20.6235 13.591 22.0235 12.873 23.5566C11.5983 26.2859 10.502 29.1245 9.4271 31.935C9.37648 32.0696 9.33119 32.2028 9.27924 32.3373C8.77041 34.7909 7.87396 37.1499 7.53296 39.6461C7.0521 43.1547 6.76705 46.6152 6.80568 50.1584C6.83765 53.0822 6.94288 56.0047 6.99216 58.9231C7.2226 62.3624 7.34248 65.7963 6.94954 69.3595C6.76172 71.0698 6.47401 72.7615 6.12368 74.4385C5.82664 76.7562 5.58688 79.1219 4.89822 81.3504C4.07504 84.0197 3.01208 86.6132 2.07967 89.2439C2.05569 89.3105 2.03438 89.3771 2.00907 89.4424C-0.00361265 96.8684 -0.806821 104.091 1.59082 111.599C1.75466 112.039 1.93448 112.47 2.12229 112.898C5.00479 118.353 9.97855 122.752 16.2151 121.894C13.4418 121.239 11.3572 119.268 9.54698 117.095C7.69414 114.873 7.03345 112.389 6.55792 109.792C7.92058 113.216 10.157 116.228 13.258 117.942C18.8405 121.029 25.5792 121.394 31.4321 119.064C32.0515 119.368 32.7028 119.634 33.3715 119.876C36.4831 120.376 39.5188 120.859 42.7316 120.473C45.0893 120.189 47.1992 119.436 49.2319 118.425C48.6524 118.265 48.0997 118.109 47.6161 117.994C42.5371 116.795 38.1841 114.013 34.5317 110.33C30.6808 106.448 28.0354 101.993 25.8416 97.0056C24.5735 94.1204 23.4986 91.1807 22.7979 88.1503C22.3903 86.9901 22.024 85.8126 21.751 84.6351C17.7922 85.1306 16.002 73.0612 15.565 69.8444C16.4562 67.5053 17.6537 64.5975 18.7433 62.0107C19.1202 63.2602 19.5172 64.5176 19.9208 65.791C20.0553 66.8886 20.2551 67.9849 20.4855 69.0784C20.5388 69.843 20.5761 70.6089 20.6201 71.3762C21.0277 73.3662 21.4353 75.3549 21.711 77.3676C21.7989 77.2624 21.8615 77.1438 21.8642 77.0359C22.0267 71.5893 22.1719 65.9629 23.4373 60.6428C23.6171 59.8915 23.8875 59.1269 24.1979 58.3557C24.2245 59.9807 24.5935 61.5019 25.4553 62.7886C25.6778 63.1217 26.3025 62.5102 26.1693 62.1959C26.1067 62.048 26.056 61.8895 26.0041 61.7337C26.1186 61.6564 26.2199 61.5525 26.2479 61.4446C29.8869 47.7248 47.0087 43.4144 58.0205 37.2884C62.7466 34.6577 68.9524 30.2487 71.8643 24.85C71.8163 24.9965 71.779 25.1457 71.7284 25.2923C71.8962 26.6656 72.144 28.0602 72.5489 29.5081C72.9418 30.9067 73.4307 32.2867 73.9822 33.6427C75.4647 38.3034 77.5453 42.8376 79.7645 46.9416C84.4146 55.5424 90.8829 61.6058 90.9481 71.9117C90.9494 72.3938 92.4746 68.4311 92.7583 66.7487C92.7677 66.842 92.7863 66.9352 92.793 67.0311C92.9315 67.7731 93.0527 68.523 93.1713 69.2796C93.5562 67.9742 94.1117 66.7194 94.6778 65.4713C94.8017 65.0837 94.9269 64.7161 95.0507 64.3351C95.1133 64.3098 95.1666 64.2632 95.2013 64.2112V64.2139C95.3957 63.9368 95.6675 63.6185 95.8966 63.3694C96.0644 63.1869 96.2163 63.135 96.3615 63.1696C96.4094 63.2215 96.4534 63.2775 96.5053 63.3268C96.5626 63.3801 96.6265 63.4014 96.6958 63.408C96.7238 63.436 96.7517 63.46 96.777 63.492C96.801 63.5199 96.8103 63.5586 96.8303 63.5879C96.9422 64.0447 97.0541 64.499 97.1447 64.9452C97.2885 65.6591 97.4311 66.3731 97.5736 67.0871C97.6215 67.4933 97.6735 67.8969 97.7041 68.3085C98.0251 72.575 97.788 83.8466 92.2988 85.3224L92.2948 85.3251C92.1576 85.3637 92.0084 85.485 91.9351 85.6128C91.8526 85.7274 91.8019 85.8512 91.8059 85.9552C89.8345 92.1051 87.1305 97.2893 83.2397 102.471C79.1797 107.878 72.6701 114.042 65.7196 115.142C65.4293 115.189 64.9431 115.647 65.1335 115.979C67.1169 119.4 72.5329 118.964 76.2892 118.435C80.0695 118.393 83.9297 117.318 87.4449 115.507C87.3357 115.655 87.2344 115.808 87.1252 115.956C86.4978 116.371 85.8558 116.735 85.1978 117.025C84.8541 117.175 84.1162 118.078 84.7809 118.321C88.7743 119.78 93.0461 119.051 96.9342 117.339C96.7211 117.568 96.504 117.79 96.2975 118.034C96.2069 118.143 96.1124 118.299 96.0591 118.458C102.314 119.109 108.868 117.83 113.783 114.213C115.928 112.235 117.66 109.806 118.89 107.012C119.18 106.386 119.433 105.744 119.647 105.084C119.652 105.067 119.658 105.054 119.664 105.036C119.684 104.976 119.698 104.918 119.717 104.859C119.776 104.667 119.837 104.477 119.889 104.284C120.983 100.619 121.104 96.887 120.6 93.188Z" fill="#1F1F1D"/>
<path d="M118.818 103.82C118.557 104.569 118.241 105.289 117.903 105.993C117.835 106.135 117.764 106.274 117.695 106.414C117.586 106.631 117.479 106.85 117.362 107.06C116.733 108.237 116.035 109.334 115.367 110.299C114.105 112.117 112.379 113.603 110.421 114.714C109.502 115.28 108.502 115.757 107.465 116.142C104.625 117.422 101.488 118.104 98.245 118.012C98.1531 118.01 98.0758 117.978 98.0079 117.934C97.9972 117.939 97.9839 117.944 97.9759 117.95C97.9853 117.944 97.9932 117.936 98.0039 117.931C97.7322 117.751 97.6736 117.313 98.0132 117.126C99.6196 116.249 100.901 115.01 102.129 113.708C97.4764 116.495 92.1976 118.215 86.7417 117.934C86.3487 117.912 86.0916 117.423 86.4073 117.126C87.8885 115.73 89.5323 114.532 90.9575 113.07C91.4663 112.551 92.7011 111.44 93.4497 110.352C93.3591 110.416 93.2726 110.484 93.1833 110.546C93.2166 110.516 93.2553 110.486 93.2886 110.454C93.3418 110.405 93.3765 110.352 93.4044 110.296C89.8986 112.875 85.9278 114.802 81.6986 116.074C77.6333 117.301 70.2539 119.932 66.7054 116.298C66.4457 116.03 66.5829 115.616 66.9199 115.505C74.6935 112.949 81.343 107.232 85.8412 100.487C87.9884 97.2647 90.5632 93.5936 91.3118 89.7294C91.5036 88.7397 91.6089 87.1107 92.4241 86.3501C92.4347 86.2675 92.4534 86.1876 92.4627 86.105C94.6858 85.728 96.0671 83.365 96.9769 80.9607C97.6509 78.0742 98.229 75.0785 98.5074 72.1161C98.7725 73.6733 99.0162 75.2344 99.2014 76.8088C100.106 84.4866 99.6809 92.171 97.9333 99.6863C99.7196 96.0326 99.9047 91.5729 100.37 87.6355C100.777 84.1989 100.786 80.7809 100.7 77.3563C100.408 74.1261 99.7608 70.92 99.0575 67.7644C98.9336 67.205 98.7432 66.5976 98.5314 65.9702C98.3609 64.8859 98.0092 63.9388 97.4951 62.9278C97.1021 61.6771 96.8104 60.4423 96.8544 59.3407C96.9929 58.9051 97.1434 58.4722 97.2713 58.0353C97.2833 58.014 97.2953 57.9954 97.3073 57.9754C97.3685 57.7503 97.4152 57.5212 97.4724 57.2974C97.8987 55.7296 98.229 54.1405 98.4781 52.5367C98.5873 48.0199 98.3942 43.5176 96.9623 39.1632C96.1577 36.723 95.0628 34.4213 94.0398 32.0729C93.8373 31.608 93.6176 31.0632 93.3658 30.5051C94.9989 35.5295 97.0861 40.1849 97.6123 45.5956C98.281 52.4648 95.7714 58.6361 94.0478 65.1177C94.0145 65.2429 94.0478 65.3015 94.1104 65.3255C93.8573 65.428 93.5043 65.3308 93.451 65.0218C93.3698 64.5596 93.2712 64.1053 93.1807 63.6445C93.8014 57.4905 93.1607 51.1355 90.5179 45.6395C90.6139 45.874 90.7084 46.1071 90.7937 46.3455C91.5449 48.4821 92.2176 50.6759 92.6292 52.907C93.4364 57.2894 91.7314 67.3941 91.6249 68.1347C91.4863 65.5519 90.5632 63.121 89.4497 60.8033C86.9801 55.6643 83.5275 51.1048 80.6823 46.1817C78.238 42.3082 76.0349 38.2615 74.6003 33.9124C73.6932 31.1671 72.6089 28.1914 72.2826 25.3062C72.1161 23.8423 72.4571 22.4411 72.7475 21.0198C72.4424 21.6658 72.1107 22.3012 71.7165 22.9073C69.3015 27.6985 64.4623 31.5907 60.3104 34.4799C54.9463 38.2149 48.7897 40.8136 43.0301 43.8626C36.0303 47.5696 27.8277 52.594 25.7631 60.7913C25.1796 57.6317 26.3212 53.4665 27.3655 50.7931C28.0142 49.1321 28.8627 47.5603 29.8244 46.0578C30.4371 44.8137 31.1444 43.6202 31.9277 42.4733C32.8801 40.9282 33.919 39.4363 35.0459 38.0057C33.1851 39.8359 31.4242 41.7953 29.8124 43.9665C27.9409 46.4894 25.5899 50.6466 24.6322 54.7239C24.2246 55.5285 23.8143 56.3357 23.4414 57.1575C22.7674 60.0147 22.2092 62.9012 21.7151 65.809C21.6338 66.2805 20.8985 66.2552 20.7986 65.809C19.7357 61.023 17.4379 56.7153 17.2461 51.7282C17.1502 49.2293 17.1249 46.6465 17.406 44.1557C17.4992 43.3298 17.7949 42.4454 18.0453 41.5676C17.0903 43.4031 16.8319 45.7767 16.7799 48.0185C16.3896 52.1651 17.0703 56.032 18.1333 59.9095C17.1103 62.3524 16.1046 64.798 15.1575 67.2596C14.6474 69.4521 14.0813 71.6326 13.5365 73.8251C12.7439 77.006 11.6397 80.8981 12.0419 84.3854C12.3057 82.1236 12.6693 79.9431 13.1222 77.9171C13.7429 75.1438 14.0613 73.247 15.0296 70.6149C15.2401 74.916 17.6138 87.0108 21.3274 85.6907C22.2092 90.4647 23.9981 94.9216 26.0601 99.3093C27.2216 101.782 28.4604 104.439 30.1201 106.715C31.3895 108.311 32.7549 109.836 34.2001 111.296C36.9947 114.124 40.2461 116.872 44.1503 117.95C44.3168 117.995 44.4114 118.104 44.4553 118.231C45.2705 118.489 46.099 118.721 46.9489 118.889C44.101 119.549 41.2412 119.724 38.4572 119.351C33.2117 119.002 27.3229 115.716 24.0115 112.588C22.9325 111.568 21.9868 110.456 21.1703 109.274C21.9788 110.873 22.9738 112.391 24.126 113.791C25.3901 115.33 27.1883 116.759 29.1877 117.755C29.4514 117.94 29.7192 118.119 30.0002 118.291C27.4481 118.813 24.8893 118.882 22.4357 118.56C15.1096 118.377 8.49076 113.863 5.42311 107.263C5.69618 111.215 5.9426 114.711 8.50141 118.141C9.06086 118.89 9.75218 119.724 10.5354 120.488C5.10742 118.059 2.58324 111.677 1.56292 105.802C0.884918 101.903 1.19528 97.9813 1.9492 94.0945C2.03046 93.4498 2.1237 92.8051 2.24092 92.1657C2.65118 89.9212 3.35715 87.7993 4.12439 85.6987C4.1204 85.6788 4.11507 85.6588 4.10974 85.6375C4.75311 83.4756 5.41645 81.3377 6.00654 79.2384C8.81177 69.223 8.41217 59.9281 7.72218 49.6929C7.28395 43.174 8.26298 36.9268 10.4621 30.7955C10.8031 29.8431 13.1741 24.888 14.1958 22.2C14.3996 21.9442 14.6154 21.6965 14.8232 21.4447C16.0713 19.1936 18.2531 17.2568 20.0687 15.7263C20.3577 15.4799 20.6641 15.2588 20.9598 15.023C27.5586 9.16214 35.5721 4.96628 44.1157 2.76311C48.197 1.71082 52.3809 1.22063 56.5767 1.17401C59.5138 0.669177 62.6814 0.90894 65.3428 1.51767C69.464 2.46074 73.6759 3.57032 77.604 5.26731C77.2417 5.07817 76.8794 4.88502 76.5184 4.70254C76.7542 4.73184 76.9913 4.75981 77.227 4.80244C84.0829 5.52306 90.117 8.93437 95.7621 13.8828C96.1484 14.4503 96.516 15.0257 96.869 15.6091C97.4405 16.2805 97.9759 16.9904 98.4608 17.755C101.018 21.779 102.63 26.4185 103.534 31.1831C105.203 37.1519 105.824 43.5709 106.734 49.6076C107.202 52.7126 107.64 55.8082 108.147 58.9011C109.373 63.1862 110.87 67.3661 112.364 71.6179C113.615 75.1771 114.996 78.7509 116.165 82.3594C119.374 89.138 121.297 96.6866 118.818 103.82Z" fill="#424241"/>
<path opacity="0.5" d="M116.163 82.354C114.995 78.7456 113.615 75.1704 112.363 71.6126C110.868 67.3621 109.371 63.1809 108.146 58.8958C107.638 55.8042 107.2 52.7072 106.732 49.6023C105.823 43.5655 105.201 37.1465 103.533 31.1777C102.63 26.4131 101.018 21.775 98.4593 17.7496C97.9731 16.9851 97.439 16.2751 96.8675 15.6038C96.5146 15.0203 96.1469 14.4449 95.7606 13.8775C90.1155 8.929 84.0815 5.51769 77.2256 4.79707C76.9898 4.75444 76.7527 4.72514 76.5169 4.69717C76.8779 4.87965 77.2402 5.0728 77.6025 5.26194C73.6757 3.56628 69.4639 2.45671 65.3413 1.5123C62.6799 0.903569 59.5123 0.663805 56.5752 1.16864C54.9022 1.18729 53.2345 1.29918 51.5708 1.46835C58.2216 1.16331 65.3133 1.83598 70.9731 5.34453C69.5744 5.30324 68.1705 5.3432 66.8465 5.33653C62.8451 5.31656 58.8783 5.52169 54.8956 5.90531C49.3743 6.43678 43.9463 7.59298 39.3216 10.4968C40.3792 10.0772 41.4528 9.72688 42.601 9.41518C46.3733 8.39352 50.1482 7.95262 53.9591 7.76081C57.116 7.39584 60.2916 7.236 63.4658 7.13343C64.4222 7.23067 65.3786 7.36254 66.3336 7.55035C67.0729 7.69421 67.8361 7.85539 68.61 8.02722C67.1701 8.75317 65.8141 9.63364 64.582 10.5367C65.5451 10.0652 66.5601 9.69358 67.5165 9.38321C70.1499 8.52539 73.2188 7.52904 76.0254 7.68356C80.5396 7.92998 84.7968 12.1645 87.249 16.3603C86.2593 14.2211 84.8221 12.3083 83.3315 10.3916C83.0172 9.98662 83.3981 9.37922 83.9003 9.64562C87.0612 11.324 89.8291 13.4992 92.1881 16.046C98.382 21.3328 102.302 29.53 103.895 37.3343C105.187 43.6628 105.085 50.1204 106.031 56.4875C106.715 61.0976 107.823 65.6211 108.821 70.1687C109.191 71.2942 109.563 72.4184 109.937 73.5453C110.154 74.1994 110.368 74.8587 110.575 75.5221C113.136 81.2817 116.189 86.8815 116.792 93.1913C117.212 97.5643 116.8 102.154 114.674 106.073C113.13 108.92 110.842 112.446 107.347 112.915C107.008 112.96 106.67 112.713 106.768 112.336C107.802 108.412 108.572 104.402 108.611 100.382C108.256 101.603 107.79 102.797 107.172 103.945C104.615 108.696 99.8886 113.633 94.6591 115.316C94.2834 115.439 93.8985 114.962 94.1276 114.626C95.3277 112.864 96.9408 111.58 98.462 110.112C100.111 108.52 101.293 106.622 102.049 104.454C102.189 104.053 102.317 103.649 102.439 103.244C100.677 106.212 98.3221 108.593 95.1319 109.486C94.6844 109.61 94.3314 109.016 94.6777 108.693C99.8633 103.855 101.805 96.195 102.555 89.3698C103.485 80.9221 102.138 72.5783 100.07 64.389C99.9325 63.8482 100.646 63.6031 100.938 64.0347C102.482 66.3151 103.734 68.766 105.075 71.165C104.784 70.198 104.48 69.2363 104.174 68.2719C102.956 65.6052 101.797 62.9091 101.005 60.0959C99.6541 55.3033 99.7234 50.4388 99.14 45.5316C98.4713 39.9265 96.9501 34.0882 94.1715 29.1344C92.5984 26.3319 90.3699 24.0967 88.1681 21.8176C89.7985 24.7108 91.0826 27.7598 92.0536 30.906C95.1372 38.2561 96.2708 46.5253 95.1665 54.3003C95.1612 54.3389 95.1572 54.3802 95.1519 54.4202C95.068 54.9943 94.2728 54.7892 94.2208 54.3003C94.0796 52.9456 93.8199 51.6296 93.4842 50.3389C93.3883 50.2869 93.3137 50.1923 93.2911 50.0458C93.2258 49.6302 93.1312 49.2266 93.0486 48.819C91.7473 44.6791 89.66 40.8096 87.63 36.9307C88.3027 39.7187 88.6703 42.5639 88.7063 45.3544C88.7102 45.6755 88.4372 45.8393 88.1788 45.8073C87.8085 44.6525 87.4155 43.5083 87.0212 42.3854C86.587 41.1439 86.1354 39.7679 85.604 38.4199C84.9087 37.4223 84.1934 36.4406 83.4528 35.4762C85.283 40.4779 86.5111 45.6475 88.0256 50.7265C88.1068 51.4031 88.1801 52.0812 88.2334 52.7618C88.2693 53.2214 87.7139 53.3226 87.4262 53.0948C85.1138 51.2713 83.7458 48.534 82.547 45.9059C81.9742 44.6498 81.3575 43.4124 80.7394 42.1749C76.4596 34.9913 73.7024 26.7568 73.0137 18.429C69.019 22.9525 65.0309 27.5054 60.4075 31.4002C55.3764 35.6373 49.4889 39.4776 42.6889 39.5229C42.4558 39.5255 42.2946 39.3457 42.2453 39.1419C42.9686 38.4373 43.66 37.6967 44.334 36.9734C44.7602 36.5152 45.1971 36.0623 45.626 35.6014C50.9155 31.3775 55.836 26.5157 59.1514 21.1476C59.3179 20.8799 59.0008 20.8266 58.849 21.0198C56.518 24.0008 53.4303 26.6156 50.364 29.0825C48.4339 30.4305 46.5971 31.9477 44.7149 33.3223C42.5957 34.8688 40.4018 36.5098 37.7231 36.8055C37.3835 36.8428 37.1157 36.3753 37.3115 36.0996C39.3322 33.253 42.4105 31.0246 45.1798 28.8161C41.8844 30.5584 38.4637 32.1967 35.4547 34.4132C33.831 35.608 32.2712 36.8934 30.9698 38.4426C29.8988 39.7173 28.8838 41.0187 27.5731 42.0644C28.1872 40.1356 28.9278 38.2681 30.1639 36.3753C32.5189 32.7695 35.9116 30.0522 39.3296 27.5173C39.4947 27.3948 39.532 26.9992 39.2456 27.147C35.6678 28.9999 31.0324 32.5977 27.9807 36.8455C23.9114 41.068 21.0462 46.0538 19.9993 52.2903C17.3778 32.2554 34.2546 20.1393 51.3977 14.5941C50.2814 14.7712 49.1665 14.9591 48.0663 15.2121C45.0972 15.8955 42.1814 16.9411 39.3748 18.1253C38.5676 18.4663 37.7764 18.8419 36.9825 19.2082C34.1347 20.7387 31.4227 22.5223 28.9038 24.527C23.1202 29.1264 18.1957 34.9074 16.1031 42.115C13.9732 49.4438 15.6396 57.0789 13.539 64.3944C11.3398 72.0641 9.5469 79.3769 10.4127 87.441C11.2386 95.1281 13.7388 102.404 17.2526 109.265C17.5044 109.756 16.9103 110.172 16.5067 109.832C9.66944 104.101 6.65908 96.0365 6.31142 87.417C5.04866 92.0298 5.04067 96.8437 4.54915 101.619C4.49321 102.154 3.80189 102.26 3.61807 101.739C2.1302 97.5044 2.65902 92.9489 3.27175 88.5958C3.30505 88.3508 3.33568 88.1083 3.36898 87.8646C2.90944 89.2632 2.50583 90.6831 2.23677 92.159C2.11955 92.7984 2.02631 93.4431 1.94505 94.0878C1.19113 97.9746 0.880768 101.896 1.55877 105.795C2.58043 111.67 5.10327 118.052 10.5313 120.482C9.74803 119.719 9.05671 118.883 8.49726 118.135C5.93845 114.705 5.69203 111.208 5.41896 107.256C8.48661 113.856 15.1054 118.372 22.4315 118.553C24.8851 118.875 27.4439 118.805 29.9961 118.284C29.715 118.112 29.4473 117.932 29.1836 117.748C27.1842 116.752 25.386 115.324 24.1219 113.784C22.971 112.384 21.976 110.867 21.1661 109.267C21.6496 109.965 22.1931 110.631 22.7659 111.277C18.8551 105.494 17.4125 98.6939 16.9183 91.5316C16.881 90.9828 17.7109 90.9042 17.8494 91.4117C19.2786 96.6413 20.9264 102.005 24.0832 106.486C25.7976 108.92 27.5665 111.581 30.0667 113.276C31.4174 114.191 32.9092 115.078 33.6432 116.592C33.7897 116.897 33.6085 117.312 33.2302 117.298C32.126 117.257 31.0364 117.062 29.9894 116.737C32.6668 118.129 35.6505 119.158 38.4531 119.344C41.2383 119.717 44.0969 119.543 46.9447 118.882C46.0949 118.714 45.2677 118.482 44.4512 118.224C44.4072 118.097 44.3126 117.988 44.1461 117.943C40.242 116.864 36.9905 114.117 34.1959 111.289C32.752 109.828 31.3867 108.304 30.116 106.709C28.4563 104.432 27.2175 101.776 26.056 99.3026C23.9953 94.915 22.2051 90.458 21.3233 85.6841C17.6096 87.0028 15.236 74.9093 15.0255 70.6082C14.0571 73.2416 13.7388 75.1371 13.118 77.9104C12.6652 79.9364 12.3015 82.1169 12.0378 84.3787C11.6355 80.8914 12.7398 76.9993 13.5323 73.8184C14.0771 71.6259 14.6432 69.4454 15.1534 67.2529C16.0991 64.79 17.1061 62.3457 18.1291 59.9028C17.0675 56.0253 16.3855 52.1597 16.7758 48.0118C16.8277 45.77 17.0861 43.3964 18.0412 41.5609C17.7908 42.4387 17.4951 43.3231 17.4018 44.149C17.1208 46.6385 17.1461 49.2226 17.242 51.7215C17.4325 56.7086 19.7315 61.0177 20.7945 65.8023C20.8931 66.2485 21.6283 66.2738 21.7109 65.8023C22.2064 62.8932 22.7632 60.0067 23.4372 57.1508C23.8102 56.329 24.2204 55.5218 24.628 54.7172C25.5858 50.6386 27.9368 46.4813 29.8083 43.9598C31.42 41.7886 33.1796 39.8292 35.0418 37.999C33.9149 39.4296 32.8759 40.9215 31.9235 42.4666C31.1403 43.6135 30.433 44.8083 29.8203 46.0511C28.8585 47.5536 28.0114 49.1254 27.3613 50.7864C26.317 53.4598 25.1755 57.625 25.7589 60.7846C27.8236 52.5873 36.0261 47.5629 43.0259 43.8559C48.7856 40.8069 54.9408 38.2082 60.3062 34.4732C64.4595 31.5827 69.2987 27.6905 71.7123 22.9006C72.1066 22.2945 72.4383 21.6591 72.7433 21.0131C72.4529 22.433 72.1119 23.8356 72.2784 25.2995C72.6048 28.1847 73.689 31.1604 74.5961 33.9057C76.0321 38.2548 78.2339 42.3014 80.6782 46.175C83.5247 51.0968 86.9773 55.6563 89.4455 60.7966C90.5591 63.1143 91.4822 65.5452 91.6207 68.128C91.7286 67.3874 93.4323 57.2827 92.6251 52.9003C92.2135 50.6692 91.5408 48.4754 90.7895 46.3388C90.7043 46.099 90.6097 45.8673 90.5138 45.6328C93.1565 51.1288 93.7986 57.4825 93.1765 63.6378C93.2658 64.0986 93.3657 64.5542 93.4469 65.0151C93.5002 65.3228 93.8532 65.4213 94.1063 65.3188C94.0437 65.2935 94.0104 65.2349 94.0437 65.111C95.766 58.6294 98.2768 52.4581 97.6081 45.5889C97.082 40.1769 94.9947 35.5228 93.3617 30.4984C93.6121 31.0565 93.8332 31.6013 94.0357 32.0662C95.06 34.4159 96.1536 36.7163 96.9581 39.1566C98.3914 43.5109 98.5832 48.0132 98.474 52.53C98.2249 54.1338 97.8932 55.7229 97.4683 57.2907C97.411 57.5145 97.3644 57.7436 97.3031 57.9687C97.2911 57.9887 97.2791 58.0073 97.2672 58.0286C97.1406 58.4655 96.9901 58.8984 96.8502 59.334C96.8063 60.4356 97.098 61.6704 97.4909 62.9211C98.0051 63.9321 98.3554 64.8805 98.5272 65.9635C98.739 66.5909 98.9295 67.1983 99.0534 67.7577C99.7567 70.9133 100.404 74.1194 100.696 77.3496C100.782 80.7742 100.772 84.1922 100.365 87.6288C99.9006 91.5663 99.7154 96.0259 97.9292 99.6796C99.6768 92.1643 100.102 84.4799 99.1973 76.8021C99.0121 75.2277 98.7683 73.6665 98.5033 72.1094C98.2249 75.0718 97.6468 78.0676 96.9728 80.954C96.063 83.3597 94.6817 85.7213 92.4586 86.0983C92.4492 86.1809 92.4306 86.2608 92.4199 86.3434C91.6034 87.104 91.4995 88.733 91.3077 89.7227C90.7096 92.8104 88.9447 95.7714 87.1638 98.4821C89.4628 95.9206 91.4675 93.0954 92.5811 89.8719C92.7782 89.3018 93.6814 89.5269 93.4975 90.113C92.7383 92.516 92.3813 95.0881 91.3836 97.4112C90.4685 99.5357 89.1298 101.519 87.6366 103.288C87.3476 103.785 87.0652 104.284 86.8214 104.803C89.7545 103.235 91.654 99.8821 93.7679 97.4591C94.0849 97.0968 94.679 97.4764 94.5605 97.9133C92.3959 105.889 87.6446 112.779 79.5659 115.508C79.169 115.643 78.84 115.154 79.0358 114.817C80.116 112.94 81.4894 111.278 82.8254 109.585C81.211 110.604 79.4167 111.336 77.5586 111.842C77.5173 111.853 77.484 111.848 77.4453 111.849C76.8473 112.222 76.2425 112.588 75.6351 112.939C73.0803 114.413 69.9874 115.516 67.0982 116.057C66.945 116.085 66.7852 116.114 66.62 116.142C66.6426 116.193 66.6586 116.245 66.7026 116.289C70.2498 119.924 77.6305 117.292 81.6958 116.065C85.925 114.793 89.8944 112.865 93.4016 110.286C93.3737 110.342 93.3377 110.396 93.2857 110.445C93.2524 110.477 93.2138 110.506 93.1805 110.537C93.2684 110.473 93.3563 110.405 93.4469 110.342C92.6983 111.431 91.4635 112.542 90.9547 113.061C89.5294 114.522 87.8857 115.721 86.4045 117.117C86.0888 117.415 86.3459 117.904 86.7389 117.924C92.1962 118.205 97.4749 116.486 102.126 113.699C100.898 115.002 99.6168 116.239 98.0104 117.117C97.6708 117.304 97.7294 117.742 98.0011 117.922C97.9918 117.927 97.9824 117.935 97.9731 117.94C97.9824 117.935 97.9958 117.93 98.0051 117.924C98.073 117.967 98.1503 118 98.2422 118.003C101.486 118.093 104.621 117.413 107.462 116.133C108.499 115.748 109.499 115.271 110.418 114.705C112.376 113.594 114.103 112.107 115.364 110.289C116.033 109.325 116.731 108.227 117.359 107.051C117.477 106.841 117.583 106.622 117.692 106.405C117.762 106.265 117.832 106.125 117.9 105.984C118.238 105.279 118.554 104.56 118.815 103.81C121.297 96.6852 119.373 89.1367 116.163 82.354Z" fill="#424241"/>
<path opacity="0.5" d="M24.1274 113.789C22.9765 112.389 21.9815 110.872 21.1716 109.272C21.6551 109.97 22.1986 110.636 22.7714 111.282C19.9635 107.129 18.4316 102.449 17.6058 97.4894C17.2794 96.4904 16.9824 95.4781 16.7546 94.4431C16.1619 91.7431 15.6131 88.8792 15.5065 86.0767C13.9307 96.9766 16.8852 108.644 24.5869 116.615C24.9399 116.98 24.5776 117.468 24.1327 117.407C16.0899 116.286 6.58198 110.636 4.14172 102.756C3.56495 105.356 3.39312 108.006 3.96989 110.545C4.45474 112.682 5.32322 114.569 6.63926 116.31C7.45845 117.392 8.59866 118.966 9.93868 119.845C9.4072 119.269 8.90902 118.685 8.50276 118.14C5.94394 114.71 5.69752 111.213 5.42446 107.261C8.4921 113.861 15.1109 118.377 22.437 118.558C24.8906 118.88 27.4494 118.81 30.0016 118.289C29.7205 118.117 29.4528 117.937 29.189 117.753C27.1897 116.757 25.3915 115.328 24.1274 113.789Z" fill="#424241"/>
<path opacity="0.5" d="M44.4566 118.226C44.4126 118.1 44.318 117.991 44.1515 117.945C40.2474 116.866 36.9959 114.12 34.2013 111.292C32.7574 109.831 31.3921 108.307 30.1213 106.711C28.4616 104.435 27.2229 101.779 26.0613 99.3051C24.0007 94.9174 22.2105 90.4605 21.3287 85.6865C21.3034 85.6945 21.2781 85.6972 21.2541 85.7052C20.7825 91.4728 22.4649 97.391 25.3021 102.454C27.055 105.58 29.1356 108.746 31.6811 111.288C33.9629 113.563 36.583 115.416 39.1431 117.362C39.4495 117.596 39.4761 118.12 39.0286 118.23C36.206 118.924 33.53 118.364 31.0937 117.024C30.7221 116.942 30.3544 116.852 29.9935 116.74C32.6708 118.132 35.6546 119.16 38.4571 119.347C41.2424 119.72 44.1009 119.545 46.9488 118.884C46.1003 118.717 45.2731 118.485 44.4566 118.226Z" fill="#424241"/>
<path opacity="0.5" d="M71.5259 23.2637C67.6324 28.8075 61.569 33.1872 55.7162 35.9099C46.7943 40.0605 36.4351 41.1833 29.9042 49.318C29.6045 49.691 28.9838 49.2927 29.113 48.8638C29.8763 46.3343 31.0271 44.0272 32.3578 41.8187C32.2166 42.0398 32.0648 42.2516 31.9276 42.4741C31.1444 43.6209 30.4371 44.8158 29.8243 46.0585C28.8626 47.5611 28.0154 49.1329 27.3654 50.7939C26.3211 53.4672 25.1796 57.6325 25.763 60.792C27.8276 52.5948 36.0302 47.5704 43.03 43.8634C48.7896 40.8144 54.9449 38.2156 60.3103 34.4806C64.3596 31.6634 69.055 27.8911 71.5259 23.2637Z" fill="#424241"/>
<path opacity="0.5" d="M77.4495 111.856C76.8514 112.229 76.2467 112.595 75.6393 112.945C73.3336 114.276 70.5949 115.279 67.9602 115.864C70.2766 116.8 73.7039 115.706 75.8817 115.365C76.986 115.194 78.0662 114.961 79.1292 114.679C80.1961 112.863 81.5282 111.238 82.8296 109.59C81.2151 110.609 79.4209 111.341 77.5627 111.848C77.5215 111.86 77.4868 111.854 77.4495 111.856Z" fill="#424241"/>
<path opacity="0.5" d="M107.609 105.828C107.802 105.233 107.994 104.64 108.19 104.059C108.231 103.937 108.308 103.86 108.398 103.806C108.516 102.666 108.603 101.525 108.615 100.38C108.26 101.602 107.794 102.795 107.176 103.944C105.442 107.164 102.71 110.468 99.5024 112.789C102.738 111.075 105.462 108.792 107.609 105.828Z" fill="#424241"/>
<path opacity="0.5" d="M116.163 82.3526C114.995 78.7441 113.615 75.169 112.363 71.6111C111.399 68.8685 110.442 66.1525 109.548 63.4219C109.875 66.3323 110.404 69.2162 111.182 72.0361C113.073 78.8946 116.92 85.1192 118.42 92.095C120.48 101.68 113.578 113.823 103.449 115.513C103.015 115.586 102.627 115.07 102.995 114.721C104.755 113.056 105.813 110.894 106.653 108.633C105.185 110.3 103.498 111.765 101.602 112.904C98.2369 114.922 93.3724 117.049 89.379 116.459C89.1725 116.428 89.026 116.197 89.026 116.001C89.026 115.376 89.6987 115.18 90.1156 114.794C91.0773 113.904 91.9684 112.941 92.7011 111.85C93.5988 110.515 94.3741 109.116 94.9428 107.634C92.3094 109.442 89.6121 111.167 86.8322 112.687C84.5504 113.933 82.1621 114.802 79.7059 115.463C79.6606 115.479 79.6193 115.497 79.5713 115.513C79.526 115.529 79.4821 115.535 79.4368 115.535C77.56 116.026 75.6485 116.402 73.7078 116.716C71.5366 117.068 68.6088 117.586 66.676 116.245C66.688 116.263 66.6907 116.282 66.7053 116.298C70.2525 119.933 77.6332 117.301 81.6986 116.074C85.9277 114.802 89.8972 112.874 93.4044 110.296C93.3764 110.352 93.3404 110.405 93.2885 110.454C93.2552 110.486 93.2165 110.515 93.1832 110.546C93.2712 110.482 93.3591 110.414 93.4496 110.352C92.701 111.44 91.4663 112.551 90.9574 113.07C89.5322 114.532 87.8885 115.73 86.4073 117.126C86.0916 117.425 86.3486 117.914 86.7416 117.934C92.1989 118.215 97.4777 116.495 102.129 113.708C100.901 115.011 99.6196 116.248 98.0132 117.126C97.6735 117.313 97.7321 117.751 98.0038 117.931C97.9945 117.936 97.9852 117.944 97.9759 117.949C97.9852 117.944 97.9985 117.939 98.0078 117.934C98.0758 117.976 98.153 118.009 98.2449 118.012C101.488 118.103 104.624 117.422 107.465 116.142C108.501 115.757 109.502 115.28 110.421 114.714C112.379 113.603 114.105 112.117 115.367 110.298C116.035 109.334 116.733 108.236 117.362 107.06C117.479 106.85 117.586 106.631 117.695 106.414C117.764 106.274 117.835 106.134 117.903 105.993C118.241 105.289 118.557 104.569 118.818 103.819C121.297 96.6838 119.373 89.1352 116.163 82.3526Z" fill="#424241"/>
<path opacity="0.5" d="M104.717 114.247C105.928 113.897 107.08 113.381 108.163 112.736C107.899 112.811 107.63 112.875 107.349 112.914C107.011 112.959 106.673 112.712 106.771 112.336C107.084 111.147 107.356 109.949 107.606 108.747C106.884 110.72 106.019 112.634 104.717 114.247Z" fill="#424241"/>
<path opacity="0.5" d="M95.1786 109.469C94.5952 110.663 93.8945 111.806 93.1113 112.887C92.3068 113.998 91.3584 114.98 90.3101 115.859C90.7643 115.478 92.737 115.25 94.0823 114.96C94.053 114.849 94.057 114.73 94.1303 114.624C95.3304 112.862 96.9435 111.578 98.4647 110.11C100.114 108.518 101.295 106.62 102.052 104.452C102.192 104.051 102.32 103.647 102.442 103.242C100.69 106.197 98.3475 108.566 95.1786 109.469Z" fill="#424241"/>
<path opacity="0.5" d="M84.4412 51.3532C82.2287 48.0818 80.1347 44.7171 78.3632 41.1819C75.3461 35.1625 73.1763 28.6942 72.5502 21.9941C72.3318 23.0864 72.1559 24.1787 72.2825 25.3055C72.6088 28.1907 73.6931 31.1664 74.6002 33.9117C76.0361 38.2608 78.2379 42.3075 80.6822 46.181C83.5287 51.1028 86.9813 55.6623 89.4496 60.8026C90.5631 63.1203 91.4862 65.5512 91.6248 68.134C91.7327 67.3934 93.4363 57.2887 92.6291 52.9064C92.3321 51.2973 91.8978 49.7068 91.397 48.1444C91.04 47.5143 90.6657 46.8923 90.2847 46.2729C90.6164 47.3918 90.9468 48.512 91.1825 49.6536C91.8445 52.8491 91.8259 56.311 91.1346 59.5052C91.0533 59.8808 90.5991 59.9394 90.342 59.7196C89.1579 58.706 88.4799 57.3526 87.6527 56.0539C86.6403 54.4515 85.5028 52.925 84.4412 51.3532Z" fill="#424241"/>
<path opacity="0.5" d="M94.1077 56.313C93.9691 53.5757 93.0247 51.1621 91.7939 48.8617C93.3404 53.5477 93.6881 58.6574 93.1846 63.6444C93.2738 64.1053 93.3737 64.5609 93.455 65.0217C93.5083 65.3294 93.8612 65.428 94.1143 65.3254C94.0517 65.3001 94.0184 65.2415 94.0517 65.1177C95.774 58.636 98.2849 52.4648 97.6162 45.5956C97.6016 45.4464 97.5736 45.3025 97.5576 45.1533C97.4577 49.1294 96.7198 53.0362 94.9948 56.5474C94.771 56.9963 94.1316 56.7552 94.1077 56.313Z" fill="#424241"/>
<path opacity="0.5" d="M34.4012 38.6596C35.1099 37.6246 35.8385 36.5977 36.5658 35.5693C28.563 41.0586 21.751 48.141 21.061 58.2017C21.0357 58.5707 20.5389 58.881 20.2538 58.5347C18.1319 55.9599 17.5605 52.0265 17.1902 48.7137C17.1915 49.7247 17.2102 50.7317 17.2501 51.7268C17.4406 56.7138 19.7397 61.0229 20.8026 65.8075C20.9012 66.2538 21.6365 66.2791 21.7191 65.8075C22.2146 62.8984 22.7714 60.0119 23.4454 57.1561C23.8183 56.3342 24.2286 55.527 24.6362 54.7225C25.5939 50.6438 27.9449 46.4866 29.8164 43.9651C31.2377 42.0483 32.7788 40.302 34.4012 38.6596Z" fill="#424241"/>
<path opacity="0.5" d="M54.191 10.0372C44.9215 10.5833 35.9277 13.6896 28.5869 18.9617C23.685 21.9029 18.3716 28.5656 18.5621 28.1047C21.9441 19.9035 29.2316 13.8894 36.8441 9.71352C40.9107 7.48239 45.1626 5.56028 49.6714 4.42407C53.1067 3.55959 56.5913 2.98948 60.0958 2.52327C57.3905 2.39407 54.5626 2.41671 51.8573 2.90157C37.582 4.21094 24.8399 11.557 16.1645 23.3721C13.9386 26.4037 12.2763 29.7857 11.0628 33.3369C9.48037 40.0729 9.37381 47.146 9.49502 54.1098C9.59759 59.996 10.5966 66.1539 9.63355 71.9629C9.856 71.3728 10.0718 70.78 10.2796 70.1873C11.1347 65.8276 10.9203 61.5012 10.9389 56.6273C10.9549 52.6033 11.3239 48.6219 11.8327 44.6444C11.6103 48.3754 11.7568 52.0745 12.4161 55.29C12.52 55.7908 13.1434 55.3006 13.1554 54.9689C13.5457 44.382 16.7665 32.7442 24.4483 25.0691C33.193 16.3323 45.8166 12.945 57.5104 10.7019C57.5863 10.6859 57.6756 10.622 57.7528 10.5394C56.578 10.3169 55.3885 10.1491 54.191 10.0372Z" fill="#424241"/>
<path opacity="0.5" d="M83.915 40.4746C83.9083 40.4386 83.9003 40.4026 83.8923 40.3653C82.4671 35.4555 81.9316 30.599 81.2283 25.5613C82.4884 28.4651 83.6512 31.7898 86.1661 33.283C86.4365 33.4428 86.7548 33.0459 86.8121 32.8328C87.0439 31.9843 87.1105 30.9959 87.0585 29.9383C88.8355 33.909 90.2208 37.9997 91.9337 42.0037C90.9014 36.4625 90.029 30.8307 88.2747 25.5C87.1664 22.1313 85.3456 18.8665 83.2197 16.0213C82.0528 14.4589 80.7155 11.9134 78.792 11.0582C81.4054 15.1236 83.9256 19.7896 83.9842 24.5569C83.9896 24.9792 83.4687 25.1697 83.1784 24.8913C81.6479 23.4367 80.7967 21.5506 79.9123 19.6791C79.9109 21.8822 79.9495 24.0867 80.0428 26.2912C80.0681 26.8573 79.2822 26.8933 79.113 26.4111C78.2739 24.0015 77.7797 21.5266 77.4493 19.0011C77.3068 17.9101 77.2509 16.746 77.135 15.5964C77.0337 14.9757 76.9485 14.3736 76.8779 13.8075C76.79 13.3573 76.6834 12.9164 76.5382 12.4941C76.2372 11.6137 75.6338 11.4299 74.8999 11.6083C74.5322 11.8734 74.2245 12.1425 74.1513 12.2051C73.2295 12.9883 72.3011 13.7636 71.362 14.5255C70.1552 15.5045 69.0043 16.5342 67.8135 17.5265C67.2114 18.026 64.9084 20.3397 64.1171 18.9864C63.3579 17.6864 64.8871 15.9188 65.621 14.977C66.7066 13.5864 68.0986 12.329 69.2281 10.937C66.8318 11.8947 64.5154 13.3533 62.3336 14.6387C60.5686 15.6777 58.7304 16.8978 56.6392 17.0696C56.2489 17.1029 55.9838 16.5155 56.3048 16.2638C56.7391 15.9254 59.6802 13.9674 61.9193 12.4022C61.208 12.6114 60.4914 12.8072 59.7681 12.9843C57.3052 14.1498 54.7131 14.8878 52.1396 15.7629C50.103 16.4542 48.041 17.2961 46.015 18.2511C42.8701 19.5605 39.8344 21.3494 37.2663 23.0331C34.7874 24.6582 31.6545 26.7867 29.105 29.2603C27.8356 30.8108 26.706 32.4691 25.731 34.2327C27.0457 32.8035 28.6814 31.6446 30.2878 30.575C32.3764 29.183 34.4863 27.8617 36.6908 26.7028C40.7868 24.132 45.2437 22.1513 49.6834 20.2731C50.4173 19.9628 51.1486 19.6471 51.8785 19.3301C48.0023 21.9941 44.4139 25.139 40.603 27.8284C40.3659 27.9949 40.1474 28.4451 40.222 28.7142C41.923 28.5264 43.7039 27.7618 45.1878 27.2663C45.8085 27.0585 46.4212 26.836 47.038 26.6202C48.6031 25.8277 50.1296 24.9392 51.6188 24.0667C54.9369 22.5762 57.878 20.2532 61.1081 18.5655C63.1741 17.4879 60.4634 21.8995 60.5846 21.7397C59.7734 22.82 59.0395 23.9562 58.2949 25.0817C56.4101 27.9229 54.1363 30.4511 51.8852 33.0019C51.8226 33.0725 51.7666 33.1898 51.7347 33.307C52.2515 33.2031 52.767 33.0899 53.2732 32.926C54.6411 32.4825 55.9598 31.875 57.2199 31.1704C59.4644 29.568 61.5011 27.546 63.3979 25.7797C64.1544 25.0738 64.8511 24.3238 65.5211 23.5552C67.2181 22.122 68.8059 20.5342 70.2977 18.9465C71.679 17.4759 73.2801 15.9254 74.5522 14.2258C74.1313 17.677 75.0357 21.9222 75.6964 24.6688C77.2882 31.297 80.0748 38.5085 84.2227 43.9778C84.3705 44.1723 84.6396 44.0178 84.7914 43.8033C84.4318 42.7124 84.1254 41.6055 83.915 40.4746Z" fill="#424241"/>
<path opacity="0.5" d="M9.91584 94.6651C9.36705 92.0716 9.04337 89.4436 9.13261 86.7875C9.22719 83.933 9.48693 81.0851 9.14327 78.2612C7.56882 87.6586 6.96542 97.798 13.6815 105.534C13.8253 105.701 14.1077 105.546 14.2476 105.345C12.1536 102.103 10.7084 98.4107 9.91584 94.6651Z" fill="#424241"/>
<path opacity="0.5" d="M110.281 77.8041C108.637 73.1647 107.019 68.3468 105.576 63.4423C105.424 62.6337 105.294 61.8252 105.162 61.0167C104.252 56.8661 103.677 52.6742 103.32 48.3611C103.205 46.9905 103.103 45.6118 102.982 44.2372C102.61 41.4706 102.182 38.7093 101.602 35.96C100.633 31.3712 98.8869 27.4964 96.5319 24.0131C95.2598 22.2455 93.8239 20.6098 92.2441 19.106C95.9192 24.3927 98.7737 30.3029 100.05 36.5394C101.002 41.1962 101.301 45.9422 101.294 50.6868C101.293 51.7804 101.29 52.878 101.301 53.9729C102.629 61.1632 104.713 68.2922 107.002 75.1201C107.566 77.6283 108.186 80.0659 108.596 82.5408C107.772 78.4115 105.832 74.522 103.999 70.6898C103.731 70.3262 102.182 68.0164 101.908 67.6568C103.933 72.6745 105.394 80.2217 105.337 85.5045C105.267 91.9249 104.13 97.9763 101.603 103.777C103.895 101.137 105.684 98.7275 106.931 96.0288C106.681 98.0189 106.328 100.049 105.967 102.219C106.919 101.469 107.753 100.486 108.354 99.5733C108.492 99.3642 108.712 99.3256 108.901 99.3829C109.756 97.7458 110.244 95.9836 110.609 94.1041C111.389 98.4038 110.844 102.833 110.829 107.182C112.354 105.938 113.401 103.881 114.072 101.718C115.604 93.8164 112.874 85.1223 110.281 77.8041Z" fill="#424241"/>
<path opacity="0.5" d="M30.3678 115.228C22.7287 110.535 20.1352 102.627 17.9054 94.3712C17.8708 94.2434 17.655 94.4032 17.6683 94.5031C18.8978 103.011 21.4726 112.079 30.1147 115.594C30.2945 115.666 30.5636 115.348 30.3678 115.228Z" fill="#424241"/>
<path d="M52.4194 68.3091C52.4194 68.3091 54.0844 70.5402 54.2975 72.12C54.2975 72.12 53.7674 76.9379 51.4124 79.7631C51.4124 79.7631 53.5423 75.4807 53.1187 72.08L52.4194 68.3091Z" fill="#AC641B"/>
<path d="M57.377 84.712C56.2968 85.0357 54.6544 84.3004 52.9654 83.5172C51.2817 82.7366 49.7859 81.4938 50.9873 80.1099C50.9873 80.1099 50.9207 81.4406 55.4962 82.0773C55.4962 82.0773 56.5579 82.4755 59.4483 81.4819C59.4483 81.4819 57.8659 83.0923 55.6907 82.9324C53.5155 82.7686 52.0916 81.8149 52.0916 81.8149C52.0916 81.8149 53.2425 83.1669 56.2395 84.1272C56.2395 84.1272 57.1706 84.7933 59.4377 83.0563C59.4377 83.0563 58.4586 84.3803 57.377 84.712Z" fill="#AC641B"/>
<path d="M57.377 84.712C56.2968 85.0357 54.6544 84.3004 52.9654 83.5172C51.2817 82.7366 49.7859 81.4938 50.9873 80.1099C50.9873 80.1099 50.9207 81.4406 55.4962 82.0773C55.4962 82.0773 56.5579 82.4755 59.4483 81.4819C59.4483 81.4819 62.4014 79.8901 59.4377 83.0576C59.4377 83.0576 58.4586 84.3803 57.377 84.712Z" fill="#FAD6BE"/>
<path d="M54.195 77.5259C54.7038 75.9901 55.4471 74.4809 55.455 72.8532C55.4657 70.8046 54.6079 69.5645 53.3997 68.1738C53.3798 68.2284 53.3718 68.2831 53.3931 68.3297C53.6608 68.9104 53.9166 69.4632 54.1443 69.9987C54.5906 71.5492 54.6998 73.0743 54.2655 74.778C53.8646 76.3524 52.9096 77.6698 52.4114 79.167C53.0414 78.6422 53.6435 78.104 54.195 77.5259Z" fill="#FAEDE6"/>
<path d="M56.9896 80.9484C57.5397 80.2318 55.9799 79.9215 55.6269 79.9334C55.1447 79.9534 54.6825 80.0733 54.211 80.1639C54.0671 80.429 54.0818 80.8006 54.3162 81.0337C54.6 81.3187 54.9729 81.5465 55.3685 81.6544C55.9879 81.6677 56.6046 81.4506 56.9896 80.9484Z" fill="#FAEDE6"/>
<path d="M79.0424 50.6079C78.4364 49.8793 77.7424 49.3065 76.9645 49.0068C75.1529 48.0584 73.0164 47.8786 70.8065 48.4181C69.1868 48.815 64.0372 50.8091 62.1897 53.5637C62.167 53.946 62.1937 54.3136 62.243 54.6733C62.2163 54.6386 62.187 54.6053 62.1604 54.5694C62.1457 54.5467 62.1298 54.5201 62.1138 54.4948C62.3282 55.2993 62.7478 56.0039 63.4698 55.9946C66.6906 53.613 69.4958 51.3032 73.4772 51.6176C76.413 51.8507 79.4487 52.859 81.4933 55.4112C80.9752 53.3626 80.1214 51.7761 79.0424 50.6079Z" fill="#424241"/>
<path d="M76.8379 50.8255C73.8035 49.1472 70.7758 49.8744 67.8494 51.5142C66.7318 52.1402 65.5397 52.7636 64.6006 53.7733C64.169 54.2355 63.6722 54.9015 63.13 55.1719C62.8796 55.2958 62.6465 55.3158 62.4241 55.2824C62.6638 55.7087 63.0048 56.0017 63.4724 55.9951C66.6932 53.6134 69.4984 51.3037 73.4799 51.6181C75.7176 51.7966 78.0101 52.4293 79.8802 53.8479C79.0317 52.6251 78.0993 51.5248 76.8379 50.8255Z" fill="#424241"/>
<path d="M73.7527 51.1154C71.9039 51.3511 70.2082 50.7118 68.4606 51.4883C66.733 52.2582 63.6094 56.7178 62.284 54.1803C62.1868 53.9925 61.8551 54.3935 62.0017 54.5453C62.0536 54.5999 62.1042 54.6519 62.1548 54.7038C62.2015 54.7518 62.2721 54.6772 62.28 54.6132C61.7979 59.242 66.1682 55.527 67.7693 54.8317C72.506 52.7804 76.7951 51.4084 81.0322 55.8014C81.1681 55.9426 81.4119 55.6602 81.3466 55.4604C80.0958 51.5616 76.6472 50.7477 73.7527 51.1154Z" fill="#FAD6BE"/>
<path d="M49.7419 54.2224C47.897 51.264 42.8513 49.1248 41.2582 48.6985C39.0764 48.1164 36.9664 48.3109 35.1775 49.3352C34.4103 49.6602 33.727 50.2796 33.1276 51.0668C32.0619 52.3283 31.2188 54.0426 30.7073 56.2564C32.724 53.4991 35.7237 52.4082 38.6221 52.1564C42.5223 51.8181 45.2836 54.2797 48.4351 56.8318C49.4515 56.5414 49.7392 55.3773 49.7419 54.2224Z" fill="#424241"/>
<path d="M49.3342 56.1193C49.1744 56.1166 49.0132 56.0913 48.84 55.9981C48.3045 55.705 47.8144 54.9871 47.3894 54.4876C46.4597 53.3953 45.2835 52.72 44.1806 52.0433C41.2888 50.273 38.3011 49.4858 35.3067 51.3C34.0599 52.0553 33.1395 53.2435 32.303 54.5675C34.1492 53.0343 36.4149 52.3457 38.6234 52.1552C42.5236 51.8169 45.2849 54.2784 48.4364 56.8306C48.84 56.7147 49.1331 56.4603 49.3342 56.1193Z" fill="#424241"/>
<path d="M38.277 51.6117C40.0859 51.8661 41.7456 51.1748 43.4519 52.0153C45.1396 52.8478 48.1952 57.6671 49.4899 54.9271C49.5858 54.7246 49.9082 55.1575 49.7657 55.3214C49.7151 55.38 49.6671 55.4359 49.6165 55.4919C49.5699 55.5452 49.5019 55.4652 49.4953 55.396C49.9641 60.3977 45.6937 56.3817 44.1286 55.6331C39.4958 53.4139 35.3026 51.9314 31.16 56.68C31.0268 56.8319 30.791 56.5255 30.8536 56.3111C32.0751 52.0965 35.4478 51.2134 38.277 51.6117Z" fill="#FAD6BE"/>
<path d="M82.4628 66.1695C82.1924 66.316 81.6983 66.7902 81.4332 66.938C81.6596 64.314 79.6629 61.8364 77.9553 60.3445C76.4155 58.9979 74.6146 57.9522 72.6858 58.0881C73.4158 57.8949 74.1617 57.7391 74.9169 57.5926C70.7903 57.141 67.2072 58.9739 64.8522 62.3466C63.6147 64.6643 62.9581 67.7759 63.5695 70.4453C64.2714 73.5182 69.4823 72.3474 71.2459 72.029C74.4094 71.4549 78.8238 70.2974 81.6077 67.8225C81.9647 67.331 82.255 66.7822 82.4628 66.1695Z" fill="#FAD6BE"/>
<path d="M81.1416 66.9892C80.9884 66.4031 80.4449 65.3788 80.2385 64.81C79.4419 62.8786 78.5628 61.3614 76.5221 60.1572C74.5268 58.9811 72.626 58.9211 70.4295 59.5205C65.9259 60.7433 64.1703 65.2842 64.534 69.3921C64.4354 70.0688 64.478 70.7761 65.2226 71.0026C67.2819 71.6366 69.533 71.4142 71.6549 71.1757C74.0006 70.912 77.0776 70.1594 79.1995 68.6049C79.2142 68.5863 80.726 67.7258 81.1416 66.9892Z" fill="#81400F"/>
<path d="M67.5711 71.005C65.1534 70.8612 64.7032 69.0736 64.8551 68.0719C65.1255 64.1118 67.2127 60.6885 71.715 59.7681C76.2505 58.8437 78.7347 62.7705 80.3598 66.1152C79.9708 68.6447 74.4043 70.5122 71.2101 70.8172C70.3057 70.9025 68.6939 71.0436 67.5711 71.005Z" fill="white"/>
<path d="M71.8228 57.9854C71.1501 58.0946 70.4961 58.2398 69.8581 58.4223C65.8767 60.1499 63.3432 64.3018 63.8067 68.82C63.8147 68.8853 63.864 68.8893 63.9173 68.868C63.9639 68.6469 64.0065 68.4244 64.0678 68.206C64.1677 65.6698 64.7871 63.2748 66.4534 61.2102C68.0945 59.1749 70.7412 58.2558 73.304 57.8828C72.7206 57.9081 72.0839 57.9441 71.8228 57.9854Z" fill="#81400F"/>
<path d="M29.5256 66.2166C29.7907 66.3605 30.2742 66.8267 30.534 66.9719C30.3302 64.4317 32.3202 62.0554 34.0132 60.6288C35.5424 59.3434 37.3246 58.3524 39.2241 58.5015C38.5075 58.3071 37.7735 58.1486 37.0302 57.998C41.1009 57.6064 44.6134 59.418 46.9072 62.7067C48.1073 64.9618 48.7294 67.9815 48.1047 70.5563C47.3867 73.5227 42.2638 72.3332 40.5281 72.0056C37.4165 71.4182 33.0768 70.2513 30.3542 67.8257C30.0092 67.3462 29.7268 66.812 29.5256 66.2166Z" fill="#FAD6BE"/>
<path d="M32.7238 68.6103C34.8004 70.1382 37.8267 70.8988 40.1338 71.1798C42.2224 71.4342 44.4389 71.6727 46.4742 71.0826C47.2082 70.8708 47.2548 70.1888 47.1642 69.5321C47.5532 65.5613 45.8628 61.147 41.4379 59.9162C39.2773 59.3128 37.4032 59.3501 35.4291 60.4664C33.4071 61.6092 32.5293 63.0678 31.7287 64.9286C31.521 65.4774 30.9788 66.4591 30.8203 67.0266C31.2252 67.7432 32.7078 68.593 32.7238 68.6103Z" fill="#81400F"/>
<path d="M40.0764 58.4165C40.7371 58.5298 41.3804 58.6776 42.0078 58.8601C45.9173 60.5744 48.3762 64.6198 47.8833 68.9861C47.8754 69.0501 47.8274 69.0514 47.7755 69.0314C47.7315 68.8183 47.6902 68.6025 47.6329 68.3907C47.5557 65.9331 46.9643 63.6114 45.3419 61.5947C43.7394 59.6074 41.1407 58.6896 38.6191 58.2993C39.1932 58.3313 39.8206 58.3752 40.0764 58.4165Z" fill="#81400F"/>
<path d="M40.5745 70.8367C37.4323 70.509 31.963 68.6415 31.5994 66.1906C33.2284 62.9711 35.7073 59.1988 40.1696 60.1432C44.5972 61.0823 46.6246 64.4163 46.8577 68.2512C46.9975 69.2223 46.542 70.9459 44.1603 71.0591C43.0507 71.0858 41.4656 70.9286 40.5745 70.8367Z" fill="white"/>
<path d="M75.439 65.4732C75.439 68.1492 73.7993 70.3191 71.7773 70.3191C69.7526 70.3191 68.1143 68.1492 68.1143 65.4732C68.1143 62.7958 69.7526 60.626 71.7773 60.626C73.7993 60.626 75.439 62.7958 75.439 65.4732Z" fill="#220300"/>
<path d="M71.7774 60.959C69.9259 60.959 68.426 62.9424 68.426 65.3919C68.426 67.8415 69.9259 69.8263 71.7774 69.8263C73.6276 69.8263 75.1274 67.8415 75.1274 65.3919C75.1274 62.9424 73.6276 60.959 71.7774 60.959Z" fill="#7F4A23"/>
<path d="M74.0445 65.2038C74.0445 66.8915 73.0109 68.2595 71.7348 68.2595C70.4587 68.2595 69.425 66.8915 69.425 65.2038C69.425 63.5148 70.4587 62.1455 71.7348 62.1455C73.0109 62.1455 74.0445 63.5162 74.0445 65.2038Z" fill="#0A000B"/>
<path d="M70.8582 63.4056C70.6917 64.1582 70.1802 64.6857 69.7154 64.5831C69.2505 64.4819 69.0094 63.7866 69.1746 63.034C69.3397 62.2827 69.8512 61.7539 70.3174 61.8565C70.7823 61.9604 71.0234 62.653 70.8582 63.4056Z" fill="#FFFAE2"/>
<path d="M73.6035 67.6444C71.4137 69.9954 69.2625 68.1705 69.1586 65.4372C69.1559 65.3626 68.6684 65.8022 68.6724 65.8555C68.7736 67.366 69.3877 68.7286 70.8369 69.356C72.0877 69.8968 73.2239 69.1056 73.9099 68.1359C73.9672 68.0573 73.6621 67.5818 73.6035 67.6444Z" fill="#7F4A23"/>
<path d="M74.3695 63.9443C74.3695 63.9443 74.7638 65.6946 73.8979 67.2131L74.223 67.4063C74.223 67.4063 75.3179 66.013 74.3695 63.9443Z" fill="#7F4A23"/>
<path d="M43.4269 65.5808C43.4269 68.2581 41.7872 70.428 39.7639 70.428C37.7405 70.428 36.1008 68.2581 36.1008 65.5808C36.1008 62.9047 37.7405 60.7349 39.7639 60.7349C41.7872 60.7349 43.4269 62.9047 43.4269 65.5808Z" fill="#220300"/>
<path d="M39.7639 61.0679C37.9137 61.0679 36.4138 63.0512 36.4138 65.5008C36.4138 67.9504 37.9137 69.9351 39.7639 69.9351C41.6154 69.9351 43.1152 67.9504 43.1152 65.5008C43.1152 63.0512 41.6154 61.0679 39.7639 61.0679Z" fill="#7F4A23"/>
<path d="M42.0323 65.3163C42.0323 67.0039 40.9986 68.3719 39.7226 68.3719C38.4465 68.3719 37.4128 67.0039 37.4128 65.3163C37.4128 63.6273 38.4465 62.2593 39.7226 62.2593C40.9986 62.2593 42.0323 63.6286 42.0323 65.3163Z" fill="#0A000B"/>
<path d="M38.8447 63.5145C38.6796 64.2671 38.1681 64.7946 37.7032 64.692C37.2383 64.5894 36.9959 63.8955 37.1624 63.1429C37.3276 62.3916 37.8391 61.8628 38.3053 61.9654C38.7688 62.0679 39.0112 62.7619 38.8447 63.5145Z" fill="#FFFAE2"/>
<path d="M41.5913 67.7535C39.4015 70.1045 37.2503 68.2797 37.1464 65.5464C37.1437 65.4704 36.6562 65.9113 36.6602 65.9659C36.7614 67.4751 37.3741 68.8391 38.8247 69.4665C40.0755 70.0073 41.2117 69.2161 41.899 68.2464C41.955 68.1678 41.6499 67.6922 41.5913 67.7535Z" fill="#7F4A23"/>
<path d="M42.3546 64.0557C42.3546 64.0557 42.7502 65.8059 41.8831 67.3244L42.2094 67.5176C42.2094 67.5176 43.3043 66.1243 42.3546 64.0557Z" fill="#7F4A23"/>
<path d="M61.4982 88.9579C57.2265 86.8413 51.9956 88.2319 48.8401 91.1091C47.8757 92.1361 47.0871 93.2936 46.505 94.4924C45.3542 96.8674 45.3382 99.4502 47.1471 101.639C50.1388 105.264 60.5299 105.316 64.2276 102.47C65.9885 101.115 66.6971 99.1572 66.6305 97.2431C66.1843 93.9956 64.9362 90.6629 61.4982 88.9579Z" fill="#FAD6BE"/>
<path d="M56.9282 107.39C55.4803 107.283 54.1323 107.002 52.8082 106.505C51.8025 106.13 50.5758 105.176 49.5261 104.81C49.5301 104.815 49.5275 104.823 49.5315 104.828C51.3084 107.304 54.3707 108.718 58.0058 108.361C60.0158 108.164 62.2895 107.487 63.0781 105.946C61.2306 106.898 59.122 107.554 56.9282 107.39Z" fill="#FAD6BE"/>
<path d="M62.9929 90.8916C61.79 89.0135 58.4986 88.0677 55.5589 88.3634C51.6001 88.7617 49.6926 91.1593 48.4192 93.4504C46.3506 97.1761 45.4009 101.668 53.1732 103.238C60.0531 104.626 65.3545 102.577 65.8021 98.5987C66.0872 96.0505 64.5087 93.2599 62.9929 90.8916Z" fill="#9E4C0B"/>
<path d="M62.1591 102.412C59.7161 103.516 55.796 103.055 53.1413 102.522C46.8395 101.251 47.4496 97.643 48.5964 94.6033C49.0027 93.5244 49.5022 92.3869 50.3081 91.4105C51.094 90.4621 52.3008 89.2766 53.8806 88.8703C56.7564 88.1351 60.3302 88.9982 61.9686 90.7258C63.3992 92.239 63.9826 94.2717 64.5167 95.9274C65.1907 98.0253 65.4292 100.932 62.1591 102.412Z" fill="#8C0C00"/>
<path d="M61.3852 99.7289C61.1015 100.034 60.6033 100.335 60.1505 100.527C58.5227 101.207 56.7978 101.478 54.8823 101.429C53.5476 101.393 51.8919 100.962 51.158 100.179C50.5013 99.4798 50.2629 98.7125 49.6848 97.9906C49.5316 97.8001 48.6724 97.6736 47.8719 97.6709C47.7973 99.7542 48.9029 101.67 53.1414 102.525C55.7961 103.058 59.7162 103.518 62.1591 102.414C64.4635 101.37 65.023 99.6196 64.9164 97.944C63.4072 98.1291 62.2897 98.7578 61.3852 99.7289Z" fill="white"/>
<path d="M52.6709 91.8016C53.7099 92.1213 54.8514 92.3344 55.9996 92.3744C58.2361 92.4529 60.7403 92.2238 62.2321 91.0463C62.1442 90.9411 62.0603 90.8319 61.9671 90.7306C60.33 89.003 56.7549 88.1412 53.879 88.8751C52.92 89.1229 52.0995 89.6584 51.4268 90.2524C51.4241 90.8878 51.6332 91.4792 52.6709 91.8016Z" fill="white"/>
<path opacity="0.6" d="M59.4937 90.4189C59.5816 90.4829 59.6389 90.5801 59.6522 90.712C59.8094 91.0823 59.884 91.5259 59.9 92.0573C60.7911 91.8522 61.6063 91.5405 62.2337 91.0463C62.1458 90.9411 62.0619 90.8319 61.9686 90.7306C60.3316 89.003 56.7564 88.1412 53.8806 88.8751C53.1107 89.0723 52.4367 89.4599 51.8506 89.9101C53.5809 89.2361 55.6988 89.2708 57.4504 89.4439C58.5293 89.5545 59.1447 89.8821 59.4937 90.4189Z" fill="#B8A997"/>
<path d="M63.2021 101.389C64.4409 95.7693 50.9768 95.7973 48.9175 100.577C49.7194 101.412 51.0394 102.099 53.1413 102.524C55.796 103.057 59.7162 103.518 62.1591 102.413C62.6173 102.203 63.0023 101.966 63.3299 101.709C63.2314 101.628 63.1728 101.518 63.2021 101.389Z" fill="#FF7858"/>
<path d="M55.3284 107.078C53.5875 106.622 51.1832 105.617 49.6074 104.44C50.7889 106.034 52.6724 107.203 55.5189 107.601C58.4201 108.004 60.165 107.336 61.91 106.133C59.8813 107.046 57.4544 107.629 55.3284 107.078Z" fill="#9E4C0B"/>
<path d="M49.654 89.823C50.1548 89.4541 50.681 89.1104 51.2551 88.808C51.6254 88.5989 52.0077 88.4004 52.4126 88.2326C53.381 87.8277 54.372 87.4933 55.3817 87.1963C53.9817 87.3535 52.6817 87.4307 51.315 88.126C49.8045 88.896 48.5258 89.8976 47.6333 91.1511C48.3313 90.7395 48.9893 90.2799 49.654 89.823Z" fill="#FAEDE6"/>
<path d="M55.4801 105.562C55.4774 105.561 55.4721 105.562 55.4681 105.561C54.8354 105.484 54.2266 105.316 53.6206 105.141C53.0505 105.072 52.475 105.085 51.8916 105.224C52.7761 105.801 53.5446 106.387 54.7062 106.668C56.0715 106.998 57.5793 106.782 58.8527 106.315C57.6979 106.271 56.5843 105.89 55.4801 105.562Z" fill="#FAEDE6"/>
<path d="M54.2746 99.5688C53.594 99.1879 52.3698 99.0653 51.865 99.7313C51.7838 99.8392 51.7345 99.9445 51.7038 100.047C51.4734 100.464 52.0475 100.953 52.4791 101.141C53.0545 101.39 53.8484 101.411 54.3945 101.109C55.1205 100.705 54.9366 99.9405 54.2746 99.5688Z" fill="#EF7874"/>
<path d="M56.0356 101.231C56.0356 101.168 56.0023 101.113 55.9184 101.077C55.7745 100.915 55.3576 101.148 55.2697 101.251C55.0592 101.5 55.2337 101.749 55.6 101.65C55.6267 101.642 55.656 101.634 55.6839 101.628C55.8091 101.593 55.9676 101.45 56.0209 101.315C56.0369 101.285 56.0462 101.257 56.0356 101.231Z" fill="#EF7874"/>
</svg>
