<svg width="121" height="122" viewBox="0 0 121 122" fill="none" xmlns="http://www.w3.org/2000/svg">
<path d="M30.5221 70.0293C27.5064 71.1335 24.6413 72.5188 22.1691 74.337C20.1431 75.8262 18.5513 77.691 17.3579 79.7729C17.0595 80.2924 16.853 80.8106 16.6865 81.3314C16.6799 81.1089 16.6839 80.8851 16.6812 80.664C16.4628 81.2714 16.2922 81.8948 16.1577 82.5262C16.1857 82.991 16.223 83.4546 16.2683 83.9194C16.2536 85.3274 16.5174 86.7566 16.8251 88.2325C16.8477 88.3417 16.925 88.375 17.0155 88.3657C17.2074 89.1716 17.4205 89.9774 17.6709 90.7726C18.9403 94.7953 21.1794 98.4996 23.5197 102.088C25.2247 104.704 26.9256 107.468 29.8507 109.133C30.0332 109.238 30.2397 108.968 30.2464 108.836C30.2797 108.217 30.0386 107.584 29.7269 106.956C29.9613 107.323 30.2144 107.689 30.4914 108.053C31.6676 109.598 33.1315 110.87 34.7872 111.921C38.8071 113.531 43.0562 114.522 47.3972 114.502C32.5853 105.579 28.1684 86.7153 30.5221 70.0293Z" fill="#1F1F1D"/>
<path d="M46.3128 117.825C44.1523 117.917 42.0157 117.717 39.9165 117.279C42.3181 118.063 44.8556 118.592 47.429 118.924C47.0334 118.587 46.6658 118.213 46.3128 117.825Z" fill="#1F1F1D"/>
<path d="M70.8245 113.776C75.8475 112.336 80.6574 110.162 84.9291 107.335C84.7546 107.537 84.5774 107.738 84.391 107.933C83.9887 108.348 83.404 108.893 83.2641 109.455C82.8032 111.3 88.0607 108.306 88.6681 107.969C97.1809 103.245 103.785 94.2343 103.708 84.8317C103.666 79.89 101.136 75.2999 96.8985 72.3628C94.124 70.438 90.75 69.2819 87.3041 68.4214C87.1962 69.2965 87.0497 70.169 86.9231 71.0201C86.4156 74.494 85.7456 77.9892 84.8731 81.4031C83.3254 87.4544 81.2408 93.4538 77.9694 98.907C76.291 101.706 74.3783 104.354 72.2204 106.852C70.4036 108.956 68.2284 111.585 65.647 112.918C65.5924 112.946 65.5378 112.972 65.4832 113.001C66.9457 113.606 68.8518 113.805 70.8245 113.776Z" fill="#1F1F1D"/>
<path d="M25.9784 83.6519C27.5635 77.3143 26.2848 71.3722 22.7843 66.2972C21.9797 63.56 20.5385 60.9612 17.9238 61.9656C15.7886 62.7861 14.667 64.3845 14.3074 66.3678C14.4899 68.6575 15.1412 70.9126 15.698 73.1837C15.7459 73.3302 15.7979 73.4794 15.8379 73.6233C16.4119 75.6373 16.6024 77.6939 17.0753 79.7252C17.6467 82.1774 18.3713 84.3406 20.7676 85.4448C22.6843 86.3279 25.407 85.9417 25.9784 83.6519Z" fill="#9E4C0B"/>
<path d="M21.5815 84.6785C18.2781 83.9233 17.8466 80.0551 17.4336 77.4924C16.9221 74.3209 13.2125 66.1916 16.5052 63.6675C16.7863 63.2519 17.1459 62.9016 17.6121 62.6605C19.3957 61.7387 20.8209 63.0441 21.6068 64.6119C21.7533 64.841 21.8972 65.0914 22.045 65.3711C22.5459 66.3155 22.9521 67.2799 23.2811 68.2576C24.9408 71.3065 25.9492 74.5726 25.7533 78.3475C25.6175 80.9556 25.6295 85.6043 21.5815 84.6785Z" fill="#F9CEB2"/>
<path d="M21.5815 84.6785C18.2781 83.9233 17.8466 80.0551 17.4336 77.4924C16.9221 74.3209 13.2125 66.1916 16.5052 63.6675C16.7863 63.2519 17.1459 62.9016 17.6121 62.6605C19.3957 61.7387 20.8209 63.0441 21.6068 64.6119C21.7533 64.841 21.8972 65.0914 22.045 65.3711C22.5459 66.3155 22.9521 67.2799 23.2811 68.2576C24.9408 71.3065 25.9492 74.5726 25.7533 78.3475C25.6175 80.9556 25.6295 85.6043 21.5815 84.6785Z" fill="#FAD6BE"/>
<path d="M18.3021 74.1525C18.5219 74.4429 18.9721 74.4509 19.2039 74.1845C20.3294 72.9084 20.3947 70.3802 19.5728 68.9204C19.3357 68.4981 18.679 67.8308 18.1649 67.7242C17.05 67.4938 16.4439 68.5554 16.1722 69.4225C16.2708 69.1082 16.0816 68.5727 16.1216 68.2237C16.1642 67.8108 16.2894 67.4006 16.5132 67.0449C16.8768 66.4655 17.6787 66.0286 18.41 66.3603C19.5915 66.8957 20.075 68.2464 20.3787 69.3386C20.6944 70.4762 20.8875 71.6417 20.9128 72.8125C20.9368 74.01 20.7277 75.1661 20.5239 76.341C20.5092 76.4276 20.4986 76.5168 20.4826 76.602C20.4786 76.6314 20.4599 76.642 20.4426 76.6487C20.2855 77.2361 20.0923 77.7915 19.8605 78.2897C19.7726 78.4802 19.5102 78.1658 19.5302 78.0393C19.7393 76.6647 19.8219 75.27 19.8499 73.8754C19.7247 74.3283 19.5315 74.957 19.1293 75.1062C18.2954 75.4166 17.8545 73.9274 17.5042 72.951C17.7573 73.3506 18.0024 73.7556 18.3021 74.1525Z" fill="#9E4C0B"/>
<path d="M93.4725 85.4448C95.8687 84.3406 96.5933 82.1774 97.1661 79.7252C97.6376 77.6939 97.8294 75.6373 98.4035 73.6233C98.4435 73.4794 98.4954 73.3302 98.5447 73.1837C99.1002 70.9126 99.7529 68.6575 99.934 66.3678C99.5744 64.3858 98.4528 62.7874 96.3176 61.9656C93.7042 60.9612 92.263 63.56 91.4585 66.2972C87.9566 71.3735 86.6792 77.3143 88.2643 83.6519C88.8344 85.9417 91.557 86.3279 93.4725 85.4448Z" fill="#9E4C0B"/>
<path d="M88.4895 78.3524C88.295 74.5775 89.3033 71.3114 90.963 68.2624C91.292 67.2848 91.6983 66.3204 92.1978 65.376C92.3443 65.0963 92.4895 64.8458 92.636 64.6167C93.4219 63.049 94.8471 61.7436 96.6307 62.6654C97.0955 62.9064 97.4565 63.2568 97.7362 63.6724C101.03 66.1965 97.3193 74.3257 96.8078 77.4972C96.3962 80.06 95.9633 83.9268 92.6613 84.6834C88.6133 85.6078 88.624 80.9591 88.4895 78.3524Z" fill="#F9CEB2"/>
<path d="M88.4895 78.3524C88.295 74.5775 89.3033 71.3114 90.963 68.2624C91.292 67.2848 91.6983 66.3204 92.1978 65.376C92.3443 65.0963 92.4895 64.8458 92.636 64.6167C93.4219 63.049 94.8471 61.7436 96.6307 62.6654C97.0955 62.9064 97.4565 63.2568 97.7362 63.6724C101.03 66.1965 97.3193 74.3257 96.8078 77.4972C96.3962 80.06 95.9633 83.9268 92.6613 84.6834C88.6133 85.6078 88.624 80.9591 88.4895 78.3524Z" fill="#FAD6BE"/>
<path d="M95.9393 74.1525C95.7209 74.4429 95.2693 74.4509 95.0375 74.1845C93.9133 72.9084 93.8481 70.3802 94.6699 68.9204C94.9057 68.4981 95.5637 67.8308 96.0778 67.7242C97.1927 67.4938 97.7974 68.5554 98.0705 69.4225C97.9719 69.1082 98.1597 68.5727 98.1225 68.2237C98.0798 67.8108 97.9546 67.4006 97.7309 67.0449C97.3672 66.4655 96.5653 66.0286 95.8341 66.3603C94.6526 66.8957 94.1691 68.2464 93.8654 69.3386C93.5497 70.4762 93.3552 71.6417 93.3312 72.8125C93.3073 74.01 93.5164 75.1661 93.7188 76.341C93.7335 76.4276 93.7442 76.5168 93.7601 76.602C93.7641 76.6314 93.7828 76.642 93.7988 76.6487C93.9573 77.2361 94.1504 77.7915 94.3808 78.2897C94.4688 78.4802 94.7312 78.1658 94.7112 78.0393C94.5021 76.6647 94.4195 75.27 94.3915 73.8754C94.5167 74.3283 94.7099 74.957 95.1121 75.1062C95.946 75.4166 96.3855 73.9274 96.7372 72.951C96.4841 73.3506 96.239 73.7556 95.9393 74.1525Z" fill="#9E4C0B"/>
<path d="M95.3799 49.1185C95.2267 44.8601 94.7233 40.5884 94.1345 36.3579C94.0746 32.9826 93.9693 29.3129 92.0286 26.4758C89.9946 23.4987 86.4075 21.6459 83.232 20.1741C74.6459 16.1993 65.4764 14.3012 56.0818 13.6099C48.4813 13.0518 41.4284 13.8137 34.5446 17.2943C29.7747 19.7078 25.5016 23.4175 23.1373 28.1861C23.1013 28.1048 22.9601 28.0955 22.9242 28.2047C22.7363 28.7642 22.5592 29.3236 22.3927 29.8857C22.061 30.7595 21.788 31.6626 21.5895 32.599C21.5762 32.6563 21.6001 32.6962 21.6321 32.7282C20.9781 35.4948 20.5678 38.2987 20.424 41.1931C20.1722 46.2121 20.8209 51.2497 20.8862 56.2674C20.9102 58.063 20.9208 59.8585 20.9328 61.6554C21.8186 65.7247 21.3111 70.6584 21.2844 74.7357C21.2698 76.9162 21.1899 79.114 21.1739 81.3131C21.2698 82.741 21.4257 84.1636 21.6827 85.5729C23.2079 93.9485 29.0967 100.506 36.5319 104.367C38.3834 105.328 49.6269 113.201 61.7202 112.297C68.8051 109.766 75.0735 105.101 81.5284 100.899C84.1538 98.9728 86.7166 96.7897 88.5494 94.1004C90.5767 91.1287 91.8088 87.8293 92.5561 84.3234C92.7599 83.3644 92.9144 82.4014 93.0476 81.433C92.9597 75.5655 93.5085 69.4956 94.0479 63.6667C94.0346 63.6907 94.0186 63.7147 94.0053 63.7386C94.0293 63.3936 94.0546 63.0487 94.0839 62.7063C94.4755 58.0976 95.5451 53.7792 95.3799 49.1185Z" fill="#F9CEB2"/>
<path d="M95.3799 49.1185C95.2267 44.8601 94.7233 40.5884 94.1345 36.3579C94.0746 32.9826 93.9693 29.3129 92.0286 26.4758C89.9946 23.4987 86.4075 21.6459 83.232 20.1741C74.6459 16.1993 65.4764 14.3012 56.0818 13.6099C48.4813 13.0518 41.4284 13.8137 34.5446 17.2943C29.7747 19.7078 25.5016 23.4175 23.1373 28.1861C23.1013 28.1048 22.9601 28.0955 22.9242 28.2047C22.7363 28.7642 22.5592 29.3236 22.3927 29.8857C22.061 30.7595 21.788 31.6626 21.5895 32.599C21.5762 32.6563 21.6001 32.6962 21.6321 32.7282C20.9781 35.4948 20.5678 38.2987 20.424 41.1931C20.1722 46.2121 20.8209 51.2497 20.8862 56.2674C20.9102 58.063 20.9208 59.8585 20.9328 61.6554C21.8186 65.7247 21.3111 70.6584 21.2844 74.7357C21.2698 76.9162 21.1899 79.114 21.1739 81.3131C21.2698 82.741 21.4257 84.1636 21.6827 85.5729C23.2079 93.9485 29.0967 100.506 36.5319 104.367C38.3834 105.328 49.6269 113.201 61.7202 112.297C68.8051 109.766 75.0735 105.101 81.5284 100.899C84.1538 98.9728 86.7166 96.7897 88.5494 94.1004C90.5767 91.1287 91.8088 87.8293 92.5561 84.3234C92.7599 83.3644 92.9144 82.4014 93.0476 81.433C92.9597 75.5655 93.5085 69.4956 94.0479 63.6667C94.0346 63.6907 94.0186 63.7147 94.0053 63.7386C94.0293 63.3936 94.0546 63.0487 94.0839 62.7063C94.4755 58.0976 95.5451 53.7792 95.3799 49.1185ZM85.8694 90.5239C82.7605 95.134 78.5767 98.7038 74.1637 102.019C69.5603 105.477 64.2203 109.14 58.2889 109.58C52.4321 110.014 46.4367 107.516 41.4377 104.662C36.5572 101.874 31.3211 98.3122 27.9218 93.7474C21.6547 85.3344 21.8519 73.3637 24.388 63.6374C24.5132 63.1552 25.1579 63.2032 25.3031 63.6374C25.7041 64.8295 26.1236 66.015 26.6831 67.1179C26.6631 58.5758 33.7067 52.3993 40.6971 48.1195C45.0767 45.4382 49.6788 42.9913 54.3435 40.8468C57.4364 39.4242 60.6799 38.0749 63.4398 36.0449C66.3076 33.935 67.9273 31.0352 70.2543 28.4352C70.4808 28.1834 70.9869 28.2993 71.0469 28.6496C71.906 33.7925 73.0355 38.9806 75.5144 43.62C77.9467 48.1741 81.2633 52.1369 84.1871 56.3673C87.7222 61.4849 90.6233 67.0806 90.5847 73.4596C90.5474 79.3977 89.2287 85.5449 85.8694 90.5239Z" fill="#FAD6BE"/>
<path d="M95.3799 49.1185C95.2267 44.8601 94.7233 40.5884 94.1345 36.3579C94.0746 32.9826 93.9693 29.3129 92.0286 26.4758C89.9946 23.4987 86.4075 21.6459 83.232 20.1741C74.6459 16.1993 65.4764 14.3012 56.0818 13.6099C48.4813 13.0518 41.4284 13.8137 34.5446 17.2943C29.7747 19.7078 25.5016 23.4175 23.1373 28.1861C23.1013 28.1048 22.9601 28.0955 22.9242 28.2047C22.7363 28.7642 22.5592 29.3236 22.3927 29.8857C22.061 30.7595 21.788 31.6626 21.5895 32.599C21.5762 32.6563 21.6001 32.6962 21.6321 32.7282C20.9781 35.4948 20.5678 38.2987 20.424 41.1931C20.1722 46.2121 20.8209 51.2497 20.8862 56.2674C20.9102 58.063 20.9208 59.8585 20.9328 61.6554C21.8186 65.7246 21.3111 70.6584 21.2844 74.7357C21.2698 76.9162 21.1899 79.114 21.1739 81.3131C21.2698 82.741 21.4257 84.1636 21.6827 85.5729C23.2079 93.9485 29.0967 100.506 36.5319 104.367C38.8496 105.572 48.6931 112.443 56.2802 112.712C57.6389 112.76 60.3176 112.774 61.6229 112.309C68.7438 109.783 75.0455 105.12 81.5271 100.9C84.1525 98.9742 86.7152 96.791 88.5481 94.1017C90.5754 91.13 91.8075 87.8306 92.5548 84.3248C92.7586 83.3657 93.4019 80.3847 93.5364 79.4163C93.4552 73.9551 93.4325 70.3347 93.9347 64.8788C93.9387 64.8109 93.9387 64.7416 93.9427 64.6737C93.9467 64.6684 93.9507 64.6604 93.9547 64.655C93.984 64.3247 94.016 63.997 94.0453 63.668C94.0319 63.692 94.016 63.716 94.0026 63.74C94.0266 63.395 94.0519 63.05 94.0812 62.7077C94.4755 58.0976 95.5451 53.7792 95.3799 49.1185ZM93.5764 60.6657C92.6946 66.709 93.0702 72.8602 92.5587 78.9421C92.5201 79.0221 92.5068 79.1113 92.5321 79.2019C92.4682 79.9332 92.3989 80.6631 92.3043 81.3917C91.8555 84.8549 90.9497 88.2409 89.3593 91.3578C87.5105 94.9808 84.5281 97.6941 81.3379 100.128C78.1664 102.547 74.7312 104.619 71.3199 106.681C67.6862 108.878 63.6342 111.546 59.4091 112.102C58.0838 112.097 56.7864 111.876 55.4011 111.815C47.9712 111.487 30.6551 100.967 27.5822 96.3581C24.8462 92.2555 22.8469 88.2742 22.2435 83.4257C21.7147 79.1459 21.9025 74.7983 21.8319 70.4986C21.7493 65.4915 21.7706 60.4845 21.696 55.4789C21.6268 50.9141 21.0554 46.3853 21.102 41.8125C21.1419 38.1388 21.6414 34.4878 22.4726 30.9113C24.7237 25.1145 29.467 20.8187 34.9815 17.9856C41.427 14.6769 48.2616 13.9776 55.3825 14.4291C64.3921 14.9992 72.9556 16.8201 81.2953 20.2819C84.592 21.6486 87.8927 23.3296 90.4169 25.899C93.4991 29.0385 92.8158 33.4635 93.5711 37.4275C93.5871 37.5128 93.6323 37.57 93.6923 37.602C93.9787 40.6909 94.3636 43.7759 94.5594 46.8741C94.8538 51.6014 94.2557 56.0077 93.5764 60.6657Z" fill="#9E4C0B"/>
<path d="M120.6 93.1874C119.178 87.7702 117.158 82.5341 115.09 77.3046C113.979 74.4981 112.797 71.7674 112.011 68.8823C108.352 58.201 107.429 47.0534 105.47 35.8393C104.506 30.3181 102.871 24.1669 100.111 18.7763C98.6208 16.2987 96.8971 14.001 94.722 12.0523C93.2088 10.6977 91.6264 9.42026 90.0973 8.08426C89.5658 7.76458 89.029 7.44623 88.4962 7.12921C84.2138 4.97003 79.6264 3.74192 74.8445 3.88178C71.3613 2.23675 67.8261 0.967351 63.7595 0.403913C57.2966 -0.491195 50.6699 0.185464 44.3415 1.60805C34.6832 3.78188 25.9146 9.14187 18.731 15.8285C17.5908 16.8915 16.5039 18.025 15.4477 19.1932C14.5446 20.6224 13.5908 22.0224 12.8729 23.5568C11.5982 26.2848 10.5019 29.1246 9.42699 31.9338C9.37637 32.0684 9.33107 32.2016 9.27912 32.3374C8.7703 34.791 7.87387 37.15 7.53288 39.6448C7.05202 43.1546 6.76564 46.6139 6.8056 50.1583C6.83756 53.0821 6.94279 56.0045 6.99208 58.9229C7.22251 62.3622 7.3424 65.7961 6.94945 69.3592C6.76031 71.0695 6.47394 72.7611 6.12362 74.4381C5.82658 76.7558 5.58549 79.1215 4.89817 81.3499C4.075 84.0192 3.01204 86.6127 2.07963 89.2434C2.05566 89.31 2.03302 89.3766 2.00905 89.4418C-0.0036151 96.8678 -0.806808 104.09 1.5908 111.598C1.75464 112.038 1.93444 112.47 2.12225 112.897C5.00471 118.352 9.97843 122.751 16.2149 121.893C13.4416 121.238 11.3571 119.267 9.54686 117.094C7.69271 114.872 7.03336 112.388 6.55784 109.791C7.92048 113.215 10.1569 116.227 13.2578 117.941C18.8403 121.028 25.5789 121.393 31.4317 119.063C32.0511 119.367 32.7024 119.633 33.3711 119.876C36.4827 120.375 39.5197 120.859 42.7325 120.472C45.0901 120.189 47.1987 119.435 49.2327 118.424C48.6532 118.264 48.1004 118.108 47.6169 117.993C42.538 116.795 38.185 114.012 34.5313 110.329C30.6805 106.448 28.0364 101.992 25.8426 97.005C24.5746 94.1198 23.4996 91.1801 22.799 88.1498C22.3914 86.9896 22.0251 85.8121 21.752 84.6346C17.7933 85.1301 16.0031 73.0608 15.5675 69.844C16.4586 67.505 17.6561 64.5973 18.7457 62.0105C19.1227 63.2599 19.5196 64.5173 19.9232 65.7907C20.0577 66.8883 20.2575 67.9846 20.488 69.0781C20.5412 69.8427 20.5772 70.6086 20.6238 71.3758C21.0314 73.3659 21.439 75.3545 21.7147 77.3672C21.8027 77.262 21.8652 77.1434 21.8679 77.0355C22.0291 71.589 22.1756 65.9626 23.441 60.6425C23.6208 59.8913 23.8912 59.1267 24.2016 58.3555C24.2282 59.9805 24.5972 61.5017 25.459 62.7884C25.6814 63.1214 26.3062 62.51 26.173 62.1957C26.1104 62.0478 26.0597 61.8893 26.0078 61.7334C26.1223 61.6562 26.2236 61.5523 26.2515 61.4444C29.8893 47.7234 47.0122 43.4117 58.0226 37.2872C62.7498 34.6551 68.9543 30.2462 71.8661 24.8489C71.8181 24.9941 71.7808 25.1433 71.7302 25.2911C71.8981 26.6644 72.1445 28.059 72.5507 29.5069C72.9437 30.9055 73.4312 32.2841 73.984 33.6415C75.4665 38.3021 77.5458 42.8363 79.7662 46.9402C84.4162 55.541 90.8845 61.6042 90.9497 71.91C90.9511 72.3922 92.4749 68.4294 92.7599 66.7471C92.7692 66.8404 92.7879 66.9336 92.7946 67.0295C92.9331 67.7714 93.0543 68.5214 93.1728 69.2779C93.5565 67.9726 94.1133 66.7178 94.6794 65.4697C94.8032 65.0821 94.9284 64.7145 95.0523 64.3335C95.1149 64.3082 95.1682 64.2616 95.2028 64.2096V64.2123C95.396 63.9353 95.669 63.6169 95.8981 63.3678C96.066 63.1853 96.2178 63.1334 96.363 63.168C96.411 63.22 96.4549 63.2759 96.5069 63.3252C96.5641 63.3785 96.6281 63.3998 96.6973 63.4064C96.7253 63.4344 96.7533 63.4584 96.7786 63.4904C96.8026 63.5183 96.8119 63.557 96.8319 63.5863C96.9424 64.0432 97.0543 64.4974 97.1462 64.9436C97.2901 65.6575 97.4326 66.3715 97.5738 67.0854C97.6217 67.4917 97.6737 67.8953 97.7057 68.3069C98.0267 72.5733 97.7896 83.8447 92.2991 85.3206L92.2951 85.3233C92.1592 85.3619 92.0087 85.4831 91.9354 85.611C91.8542 85.7255 91.8022 85.8494 91.8075 85.9533C89.8362 92.1032 87.1322 97.2874 83.2401 102.469C79.1815 107.875 72.672 114.04 65.7215 115.14C65.4312 115.187 64.945 115.645 65.1368 115.977C67.1202 119.397 72.5361 118.962 76.291 118.433C80.0712 118.39 83.9327 117.315 87.4479 115.505C87.3373 115.653 87.2374 115.806 87.1282 115.954C86.5008 116.368 85.8588 116.733 85.1995 117.022C84.8558 117.173 84.1192 118.076 84.7839 118.318C88.7772 119.778 93.049 119.048 96.9371 117.337C96.724 117.566 96.5069 117.788 96.2991 118.032C96.2085 118.141 96.1139 118.297 96.0606 118.456C102.314 119.107 108.869 117.828 113.784 114.21C115.929 112.232 117.66 109.804 118.891 107.01C119.182 106.384 119.433 105.742 119.648 105.082C119.653 105.065 119.66 105.052 119.665 105.034C119.685 104.974 119.7 104.916 119.718 104.857C119.777 104.665 119.838 104.475 119.89 104.282C120.982 100.619 121.104 96.8864 120.6 93.1874Z" fill="#1F1F1D"/>
<path d="M118.817 103.818C118.556 104.568 118.24 105.287 117.903 105.992C117.834 106.133 117.764 106.273 117.695 106.413C117.586 106.63 117.479 106.848 117.362 107.059C116.733 108.235 116.035 109.332 115.368 110.297C114.107 112.115 112.379 113.601 110.422 114.712C109.502 115.278 108.503 115.755 107.467 116.14C104.626 117.42 101.49 118.102 98.2465 118.01C98.156 118.008 98.0774 117.976 98.0108 117.932C98.0001 117.937 97.9868 117.942 97.9788 117.948C97.9881 117.942 97.9961 117.934 98.0054 117.929C97.7337 117.749 97.6751 117.311 98.0148 117.125C99.6212 116.247 100.901 115.008 102.131 113.707C97.478 116.493 92.1992 118.213 86.7433 117.932C86.3491 117.911 86.0933 117.422 86.409 117.125C87.8902 115.729 89.5339 114.53 90.9591 113.069C91.4666 112.549 92.7027 111.438 93.4513 110.35C93.3607 110.414 93.2742 110.482 93.1849 110.545C93.2182 110.514 93.2555 110.485 93.2901 110.453C93.3434 110.403 93.3781 110.35 93.406 110.294C89.9002 112.873 85.9295 114.8 81.7004 116.072C77.6351 117.299 70.2544 119.93 66.7073 116.296C66.4476 116.028 66.5848 115.614 66.9218 115.504C74.6953 112.947 81.3447 107.23 85.8429 100.485C87.9901 97.2631 90.5649 93.5921 91.3134 89.7279C91.5052 88.7382 91.6092 87.1092 92.4257 86.3486C92.4363 86.266 92.455 86.1861 92.4643 86.1035C94.6874 85.7266 96.0687 83.3636 96.9771 80.9593C97.6511 78.0729 98.2292 75.0772 98.5076 72.1148C98.7727 73.6719 99.0178 75.233 99.2016 76.8075C100.106 84.4852 99.6811 92.1695 97.9335 99.6847C99.7197 96.031 99.9049 91.5714 100.37 87.634C100.776 84.1974 100.788 80.7795 100.701 77.3549C100.41 74.1248 99.7624 70.9187 99.0591 67.7632C98.9339 67.2037 98.7447 66.5963 98.5329 65.9689C98.3624 64.8847 98.0108 63.9376 97.4966 62.9266C97.1037 61.6759 96.812 60.4411 96.8559 59.3396C96.9944 58.904 97.145 58.4711 97.2728 58.0342C97.2848 58.0129 97.2955 57.9942 97.3088 57.9742C97.3701 57.7491 97.4167 57.52 97.474 57.2963C97.9002 55.7285 98.2319 54.1394 98.481 52.5357C98.5902 48.0188 98.397 43.5167 96.9651 39.1623C96.1606 36.7221 95.0657 34.4204 94.0427 32.0707C93.8403 31.6059 93.6205 31.0624 93.3687 30.5043C95.0018 35.5286 97.089 40.184 97.6152 45.5946C98.2838 52.4637 95.7743 58.6349 94.0507 65.1165C94.0188 65.2417 94.0521 65.3003 94.1133 65.3242C93.8602 65.4268 93.5072 65.3296 93.454 65.0206C93.3727 64.5583 93.2728 64.1041 93.1836 63.6433C93.8043 57.4894 93.1636 51.1344 90.5209 45.6385C90.6168 45.8716 90.7114 46.1061 90.7966 46.3445C91.5479 48.481 92.2219 50.6749 92.6321 52.906C93.438 57.2883 91.7344 67.3929 91.6278 68.1334C91.4893 65.5507 90.5662 63.1198 89.4526 60.8021C86.9831 55.6632 83.5305 51.1038 80.684 46.1793C78.2398 42.3072 76.0367 38.2606 74.6021 33.9116C73.695 31.1663 72.6108 28.1893 72.2844 25.3055C72.1192 23.8416 72.4602 22.439 72.7506 21.0177C72.4456 21.6651 72.1126 22.3005 71.7196 22.9065C69.3047 27.6964 64.4655 31.5899 60.3137 34.479C54.9497 38.2139 48.7945 40.8127 43.0336 43.8616C36.0339 47.5673 27.8314 52.5929 25.7681 60.7901C25.1834 57.6306 26.3262 53.4654 27.3705 50.7921C28.0205 49.1311 28.8677 47.5593 29.8294 46.0568C30.4421 44.8127 31.1494 43.6192 31.9326 42.4724C32.885 40.9272 33.924 39.4341 35.0509 38.0048C33.19 39.8337 31.4291 41.793 29.8174 43.9655C27.9459 46.4884 25.5949 50.6455 24.6359 54.7228C24.2283 55.5273 23.8194 56.3345 23.4451 57.1564C22.7711 60.0135 22.213 62.9 21.7188 65.8078C21.6376 66.2793 20.9023 66.254 20.8024 65.8078C19.7408 61.0219 17.4417 56.7142 17.2499 51.7271C17.154 49.2283 17.1287 46.6455 17.4098 44.1547C17.503 43.3275 17.7987 42.4444 18.0491 41.5666C17.0941 43.4021 16.8343 45.7744 16.7837 48.0175C16.3934 52.164 17.0741 56.0308 18.137 59.9083C17.1141 62.3512 16.1084 64.7968 15.1613 67.2583C14.6512 69.4508 14.0851 71.6313 13.5403 73.8238C12.7477 77.0046 11.6435 80.8967 12.0458 84.3839C12.3109 82.1222 12.6745 79.9417 13.126 77.9157C13.7467 75.1425 14.0651 73.2457 15.0335 70.6136C15.2439 74.9147 17.6176 87.0093 21.3299 85.6893C22.2117 90.4632 24.0019 94.9201 26.0625 99.3077C27.224 101.78 28.4628 104.437 30.1224 106.714C31.3918 108.309 32.7558 109.835 34.201 111.294C36.9956 114.122 40.2483 116.87 44.1524 117.948C44.3176 117.993 44.4122 118.102 44.4575 118.229C45.274 118.487 46.1012 118.719 46.951 118.887C44.1032 119.548 41.2433 119.722 38.4581 119.349C33.2127 119 27.3239 115.714 24.0125 112.586C22.9336 111.566 21.9879 110.454 21.1727 109.272C21.9812 110.871 22.9775 112.389 24.1271 113.789C25.3925 115.328 27.1894 116.757 29.1887 117.753C29.4524 117.938 29.7202 118.117 30.0012 118.289C27.4491 118.811 24.8903 118.88 22.4368 118.558C15.1107 118.375 8.49065 113.861 5.42438 107.261C5.69744 111.213 5.94386 114.71 8.50265 118.14C9.06209 118.888 9.75339 119.722 10.5366 120.487C5.10736 118.057 2.58455 111.675 1.56423 105.8C0.884907 101.901 1.19659 97.9797 1.9505 94.0929C2.03176 93.4482 2.12501 92.8035 2.24222 92.1642C2.65115 89.9197 3.35712 87.7979 4.12568 85.6973C4.12169 85.6773 4.11636 85.6573 4.11103 85.636C4.75439 83.4742 5.41772 81.3363 6.0078 79.237C8.813 69.2217 8.41339 59.927 7.72342 49.6918C7.28519 43.173 8.26421 36.9259 10.462 30.7933C10.803 29.8423 13.1753 24.8872 14.1956 22.1979C14.3994 21.9435 14.6165 21.6957 14.823 21.444C16.0711 19.1929 18.2529 17.2562 20.0685 15.7244C20.3575 15.4793 20.6639 15.2581 20.9596 15.0224C27.5583 9.16156 35.5717 4.96574 44.1151 2.76127C48.1964 1.70899 52.3789 1.22014 56.5747 1.17352C59.5131 0.668691 62.6793 0.908452 65.342 1.51718C69.4632 2.45891 73.675 3.5698 77.6018 5.26678C77.2408 5.0763 76.8772 4.88449 76.5162 4.702C76.752 4.72998 76.9891 4.75928 77.2248 4.80191C84.0793 5.52119 90.1146 8.93379 95.7597 13.8822C96.146 14.4496 96.5123 15.025 96.8666 15.6085C97.438 16.2798 97.9735 16.9898 98.4583 17.7543C101.017 21.7783 102.629 26.4164 103.532 31.1823C105.2 37.151 105.822 43.5699 106.731 49.6066C107.2 52.7115 107.638 55.8071 108.146 58.9C109.371 63.185 110.869 67.3649 112.363 71.6166C113.614 75.1758 114.995 78.7495 116.163 82.3579C119.372 89.1365 121.297 96.685 118.817 103.818Z" fill="#424241"/>
<path opacity="0.5" d="M116.163 82.3531C114.995 78.7447 113.614 75.1695 112.363 71.6118C110.869 67.3613 109.371 63.1802 108.146 58.8951C107.638 55.8035 107.2 52.7066 106.731 49.6017C105.822 43.565 105.2 37.1461 103.532 31.1774C102.629 26.4115 101.017 21.7748 98.4583 17.7494C97.9734 16.9849 97.4379 16.2749 96.8665 15.6036C96.5135 15.0202 96.1472 14.4447 95.7596 13.8773C90.1146 8.92757 84.0806 5.5163 77.2248 4.79702C76.989 4.7544 76.7519 4.72376 76.5161 4.69712C76.8771 4.87961 77.2407 5.07141 77.6017 5.26189C73.6749 3.56625 69.4632 2.45536 65.3419 1.5123C62.6792 0.903569 59.5131 0.663808 56.5747 1.16864C54.9017 1.18729 53.234 1.29917 51.5703 1.46701C58.221 1.16198 65.3113 1.83597 70.9723 5.34314C69.5737 5.30318 68.1698 5.34314 66.8458 5.33515C62.8444 5.3165 58.8777 5.5203 54.895 5.90392C49.3738 6.43672 43.9459 7.5929 39.3199 10.4953C40.3775 10.0771 41.4511 9.72544 42.5993 9.41509C46.3715 8.39344 50.1464 7.95121 53.9573 7.76073C57.1128 7.39576 60.2896 7.23459 63.4625 7.13336C64.4188 7.22926 65.3752 7.36113 66.3303 7.55028C67.0695 7.69413 67.8328 7.85531 68.6067 8.02714C67.1654 8.75308 65.8108 9.63353 64.5787 10.5366C65.5417 10.0638 66.5567 9.69214 67.5131 9.38312C70.1465 8.52531 73.2154 7.52896 76.022 7.68215C80.5361 7.92857 84.7932 12.163 87.2454 16.3588C86.2557 14.2196 84.8185 12.3082 83.328 10.3914C83.0137 9.98652 83.3946 9.37912 83.8968 9.64552C87.0576 11.3238 89.8255 13.4977 92.1845 16.0445C98.3783 21.3325 102.298 29.5284 103.892 37.3339C105.184 43.6623 105.081 50.1198 106.028 56.4868C106.713 61.0969 107.821 65.6204 108.819 70.1679C109.189 71.2934 109.561 72.4176 109.935 73.5445C110.152 74.1985 110.365 74.8579 110.574 75.5212C113.134 81.2808 116.187 86.8805 116.791 93.1903C117.209 97.5632 116.799 102.153 114.673 106.072C113.129 108.919 110.841 112.444 107.345 112.913C107.007 112.959 106.669 112.712 106.767 112.335C107.801 108.411 108.571 104.4 108.609 100.38C108.255 101.602 107.79 102.795 107.171 103.944C104.613 108.695 99.8875 113.631 94.658 115.315C94.2824 115.437 93.8975 114.961 94.1266 114.625C95.3267 112.863 96.9398 111.579 98.4609 110.111C100.11 108.519 101.293 106.621 102.049 104.452C102.189 104.051 102.317 103.648 102.44 103.243C100.677 106.211 98.3224 108.592 95.1322 109.485C94.6847 109.609 94.3317 109.014 94.678 108.692C99.8635 103.854 101.806 96.1939 102.556 89.3687C103.485 80.9212 102.139 72.5775 100.07 64.3883C99.9328 63.8475 100.647 63.6024 100.938 64.034C102.482 66.3144 103.734 68.7653 105.076 71.1642C104.785 70.1972 104.48 69.2355 104.175 68.2711C102.958 65.6044 101.799 62.9084 101.006 60.0952C99.6557 55.3027 99.725 50.4382 99.1416 45.5298C98.4729 39.926 96.9518 34.0865 94.1732 29.1328C92.6001 26.3302 90.3716 24.0951 88.1698 21.8161C89.8002 24.7105 91.0843 27.7595 92.0553 30.9057C95.1402 38.2557 96.2724 46.5234 95.1695 54.2997C95.1642 54.3383 95.1602 54.3796 95.1549 54.4196C95.071 54.9937 94.2757 54.7885 94.2238 54.2997C94.0813 52.945 93.8229 51.629 93.4872 50.3383C93.3913 50.2864 93.3167 50.1918 93.2927 50.0453C93.2275 49.6297 93.1329 49.2261 93.0503 48.8185C91.7489 44.6773 89.6617 40.8078 87.6317 36.929C88.3044 39.7169 88.672 42.562 88.708 45.3526C88.712 45.6736 88.4389 45.8388 88.1805 45.8068C87.8102 44.6506 87.4173 43.5078 87.023 42.3836C86.5888 41.1421 86.1372 39.7662 85.6057 38.4182C84.9104 37.4205 84.1951 36.4388 83.4546 35.4758C85.2847 40.4775 86.5128 45.647 88.0273 50.7259C88.1086 51.4026 88.1818 52.0806 88.2351 52.7612C88.2711 53.2208 87.7156 53.322 87.4279 53.0942C85.1156 51.2707 83.7476 48.5334 82.5475 45.9054C81.9747 44.6493 81.358 43.4119 80.7412 42.1744C76.4615 34.9909 73.7042 26.7565 73.0143 18.4274C69.0196 22.9523 65.0329 27.5037 60.4082 31.3998C55.3772 35.6356 49.4897 39.4771 42.6885 39.5224C42.4567 39.5237 42.2942 39.3453 42.2449 39.1415C42.9696 38.4368 43.6595 37.6962 44.3335 36.9716C44.7598 36.5147 45.1967 36.0605 45.6256 35.5997C50.915 31.3759 55.8354 26.514 59.1494 21.1474C59.3159 20.8783 58.9989 20.8264 58.8471 21.0195C56.5161 24.0005 53.4285 26.6139 50.3622 29.0821C48.4321 30.4301 46.5939 31.9473 44.7132 33.3206C42.5939 34.8684 40.4001 36.5081 37.7215 36.8038C37.3818 36.8424 37.1141 36.3735 37.3099 36.0992C39.3292 33.2527 42.4088 31.0242 45.1767 28.8157C41.8813 30.5567 38.4607 32.1964 35.4531 34.4115C33.8293 35.6076 32.2696 36.8917 30.9682 38.4408C29.8972 39.7169 28.8823 41.0183 27.5716 42.0639C28.1843 40.1351 28.9262 38.2677 30.1623 36.3749C32.5173 32.7705 35.9099 30.0518 39.3279 27.5184C39.493 27.3945 39.529 26.9989 39.2426 27.1481C35.6648 29.0009 31.0308 32.5986 27.9792 36.8451C23.9099 41.0675 21.0447 46.0532 19.9965 52.291C17.3764 32.2563 34.2516 20.1404 51.3945 14.5953C50.2783 14.7724 49.1634 14.9602 48.0631 15.2133C45.0941 15.8953 42.177 16.9422 39.3718 18.1264C38.5633 18.4661 37.7734 18.843 36.9795 19.2093C34.1317 20.7411 31.4211 22.5247 28.9022 24.5294C23.1173 29.1288 18.1956 34.9097 16.1017 42.1172C13.9718 49.4459 15.6381 57.0809 13.5376 64.3963C11.3384 72.066 9.54421 79.3787 10.4113 87.4426C11.2372 95.1297 13.7374 102.405 17.2512 109.266C17.5029 109.758 16.9089 110.173 16.5053 109.834C9.66808 104.102 6.65776 96.0381 6.3101 87.4187C5.04736 92.0314 5.03936 96.8453 4.54652 101.621C4.49058 102.156 3.79793 102.261 3.61544 101.74C2.12759 97.506 2.6564 92.9505 3.26913 88.5975C3.30243 88.3524 3.33306 88.11 3.36636 87.8662C2.90682 89.2648 2.50323 90.6848 2.23417 92.1606C2.11695 92.8 2.0237 93.4447 1.94245 94.0894C1.18853 97.9762 0.876851 101.898 1.55617 105.796C2.57782 111.672 5.10063 118.053 10.5286 120.483C9.74533 119.72 9.0527 118.885 8.49459 118.136C5.93581 114.706 5.68938 111.21 5.41632 107.258C8.48393 113.858 15.1027 118.373 22.4287 118.554C24.8823 118.877 27.441 118.806 29.9932 118.285C29.7121 118.113 29.443 117.934 29.1806 117.75C27.1813 116.753 25.3831 115.326 24.119 113.786C22.9682 112.386 21.9731 110.869 21.1646 109.269C21.6481 109.967 22.1916 110.633 22.7644 111.279C18.8536 105.495 17.4124 98.6954 16.9169 91.5332C16.8796 90.9845 17.7094 90.9059 17.8479 91.4134C19.2772 96.6428 20.9235 102.007 24.0817 106.488C25.7947 108.921 27.5649 111.583 30.0651 113.277C31.4157 114.192 32.9076 115.079 33.6402 116.594C33.788 116.899 33.6069 117.313 33.2286 117.3C32.1244 117.258 31.0335 117.064 29.9865 116.739C32.6652 118.131 35.6475 119.159 38.4501 119.346C41.2353 119.718 44.0938 119.544 46.9429 118.883C46.0931 118.715 45.2659 118.484 44.4494 118.225C44.4055 118.099 44.3109 117.99 44.1444 117.944C40.2403 116.865 36.9875 114.119 34.193 111.291C32.7477 109.83 31.3838 108.306 30.1144 106.71C28.4534 104.434 27.2159 101.778 26.0544 99.3042C23.9938 94.9165 22.2022 90.4596 21.3218 85.6857C17.6095 87.0044 15.2359 74.9111 15.0254 70.6101C14.057 73.2435 13.7387 75.1389 13.118 77.9121C12.6651 79.9381 12.3014 82.1186 12.0377 84.3804C11.6354 80.8932 12.7397 77.0011 13.5322 73.8202C14.077 71.6277 14.6431 69.4473 15.1533 67.2548C16.099 64.7919 17.106 62.3477 18.129 59.9048C17.0674 56.0273 16.3854 52.1618 16.7757 48.0139C16.8276 45.7708 17.086 43.3985 18.0411 41.563C17.7893 42.4408 17.4949 43.324 17.4017 44.1511C17.1207 46.6407 17.146 49.2247 17.2419 51.7236C17.4337 56.7106 19.7314 61.0197 20.7943 65.8042C20.8942 66.2504 21.6282 66.2757 21.7107 65.8042C22.2049 62.8951 22.763 60.0087 23.437 57.1528C23.81 56.331 24.2202 55.5238 24.6278 54.7193C25.5856 50.6407 27.9365 46.4835 29.8093 43.962C31.4211 41.7895 33.1807 39.8301 35.0428 38.0013C33.9159 39.4305 32.8769 40.9237 31.9246 42.4688C31.1413 43.6157 30.4341 44.8105 29.8213 46.0532C28.8596 47.5557 28.0125 49.1275 27.3624 50.7885C26.3181 53.4618 25.1766 57.627 25.76 60.7865C27.8246 52.5894 36.0271 47.5637 43.0255 43.8581C48.7864 40.8091 54.9416 38.2104 60.3056 34.4754C64.4575 31.585 69.298 27.6915 71.7116 22.903C72.1045 22.2969 72.4375 21.6615 72.7425 21.0142C72.4522 22.4341 72.1112 23.838 72.2764 25.3019C72.604 28.1857 73.6883 31.1627 74.594 33.908C76.0286 38.257 78.2318 42.3036 80.676 46.1758C83.5225 51.0989 86.975 55.6583 89.4446 60.7985C90.5581 63.1162 91.4812 65.5471 91.6197 68.1299C91.7276 67.3893 93.4313 57.2847 92.6241 52.9024C92.2125 50.6713 91.5398 48.4775 90.7886 46.3409C90.7033 46.1012 90.6101 45.8681 90.5128 45.635C93.1555 51.1308 93.7976 57.4845 93.1755 63.6397C93.2648 64.1006 93.3647 64.5561 93.4459 65.017C93.4992 65.3247 93.8522 65.4233 94.1053 65.3207C94.044 65.2954 94.0093 65.2368 94.0426 65.1129C95.7663 58.6314 98.2758 52.4602 97.6071 45.591C97.081 40.1791 94.9937 35.5251 93.3607 30.5007C93.6124 31.0588 93.8322 31.6023 94.0347 32.0672C95.0576 34.4182 96.1525 36.7185 96.9571 39.1588C98.3903 43.5131 98.5821 48.0153 98.4729 52.5321C98.2238 54.1358 97.8922 55.7249 97.4659 57.2927C97.4086 57.5165 97.362 57.7456 97.3007 57.9707C97.2874 57.9907 97.2768 58.0093 97.2648 58.0306C97.1369 58.4675 96.9877 58.9004 96.8479 59.336C96.8039 60.4376 97.0956 61.6723 97.4886 62.9231C98.0027 63.9341 98.353 64.8825 98.5249 65.9654C98.7366 66.5928 98.9258 67.2002 99.051 67.7596C99.7543 70.9151 100.402 74.1213 100.693 77.3514C100.78 80.776 100.769 84.1939 100.362 87.6305C99.8968 91.5679 99.7117 96.0274 97.9255 99.6811C99.673 92.1659 100.098 84.4816 99.1935 76.8039C99.0084 75.2295 98.7646 73.6684 98.4995 72.1113C98.2198 75.0736 97.6431 78.0693 96.9691 80.9558C96.0606 83.3614 94.6794 85.723 92.4562 86.1C92.4469 86.1826 92.4283 86.2625 92.4176 86.3451C91.6011 87.1057 91.4972 88.7347 91.3054 89.7244C90.7073 92.812 88.9424 95.773 87.1615 98.4837C89.4605 95.9222 91.4652 93.097 92.5788 89.8736C92.7759 89.3035 93.679 89.5286 93.4939 90.1146C92.7346 92.5176 92.379 95.0897 91.38 97.4127C90.4662 99.5373 89.1262 101.521 87.633 103.29C87.3453 103.786 87.063 104.286 86.8192 104.804C89.7523 103.236 91.6517 99.8836 93.7643 97.4607C94.0813 97.0984 94.6754 97.478 94.5568 97.9149C92.3923 105.891 87.6397 112.78 79.5624 115.509C79.1655 115.644 78.8365 115.155 79.0323 114.818C80.1125 112.941 81.4858 111.279 82.8205 109.586C81.2075 110.605 79.4132 111.338 77.5537 111.844C77.5125 111.854 77.4792 111.849 77.4405 111.85C76.8425 112.223 76.2377 112.59 75.6303 112.94C73.0769 114.414 69.9826 115.517 67.0935 116.058C66.9403 116.086 66.7805 116.115 66.6153 116.143C66.638 116.194 66.6539 116.246 66.6966 116.29C70.2437 119.925 77.6243 117.293 81.6896 116.066C85.9187 114.794 89.8881 112.867 93.3953 110.288C93.3673 110.344 93.3314 110.397 93.2794 110.446C93.2448 110.478 93.2075 110.508 93.1742 110.538C93.2621 110.474 93.35 110.406 93.4406 110.344C92.692 111.432 91.4572 112.543 90.9484 113.062C89.5232 114.524 87.8795 115.722 86.3983 117.118C86.0826 117.417 86.3383 117.906 86.7326 117.926C92.1898 118.207 97.4686 116.487 102.12 113.7C100.891 115.003 99.6104 116.241 98.004 117.118C97.6644 117.305 97.723 117.743 97.9947 117.923C97.9854 117.928 97.9774 117.936 97.9681 117.942C97.9774 117.936 97.9907 117.931 98 117.926C98.068 117.968 98.1452 118.002 98.2358 118.004C101.481 118.095 104.615 117.414 107.456 116.134C108.492 115.749 109.491 115.272 110.412 114.706C112.37 113.595 114.097 112.109 115.357 110.291C116.026 109.326 116.724 108.229 117.351 107.052C117.469 106.842 117.575 106.624 117.684 106.406C117.754 106.267 117.824 106.127 117.892 105.985C118.231 105.281 118.546 104.562 118.806 103.812C121.297 96.6841 119.372 89.1356 116.163 82.3531Z" fill="#424241"/>
<path opacity="0.5" d="M24.127 113.788C22.9761 112.388 21.9811 110.871 21.1726 109.271C21.6561 109.969 22.1996 110.635 22.7723 111.281C19.9645 107.128 18.4327 102.447 17.6068 97.4883C17.2805 96.4893 16.9834 95.477 16.7557 94.442C16.1629 91.742 15.6155 88.8782 15.5089 86.0757C13.9305 96.9768 16.8862 108.643 24.5865 116.615C24.9395 116.98 24.5772 117.468 24.1323 117.407C16.0897 116.286 6.58183 110.637 4.14026 102.756C3.5635 105.356 3.39165 108.006 3.96841 110.545C4.45326 112.683 5.32175 114.569 6.63777 116.31C7.45695 117.392 8.59581 118.966 9.93713 119.845C9.40566 119.269 8.90883 118.685 8.50257 118.14C5.94379 114.71 5.69736 111.213 5.4243 107.261C8.49191 113.861 15.1106 118.377 22.4367 118.558C24.8902 118.88 27.449 118.81 30.0011 118.289C29.7201 118.117 29.451 117.937 29.1886 117.753C27.1893 116.756 25.3924 115.327 24.127 113.788Z" fill="#424241"/>
<path opacity="0.5" d="M44.4572 118.23C44.4133 118.103 44.3187 117.994 44.1522 117.949C40.2481 116.87 36.9954 114.123 34.2008 111.296C32.7556 109.834 31.3916 108.311 30.1222 106.715C28.4612 104.438 27.2238 101.782 26.0623 99.3089C24.0016 94.9212 22.2101 90.4643 21.3296 85.6904C21.3043 85.6984 21.2804 85.7011 21.2551 85.7091C20.7835 91.4767 22.4658 97.3948 25.303 102.458C27.0559 105.584 29.1365 108.75 31.682 111.292C33.9637 113.567 36.5838 115.419 39.1439 117.366C39.4502 117.6 39.4756 118.123 39.0293 118.234C36.2068 118.928 33.5308 118.367 31.0946 117.027C30.7229 116.946 30.3553 116.855 29.993 116.743C32.6717 118.135 35.654 119.164 38.4566 119.35C41.2418 119.723 44.1003 119.549 46.9494 118.888C46.1009 118.72 45.2724 118.488 44.4572 118.23Z" fill="#424241"/>
<path opacity="0.5" d="M71.5264 23.2632C67.6329 28.807 61.5696 33.1866 55.7168 35.9079C46.795 40.0584 36.436 41.1827 29.9065 49.3172C29.6068 49.6902 28.9848 49.2919 29.1153 48.863C29.8786 46.3335 31.0294 44.0265 32.3614 41.818C32.2202 42.0378 32.067 42.2496 31.9312 42.4734C31.148 43.6202 30.4407 44.815 29.8279 46.0578C28.8662 47.5603 28.0191 49.1321 27.3691 50.7931C26.3248 53.4664 25.1832 57.6316 25.7667 60.7911C27.8313 52.594 36.0338 47.5683 43.0321 43.8626C48.793 40.8137 54.9482 38.2149 60.3122 34.48C64.3589 31.6628 69.0555 27.8906 71.5264 23.2632Z" fill="#424241"/>
<path opacity="0.5" d="M77.4499 111.855C76.8518 112.228 76.2471 112.594 75.6397 112.944C73.3353 114.275 70.5954 115.278 67.9607 115.863C70.2771 116.799 73.703 115.705 75.8821 115.364C76.9864 115.193 78.0666 114.96 79.1296 114.678C80.1965 112.862 81.5285 111.237 82.8299 109.589C81.2168 110.608 79.4226 111.34 77.5631 111.847C77.5205 111.859 77.4872 111.853 77.4499 111.855Z" fill="#424241"/>
<path opacity="0.5" d="M107.608 105.827C107.799 105.231 107.991 104.639 108.188 104.058C108.23 103.935 108.307 103.858 108.396 103.805C108.515 102.665 108.601 101.523 108.612 100.379C108.258 101.6 107.793 102.794 107.173 103.942C105.439 107.163 102.707 110.466 99.4998 112.788C102.738 111.074 105.462 108.791 107.608 105.827Z" fill="#424241"/>
<path opacity="0.5" d="M116.163 82.3519C114.995 78.7435 113.614 75.1683 112.363 71.6106C111.399 68.868 110.442 66.152 109.548 63.4214C109.875 66.3318 110.404 69.2156 111.181 72.0355C113.073 78.894 116.92 85.1184 118.42 92.0941C120.48 101.679 113.576 113.822 103.449 115.512C103.015 115.585 102.627 115.069 102.995 114.72C104.755 113.055 105.814 110.893 106.653 108.632C105.185 110.299 103.498 111.764 101.602 112.903C98.2371 114.921 93.3726 117.048 89.3792 116.458C89.1728 116.427 89.0262 116.195 89.0262 116C89.0262 115.375 89.6989 115.179 90.1158 114.793C91.0775 113.903 91.9686 112.94 92.7013 111.849C93.599 110.514 94.3743 109.115 94.943 107.633C92.3096 109.441 89.6136 111.166 86.8311 112.686C84.5494 113.932 82.1611 114.801 79.7049 115.462C79.6596 115.478 79.617 115.496 79.5703 115.512C79.5237 115.528 79.4798 115.533 79.4358 115.533C77.559 116.025 75.6476 116.401 73.7068 116.715C71.5357 117.067 68.6079 117.585 66.6765 116.243C66.6885 116.262 66.6912 116.281 66.7058 116.297C70.253 119.932 77.6336 117.3 81.6989 116.073C85.928 114.801 89.8974 112.873 93.4046 110.295C93.3766 110.351 93.3406 110.404 93.2887 110.453C93.254 110.485 93.2167 110.514 93.1834 110.545C93.2714 110.481 93.3593 110.413 93.4498 110.351C92.7012 111.439 91.4665 112.55 90.9576 113.069C89.5324 114.53 87.8887 115.729 86.4075 117.125C86.0918 117.424 86.3476 117.912 86.7419 117.932C92.1991 118.213 97.4778 116.494 102.129 113.707C100.9 115.01 99.6197 116.247 98.0133 117.125C97.6736 117.312 97.7322 117.75 98.004 117.93C97.9946 117.935 97.9866 117.943 97.9773 117.948C97.9866 117.943 98 117.938 98.0093 117.932C98.0772 117.975 98.1545 118.008 98.245 118.011C101.49 118.102 104.624 117.421 107.465 116.141C108.502 115.756 109.5 115.279 110.421 114.713C112.379 113.602 114.107 112.116 115.367 110.297C116.035 109.333 116.733 108.235 117.361 107.059C117.478 106.849 117.584 106.63 117.694 106.413C117.763 106.273 117.834 106.133 117.901 105.992C118.24 105.288 118.555 104.568 118.815 103.818C121.297 96.6829 119.372 89.1344 116.163 82.3519Z" fill="#424241"/>
<path opacity="0.5" d="M104.716 114.245C105.928 113.895 107.08 113.38 108.162 112.735C107.898 112.81 107.628 112.873 107.348 112.912C107.01 112.957 106.671 112.711 106.77 112.334C107.083 111.146 107.356 109.947 107.607 108.746C106.885 110.718 106.017 112.632 104.716 114.245Z" fill="#424241"/>
<path opacity="0.5" d="M95.1775 109.468C94.594 110.661 93.8934 111.804 93.1102 112.886C92.307 113.997 91.3573 114.978 90.3103 115.857C90.7645 115.477 92.7372 115.249 94.0825 114.958C94.0532 114.848 94.0572 114.728 94.1292 114.623C95.3293 112.86 96.9424 111.576 98.4635 110.109C100.113 108.517 101.295 106.619 102.052 104.45C102.192 104.049 102.32 103.646 102.442 103.241C100.689 106.195 98.3476 108.565 95.1775 109.468Z" fill="#424241"/>
<path opacity="0.5" d="M84.4416 51.3524C82.2291 48.081 80.1352 44.7163 78.3636 41.1812C75.3466 35.1619 73.1768 28.6936 72.5521 21.9937C72.3323 23.0846 72.1578 24.1768 72.2844 25.305C72.612 28.1888 73.6963 31.1658 74.602 33.9111C76.0366 38.2601 78.2398 42.3067 80.684 46.1789C83.5305 51.102 86.983 55.6614 89.4526 60.8016C90.5661 63.1193 91.4892 65.5502 91.6278 68.133C91.7356 67.3924 93.4393 57.2878 92.6321 52.9055C92.335 51.2964 91.9008 49.706 91.4 48.1436C91.043 47.5122 90.6687 46.8915 90.2864 46.2708C90.6181 47.3897 90.9484 48.5112 91.1842 49.6528C91.8462 52.8482 91.8262 56.3101 91.1362 59.5043C91.055 59.8799 90.6008 59.9385 90.3437 59.7187C89.1595 58.7051 88.4802 57.3517 87.6544 56.053C86.6394 54.4506 85.5032 52.9242 84.4416 51.3524Z" fill="#424241"/>
<path opacity="0.5" d="M94.1079 56.3124C93.9694 53.5751 93.025 51.1615 91.7942 48.8611C93.342 53.5471 93.6896 58.6567 93.1848 63.6437C93.274 64.1046 93.3739 64.5602 93.4552 65.021C93.5085 65.3287 93.8614 65.4273 94.1145 65.3247C94.0533 65.2994 94.0186 65.2408 94.0519 65.1169C95.7755 58.6354 98.285 52.4642 97.6164 45.5951C97.6017 45.4459 97.5738 45.3007 97.5578 45.1528C97.4579 49.1289 96.7199 53.0356 94.995 56.5468C94.7712 56.9957 94.1305 56.7546 94.1079 56.3124Z" fill="#424241"/>
<path opacity="0.5" d="M34.4008 38.664C35.1094 37.629 35.838 36.602 36.5653 35.5737C28.5626 41.0616 21.7494 48.1452 21.0607 58.2058C21.0354 58.5748 20.5386 58.8852 20.2536 58.5388C18.1317 55.9641 17.5616 52.0307 17.1899 48.718C17.1913 49.729 17.2099 50.736 17.2485 51.731C17.4403 56.718 19.7381 61.027 20.801 65.8116C20.9009 66.2578 21.6348 66.2831 21.7174 65.8116C22.2116 62.9025 22.7697 60.016 23.4437 57.1602C23.8167 56.3384 24.2269 55.5312 24.6345 54.7266C25.5922 50.648 27.9432 46.4909 29.816 43.9694C31.2373 42.0513 32.7784 40.3063 34.4008 38.664Z" fill="#424241"/>
<path opacity="0.5" d="M54.1904 10.0371C44.9223 10.5832 35.9286 13.6895 28.5866 18.9616C23.6834 21.9026 18.3727 28.564 18.5619 28.1031C21.9425 19.902 29.2312 13.8879 36.8436 9.71211C40.9103 7.48233 45.162 5.56025 49.6722 4.42405C53.1075 3.55824 56.592 2.98948 60.0965 2.52327C57.3912 2.39407 54.5633 2.41671 51.858 2.90156C37.5829 4.20826 24.8396 11.5543 16.1656 23.3692C13.9398 26.4008 12.2775 29.7814 11.064 33.3339C9.4816 40.0699 9.3737 47.1415 9.49491 54.1065C9.59747 59.9927 10.5965 66.1505 9.63479 71.9594C9.8559 71.3693 10.073 70.7766 10.2808 70.1838C11.1359 65.8242 10.9215 61.4978 10.9401 56.624C10.9575 52.6 11.3251 48.6187 11.8339 44.6413C11.6101 48.3722 11.758 52.0712 12.4173 55.2867C12.5212 55.7875 13.1446 55.2973 13.1566 54.9657C13.5455 44.3776 16.7677 32.7398 24.4507 25.0648C33.1953 16.3295 45.8187 12.9409 57.5124 10.6991C57.5883 10.6831 57.6776 10.6192 57.7548 10.5366C56.5786 10.3155 55.3892 10.149 54.1904 10.0371Z" fill="#424241"/>
<path opacity="0.5" d="M83.9154 40.4742C83.9087 40.4396 83.9007 40.4023 83.8928 40.365C82.4675 35.4566 81.932 30.5987 81.2287 25.5611C82.4888 28.4649 83.6517 31.7909 86.1665 33.2841C86.4369 33.4439 86.7552 33.047 86.8125 32.8325C87.0429 31.984 87.1109 30.997 87.0589 29.9381C88.8358 33.9088 90.2211 38.0007 91.9341 42.0047C90.9018 36.4636 90.0293 30.8305 88.2737 25.4998C87.1655 22.1325 85.3446 18.8678 83.2188 16.0226C82.0519 14.4602 80.7146 11.9134 78.7912 11.0596C81.4059 15.1248 83.9247 19.7895 83.9833 24.5581C83.9873 24.9803 83.4678 25.1708 83.1761 24.8924C81.6457 23.4366 80.7958 21.5518 79.9114 19.679C79.9087 21.8834 79.9487 24.0866 80.0419 26.291C80.0659 26.8585 79.2813 26.8944 79.1122 26.4109C78.273 24.0027 77.7788 21.5278 77.4498 19.001C77.3073 17.9114 77.2514 16.7459 77.1355 15.5964C77.0329 14.9757 76.949 14.3736 76.8784 13.8088C76.7905 13.3573 76.6826 12.9164 76.5388 12.4941C76.2377 11.615 75.6343 11.4312 74.9004 11.6097C74.5327 11.8747 74.2251 12.1425 74.1531 12.2064C73.2314 12.9896 72.303 13.7649 71.3639 14.5268C70.1571 15.5058 69.0062 16.5354 67.8154 17.5278C67.2134 18.0273 64.9103 20.341 64.1191 18.9877C63.3599 17.6863 64.889 15.92 65.623 14.977C66.7072 13.5877 68.1005 12.329 69.2287 10.937C66.8324 11.8961 64.5161 13.3533 62.3342 14.64C60.5693 15.679 58.7312 16.8991 56.6399 17.0709C56.251 17.1029 55.9846 16.5155 56.3056 16.265C56.7398 15.9254 59.6822 13.9687 61.92 12.4035C61.2087 12.6127 60.4921 12.8071 59.7688 12.9856C57.3059 14.1511 54.7152 14.8891 52.1404 15.7642C50.1038 16.4555 48.0418 17.296 46.0158 18.2511C42.871 19.5617 39.8353 21.3506 37.2672 23.033C34.7884 24.6593 31.6555 26.7879 29.1074 29.2614C27.8366 30.8119 26.7084 32.4702 25.7334 34.2338C27.0468 32.8032 28.6838 31.6457 30.2902 30.5761C32.3788 29.1828 34.4887 27.8628 36.6931 26.7026C40.7891 24.1319 45.2446 22.1525 49.6842 20.2744C50.4181 19.964 51.1494 19.6483 51.8807 19.3313C48.0032 21.9953 44.4148 25.1402 40.6052 27.8282C40.3681 27.996 40.1497 28.4449 40.2243 28.7153C41.9253 28.5261 43.7061 27.7629 45.19 27.2661C45.8107 27.0596 46.4234 26.8372 47.0401 26.6214C48.6052 25.8275 50.1317 24.9404 51.6196 24.0666C54.9389 22.5761 57.8787 20.2531 61.1088 18.5667C63.1747 17.4891 60.4641 21.8994 60.5853 21.7396C59.7741 22.8212 59.0402 23.9574 58.2956 25.0829C56.4108 27.9227 54.1371 30.4509 51.886 33.003C51.8234 33.0736 51.7674 33.1908 51.7341 33.3067C52.251 33.2041 52.7664 33.0896 53.2726 32.9271C54.6419 32.4835 55.9606 31.8748 57.2193 31.1715C59.4624 29.5691 61.5004 27.5471 63.3972 25.7809C64.1551 25.0749 64.8504 24.325 65.5217 23.5564C67.2187 22.1232 68.8065 20.5354 70.297 18.9464C71.6783 17.4758 73.2793 15.9267 74.5514 14.2257C74.1305 17.6783 75.0349 21.9234 75.6956 24.67C77.2873 31.298 80.0739 38.5095 84.2217 43.9787C84.3696 44.1732 84.6387 44.0174 84.7905 43.8029C84.4309 42.7133 84.1245 41.6051 83.9154 40.4742Z" fill="#424241"/>
<path opacity="0.5" d="M9.9159 94.6644C9.36711 92.071 9.04343 89.4429 9.13134 86.7869C9.22591 83.9324 9.48699 81.0846 9.14333 78.2607C7.5689 87.658 6.96549 97.7973 13.6801 105.534C13.8227 105.7 14.1064 105.546 14.2476 105.344C12.1537 102.102 10.7084 98.41 9.9159 94.6644Z" fill="#424241"/>
<path opacity="0.5" d="M110.281 77.8035C108.638 73.1641 107.019 68.3462 105.577 63.4418C105.425 62.6332 105.294 61.8247 105.162 61.0162C104.253 56.8657 103.677 52.6738 103.32 48.3608C103.206 46.9902 103.103 45.6115 102.983 44.2369C102.612 41.4703 102.183 38.7078 101.603 35.9598C100.635 31.3711 98.8886 27.4949 96.5336 24.0131C95.2602 22.2442 93.8256 20.6098 92.2458 19.106C95.9209 24.3927 98.7753 30.3028 100.051 36.5392C101.004 41.1946 101.302 45.9419 101.296 50.6865C101.294 51.7801 101.292 52.8776 101.302 53.9725C102.63 61.1627 104.715 68.2916 107.003 75.1195C107.569 77.6276 108.187 80.0652 108.598 82.5401C107.773 78.4109 105.835 74.5214 104.001 70.6892C103.733 70.3256 102.183 68.0159 101.91 67.6562C103.934 72.6739 105.394 80.2211 105.337 85.5038C105.269 91.924 104.131 97.9754 101.603 103.776C103.896 101.136 105.684 98.7266 106.931 96.028C106.679 98.018 106.326 100.048 105.967 102.218C106.919 101.468 107.753 100.485 108.354 99.5724C108.491 99.3633 108.712 99.3247 108.901 99.382C109.756 97.7449 110.244 95.9827 110.609 94.1032C111.389 98.4029 110.845 102.832 110.829 107.181C112.354 105.937 113.401 103.88 114.072 101.717C115.603 93.8155 112.873 85.1215 110.281 77.8035Z" fill="#424241"/>
<path opacity="0.5" d="M30.3686 115.227C22.7296 110.534 20.1362 102.626 17.9077 94.3703C17.8731 94.2424 17.656 94.4022 17.6693 94.5021C18.9001 103.01 21.4735 112.078 30.1155 115.593C30.294 115.665 30.5631 115.347 30.3686 115.227Z" fill="#424241"/>
<path d="M83.4877 68.8749C83.2173 69.0028 82.7245 69.4091 82.4594 69.537C82.7098 67.3058 80.7531 65.2213 79.0735 63.9692C77.5603 62.8396 75.7847 61.9698 73.8706 62.103C74.5952 61.9325 75.3372 61.7927 76.0871 61.6595C72.0005 61.3158 68.4294 62.9089 66.0611 65.7967C64.8117 67.776 64.1297 70.4281 64.7104 72.6885C65.3764 75.2926 70.5553 74.2483 72.3069 73.9605C75.4491 73.4424 79.838 72.4168 82.6219 70.2882C82.9816 69.866 83.2746 69.3971 83.4877 68.8749Z" fill="#FAD6BE"/>
<path d="M82.1689 69.5853C82.0224 69.0871 81.4936 68.224 81.2951 67.7418C80.5239 66.1075 79.6661 64.8274 77.6547 63.8257C75.6874 62.8454 73.8039 62.8121 71.6194 63.3435C67.1426 64.4265 65.359 68.3013 65.6773 71.7885C65.5748 72.3652 65.6081 72.9646 66.3447 73.1484C68.38 73.6679 70.6151 73.4561 72.7223 73.2337C75.052 72.9859 78.109 72.3173 80.2282 70.9759C80.2415 70.9613 81.7493 70.214 82.1689 69.5853Z" fill="#81400F"/>
<path d="M68.6718 73.1297C66.2769 73.0311 65.848 71.5153 66.0092 70.6628C66.3155 67.2968 68.4174 64.3664 72.8903 63.5419C77.3965 62.7121 79.8234 66.0234 81.4031 68.85C80.9902 71.0025 75.4544 72.6422 72.2842 72.9312C71.3851 73.0165 69.7867 73.1523 68.6718 73.1297Z" fill="white"/>
<path d="M73.0155 62.0264C72.3468 62.125 71.6968 62.2555 71.0628 62.4153C67.0987 63.9218 64.5466 67.4743 64.9622 71.3091C64.9688 71.3624 65.0181 71.3664 65.0714 71.3478C65.1193 71.1586 65.1633 70.9695 65.2272 70.7843C65.3511 68.6278 65.9878 66.5885 67.6595 64.8183C69.3058 63.0707 71.9405 62.2662 74.4847 61.9238C73.9066 61.9505 73.2739 61.9878 73.0155 62.0264Z" fill="#81400F"/>
<mask id="mask0_7_6454" style="mask-type:luminance" maskUnits="userSpaceOnUse" x="65" y="63" width="17" height="11">
<path d="M68.6718 73.1385C66.2769 73.0399 65.848 71.5241 66.0092 70.6716C66.3155 67.3056 68.4174 64.3752 72.8903 63.5507C77.3965 62.7209 79.8234 66.0322 81.4031 68.8587C80.9902 71.0113 75.4544 72.651 72.2842 72.94C71.3851 73.0253 69.7867 73.1611 68.6718 73.1385Z" fill="white"/>
</mask>
<g mask="url(#mask0_7_6454)">
<path d="M78.1595 68.372C78.3886 71.7713 76.4932 74.6697 73.9224 74.8429C71.3517 75.0174 69.0819 72.4 68.8515 69.0007C68.621 65.5974 70.5178 62.7003 73.0886 62.5272C75.6607 62.354 77.9278 64.9701 78.1595 68.372Z" fill="#220300"/>
<path d="M73.1179 62.9532C70.7656 63.1118 69.0314 65.7624 69.2405 68.8753C69.4509 71.9882 71.5262 74.3819 73.8799 74.222C76.2308 74.0635 77.9665 71.4128 77.756 68.3012C77.5455 65.187 75.4689 62.7947 73.1179 62.9532Z" fill="#7F4A23"/>
<path d="M76.3653 68.1517C76.5105 70.2976 75.3131 72.1238 73.692 72.2343C72.071 72.3449 70.6377 70.6945 70.4939 68.5487C70.3487 66.4041 71.5461 64.5753 73.1672 64.4647C74.7882 64.3595 76.2202 66.0085 76.3653 68.1517Z" fill="#0A000B"/>
<path d="M72.6543 67.1328C72.5091 68.1038 71.9043 68.8178 71.3036 68.7259C70.7055 68.6366 70.3379 67.7762 70.4831 66.8038C70.6283 65.8354 71.233 65.1201 71.8338 65.2121C72.4332 65.304 72.8008 66.1631 72.6543 67.1328Z" fill="#FFFAE2"/>
<path d="M76.0138 71.2924C73.4324 74.4679 70.5432 72.334 70.1756 68.8722C70.1663 68.7763 69.5842 69.377 69.5949 69.4436C69.8519 71.3537 70.7497 73.0333 72.6452 73.706C74.2822 74.2868 75.6568 73.1799 76.4467 71.8918C76.5106 71.7866 76.0817 71.2085 76.0138 71.2924Z" fill="#7F4A23"/>
<path d="M76.6662 66.5259C76.6662 66.5259 77.3189 68.717 76.3479 70.719L76.7781 70.9362C76.7781 70.9362 78.0502 69.0727 76.6662 66.5259Z" fill="#7F4A23"/>
</g>
<path d="M29.6506 69.0943C29.9197 69.2249 30.4099 69.6378 30.6736 69.7683C30.4445 67.5346 32.4225 65.4673 34.1129 64.2338C35.638 63.1203 37.4216 62.2665 39.333 62.4183C38.6097 62.2398 37.8691 62.0933 37.1205 61.9534C41.2124 61.6484 44.7662 63.2748 47.1066 66.1879C48.3373 68.1806 48.9927 70.8379 48.3906 73.0943C47.698 75.6904 42.5311 74.5955 40.7822 74.2905C37.644 73.7417 33.2657 72.6748 30.5031 70.5182C30.1488 70.0907 29.8584 69.6205 29.6506 69.0943Z" fill="#FAD6BE"/>
<path d="M32.8927 71.2345C34.9973 72.5971 38.0489 73.2964 40.3746 73.5641C42.4805 73.8106 44.7129 74.041 46.7536 73.5415C47.4902 73.363 47.5315 72.7649 47.4329 72.1869C47.7859 68.7037 46.0409 64.8102 41.5747 63.6847C39.3942 63.1319 37.5095 63.1479 35.5341 64.1082C33.5108 65.0913 32.6423 66.362 31.8551 67.9884C31.6513 68.4692 31.1145 69.3257 30.9626 69.8225C31.3742 70.4579 32.8767 71.2198 32.8927 71.2345Z" fill="#81400F"/>
<path d="M40.1894 62.3521C40.8568 62.4586 41.5055 62.5945 42.1382 62.7623C46.0889 64.3075 48.605 67.8839 48.1522 71.7134C48.1455 71.768 48.0962 71.7707 48.0443 71.7507C47.9977 71.5629 47.955 71.3738 47.8938 71.1859C47.7925 69.0281 47.1731 66.9835 45.5214 65.1959C43.8897 63.4337 41.2644 62.6038 38.7229 62.2349C39.2997 62.2682 39.931 62.3121 40.1894 62.3521Z" fill="#81400F"/>
<path d="M40.8143 73.263C37.6495 72.942 32.127 71.2477 31.738 69.0925C33.3444 66.2806 35.8033 62.9919 40.3015 63.867C44.7664 64.7355 46.839 67.6832 47.1134 71.0532C47.2652 71.907 46.823 73.4162 44.4267 73.4921C43.3092 73.5054 41.7121 73.3522 40.8143 73.263Z" fill="white"/>
<mask id="mask1_7_6454" style="mask-type:luminance" maskUnits="userSpaceOnUse" x="31" y="63" width="17" height="11">
<path d="M40.8143 73.2635C37.6495 72.9425 32.127 71.2481 31.738 69.093C33.3444 66.2811 35.8033 62.9924 40.3015 63.8675C44.7664 64.736 46.839 67.6837 47.1134 71.0537C47.2652 71.9075 46.823 73.4166 44.4267 73.4926C43.3092 73.5059 41.7121 73.3527 40.8143 73.2635Z" fill="white"/>
</mask>
<g mask="url(#mask1_7_6454)">
<path d="M44.6932 69.5003C44.4281 72.8995 42.1344 75.4929 39.5649 75.2945C36.9968 75.096 35.128 72.1789 35.3918 68.781C35.6542 65.3817 37.9492 62.7883 40.5186 62.9867C43.0868 63.1852 44.9542 66.1023 44.6932 69.5003Z" fill="#220300"/>
<path d="M40.4855 63.4127C38.1345 63.2302 36.0353 65.6025 35.7942 68.7141C35.5544 71.823 37.2634 74.491 39.613 74.6735C41.964 74.8546 44.0633 72.481 44.3044 69.3734C44.5455 66.2605 42.8352 63.5938 40.4855 63.4127Z" fill="#7F4A23"/>
<path d="M42.9496 69.0222C42.7831 71.1654 41.3352 72.8011 39.7154 72.6759C38.0957 72.5494 36.9156 70.7112 37.0821 68.5667C37.2486 66.4248 38.6951 64.7878 40.3162 64.913C41.9359 65.0395 43.1147 66.879 42.9496 69.0222Z" fill="#0A000B"/>
<path d="M39.4237 67.4826C39.14 68.4217 38.438 69.0411 37.8572 68.8639C37.2765 68.6881 37.0367 67.785 37.3231 66.8433C37.6081 65.9055 38.3088 65.2861 38.8882 65.462C39.4703 65.6391 39.7074 66.5436 39.4237 67.4826Z" fill="#FFFAE2"/>
<path d="M42.1491 72.081C39.1361 74.8502 36.584 72.3234 36.7225 68.8415C36.7265 68.7456 36.0645 69.2571 36.0632 69.3224C36.0432 71.2498 36.6879 73.0427 38.4675 73.9817C40.0019 74.7903 41.5231 73.8965 42.4901 72.7336C42.5687 72.6417 42.2264 72.009 42.1491 72.081Z" fill="#7F4A23"/>
<path d="M43.4823 67.4551C43.4823 67.4551 43.8113 69.7168 42.5632 71.559L42.9562 71.836C42.9562 71.836 44.484 70.175 43.4823 67.4551Z" fill="#7F4A23"/>
</g>
<path d="M52.9076 70.9946C52.9076 70.9946 54.574 73.2257 54.7858 74.8055C54.7858 74.8055 54.2556 79.6234 51.9006 82.4486C51.9006 82.4486 54.0305 78.1648 53.6069 74.7655L52.9076 70.9946Z" fill="#AC641B"/>
<path d="M57.8653 87.3962C56.7851 87.7198 55.1427 86.9859 53.4524 86.2027C51.7701 85.4221 50.2742 84.178 51.4744 82.7954C51.4744 82.7954 51.4078 84.1261 55.9819 84.7614C55.9819 84.7614 57.0435 85.1597 59.9339 84.1674C59.9339 84.1674 58.3515 85.7778 56.1764 85.6179C54.0012 85.4528 52.5759 84.5004 52.5759 84.5004C52.5759 84.5004 53.7281 85.8524 56.7251 86.8127C56.7251 86.8127 57.6549 87.4787 59.9219 85.7405C59.9246 85.7391 58.9469 87.0645 57.8653 87.3962Z" fill="#AC641B"/>
<path d="M57.8653 87.3962C56.7851 87.7198 55.1427 86.9859 53.4524 86.2027C51.7701 85.4221 50.2742 84.178 51.4744 82.7954C51.4744 82.7954 51.4078 84.1261 55.9819 84.7614C55.9819 84.7614 57.0435 85.1597 59.9339 84.1674C59.9339 84.1674 62.887 82.5756 59.9233 85.7418C59.9246 85.7391 58.9469 87.0645 57.8653 87.3962Z" fill="#FAD6BE"/>
<path d="M54.6847 80.2114C55.1935 78.6769 55.9367 77.1664 55.9447 75.5387C55.9541 73.4914 55.0962 72.25 53.8881 70.8594C53.8668 70.914 53.8601 70.9699 53.8801 71.0152C54.1479 71.5973 54.4036 72.1501 54.6314 72.6856C55.0776 74.236 55.1855 75.7612 54.7539 77.4635C54.353 79.0392 53.3979 80.3552 52.8984 81.8524C53.5311 81.3289 54.1319 80.7908 54.6847 80.2114Z" fill="#FAEDE6"/>
<path d="M57.4777 83.6341C58.0278 82.9161 56.4667 82.6057 56.115 82.6191C55.6329 82.639 55.1693 82.7589 54.6991 82.8482C54.5553 83.1146 54.5713 83.4862 54.8044 83.7193C55.0881 84.0044 55.461 84.2308 55.8566 84.34C56.476 84.3533 57.0914 84.1362 57.4777 83.6341Z" fill="#FAEDE6"/>
<path d="M72.1419 56.2244C70.3383 56.8318 68.696 57.7295 67.023 58.622C66.3303 58.9923 65.6297 59.3559 64.9437 59.7395C65.6364 59.3519 61.0516 61.0769 61.4832 59.5078C61.5058 59.4252 61.4073 59.4199 61.362 59.4532C61.3167 59.4838 61.2754 59.5144 61.2301 59.5464C61.1728 59.585 61.1049 59.6663 61.1169 59.7435C61.5711 62.5794 64.2457 61.3273 65.8348 60.5094C70.1492 58.289 75.1282 55.2547 79.5478 59.2147C79.709 59.3599 79.9394 59.0815 79.8995 58.9217C79.1322 55.8035 74.6527 55.3785 72.1419 56.2244Z" fill="#FAD6BE"/>
<path d="M39.3345 57.4254C41.4617 57.6332 43.4157 57.0684 45.4231 57.7557C47.4104 58.4377 51.0055 62.3791 52.5293 60.136C52.6439 59.9709 53.0235 60.3252 52.8543 60.4597C52.7957 60.5063 52.7384 60.5516 52.6785 60.5996C52.6252 60.6409 52.544 60.5743 52.5346 60.5183C53.0888 64.6089 47.8686 60.6102 46.0251 59.9975C40.5732 58.182 35.8326 57.6825 30.9562 61.5679C30.7963 61.6945 30.5179 61.4427 30.5925 61.2656C32.0338 57.821 36.0031 57.1004 39.3345 57.4254Z" fill="#FAD6BE"/>
<path d="M33.154 56.9766C33.828 56.3346 34.5966 55.8271 35.4584 55.5607C37.4697 54.7216 39.842 54.5644 42.2955 55.0399C44.0951 55.3902 51.4091 58.5218 52.5946 59.7379C52.6692 59.8125 52.857 59.7965 52.845 59.9044C52.8144 60.276 52.6279 60.5331 52.4721 60.8568C52.2563 61.3136 51.8873 61.7945 51.3972 61.9557C51.3452 61.973 51.2826 61.961 51.2173 61.933C51.172 61.993 51.1361 62.0622 51.0841 62.1155C47.2293 59.8857 44.0099 57.572 39.3292 57.8677C36.0698 58.0742 32.6971 58.9653 30.4287 61.2217C31.0068 59.4115 31.9552 58.0089 33.154 56.9766Z" fill="#424241"/>
<path d="M35.601 57.1694C38.9696 55.6856 42.3289 56.3289 45.579 57.7768C46.8205 58.3296 48.1445 58.8824 49.1888 59.7748C49.667 60.1851 50.2198 60.7725 50.8205 61.0109C51.4798 61.2733 52.0579 61.0882 52.5494 60.7112C52.5228 60.7605 52.4975 60.8071 52.4735 60.8577C52.2577 61.3146 51.8888 61.7955 51.3986 61.9567C51.3466 61.974 51.284 61.962 51.2188 61.934C51.1735 61.994 51.1375 62.0632 51.0856 62.1165C47.2307 59.8867 44.0113 57.573 39.3306 57.8687C36.8464 58.0259 34.2996 58.5867 32.2244 59.8414C33.1648 58.7612 34.201 57.7861 35.601 57.1694Z" fill="#424241"/>
<path d="M80.1736 58.3957C80.1177 58.2958 80.0604 58.2039 80.0031 58.108C80.0018 58.104 80.0058 58.0986 80.0031 58.0933C79.9685 58.032 79.9285 57.9787 79.8926 57.9188C79.8406 57.8362 79.7887 57.7576 79.7367 57.6764C79.7168 57.6484 79.6981 57.6191 79.6781 57.5925C75.9592 52.086 69.4963 54.7486 64.1296 56.7919C63.6541 56.9571 63.1599 57.1409 62.6351 57.338C62.6338 57.3087 62.6365 57.2741 62.6365 57.2435C62.6178 57.2568 62.5992 57.2688 62.5805 57.2794C62.0983 57.6431 61.1646 58.2731 61.1086 58.9551C61.4243 60.3777 62.3727 61.3767 64.2082 60.3431C66.5059 59.047 68.8955 58.0067 71.4224 57.2302C73.6681 56.5375 75.4983 56.6734 77.3431 57.4313C78.0984 57.7989 78.8523 58.2651 79.6502 58.8299C79.8726 58.9871 80.3148 58.6501 80.1736 58.3957Z" fill="#424241"/>
<path d="M73.8082 55.5109C71.3453 55.6774 68.8917 56.7776 66.7166 57.8685C64.7332 58.8609 62.8991 60.3447 61.2234 59.339C61.6203 60.5405 62.5474 61.2758 64.2098 60.3407C66.5075 59.0447 68.8971 58.0044 71.4239 57.2278C73.6697 56.5352 75.4998 56.671 77.3447 57.4289C78.0999 57.7966 78.8538 58.2628 79.6517 58.8276C79.705 58.8649 79.7716 58.8728 79.8408 58.8609C78.2437 57.1892 76.1991 55.3497 73.8082 55.5109Z" fill="#424241"/>
<path d="M61.567 62.0585C59.4811 61.7308 58.7671 58.9975 58.9043 57.2646C58.9177 57.0994 58.7192 57.21 58.6899 57.3045C58.2343 58.8323 58.1571 60.1231 58.9789 61.5217C59.5104 62.4274 60.4495 63.0894 61.4724 62.5353C61.615 62.4581 61.872 62.1064 61.567 62.0585Z" fill="#FAD6BE"/>
<path d="M55.1508 59.6056C54.7592 60.2063 54.1052 61.2599 54.4208 61.9978C54.5167 62.2216 54.8351 61.9898 54.8871 61.85C55.0123 61.5063 55.0216 61.1467 55.1015 60.791C55.1907 60.4008 55.3066 60.0171 55.3812 59.6229C55.4119 59.459 55.2041 59.523 55.1508 59.6056Z" fill="#FAD6BE"/>
<path d="M63.0293 101.448C63.0079 101.425 62.9866 101.408 62.9666 101.385C62.9626 101.373 62.9653 101.361 62.96 101.352C62.3286 99.9441 60.1108 99.049 58.7575 99.1862C56.4798 99.4153 54.7162 100.907 53.4988 102.984C53.3882 103.172 53.3562 103.469 53.6146 103.509C56.4438 103.953 60.0469 103.117 62.7389 102.165C62.956 102.089 63.2237 101.678 63.0293 101.448Z" fill="#FAD6BE"/>
<path d="M69.7095 95.5989C69.5404 94.8996 69.6016 95.0874 69.2926 94.476C69.1821 94.2575 68.905 94.5999 68.8957 94.817C67.5983 93.4423 65.9106 93.2852 64.3002 93.2119C61.7335 93.0934 59.1574 93.3291 56.6559 94.1376C53.9053 95.0274 51.3505 96.7684 48.7224 98.1457C48.444 98.2922 48.1257 98.456 47.8034 98.6492C47.7607 98.6531 47.7168 98.6518 47.6728 98.6545C47.0255 99.2259 46.4647 99.8919 46.0691 100.703C47.8926 99.1313 50.3422 98.1137 52.3442 97.1839C55.0295 95.9372 57.8001 94.829 60.6173 94.3201C63.5916 93.7847 67.0722 93.6328 69.4791 96.1903C69.6323 96.0731 69.7668 95.828 69.7095 95.5989Z" fill="#9E4C0B"/>
<path d="M58.5675 99.8135C59.5572 99.6097 60.6014 99.8282 61.6071 100.095C60.8505 99.5645 60.078 99.1555 59.2867 99.021C58.1799 99.1116 56.9851 99.5977 56.0074 100.272C55.5558 100.703 54.9844 101.251 54.5168 101.863C55.7609 100.942 57.017 100.132 58.5675 99.8135Z" fill="#9E4C0B"/>
<path d="M68.3934 92.6644C68.3268 92.7603 68.2815 92.8642 68.2775 92.9335C68.2709 93.0973 68.2642 93.2625 68.2562 93.425C67.2093 92.8229 65.8733 92.6644 64.7451 92.4673C64.3575 92.4007 63.9712 92.3687 63.5849 92.3301C60.087 92.3834 56.7464 93.0733 53.4696 94.6784C51.7673 95.5109 50.0464 96.406 48.4866 97.5222C46.7084 98.7943 45.9438 100.101 45.5322 101.946C48.745 98.6718 53.2725 96.9268 57.5363 95.8293C61.5656 94.6824 66.185 94.0217 69.6095 96.8709C69.9599 97.0414 70.3129 97.2092 70.6658 97.3704C70.7644 97.2532 70.827 97.0947 70.7924 96.9721C70.4074 95.6068 70.0411 94.5159 69.3951 93.3997C69.0501 93.1679 68.6998 92.9495 68.3934 92.6644Z" fill="#FAD6BE"/>
<path d="M71.9021 93.393C71.5398 92.98 71.0922 92.6537 70.6633 92.3274C70.6593 92.3234 70.5275 92.2421 70.3636 92.1356C70.1692 91.9318 69.9574 91.7679 69.7176 91.6973C69.683 91.6693 69.659 91.648 69.6603 91.64C69.675 91.5375 69.5684 91.5561 69.5231 91.6041C69.5005 91.6267 69.4952 91.6494 69.4805 91.6733C69.3646 91.704 69.2341 91.8465 69.2887 91.9717C69.5245 92.5125 70.1172 92.9614 70.4915 93.4076C71.0123 94.0337 71.6157 94.7556 71.6384 95.6427C71.6477 96.0863 72.1725 95.6867 72.2564 95.5122C72.6467 94.7236 72.4522 94.0203 71.9021 93.393Z" fill="#FAD6BE"/>
<path d="M57.5349 92.9961C54.7044 93.8379 51.1879 94.9914 48.7583 97.0294C51.4556 95.2738 54.9068 94.9395 57.5349 92.9961Z" fill="#FAEDE6"/>
<path d="M61.4031 95.3223C59.2133 95.4128 56.8743 96.0389 54.9548 97.1365C55.6555 97.2843 57.0168 96.7768 57.5669 96.6609C58.9096 96.3719 60.1763 95.9483 61.4031 95.3223Z" fill="#FAEDE6"/>
</svg>
