<svg width="121" height="122" viewBox="0 0 121 122" fill="none" xmlns="http://www.w3.org/2000/svg">
<path d="M30.5221 70.0293C27.5064 71.1335 24.6413 72.5188 22.1691 74.3357C20.1431 75.8262 18.5513 77.6897 17.3579 79.7729C17.0595 80.2911 16.853 80.8106 16.6865 81.3314C16.6799 81.1089 16.6839 80.8851 16.6812 80.6627C16.4628 81.2714 16.2922 81.8948 16.1577 82.5262C16.1857 82.9911 16.223 83.4546 16.2683 83.9195C16.2536 85.3274 16.5174 86.7553 16.8251 88.2325C16.8477 88.3417 16.925 88.375 17.0155 88.3657C17.2074 89.1715 17.4205 89.9761 17.6709 90.7726C18.9403 94.7953 21.1794 98.4996 23.5197 102.088C25.2247 104.704 26.9256 107.468 29.8507 109.133C30.0332 109.238 30.2397 108.968 30.2464 108.836C30.2797 108.215 30.0386 107.585 29.7269 106.956C29.9613 107.323 30.2144 107.688 30.4914 108.053C31.6676 109.598 33.1315 110.869 34.7872 111.92C38.8071 113.531 43.0562 114.522 47.3972 114.501C32.5853 105.578 28.1684 86.714 30.5221 70.0293Z" fill="#1F1F1D"/>
<path d="M46.3128 117.83C44.1523 117.921 42.0157 117.721 39.9165 117.284C42.3181 118.069 44.8556 118.598 47.429 118.928C47.0334 118.591 46.6658 118.218 46.3128 117.83Z" fill="#1F1F1D"/>
<path d="M70.8245 113.78C75.8475 112.34 80.6574 110.167 84.9291 107.339C84.7546 107.54 84.5774 107.742 84.391 107.935C83.9887 108.352 83.404 108.897 83.2641 109.458C82.8032 111.304 88.0607 108.31 88.6681 107.973C97.1809 103.248 103.785 94.2384 103.708 84.8357C103.666 79.894 101.136 75.3052 96.8985 72.3655C94.124 70.4421 90.75 69.2872 87.3041 68.4268C87.1962 69.3006 87.0497 70.173 86.9231 71.0242C86.4156 74.4981 85.7456 77.9932 84.8731 81.4058C83.3254 87.4571 81.2408 93.4565 77.9694 98.911C76.291 101.708 74.3783 104.358 72.2204 106.855C70.4036 108.96 68.2284 111.589 65.647 112.922C65.5924 112.95 65.5378 112.976 65.4832 113.005C66.9457 113.61 68.8518 113.81 70.8245 113.78Z" fill="#1F1F1D"/>
<path d="M25.9784 83.6598C27.5635 77.3208 26.2848 71.3801 22.7843 66.3051C21.9797 63.5665 20.5385 60.9691 17.9238 61.9734C15.7886 62.794 14.667 64.3924 14.3074 66.3758C14.4899 68.6641 15.1412 70.9219 15.698 73.1916C15.7459 73.3382 15.7979 73.4873 15.8379 73.6312C16.4119 75.6438 16.6024 77.7018 17.0753 79.7331C17.6467 82.1866 18.3713 84.3485 20.7676 85.4527C22.6843 86.3358 25.407 85.9496 25.9784 83.6598Z" fill="#9E4C0B"/>
<path d="M21.5815 84.6863C18.2781 83.9311 17.8466 80.063 17.4336 77.5002C16.9221 74.3287 13.2125 66.1994 16.5052 63.6753C16.7863 63.2584 17.1459 62.9094 17.6121 62.6683C19.3957 61.7465 20.8209 63.0519 21.6068 64.6197C21.7533 64.8488 21.8972 65.0992 22.045 65.3789C22.5459 66.3233 22.9521 67.2877 23.2811 68.2654C24.9408 71.3143 25.9492 74.5804 25.7533 78.3553C25.6175 80.9621 25.6295 85.6121 21.5815 84.6863Z" fill="#F9CEB2"/>
<path d="M21.5815 84.6863C18.2781 83.9311 17.8466 80.063 17.4336 77.5002C16.9221 74.3287 13.2125 66.1994 16.5052 63.6753C16.7863 63.2584 17.1459 62.9094 17.6121 62.6683C19.3957 61.7465 20.8209 63.0519 21.6068 64.6197C21.7533 64.8488 21.8972 65.0992 22.045 65.3789C22.5459 66.3233 22.9521 67.2877 23.2811 68.2654C24.9408 71.3143 25.9492 74.5804 25.7533 78.3553C25.6175 80.9621 25.6295 85.6121 21.5815 84.6863Z" fill="#FAD6BE"/>
<path d="M18.3021 74.1644C18.5219 74.4547 18.9721 74.4614 19.2039 74.1977C20.3294 72.9203 20.3947 70.3921 19.5728 68.9323C19.3357 68.5087 18.679 67.8427 18.1649 67.7361C17.05 67.507 16.4439 68.5686 16.1722 69.4344C16.2708 69.1201 16.0816 68.5846 16.1216 68.2356C16.1642 67.8227 16.2894 67.4138 16.5132 67.0568C16.8768 66.4787 17.6787 66.0418 18.41 66.3735C19.5915 66.9089 20.075 68.2596 20.3787 69.3519C20.6944 70.4881 20.8875 71.6549 20.9128 72.8257C20.9368 74.0232 20.7277 75.1794 20.5239 76.3528C20.5092 76.4381 20.4986 76.5287 20.4826 76.6139C20.4786 76.6432 20.4599 76.6539 20.4426 76.6606C20.2855 77.2466 20.0923 77.8034 19.8605 78.3016C19.7726 78.4921 19.5102 78.1777 19.5302 78.0511C19.7393 76.6765 19.8219 75.2819 19.8499 73.8873C19.7247 74.3402 19.5315 74.9676 19.1293 75.1181C18.2954 75.4271 17.8545 73.9393 17.5042 72.9616C17.7573 73.3612 18.0024 73.7674 18.3021 74.1644Z" fill="#9E4C0B"/>
<path d="M93.4725 85.4527C95.8687 84.3485 96.5933 82.1866 97.1661 79.7331C97.6376 77.7018 97.8294 75.6438 98.4035 73.6312C98.4435 73.4873 98.4954 73.3382 98.5447 73.1916C99.1002 70.9219 99.7529 68.6641 99.934 66.3758C99.5744 64.3937 98.4528 62.794 96.3176 61.9734C93.7042 60.9691 92.263 63.5665 91.4585 66.3051C87.9566 71.3814 86.6792 77.3222 88.2643 83.6598C88.8344 85.9496 91.557 86.3358 93.4725 85.4527Z" fill="#9E4C0B"/>
<path d="M88.4895 78.3602C88.295 74.5853 89.3033 71.3192 90.963 68.2703C91.292 67.2926 91.6983 66.3282 92.1978 65.3838C92.3443 65.1041 92.4895 64.8537 92.636 64.6246C93.4219 63.0568 94.8471 61.7514 96.6307 62.6732C97.0955 62.9143 97.4565 63.2632 97.7362 63.6801C101.03 66.2043 97.3193 74.3335 96.8078 77.505C96.3962 80.0678 95.9633 83.9346 92.6613 84.6912C88.6133 85.6143 88.624 80.9642 88.4895 78.3602Z" fill="#F9CEB2"/>
<path d="M88.4895 78.3602C88.295 74.5853 89.3033 71.3192 90.963 68.2703C91.292 67.2926 91.6983 66.3282 92.1978 65.3838C92.3443 65.1041 92.4895 64.8537 92.636 64.6246C93.4219 63.0568 94.8471 61.7514 96.6307 62.6732C97.0955 62.9143 97.4565 63.2632 97.7362 63.6801C101.03 66.2043 97.3193 74.3335 96.8078 77.505C96.3962 80.0678 95.9633 83.9346 92.6613 84.6912C88.6133 85.6143 88.624 80.9642 88.4895 78.3602Z" fill="#FAD6BE"/>
<path d="M95.9393 74.1644C95.7209 74.4547 95.2693 74.4614 95.0375 74.1977C93.9133 72.9203 93.8481 70.3921 94.6699 68.9323C94.9057 68.5087 95.5637 67.8427 96.0778 67.7361C97.1927 67.507 97.7974 68.5686 98.0705 69.4344C97.9719 69.1201 98.1597 68.5846 98.1225 68.2356C98.0798 67.8227 97.9546 67.4138 97.7309 67.0568C97.3672 66.4787 96.5653 66.0418 95.8341 66.3735C94.6526 66.9089 94.1691 68.2596 93.8654 69.3519C93.5497 70.4881 93.3552 71.6549 93.3312 72.8257C93.3073 74.0232 93.5164 75.1794 93.7188 76.3528C93.7335 76.4381 93.7442 76.5287 93.7601 76.6139C93.7641 76.6432 93.7828 76.6539 93.7988 76.6606C93.9573 77.2466 94.1504 77.8034 94.3808 78.3016C94.4688 78.4921 94.7312 78.1777 94.7112 78.0511C94.5021 76.6765 94.4195 75.2819 94.3915 73.8873C94.5167 74.3402 94.7099 74.9676 95.1121 75.1181C95.946 75.4271 96.3855 73.9393 96.7372 72.9616C96.4841 73.3612 96.239 73.7674 95.9393 74.1644Z" fill="#9E4C0B"/>
<path d="M95.3799 49.1237C95.2267 44.8652 94.7233 40.5935 94.1345 36.3644C94.0746 32.9891 93.9693 29.3194 92.0286 26.4823C89.9946 23.5052 86.4075 21.6524 83.232 20.1819C74.6459 16.2071 65.4764 14.3077 56.0818 13.6177C48.4813 13.0596 41.4284 13.8215 34.5446 17.3021C29.7747 19.7143 25.5016 23.4253 23.1373 28.1925C23.1013 28.1126 22.9601 28.1033 22.9242 28.2125C22.7363 28.7719 22.5592 29.3328 22.3927 29.8935C22.061 30.766 21.788 31.6704 21.5895 32.6055C21.5762 32.6641 21.6001 32.7041 21.6321 32.736C20.9781 35.5026 20.5678 38.3078 20.424 41.2009C20.1722 46.2199 20.8209 51.2576 20.8862 56.2752C20.9102 58.0708 20.9208 59.8663 20.9328 61.6632C21.8186 65.7325 21.3111 70.6662 21.2844 74.7435C21.2698 76.9226 21.1899 79.1231 21.1739 81.3209C21.2698 82.7475 21.4257 84.1714 21.6827 85.5807C23.2079 93.955 29.0967 100.514 36.5319 104.375C38.3834 105.336 49.6269 113.209 61.7202 112.305C68.8051 109.774 75.0735 105.109 81.5284 100.905C84.1538 98.9807 86.7166 96.7975 88.5494 94.1068C90.5767 91.1351 91.8088 87.8358 92.5561 84.3299C92.7599 83.3709 92.9144 82.4079 93.0476 81.4395C92.9597 75.572 93.5085 69.5007 94.0479 63.6732C94.0346 63.6972 94.0186 63.7198 94.0053 63.7451C94.0293 63.4001 94.0546 63.0551 94.0839 62.7115C94.4755 58.1041 95.5451 53.7857 95.3799 49.1237Z" fill="#F9CEB2"/>
<path d="M95.3799 49.1237C95.2267 44.8652 94.7233 40.5935 94.1345 36.3644C94.0746 32.9891 93.9693 29.3194 92.0286 26.4823C89.9946 23.5052 86.4075 21.6524 83.232 20.1819C74.6459 16.2071 65.4764 14.3077 56.0818 13.6177C48.4813 13.0596 41.4284 13.8215 34.5446 17.3021C29.7747 19.7143 25.5016 23.4253 23.1373 28.1925C23.1013 28.1126 22.9601 28.1033 22.9242 28.2125C22.7363 28.7719 22.5592 29.3328 22.3927 29.8935C22.061 30.766 21.788 31.6704 21.5895 32.6055C21.5762 32.6641 21.6001 32.7041 21.6321 32.736C20.9781 35.5026 20.5678 38.3078 20.424 41.2009C20.1722 46.2199 20.8209 51.2576 20.8862 56.2752C20.9102 58.0708 20.9208 59.8663 20.9328 61.6632C21.8186 65.7325 21.3111 70.6662 21.2844 74.7435C21.2698 76.9226 21.1899 79.1231 21.1739 81.3209C21.2698 82.7475 21.4257 84.1714 21.6827 85.5807C23.2079 93.955 29.0967 100.514 36.5319 104.375C38.3834 105.336 49.6269 113.209 61.7202 112.305C68.8051 109.774 75.0735 105.109 81.5284 100.905C84.1538 98.9807 86.7166 96.7975 88.5494 94.1068C90.5767 91.1351 91.8088 87.8358 92.5561 84.3299C92.7599 83.3709 92.9144 82.4079 93.0476 81.4395C92.9597 75.572 93.5085 69.5007 94.0479 63.6732C94.0346 63.6972 94.0186 63.7198 94.0053 63.7451C94.0293 63.4001 94.0546 63.0551 94.0839 62.7115C94.4755 58.1041 95.5451 53.7857 95.3799 49.1237ZM85.8694 90.5304C82.7605 95.1405 78.5767 98.7103 74.1637 102.026C69.5603 105.484 64.2203 109.147 58.2889 109.586C52.4321 110.02 46.4367 107.521 41.4377 104.668C36.5572 101.88 31.3211 98.3187 27.9218 93.7539C21.6547 85.3409 21.8519 73.3702 24.388 63.6439C24.5132 63.1617 25.1579 63.2096 25.3031 63.6439C25.7041 64.8373 26.1236 66.0215 26.6831 67.1244C26.6631 58.5823 33.7067 52.4057 40.6971 48.126C45.0767 45.4447 49.6788 42.9978 54.3435 40.8533C57.4364 39.4307 60.6799 38.0814 63.4398 36.0514C66.3076 33.9415 67.9273 31.043 70.2543 28.4429C70.4808 28.1885 70.9869 28.3071 71.0469 28.6561C71.906 33.7989 73.0355 38.9871 75.5144 43.6265C77.9467 48.1806 81.2633 52.1433 84.1871 56.3725C87.7222 61.4914 90.6233 67.0871 90.5847 73.4661C90.5474 79.4042 89.2287 85.5514 85.8694 90.5304Z" fill="#FAD6BE"/>
<path d="M95.3799 49.1237C95.2267 44.8652 94.7233 40.5935 94.1345 36.3644C94.0746 32.9891 93.9693 29.3194 92.0286 26.4823C89.9946 23.5052 86.4075 21.6524 83.232 20.1819C74.6459 16.2071 65.4764 14.3077 56.0818 13.6177C48.4813 13.0596 41.4284 13.8215 34.5446 17.3021C29.7747 19.7143 25.5016 23.4253 23.1373 28.1925C23.1013 28.1126 22.9601 28.1033 22.9242 28.2125C22.7363 28.7719 22.5592 29.3328 22.3927 29.8935C22.061 30.766 21.788 31.6704 21.5895 32.6055C21.5762 32.6641 21.6001 32.7041 21.6321 32.736C20.9781 35.5026 20.5678 38.3078 20.424 41.2009C20.1722 46.2199 20.8209 51.2576 20.8862 56.2752C20.9102 58.0708 20.9208 59.8663 20.9328 61.6632C21.8186 65.7324 21.3111 70.6662 21.2844 74.7435C21.2698 76.9226 21.1899 79.1231 21.1739 81.3209C21.2698 82.7475 21.4257 84.1714 21.6827 85.5807C23.2079 93.955 29.0967 100.514 36.5319 104.375C38.8496 105.579 48.6931 112.451 56.2802 112.72C57.6389 112.767 60.3176 112.78 61.6229 112.317C68.7438 109.791 75.0455 105.128 81.5271 100.907C84.1525 98.982 86.7152 96.7988 88.5481 94.1082C90.5754 91.1365 91.8075 87.8371 92.5548 84.3313C92.7586 83.3722 93.4019 80.3912 93.5364 79.4228C93.4552 73.9603 93.4325 70.3399 93.9347 64.8853C93.9387 64.816 93.9387 64.7481 93.9427 64.6802C93.9467 64.6735 93.9507 64.6682 93.9547 64.6602C93.984 64.3298 94.016 64.0035 94.0453 63.6745C94.0319 63.6985 94.016 63.7211 94.0026 63.7464C94.0266 63.4014 94.0519 63.0564 94.0812 62.7128C94.4755 58.104 95.5451 53.7857 95.3799 49.1237ZM93.5764 60.6722C92.6946 66.7155 93.0702 72.8667 92.5587 78.9486C92.5201 79.0272 92.5068 79.1178 92.5321 79.2083C92.4682 79.9396 92.3989 80.6696 92.3043 81.3968C91.8555 84.8601 90.9497 88.246 89.3593 91.3629C87.5105 94.9873 84.5281 97.7006 81.3379 100.133C78.1664 102.553 74.7312 104.626 71.3199 106.688C67.6862 108.885 63.6342 111.552 59.4091 112.108C58.0838 112.104 56.7864 111.881 55.4011 111.821C47.9712 111.494 30.6551 100.975 27.5822 96.3646C24.8462 92.262 22.8469 88.2807 22.2435 83.4308C21.7147 79.1524 21.9025 74.8047 21.8319 70.505C21.7493 65.498 21.7706 60.4897 21.696 55.4853C21.6268 50.9192 21.0554 46.3918 21.102 41.819C21.1419 38.1453 21.6414 34.4943 22.4726 30.9178C24.7237 25.1209 29.467 20.8252 34.9815 17.9934C41.427 14.6833 48.2616 13.984 55.3825 14.4356C64.3921 15.0057 72.9556 16.8266 81.2953 20.2884C84.592 21.6551 87.8927 23.3347 90.4169 25.9055C93.4991 29.0437 92.8158 33.4699 93.5711 37.434C93.5871 37.5179 93.6323 37.5752 93.6923 37.6085C93.9787 40.6987 94.3636 43.7823 94.5594 46.8819C94.8538 51.6092 94.2557 56.0128 93.5764 60.6722Z" fill="#9E4C0B"/>
<path d="M120.6 93.1883C119.178 87.771 117.158 82.5349 115.09 77.3055C113.979 74.4989 112.797 71.7683 112.011 68.8832C108.352 58.2032 107.429 47.0543 105.47 35.8401C104.506 30.3189 102.871 24.1677 100.111 18.7771C98.6208 16.2983 96.8971 14.0006 94.722 12.0518C93.2088 10.6958 91.6264 9.4198 90.0973 8.0838C89.5658 7.76278 89.029 7.44575 88.4962 7.12874C84.2138 4.96822 79.6264 3.74144 74.8445 3.8813C71.3613 2.23627 67.8261 0.966872 63.7595 0.404765C57.2966 -0.491674 50.6699 0.184994 44.3415 1.60891C34.6832 3.78141 25.9146 9.14007 18.731 15.8281C17.5908 16.891 16.5039 18.0246 15.4477 19.1927C14.5446 20.6233 13.5908 22.0232 12.8729 23.5564C11.5982 26.2857 10.5019 29.1242 9.42699 31.9347C9.37637 32.0679 9.33107 32.2024 9.27912 32.3369C8.7703 34.7892 7.87387 37.1495 7.53288 39.6457C7.05202 43.1542 6.76564 46.6134 6.8056 50.1579C6.83756 53.0816 6.94279 56.004 6.99208 58.9238C7.22251 62.3617 7.3424 65.7943 6.94945 69.3587C6.76031 71.069 6.47394 72.7593 6.12362 74.4377C5.82658 76.7567 5.58549 79.1223 4.89817 81.3521C4.075 84.0214 3.01204 86.6135 2.07963 89.2456C2.05566 89.3122 2.03302 89.3788 2.00905 89.444C-0.0036151 96.8686 -0.806808 104.091 1.5908 111.602C1.75464 112.04 1.93444 112.472 2.12225 112.899C5.00471 118.354 9.97843 122.754 16.2149 121.896C13.4416 121.24 11.3571 119.269 9.54686 117.096C7.69271 114.875 7.03336 112.391 6.55784 109.793C7.92048 113.218 10.1569 116.229 13.2578 117.944C18.8403 121.03 25.5789 121.395 31.4317 119.065C32.0511 119.368 32.7024 119.635 33.3711 119.878C36.4827 120.377 39.5197 120.861 42.7325 120.474C45.0901 120.191 47.1987 119.437 49.2327 118.426C48.6532 118.266 48.1004 118.11 47.6169 117.996C42.538 116.795 38.185 114.014 34.5313 110.331C30.6805 106.45 28.0364 101.994 25.8426 97.0072C24.5746 94.1221 23.4996 91.1823 22.799 88.152C22.3914 86.9918 22.0251 85.8143 21.752 84.6368C17.7933 85.1323 16.0031 73.063 15.5675 69.8462C16.4586 67.5072 17.6561 64.5981 18.7457 62.0127C19.1227 63.2635 19.5196 64.5195 19.9232 65.7929C20.0577 66.8905 20.2575 67.9868 20.488 69.0803C20.5412 69.8449 20.5772 70.6108 20.6238 71.3781C21.0314 73.3681 21.439 75.3567 21.7147 77.3694C21.8027 77.2628 21.8652 77.1456 21.8679 77.0377C22.0291 71.5912 22.1756 65.9648 23.441 60.6447C23.6208 59.8921 23.8912 59.1289 24.2016 58.3577C24.2282 59.9827 24.5972 61.5039 25.459 62.7906C25.6814 63.1236 26.3062 62.5122 26.173 62.1979C26.1104 62.0487 26.0597 61.8928 26.0078 61.7356C26.1223 61.6597 26.2236 61.5545 26.2515 61.4466C29.8893 47.7256 47.0122 43.4152 58.0226 37.2893C62.7498 34.6586 68.9543 30.2484 71.8661 24.8511C71.8181 24.9976 71.7808 25.1468 71.7302 25.292C71.8981 26.6666 72.1445 28.0612 72.5507 29.5091C72.9437 30.9077 73.4312 32.2877 73.984 33.6437C75.4665 38.3043 77.5458 42.8385 79.7662 46.9411C84.4162 55.5418 90.8845 61.6065 90.9497 71.9122C90.9511 72.3944 92.4749 68.4303 92.7599 66.7493C92.7692 66.8426 92.7879 66.9358 92.7946 67.0304C92.9331 67.7736 93.0543 68.5235 93.1728 69.2801C93.5565 67.9748 94.1133 66.72 94.6794 65.4706C94.8032 65.083 94.9284 64.7167 95.0523 64.3357C95.1149 64.3091 95.1682 64.2638 95.2028 64.2105V64.2132C95.396 63.9375 95.669 63.6178 95.8981 63.37C96.066 63.1875 96.2178 63.1356 96.363 63.1702C96.411 63.2222 96.4549 63.2768 96.5069 63.3274C96.5641 63.3807 96.6281 63.402 96.6973 63.4087C96.7253 63.4366 96.7533 63.4593 96.7786 63.4926C96.8026 63.5219 96.8119 63.5578 96.8319 63.5885C96.9424 64.0453 97.0543 64.4996 97.1462 64.9458C97.2901 65.6597 97.4326 66.3737 97.5738 67.0876C97.6217 67.4939 97.6737 67.8975 97.7057 68.3091C98.0267 72.5742 97.7896 83.847 92.2991 85.3228L92.2951 85.3255C92.1592 85.3641 92.0087 85.4853 91.9354 85.6132C91.8542 85.7277 91.8022 85.8516 91.8075 85.9555C89.8362 92.1054 87.1322 97.2896 83.2401 102.471C79.1815 107.878 72.672 114.041 65.7215 115.142C65.4312 115.189 64.945 115.647 65.1368 115.979C67.1202 119.399 72.5361 118.964 76.291 118.435C80.0712 118.392 83.9327 117.316 87.4479 115.507C87.3373 115.655 87.2374 115.808 87.1282 115.956C86.5008 116.369 85.8588 116.734 85.1995 117.025C84.8558 117.175 84.1192 118.078 84.7839 118.321C88.7772 119.78 93.049 119.051 96.9371 117.339C96.724 117.568 96.5069 117.79 96.2991 118.034C96.2085 118.142 96.1139 118.299 96.0606 118.458C102.314 119.109 108.869 117.83 113.784 114.214C115.929 112.235 117.66 109.808 118.891 107.013C119.182 106.387 119.433 105.744 119.648 105.086C119.653 105.068 119.66 105.055 119.665 105.038C119.685 104.978 119.7 104.919 119.718 104.859C119.777 104.669 119.838 104.478 119.89 104.285C120.982 100.62 121.104 96.8873 120.6 93.1883Z" fill="#1F1F1D"/>
<path d="M118.817 103.815C118.556 104.566 118.24 105.284 117.903 105.99C117.834 106.132 117.764 106.271 117.695 106.411C117.586 106.628 117.479 106.846 117.362 107.058C116.733 108.232 116.035 109.329 115.368 110.295C114.107 112.113 112.379 113.6 110.422 114.709C109.502 115.277 108.503 115.752 107.467 116.137C104.626 117.418 101.49 118.099 98.2465 118.008C98.156 118.006 98.0774 117.974 98.0108 117.929C98.0001 117.935 97.9868 117.939 97.9788 117.945C97.9881 117.939 97.9961 117.931 98.0054 117.926C97.7337 117.747 97.6751 117.309 98.0148 117.124C99.6212 116.245 100.901 115.006 102.131 113.705C97.478 116.49 92.1992 118.211 86.7433 117.929C86.3491 117.909 86.0933 117.418 86.409 117.123C87.8902 115.727 89.5339 114.527 90.9591 113.067C91.4666 112.547 92.7027 111.436 93.4513 110.348C93.3607 110.411 93.2742 110.479 93.1849 110.544C93.2182 110.513 93.2555 110.484 93.2901 110.452C93.3434 110.403 93.3781 110.349 93.406 110.294C89.9002 112.872 85.9295 114.798 81.7004 116.073C77.6351 117.299 70.2544 119.931 66.7073 116.294C66.4476 116.028 66.5848 115.614 66.9218 115.503C74.6953 112.946 81.3447 107.23 85.8429 100.485C87.9901 97.2625 90.5649 93.5901 91.3134 89.7273C91.5052 88.7377 91.6092 87.1086 92.4257 86.3481C92.4363 86.2681 92.455 86.1856 92.4643 86.103C94.6874 85.726 96.0687 83.363 96.9771 80.9588C97.6511 78.0723 98.2292 75.0766 98.5076 72.1142C98.7727 73.67 99.0178 75.2325 99.2016 76.8056C100.106 84.4832 99.6811 92.1676 97.9335 99.6827C99.7197 96.0291 99.9049 91.5695 100.37 87.6321C100.776 84.1955 100.788 80.7776 100.701 77.353C100.41 74.1216 99.7624 70.9167 99.0591 67.7612C98.9339 67.2018 98.7447 66.5944 98.5329 65.967C98.3624 64.8841 98.0108 63.9357 97.4966 62.9247C97.1037 61.6727 96.812 60.4392 96.8559 59.3376C96.9944 58.9021 97.145 58.4692 97.2728 58.0323C97.2848 58.011 97.2955 57.991 97.3088 57.9723C97.3701 57.7472 97.4167 57.5181 97.474 57.293C97.9002 55.7266 98.2319 54.1375 98.481 52.5337C98.5902 48.0169 98.397 43.5147 96.9651 39.1604C96.1606 36.7202 95.0657 34.4185 94.0427 32.0688C93.8403 31.6053 93.6205 31.0605 93.3687 30.5024C95.0018 35.5267 97.089 40.182 97.6152 45.5926C98.2838 52.4618 95.7743 58.633 94.0507 65.1132C94.0188 65.2384 94.0521 65.2983 94.1133 65.321C93.8602 65.4249 93.5072 65.3263 93.454 65.0186C93.3727 64.5564 93.2728 64.1009 93.1836 63.6413C93.8043 57.4875 93.1636 51.1325 90.5209 45.6366C90.6168 45.8711 90.7114 46.1042 90.7966 46.3426C91.5479 48.4778 92.2219 50.6729 92.6321 52.9027C93.438 57.2863 91.7344 67.3909 91.6278 68.1302C91.4893 65.5488 90.5662 63.1179 89.4526 60.8002C86.9831 55.6613 83.5305 51.1018 80.684 46.1787C78.2398 42.3053 76.0367 38.2586 74.6021 33.9096C73.695 31.1644 72.6108 28.1887 72.2844 25.3022C72.1192 23.8397 72.4602 22.4384 72.7506 21.0172C72.4456 21.6632 72.1126 22.2985 71.7196 22.9046C69.3047 27.6958 64.4655 31.5879 60.3137 34.4784C54.9497 38.2133 48.7945 40.8108 43.0336 43.8611C36.0339 47.5667 27.8314 52.5924 25.7681 60.7895C25.1834 57.63 26.3262 53.4648 27.3705 50.7915C28.0205 49.1305 28.8677 47.5587 29.8294 46.0549C30.4421 44.8121 31.1494 43.6186 31.9326 42.4718C32.885 40.9253 33.924 39.4348 35.0509 38.0029C33.19 39.8317 31.4291 41.7924 29.8174 43.9636C27.9459 46.4851 25.5949 50.6437 24.6359 54.7209C24.2283 55.5255 23.8194 56.3326 23.4451 57.1545C22.7711 60.0103 22.213 62.8968 21.7188 65.8059C21.6376 66.2774 20.9023 66.2521 20.8024 65.8059C19.7408 61.02 17.4417 56.7123 17.2499 51.7239C17.154 49.2264 17.1287 46.6436 17.4098 44.1528C17.503 43.3269 17.7987 42.4425 18.0491 41.5647C17.0941 43.4002 16.8343 45.7738 16.7837 48.0156C16.3934 52.1621 17.0741 56.0289 18.137 59.9064C17.1141 62.3493 16.1084 64.7949 15.1613 67.2577C14.6512 69.4502 14.0851 71.6307 13.5403 73.8232C12.7477 77.004 11.6435 80.8961 12.0458 84.3833C12.3109 82.1216 12.6745 79.9411 13.126 77.9151C13.7467 75.1419 14.0651 73.2451 15.0335 70.6131C15.2439 74.9141 17.6176 87.0087 21.3299 85.6874C22.2117 90.4613 24.0019 94.9195 26.0625 99.3071C27.224 101.779 28.4628 104.435 30.1224 106.713C31.3918 108.309 32.7558 109.834 34.201 111.294C36.9956 114.123 40.2483 116.87 44.1524 117.947C44.3176 117.993 44.4122 118.102 44.4575 118.228C45.274 118.487 46.1012 118.718 46.951 118.886C44.1032 119.547 41.2433 119.721 38.4581 119.35C33.2127 119 27.3239 115.713 24.0125 112.586C22.9336 111.566 21.9879 110.452 21.1727 109.272C21.9812 110.87 22.9775 112.389 24.1271 113.789C25.3925 115.327 27.1894 116.756 29.1887 117.751C29.4524 117.935 29.7202 118.115 30.0012 118.286C27.4491 118.809 24.8903 118.878 22.4368 118.556C15.1107 118.373 8.49065 113.858 5.42438 107.259C5.69744 111.21 5.94386 114.708 8.50265 118.138C9.06209 118.886 9.75339 119.721 10.5366 120.485C5.10736 118.055 2.58455 111.673 1.56423 105.797C0.884907 101.899 1.19659 97.9778 1.9505 94.091C2.03176 93.4463 2.12501 92.8016 2.24222 92.1622C2.65115 89.9178 3.35712 87.796 4.12568 85.6954C4.12169 85.6741 4.11636 85.6554 4.11103 85.6341C4.75439 83.4709 5.41772 81.3344 6.0078 79.2351C8.813 69.2211 8.41339 59.9251 7.72342 49.6899C7.28519 43.1711 8.26421 36.924 10.462 30.7941C10.803 29.8417 13.1753 24.8853 14.1956 22.1986C14.3994 21.9442 14.6165 21.6952 14.823 21.4434C16.0711 19.1923 18.2529 17.2556 20.0685 15.7238C20.3575 15.4787 20.6639 15.2576 20.9596 15.0218C27.5583 9.16097 35.5717 4.96516 44.1151 2.76202C48.1964 1.70974 52.3789 1.21955 56.5747 1.17293C59.5131 0.669433 62.6793 0.907876 65.342 1.5166C69.4632 2.45966 73.675 3.56789 77.6018 5.26486C77.2408 5.07572 76.8772 4.88258 76.5162 4.7001C76.752 4.72807 76.9891 4.75737 77.2248 4.79999C84.0793 5.52061 90.1146 8.93188 95.7597 13.8803C96.146 14.4477 96.5123 15.0231 96.8666 15.6065C97.438 16.2779 97.9735 16.9878 98.4583 17.7524C101.017 21.7777 102.629 26.4158 103.532 31.1804C105.2 37.1491 105.822 43.568 106.731 49.6033C107.2 52.7096 107.638 55.8052 108.146 58.8981C109.371 63.1831 110.869 67.363 112.363 71.6147C113.614 75.1738 114.995 78.7476 116.163 82.356C119.372 89.1346 121.297 96.6831 118.817 103.815Z" fill="#424241"/>
<path opacity="0.5" d="M116.163 82.356C114.995 78.7476 113.614 75.1725 112.363 71.6147C110.869 67.3643 109.371 63.1831 108.146 58.8981C107.638 55.8065 107.2 52.7096 106.731 49.6033C105.822 43.568 105.2 37.1491 103.532 31.1803C102.629 26.4158 101.017 21.7764 98.4583 17.7524C97.9734 16.9878 97.4379 16.2779 96.8665 15.6065C96.5135 15.0231 96.1472 14.4477 95.7596 13.8803C90.1146 8.93053 84.0806 5.52059 77.2248 4.79998C76.989 4.75735 76.7519 4.72805 76.5161 4.70008C76.8771 4.88257 77.2407 5.0757 77.6017 5.26485C73.6749 3.56787 69.4632 2.45965 65.3419 1.51659C62.6792 0.907862 59.5131 0.669439 56.5747 1.17294C54.9017 1.19159 53.234 1.30347 51.5703 1.47131C58.221 1.16628 65.3113 1.84026 70.9723 5.34743C69.5737 5.30613 68.1698 5.34744 66.8458 5.34078C62.8444 5.3208 58.8777 5.52593 54.895 5.90955C49.3738 6.43969 43.9459 7.59719 39.3199 10.501C40.3775 10.0814 41.4511 9.73108 42.5993 9.41806C46.3715 8.39641 50.1464 7.95684 53.9573 7.7637C57.1128 7.40006 60.2896 7.24155 63.4625 7.13765C64.4188 7.23489 65.3752 7.36542 66.3303 7.55324C67.0695 7.69842 67.8328 7.85828 68.6067 8.03144C67.1654 8.75738 65.8108 9.6365 64.5787 10.5396C65.5417 10.0694 66.5567 9.69644 67.5131 9.38609C70.1465 8.52694 73.2154 7.53193 76.022 7.68644C80.5361 7.93153 84.7932 12.166 87.2454 16.3631C86.2557 14.2239 84.8185 12.3112 83.328 10.3957C83.0137 9.99081 83.3946 9.38342 83.8968 9.64982C87.0576 11.3281 89.8255 13.5033 92.1845 16.0501C98.3783 21.3368 102.298 29.534 103.892 37.3382C105.184 43.6666 105.081 50.1241 106.028 56.4911C106.713 61.0999 107.821 65.6247 108.819 70.1708C109.189 71.2977 109.561 72.4219 109.935 73.5475C110.152 74.2028 110.365 74.8622 110.574 75.5255C113.134 81.2851 116.187 86.8848 116.791 93.1945C117.209 97.5675 116.799 102.156 114.673 106.076C113.129 108.922 110.841 112.449 107.345 112.918C107.007 112.963 106.669 112.716 106.767 112.339C107.801 108.415 108.571 104.405 108.609 100.385C108.255 101.606 107.79 102.8 107.171 103.948C104.613 108.699 99.8875 113.636 94.658 115.319C94.2824 115.44 93.8975 114.965 94.1266 114.629C95.3267 112.868 96.9398 111.583 98.4609 110.115C100.11 108.523 101.293 106.626 102.049 104.458C102.189 104.057 102.317 103.653 102.44 103.249C100.677 106.216 98.3224 108.597 95.1322 109.489C94.6847 109.614 94.3317 109.02 94.678 108.698C99.8635 103.86 101.806 96.1995 102.556 89.3743C103.485 80.9254 102.139 72.5831 100.07 64.3939C99.9328 63.8531 100.647 63.6067 100.938 64.0409C102.482 66.32 103.734 68.7709 105.076 71.1698C104.785 70.2028 104.48 69.2411 104.175 68.2767C102.958 65.61 101.799 62.9141 101.006 60.1009C99.6557 55.3083 99.725 50.4438 99.1416 45.5367C98.4729 39.933 96.9518 34.0948 94.1732 29.1411C92.6001 26.3385 90.3716 24.1021 88.1698 21.823C89.8002 24.7175 91.0843 27.7664 92.0553 30.9126C95.1402 38.264 96.2724 46.5304 95.1695 54.3066C95.1642 54.3453 95.1602 54.3879 95.1549 54.4265C95.071 55.0006 94.2757 54.7955 94.2238 54.3066C94.0813 52.9506 93.8229 51.636 93.4872 50.3452C93.3913 50.292 93.3167 50.1987 93.2927 50.0522C93.2275 49.6353 93.1329 49.233 93.0503 48.8241C91.7489 44.6856 89.6617 40.8161 87.6317 36.9373C88.3044 39.7239 88.672 42.5703 88.708 45.3609C88.712 45.6819 88.4389 45.8444 88.1805 45.8138C87.8102 44.6589 87.4173 43.5147 87.023 42.3919C86.5888 41.1491 86.1372 39.7744 85.6057 38.4251C84.9104 37.4288 84.1951 36.4458 83.4546 35.4827C85.2847 40.4844 86.5128 45.6539 88.0273 50.7329C88.1086 51.4095 88.1818 52.0875 88.2351 52.7669C88.2711 53.2277 87.7156 53.3289 87.4279 53.1025C85.1156 51.2777 83.7476 48.539 82.5475 45.9123C81.9747 44.6562 81.358 43.4188 80.7412 42.1814C76.4615 34.9979 73.7042 26.7634 73.0143 18.4344C69.0196 22.9579 65.0329 27.512 60.4082 31.4068C55.3772 35.6439 49.4897 39.4854 42.6885 39.5294C42.4567 39.532 42.2942 39.3522 42.2449 39.1484C42.9696 38.4438 43.6595 37.7018 44.3335 36.9799C44.7598 36.5217 45.1967 36.0675 45.6256 35.6079C50.915 31.3841 55.8354 26.521 59.1494 21.1557C59.3159 20.8866 58.9989 20.8347 58.8471 21.0278C56.5161 24.0089 53.4285 26.6222 50.3622 29.0891C48.4321 30.4384 46.5939 31.9556 44.7132 33.3302C42.5939 34.8767 40.4001 36.5177 37.7215 36.8134C37.3818 36.8494 37.1141 36.3832 37.3099 36.1061C39.3292 33.2596 42.4088 31.0325 45.1767 28.824C41.8813 30.565 38.4607 32.2047 35.4531 34.4211C33.8293 35.6173 32.2696 36.9013 30.9682 38.4504C29.8972 39.7252 28.8823 41.0265 27.5716 42.0722C28.1843 40.1434 28.9262 38.276 30.1623 36.3845C32.5173 32.7788 35.9099 30.0615 39.3279 27.5267C39.493 27.4041 39.529 27.0085 39.2426 27.1564C35.6648 29.0092 31.0308 32.6056 27.9792 36.8547C23.9099 41.0758 21.0447 46.0629 19.9965 52.2993C17.3764 32.2646 34.2516 20.1487 51.3945 14.6035C50.2783 14.7807 49.1634 14.9685 48.0631 15.2216C45.0941 15.9036 42.177 16.9505 39.3718 18.1347C38.5633 18.4757 37.7734 18.8513 36.9795 19.219C34.1317 20.7494 31.4211 22.533 28.9022 24.5376C23.1173 29.137 18.1956 34.918 16.1017 42.1254C13.9718 49.4541 15.6381 57.0892 13.5376 64.4046C11.3384 72.0743 9.54421 79.387 10.4113 87.4509C11.2372 95.1379 13.7374 102.413 17.2512 109.275C17.5029 109.765 16.9089 110.182 16.5053 109.842C9.66808 104.109 6.65776 96.0464 6.3101 87.427C5.04736 92.0397 5.03936 96.8536 4.54652 101.629C4.49058 102.164 3.79793 102.269 3.61544 101.749C2.12759 97.5142 2.6564 92.9588 3.26913 88.6045C3.30243 88.3607 3.33306 88.1183 3.36636 87.8732C2.90682 89.2731 2.50323 90.693 2.23417 92.1689C2.11695 92.8083 2.0237 93.453 1.94245 94.0977C1.18853 97.9844 0.876851 101.906 1.55617 105.803C2.57782 111.68 5.10063 118.062 10.5286 120.491C9.74533 119.728 9.0527 118.893 8.49459 118.144C5.93581 114.714 5.68938 111.217 5.41632 107.266C8.48393 113.865 15.1027 118.381 22.4287 118.563C24.8823 118.885 27.441 118.814 29.9932 118.292C29.7121 118.122 29.443 117.941 29.1806 117.758C27.1813 116.762 25.3831 115.334 24.119 113.795C22.9682 112.395 21.9731 110.878 21.1646 109.279C21.6481 109.976 22.1916 110.643 22.7644 111.289C18.8536 105.504 17.4124 98.7051 16.9169 91.5429C16.8796 90.9941 17.7094 90.9155 17.8479 91.4216C19.2772 96.6524 20.9235 102.016 24.0817 106.497C25.7947 108.931 27.5649 111.592 30.0651 113.287C31.4157 114.2 32.9076 115.089 33.6402 116.602C33.788 116.908 33.6069 117.322 33.2286 117.309C32.1244 117.268 31.0335 117.072 29.9865 116.748C32.6652 118.14 35.6475 119.169 38.4501 119.356C41.2353 119.728 44.0938 119.554 46.9429 118.893C46.0931 118.725 45.2659 118.493 44.4494 118.235C44.4055 118.108 44.3109 117.999 44.1444 117.954C40.2403 116.875 36.9875 114.13 34.193 111.301C32.7477 109.839 31.3838 108.315 30.1144 106.72C28.4534 104.443 27.2159 101.787 26.0544 99.3138C23.9938 94.9261 22.2022 90.4679 21.3218 85.694C17.6095 87.0141 15.2359 74.9208 15.0254 70.6197C14.057 73.2531 13.7387 75.1485 13.118 77.9218C12.6651 79.9491 12.3014 82.1283 12.0377 84.39C11.6354 80.9028 12.7397 77.0107 13.5322 73.8298C14.077 71.6374 14.6431 69.4569 15.1533 67.2644C16.099 64.8015 17.106 62.356 18.129 59.9131C17.0674 56.0356 16.3854 52.1701 16.7757 48.0222C16.8276 45.7805 17.086 43.4069 18.0411 41.5714C17.7893 42.4491 17.4949 43.3336 17.4017 44.1594C17.1207 46.6489 17.146 49.233 17.2419 51.7305C17.4337 56.7189 19.7314 61.0266 20.7943 65.8125C20.8942 66.2587 21.6282 66.284 21.7107 65.8125C22.2049 62.9034 22.763 60.0156 23.437 57.1611C23.81 56.3393 24.2202 55.5321 24.6278 54.7276C25.5856 50.6489 27.9365 46.4918 29.8093 43.9703C31.4211 41.7991 33.1807 39.8384 35.0428 38.0096C33.9159 39.4401 32.8769 40.9307 31.9246 42.4785C31.1413 43.6253 30.4341 44.8201 29.8213 46.0615C28.8596 47.5653 28.0125 49.1371 27.3624 50.7981C26.3181 53.4715 25.1766 57.6367 25.76 60.7962C27.8246 52.599 36.0271 47.5734 43.0255 43.8677C48.7864 40.8174 54.9416 38.22 60.3056 34.4851C64.4575 31.5946 69.298 27.7025 71.7116 22.9113C72.1045 22.3052 72.4375 21.6698 72.7425 21.0238C72.4522 22.4437 72.1112 23.8463 72.2764 25.3089C72.604 28.1953 73.6883 31.171 74.594 33.9163C76.0286 38.2653 78.2318 42.3119 80.676 46.1854C83.5225 51.1072 86.975 55.6666 89.4446 60.8068C90.5581 63.1245 91.4812 65.5554 91.6197 68.1368C91.7276 67.3976 93.4313 57.293 92.6241 52.9094C92.2125 50.6796 91.5398 48.4844 90.7886 46.3492C90.7033 46.1095 90.6101 45.8777 90.5128 45.6433C93.1555 51.1391 93.7976 57.4941 93.1755 63.648C93.2648 64.1075 93.3647 64.5644 93.4459 65.0253C93.4992 65.3316 93.8522 65.4316 94.1053 65.3277C94.044 65.3037 94.0093 65.2437 94.0426 65.1199C95.7663 58.6397 98.2758 52.4685 97.6071 45.5993C97.081 40.1874 94.9937 35.5333 93.3607 30.509C93.6124 31.0671 93.8322 31.6119 94.0347 32.0754C95.0576 34.4264 96.1525 36.7268 96.9571 39.1671C98.3903 43.5227 98.5821 48.0236 98.4729 52.5404C98.2238 54.1441 97.8922 55.7332 97.4659 57.2997C97.4086 57.5248 97.362 57.7539 97.3007 57.979C97.2874 57.9976 97.2768 58.0176 97.2648 58.0389C97.1369 58.4758 96.9877 58.9087 96.8479 59.3443C96.8039 60.4459 97.0956 61.6806 97.4886 62.9314C98.0027 63.9424 98.353 64.8907 98.5249 65.9737C98.7366 66.601 98.9258 67.2085 99.051 67.7679C99.7543 70.9234 100.402 74.1282 100.693 77.3597C100.78 80.7829 100.769 84.2022 100.362 87.6388C99.8968 91.5762 99.7117 96.0357 97.9255 99.6894C99.673 92.1742 100.098 84.4899 99.1935 76.8122C99.0084 75.2378 98.7646 73.6767 98.4995 72.1209C98.2198 75.0833 97.6431 78.0789 96.9691 80.9654C96.0606 83.371 94.6794 85.7326 92.4562 86.1096C92.4469 86.1922 92.4283 86.2734 92.4176 86.3547C91.6011 87.1152 91.4972 88.7443 91.3054 89.734C90.7073 92.8216 88.9424 95.7826 87.1615 98.4933C89.4605 95.9318 91.4652 93.1066 92.5788 89.8832C92.7759 89.3118 93.679 89.5382 93.4939 90.1243C92.7346 92.5272 92.379 95.0993 91.38 97.4223C90.4662 99.5469 89.1262 101.53 87.633 103.299C87.3453 103.796 87.063 104.294 86.8192 104.815C89.7523 103.246 91.6517 99.8932 93.7643 97.4703C94.0813 97.108 94.6754 97.4876 94.5568 97.9245C92.3923 105.899 87.6397 112.79 79.5624 115.518C79.1655 115.653 78.8365 115.165 79.0323 114.828C80.1125 112.951 81.4858 111.287 82.8205 109.596C81.2075 110.613 79.4132 111.347 77.5537 111.853C77.5125 111.864 77.4792 111.859 77.4405 111.86C76.8425 112.233 76.2377 112.598 75.6303 112.95C73.0769 114.424 69.9826 115.527 67.0935 116.068C66.9403 116.097 66.7805 116.125 66.6153 116.154C66.638 116.205 66.6539 116.256 66.6966 116.3C70.2437 119.935 77.6243 117.304 81.6896 116.078C85.9187 114.804 89.8881 112.878 93.3953 110.299C93.3673 110.355 93.3314 110.408 93.2794 110.457C93.2448 110.489 93.2075 110.519 93.1742 110.549C93.2621 110.484 93.35 110.416 93.4406 110.353C92.692 111.442 91.4572 112.553 90.9484 113.072C89.5232 114.532 87.8795 115.732 86.3983 117.128C86.0826 117.425 86.3383 117.915 86.7326 117.934C92.1898 118.216 97.4686 116.495 102.12 113.71C100.891 115.013 99.6104 116.25 98.004 117.129C97.6644 117.314 97.723 117.753 97.9947 117.931C97.9854 117.937 97.9774 117.945 97.9681 117.95C97.9774 117.945 97.9907 117.941 98 117.934C98.068 117.978 98.1452 118.011 98.2358 118.014C101.481 118.103 104.615 117.424 107.456 116.142C108.492 115.757 109.491 115.282 110.412 114.714C112.37 113.605 114.097 112.118 115.357 110.3C116.026 109.334 116.724 108.237 117.351 107.063C117.469 106.852 117.575 106.633 117.684 106.416C117.754 106.276 117.824 106.136 117.892 105.995C118.231 105.291 118.546 104.571 118.806 103.82C121.297 96.687 119.372 89.1386 116.163 82.356Z" fill="#424241"/>
<path opacity="0.5" d="M24.127 113.788C22.9761 112.388 21.9811 110.871 21.1726 109.271C21.6561 109.969 22.1996 110.635 22.7723 111.281C19.9645 107.128 18.4327 102.447 17.6068 97.4883C17.2805 96.488 16.9834 95.477 16.7557 94.4433C16.1629 91.7407 15.6155 88.8782 15.5089 86.0757C13.9305 96.9768 16.8862 108.643 24.5865 116.615C24.9395 116.978 24.5772 117.468 24.1323 117.406C16.0897 116.284 6.58183 110.637 4.14026 102.756C3.5635 105.356 3.39165 108.006 3.96841 110.545C4.45326 112.681 5.32175 114.567 6.63777 116.308C7.45695 117.392 8.59581 118.966 9.93713 119.843C9.40566 119.268 8.90883 118.685 8.50257 118.14C5.94379 114.71 5.69736 111.212 5.4243 107.261C8.49191 113.86 15.1106 118.377 22.4367 118.558C24.8902 118.88 27.449 118.81 30.0011 118.288C29.7201 118.117 29.451 117.936 29.1886 117.753C27.1893 116.756 25.3924 115.327 24.127 113.788Z" fill="#424241"/>
<path opacity="0.5" d="M44.4572 118.226C44.4133 118.1 44.3187 117.991 44.1522 117.945C40.2481 116.866 36.9954 114.121 34.2008 111.292C32.7556 109.831 31.3916 108.307 30.1222 106.711C28.4612 104.435 27.2238 101.779 26.0623 99.3053C24.0016 94.9177 22.2101 90.4595 21.3296 85.6855C21.3043 85.6962 21.2804 85.6976 21.2551 85.7055C20.7835 91.4731 22.4658 97.3899 25.303 102.454C27.0559 105.58 29.1365 108.747 31.682 111.288C33.9637 113.563 36.5838 115.416 39.1439 117.362C39.4502 117.596 39.4756 118.12 39.0293 118.229C36.2068 118.923 33.5308 118.364 31.0946 117.024C30.7229 116.944 30.3553 116.852 29.993 116.74C32.6717 118.132 35.654 119.16 38.4566 119.348C41.2418 119.72 44.1003 119.545 46.9494 118.884C46.1009 118.717 45.2724 118.485 44.4572 118.226Z" fill="#424241"/>
<path opacity="0.5" d="M71.5264 23.2632C67.6329 28.807 61.5696 33.1866 55.7168 35.9092C46.795 40.0584 36.436 41.1827 29.9065 49.3172C29.6068 49.6902 28.9848 49.2906 29.1153 48.8617C29.8786 46.3348 31.0294 44.0265 32.3614 41.818C32.2202 42.0378 32.067 42.2509 31.9312 42.4734C31.148 43.6202 30.4407 44.815 29.8279 46.0565C28.8662 47.5603 28.0191 49.1321 27.3691 50.7931C26.3248 53.4664 25.1832 57.6316 25.7667 60.7911C27.8313 52.594 36.0338 47.5683 43.0321 43.8626C48.793 40.8124 54.9482 38.2149 60.3122 34.48C64.3589 31.6628 69.0555 27.8892 71.5264 23.2632Z" fill="#424241"/>
<path opacity="0.5" d="M77.4499 111.855C76.8518 112.228 76.2471 112.593 75.6397 112.944C73.3353 114.275 70.5954 115.278 67.9607 115.863C70.2771 116.799 73.703 115.705 75.8821 115.364C76.9864 115.193 78.0666 114.961 79.1296 114.678C80.1965 112.862 81.5285 111.237 82.8299 109.589C81.2168 110.607 79.4226 111.34 77.5631 111.847C77.5205 111.859 77.4872 111.853 77.4499 111.855Z" fill="#424241"/>
<path opacity="0.5" d="M107.608 105.832C107.799 105.237 107.991 104.644 108.188 104.063C108.23 103.942 108.307 103.863 108.396 103.81C108.515 102.669 108.601 101.528 108.612 100.384C108.258 101.606 107.793 102.799 107.173 103.947C105.439 107.168 102.707 110.47 99.4998 112.792C102.738 111.079 105.462 108.796 107.608 105.832Z" fill="#424241"/>
<path opacity="0.5" d="M116.163 82.3519C114.995 78.7435 113.614 75.1684 112.363 71.6106C111.399 68.8666 110.442 66.152 109.548 63.4214C109.875 66.3318 110.404 69.2143 111.181 72.0355C113.073 78.894 116.92 85.1171 118.42 92.0955C120.48 101.681 113.576 113.824 103.449 115.512C103.015 115.587 102.627 115.07 102.995 114.721C104.755 113.056 105.814 110.894 106.653 108.634C105.185 110.3 103.498 111.765 101.602 112.903C98.2371 114.922 93.3726 117.049 89.3792 116.459C89.1728 116.429 89.0262 116.197 89.0262 116.001C89.0262 115.376 89.6989 115.18 90.1158 114.794C91.0775 113.904 91.9686 112.941 92.7013 111.85C93.599 110.514 94.3743 109.115 94.943 107.635C92.3096 109.442 89.6136 111.167 86.8311 112.687C84.5494 113.934 82.1611 114.802 79.7049 115.463C79.6596 115.479 79.617 115.496 79.5703 115.512C79.5237 115.529 79.4798 115.535 79.4358 115.535C77.559 116.025 75.6476 116.402 73.7068 116.716C71.5357 117.067 68.6079 117.586 66.6765 116.245C66.6885 116.263 66.6912 116.281 66.7058 116.297C70.253 119.932 77.6336 117.301 81.6989 116.076C85.928 114.801 89.8974 112.875 93.4046 110.296C93.3766 110.352 93.3406 110.405 93.2887 110.455C93.254 110.486 93.2167 110.516 93.1834 110.546C93.2714 110.481 93.3593 110.413 93.4498 110.351C92.7012 111.439 91.4665 112.55 90.9576 113.069C89.5324 114.529 87.8887 115.729 86.4075 117.125C86.0918 117.422 86.3476 117.912 86.7419 117.931C92.1991 118.213 97.4778 116.493 102.129 113.707C100.9 115.01 99.6197 116.247 98.0133 117.127C97.6736 117.312 97.7322 117.75 98.004 117.928C97.9946 117.934 97.9866 117.942 97.9773 117.947C97.9866 117.942 98 117.938 98.0093 117.931C98.0772 117.975 98.1545 118.008 98.245 118.011C101.49 118.1 104.624 117.421 107.465 116.14C108.502 115.755 109.5 115.279 110.421 114.712C112.379 113.602 114.107 112.116 115.367 110.297C116.035 109.332 116.733 108.234 117.361 107.061C117.478 106.849 117.584 106.63 117.694 106.413C117.763 106.273 117.834 106.133 117.901 105.992C118.24 105.288 118.555 104.568 118.815 103.817C121.297 96.6829 119.372 89.1344 116.163 82.3519Z" fill="#424241"/>
<path opacity="0.5" d="M104.716 114.244C105.928 113.895 107.08 113.38 108.162 112.735C107.898 112.81 107.628 112.872 107.348 112.912C107.01 112.957 106.671 112.711 106.77 112.334C107.083 111.146 107.356 109.948 107.607 108.746C106.885 110.718 106.017 112.631 104.716 114.244Z" fill="#424241"/>
<path opacity="0.5" d="M95.1775 109.473C94.594 110.668 93.8934 111.808 93.1102 112.891C92.307 114.002 91.3573 114.984 90.3103 115.863C90.7645 115.481 92.7372 115.254 94.0825 114.965C94.0532 114.853 94.0572 114.733 94.1292 114.627C95.3293 112.866 96.9424 111.58 98.4635 110.113C100.113 108.521 101.295 106.624 102.052 104.456C102.192 104.055 102.32 103.651 102.442 103.246C100.689 106.2 98.3476 108.57 95.1775 109.473Z" fill="#424241"/>
<path opacity="0.5" d="M84.4416 51.351C82.2291 48.081 80.1352 44.715 78.3636 41.1812C75.3466 35.1632 73.1768 28.6936 72.5521 21.9937C72.3323 23.0846 72.1578 24.1781 72.2844 25.3037C72.612 28.1901 73.6963 31.1658 74.602 33.9111C76.0366 38.2601 78.2398 42.3067 80.684 46.1802C83.5305 51.102 86.983 55.6614 89.4526 60.8016C90.5661 63.1193 91.4892 65.5502 91.6278 68.1317C91.7356 67.3924 93.4393 57.2878 92.6321 52.9042C92.335 51.2964 91.9008 49.706 91.4 48.1436C91.043 47.5135 90.6687 46.8915 90.2864 46.2708C90.6181 47.391 90.9484 48.5112 91.1842 49.6527C91.8462 52.8469 91.8262 56.3101 91.1362 59.5042C91.055 59.8799 90.6008 59.9385 90.3437 59.7187C89.1595 58.7037 88.4802 57.3518 87.6544 56.053C86.6394 54.452 85.5032 52.9228 84.4416 51.351Z" fill="#424241"/>
<path opacity="0.5" d="M94.1079 56.3111C93.9694 53.5751 93.025 51.1615 91.7942 48.8611C93.342 53.5471 93.6896 58.6567 93.1848 63.6438C93.274 64.1033 93.3739 64.5602 93.4552 65.021C93.5085 65.3274 93.8614 65.4273 94.1145 65.3234C94.0533 65.2994 94.0186 65.2395 94.0519 65.1156C95.7755 58.6354 98.285 52.4642 97.6164 45.5951C97.6017 45.4459 97.5738 45.302 97.5578 45.1528C97.4579 49.1289 96.7199 53.0357 94.995 56.5468C94.7712 56.9944 94.1305 56.7546 94.1079 56.3111Z" fill="#424241"/>
<path opacity="0.5" d="M34.4008 38.664C35.1094 37.629 35.838 36.6007 36.5653 35.5737C28.5626 41.0629 21.7494 48.1452 21.0607 58.2045C21.0354 58.5735 20.5386 58.8852 20.2536 58.5388C18.1317 55.9641 17.5616 52.0307 17.1899 48.718C17.1913 49.729 17.2099 50.7359 17.2485 51.7296C17.4403 56.718 19.7381 61.0257 20.801 65.8116C20.9009 66.2578 21.6348 66.2831 21.7174 65.8116C22.2116 62.9025 22.7697 60.0147 23.4437 57.1602C23.8167 56.3384 24.2269 55.5312 24.6345 54.7266C25.5922 50.648 27.9432 46.4909 29.816 43.9694C31.2373 42.0526 32.7784 40.3064 34.4008 38.664Z" fill="#424241"/>
<path opacity="0.5" d="M54.1904 10.0371C44.9223 10.5832 35.9286 13.6895 28.5866 18.9615C23.6834 21.9026 18.3727 28.5653 18.5619 28.1044C21.9425 19.9033 29.2312 13.8893 36.8436 9.71344C40.9103 7.48233 45.162 5.56025 49.6722 4.42405C53.1075 3.55958 56.592 2.98948 60.0965 2.52327C57.3912 2.39407 54.5633 2.41671 51.858 2.90156C37.5829 4.20959 24.8396 11.5543 16.1656 23.3678C13.9398 26.4008 12.2775 29.7828 11.064 33.3339C9.4816 40.0699 9.3737 47.1428 9.49491 54.1065C9.59747 59.9927 10.5965 66.1505 9.63479 71.9594C9.8559 71.3693 10.073 70.7766 10.2808 70.1839C11.1359 65.8215 10.9215 61.4978 10.9401 56.6227C10.9575 52.5987 11.3251 48.6187 11.8339 44.6413C11.6101 48.3723 11.758 52.0725 12.4173 55.2867C12.5212 55.7875 13.1446 55.296 13.1566 54.9657C13.5455 44.3775 16.7677 32.7398 24.4507 25.0661C33.1953 16.3295 45.8187 12.9409 57.5124 10.6978C57.5883 10.6831 57.6776 10.6192 57.7548 10.5366C56.5786 10.3155 55.3892 10.149 54.1904 10.0371Z" fill="#424241"/>
<path opacity="0.5" d="M83.9154 40.4756C83.9087 40.4396 83.9007 40.4023 83.8928 40.3663C82.4675 35.4566 81.932 30.6001 81.2287 25.5624C82.4888 28.4662 83.6517 31.7909 86.1665 33.2841C86.4369 33.4439 86.7552 33.047 86.8125 32.8338C87.0429 31.9854 87.1109 30.997 87.0589 29.9394C88.8358 33.9088 90.2211 38.0007 91.9341 42.0047C90.9018 36.4636 90.0293 30.8318 88.2737 25.5012C87.1655 22.1325 85.3446 18.8678 83.2188 16.0226C82.0519 14.4602 80.7146 11.9147 78.7912 11.0582C81.4059 15.1235 83.9247 19.7895 83.9833 24.5568C83.9873 24.979 83.4678 25.1695 83.1761 24.8911C81.6457 23.4365 80.7958 21.5504 79.9114 19.6789C79.9087 21.8821 79.9487 24.0866 80.0419 26.2897C80.0659 26.8571 79.2813 26.8931 79.1122 26.4109C78.273 24.0013 77.7788 21.5265 77.4498 18.9997C77.3073 17.9101 77.2514 16.7459 77.1355 15.5964C77.0329 14.9757 76.949 14.3736 76.8784 13.8075C76.7905 13.3573 76.6826 12.9164 76.5388 12.4928C76.2377 11.6137 75.6343 11.4299 74.9004 11.6083C74.5327 11.8734 74.2251 12.1425 74.1531 12.2037C73.2314 12.987 72.303 13.7622 71.3639 14.5254C70.1571 15.5045 69.0062 16.5341 67.8154 17.5264C67.2134 18.0259 64.9103 20.3396 64.1191 18.9863C63.3599 17.6863 64.889 15.9187 65.623 14.977C66.7072 13.5864 68.1005 12.329 69.2287 10.937C66.8324 11.8947 64.5161 13.3519 62.3342 14.6386C60.5693 15.6776 58.7312 16.8977 56.6399 17.0709C56.251 17.1015 55.9846 16.5155 56.3056 16.2624C56.7398 15.9227 59.6822 13.966 61.92 12.4009C61.2087 12.61 60.4921 12.8045 59.7688 12.9843C57.3059 14.1485 54.7152 14.8864 52.1404 15.7615C50.1038 16.4542 48.0418 17.2947 46.0158 18.2497C42.871 19.5591 39.8353 21.348 37.2672 23.0316C34.7884 24.6553 31.6555 26.7852 29.1074 29.2588C27.8366 30.8092 26.7084 32.4676 25.7334 34.2311C27.0468 32.8006 28.6838 31.643 30.2902 30.5734C32.3788 29.1815 34.4887 27.8601 36.6931 26.7013C40.7891 24.1292 45.2446 22.1498 49.6842 20.2717C50.4181 19.9613 51.1494 19.6456 51.8807 19.3286C48.0032 21.9926 44.4148 25.1375 40.6052 27.8268C40.3681 27.9933 40.1497 28.4436 40.2243 28.7126C41.9253 28.5235 43.7061 27.7602 45.19 27.2647C45.8107 27.0569 46.4234 26.8332 47.0401 26.6174C48.6052 25.8262 50.1317 24.9364 51.6196 24.0652C54.9389 22.5747 57.8787 20.2517 61.1088 18.5641C63.1747 17.4865 60.4641 21.8981 60.5853 21.7369C59.7741 22.8172 59.0402 23.9547 58.2956 25.0802C56.4108 27.9214 54.1371 30.4496 51.886 33.0003C51.8234 33.0709 51.7674 33.1868 51.7341 33.3054C52.251 33.2015 52.7664 33.0869 53.2726 32.9244C54.6419 32.4809 55.9606 31.8721 57.2193 31.1688C59.4624 29.5651 61.5004 27.5444 63.3972 25.7769C64.1551 25.0722 64.8504 24.3223 65.5217 23.5538C67.2187 22.1205 68.8065 20.5314 70.297 18.945C71.6783 17.4732 73.2793 15.924 74.5514 14.2244C74.1305 17.6756 75.0349 21.9207 75.6956 24.6673C77.2873 31.2967 80.0739 38.5068 84.2217 43.9761C84.3696 44.1719 84.6387 44.016 84.7905 43.8016C84.4309 42.7133 84.1245 41.6064 83.9154 40.4756Z" fill="#424241"/>
<path opacity="0.5" d="M9.9159 94.6693C9.36711 92.0759 9.04343 89.4478 9.13134 86.7918C9.22591 83.9373 9.48699 81.0895 9.14333 78.2656C7.5689 87.6629 6.96549 97.8022 13.6801 105.538C13.8227 105.704 14.1064 105.55 14.2476 105.349C12.1537 102.107 10.7084 98.4149 9.9159 94.6693Z" fill="#424241"/>
<path opacity="0.5" d="M110.281 77.8088C108.638 73.1695 107.019 68.3516 105.577 63.4471C105.425 62.6399 105.294 61.8301 105.162 61.0216C104.253 56.8711 103.677 52.6792 103.32 48.3662C103.206 46.9956 103.103 45.6169 102.983 44.2423C102.612 41.4757 102.183 38.7145 101.603 35.9652C100.635 31.3751 98.8886 27.5017 96.5336 24.0185C95.2602 22.2509 93.8256 20.6138 92.2458 19.1113C95.9209 24.3967 98.7753 30.3082 100.051 36.5446C101.004 41.2 101.302 45.9473 101.296 50.6905C101.294 51.7854 101.292 52.8817 101.302 53.9779C102.63 61.1668 104.715 68.297 107.003 75.1248C107.569 77.633 108.187 80.0706 108.598 82.5441C107.773 78.4149 105.835 74.5281 104.001 70.6933C103.733 70.3296 102.183 68.0186 101.91 67.6603C103.934 72.678 105.394 80.2251 105.337 85.5065C105.269 91.9281 104.131 97.9781 101.603 103.78C103.896 101.14 105.684 98.7307 106.931 96.032C106.679 98.0207 106.326 100.052 105.967 102.222C106.919 101.471 107.753 100.489 108.354 99.5765C108.491 99.366 108.712 99.3287 108.901 99.386C109.756 97.749 110.244 95.9854 110.609 94.1073C111.389 98.407 110.845 102.836 110.829 107.185C112.354 105.941 113.401 103.884 114.072 101.721C115.603 93.8209 112.873 85.1282 110.281 77.8088Z" fill="#424241"/>
<path opacity="0.5" d="M30.3686 115.227C22.7296 110.534 20.1362 102.626 17.9077 94.3705C17.8731 94.2426 17.656 94.4011 17.6693 94.5023C18.9001 103.01 21.4735 112.078 30.1155 115.593C30.294 115.665 30.5631 115.347 30.3686 115.227Z" fill="#424241"/>
<path d="M83.4904 68.9999C83.22 69.1251 82.7272 69.5261 82.4608 69.6513C82.7112 67.4561 80.7545 65.4009 79.0761 64.1687C77.563 63.0565 75.7874 62.1987 73.8733 62.3306C74.5966 62.1601 75.3399 62.0242 76.0898 61.8923C72.0032 61.5553 68.4321 63.1231 66.0638 65.967C64.8144 67.9197 64.1324 70.5291 64.7131 72.7575C65.3791 75.323 70.558 74.292 72.3096 74.0096C75.4518 73.4994 79.8407 72.4898 82.6259 70.3932C82.9842 69.9763 83.2773 69.5127 83.4904 68.9999Z" fill="#FAD6BE"/>
<path d="M82.1718 69.7004C82.0253 69.2102 81.4965 68.3591 81.298 67.8862C80.5268 66.2772 79.6703 65.0158 77.6576 64.0274C75.6903 63.0604 73.8068 63.0297 71.6223 63.5519C67.1454 64.6175 65.3619 68.435 65.6816 71.8676C65.5777 72.4377 65.6123 73.0251 66.3489 73.2089C68.3842 73.7204 70.6193 73.5139 72.7266 73.2942C75.0549 73.0504 78.1132 72.3924 80.2324 71.0711C80.2457 71.0578 81.7522 70.3198 82.1718 69.7004Z" fill="#81400F"/>
<path d="M68.6745 73.1855C66.2796 73.0882 65.8507 71.5964 66.0118 70.7572C66.3182 67.4405 68.4201 64.558 72.893 63.7428C77.3992 62.9263 79.8261 66.1884 81.4058 68.971C80.9942 71.0915 75.4571 72.7086 72.2882 72.995C71.3891 73.0749 69.7894 73.2081 68.6745 73.1855Z" fill="white"/>
<path d="M73.0195 62.2545C72.3508 62.3518 71.7008 62.4796 71.0654 62.6381C67.1014 64.1207 64.5493 67.6212 64.9649 71.3961C64.9728 71.4494 65.0208 71.4534 65.0741 71.4334C65.122 71.2482 65.166 71.0631 65.2286 70.8793C65.3525 68.7561 65.9892 66.7461 67.6608 65.0038C69.3085 63.2842 71.9419 62.489 74.4874 62.1533C73.9079 62.18 73.2766 62.2159 73.0195 62.2545Z" fill="#81400F"/>
<mask id="mask0_7_6672" style="mask-type:luminance" maskUnits="userSpaceOnUse" x="65" y="63" width="17" height="11">
<path d="M68.6743 73.1957C66.2793 73.0985 65.8504 71.6066 66.0116 70.7675C66.318 67.4508 68.4199 64.5683 72.8927 63.7531C77.3989 62.9366 79.8258 66.1987 81.4056 68.9812C80.994 71.1018 75.4568 72.7188 72.288 73.0052C71.3889 73.0851 69.7892 73.2183 68.6743 73.1957Z" fill="white"/>
</mask>
<g mask="url(#mask0_7_6672)">
<path d="M76.1134 66.4854C76.3426 69.834 74.4471 72.6872 71.8763 72.859C69.3056 73.0308 67.0372 70.4521 66.8054 67.1048C66.5763 63.7535 68.4717 60.899 71.0425 60.7298C73.6133 60.558 75.883 63.1367 76.1134 66.4854Z" fill="#220300"/>
<path d="M71.0717 61.1505C68.7193 61.3063 66.9851 63.9184 67.1955 66.9847C67.406 70.0496 69.4826 72.4059 71.8336 72.2501C74.1859 72.0929 75.9215 69.4835 75.711 66.4173C75.5006 63.351 73.4227 60.9933 71.0717 61.1505Z" fill="#7F4A23"/>
<path d="M74.3206 66.2659C74.4644 68.3785 73.2683 70.1794 71.6459 70.2886C70.0235 70.3952 68.593 68.7701 68.4478 66.6575C68.3039 64.5436 69.5001 62.7454 71.1211 62.6362C72.7422 62.531 74.1741 64.1534 74.3206 66.2659Z" fill="#0A000B"/>
<path d="M70.6084 65.2692C70.4632 66.2269 69.8585 66.9275 69.2577 66.8396C68.6583 66.7517 68.2907 65.9032 68.4372 64.9469C68.5837 63.9918 69.1871 63.2885 69.7879 63.3778C70.3886 63.467 70.7549 64.3155 70.6084 65.2692Z" fill="#FFFAE2"/>
<path d="M73.9677 69.3588C71.3876 72.4863 68.4972 70.3858 68.1296 66.9758C68.1202 66.8799 67.5382 67.4713 67.5475 67.5366C67.8059 69.4187 68.7037 71.0731 70.5991 71.7364C72.2361 72.3065 73.6094 71.2182 74.4006 69.9475C74.4646 69.8463 74.0357 69.2749 73.9677 69.3588Z" fill="#7F4A23"/>
<path d="M74.6203 64.665C74.6203 64.665 75.273 66.8215 74.302 68.7969L74.7322 69.0114C74.7322 69.0114 76.0043 67.1732 74.6203 64.665Z" fill="#7F4A23"/>
</g>
<path d="M29.6533 69.2131C29.9224 69.3423 30.4126 69.7486 30.6763 69.8765C30.4472 67.6786 32.4266 65.6407 34.1155 64.4259C35.6407 63.3283 37.4242 62.4878 39.337 62.6357C38.6151 62.4598 37.8731 62.316 37.1246 62.1788C41.2151 61.8791 44.7689 63.4815 47.1106 66.3493C48.34 68.3114 48.9954 70.9287 48.3933 73.1492C47.7007 75.7093 42.5338 74.6277 40.7849 74.328C37.6467 73.7886 33.2671 72.7376 30.5045 70.6144C30.1515 70.1948 29.8611 69.7313 29.6533 69.2131Z" fill="#FAD6BE"/>
<path d="M32.8954 71.3178C35 72.6604 38.0516 73.3491 40.376 73.6142C42.4819 73.8539 44.7143 74.083 46.7549 73.5915C47.4929 73.4157 47.5328 72.8256 47.4356 72.2582C47.7886 68.8269 46.0423 64.992 41.5774 63.8838C39.3969 63.3404 37.5121 63.355 35.5368 64.3008C33.5148 65.2691 32.645 66.5212 31.8578 68.1223C31.6553 68.5965 31.1172 69.4396 30.9653 69.9272C31.3783 70.5532 32.8794 71.3045 32.8954 71.3178Z" fill="#81400F"/>
<path d="M40.192 62.5715C40.8593 62.6754 41.508 62.8112 42.1394 62.975C46.0901 64.4975 48.605 68.018 48.1534 71.7889C48.1467 71.8449 48.0974 71.8462 48.0455 71.8275C47.9989 71.6411 47.9563 71.4559 47.895 71.2708C47.7938 69.1435 47.1757 67.1322 45.5227 65.3713C43.891 63.6344 41.2656 62.8165 38.7241 62.4556C39.3022 62.4875 39.9336 62.5302 40.192 62.5715Z" fill="#81400F"/>
<path d="M40.817 73.317C37.6522 73.0014 32.1297 71.3337 31.7407 69.2091C33.3471 66.4412 35.806 63.2018 40.3042 64.0649C44.7691 64.9201 46.8417 67.8225 47.1161 71.1419C47.2666 71.9837 46.8243 73.4702 44.4281 73.5448C43.3118 73.5555 41.7148 73.4063 40.817 73.317Z" fill="white"/>
<mask id="mask1_7_6672" style="mask-type:luminance" maskUnits="userSpaceOnUse" x="31" y="63" width="17" height="11">
<path d="M40.8168 73.3126C37.6519 72.997 32.1294 71.3293 31.7405 69.2047C33.3469 66.4368 35.8058 63.1974 40.3039 64.0605C44.7688 64.9157 46.8414 67.8181 47.1158 71.1375C47.2663 71.9793 46.8241 73.4658 44.4278 73.5404C43.3116 73.5511 41.7145 73.4019 40.8168 73.3126Z" fill="white"/>
</mask>
<g mask="url(#mask1_7_6672)">
<path d="M42.6457 67.3974C42.3819 70.7461 40.0882 73.2996 37.5188 73.1037C34.9494 72.9066 33.0819 70.0348 33.3456 66.6875C33.6094 63.3415 35.9031 60.7867 38.4725 60.9838C41.0406 61.1783 42.9094 64.0501 42.6457 67.3974Z" fill="#220300"/>
<path d="M38.4392 61.3989C36.0883 61.2191 33.9877 63.5554 33.7492 66.619C33.5081 69.6813 35.2171 72.3093 37.5681 72.4891C39.9178 72.6676 42.017 70.3313 42.2581 67.269C42.4992 64.2028 40.7889 61.5774 38.4392 61.3989Z" fill="#7F4A23"/>
<path d="M40.9033 66.9294C40.7368 69.0406 39.2889 70.6511 37.6692 70.5272C36.0468 70.4046 34.8693 68.5944 35.0345 66.4832C35.201 64.372 36.6489 62.7603 38.2699 62.8841C39.8896 63.008 41.0698 64.8195 40.9033 66.9294Z" fill="#0A000B"/>
<path d="M37.3778 65.4139C37.094 66.3383 36.3921 66.947 35.8113 66.7739C35.2319 66.5994 34.9908 65.7096 35.2759 64.7825C35.5609 63.8594 36.2615 63.2507 36.8423 63.4212C37.4231 63.597 37.6615 64.4868 37.3778 65.4139Z" fill="#FFFAE2"/>
<path d="M40.103 69.9399C37.09 72.6679 34.5379 70.1784 34.6764 66.7498C34.6804 66.6565 34.0171 67.1587 34.0171 67.2226C33.9971 69.1234 34.6418 70.887 36.4213 71.8114C37.9571 72.6093 39.4769 71.7275 40.4453 70.5833C40.5226 70.4927 40.1816 69.868 40.103 69.9399Z" fill="#7F4A23"/>
<path d="M41.4364 65.3838C41.4364 65.3838 41.7668 67.6109 40.5173 69.4264L40.9116 69.6982C40.9116 69.6982 42.4381 68.0625 41.4364 65.3838Z" fill="#7F4A23"/>
</g>
<path d="M52.9101 71.0811C52.9101 71.0811 54.5764 73.2789 54.7882 74.836C54.7882 74.836 54.2581 79.5792 51.9031 82.3618C51.9031 82.3618 54.033 78.1447 53.6094 74.7973L52.9101 71.0811Z" fill="#AC641B"/>
<path d="M57.868 87.2325C56.7877 87.5522 55.1453 86.8276 53.455 86.0564C51.7727 85.2878 50.2769 84.0637 51.4783 82.6997C51.4783 82.6997 51.4117 84.0104 55.9858 84.6351C55.9858 84.6351 57.0475 85.0294 59.9379 84.049C59.9379 84.049 58.3555 85.6355 56.179 85.477C54.0038 85.3158 52.5786 84.378 52.5786 84.378C52.5786 84.378 53.7308 85.7101 56.7278 86.6545C56.7278 86.6545 57.6588 87.3098 59.9246 85.6008C59.9272 85.6035 58.9509 86.9062 57.868 87.2325Z" fill="#AC641B"/>
<path d="M57.868 87.2325C56.7877 87.5522 55.1453 86.8276 53.455 86.0564C51.7727 85.2878 50.2769 84.0637 51.4783 82.6997C51.4783 82.6997 51.4117 84.0104 55.9858 84.6351C55.9858 84.6351 57.0475 85.0294 59.9379 84.049C59.9379 84.049 62.891 82.4813 59.9259 85.6008C59.9272 85.6035 58.9509 86.9062 57.868 87.2325Z" fill="#FAD6BE"/>
<path d="M54.687 80.1607C55.1958 78.6475 55.9391 77.161 55.9471 75.5586C55.9577 73.5419 55.0986 72.3191 53.8905 70.9512C53.8691 71.0045 53.8625 71.0577 53.8825 71.1043C54.1502 71.6771 54.4059 72.2206 54.6337 72.7467C55.0813 74.2732 55.1892 75.7757 54.7563 77.454C54.3553 79.0031 53.4003 80.3005 52.9021 81.7751C53.5335 81.2596 54.1342 80.7308 54.687 80.1607Z" fill="#FAEDE6"/>
<path d="M57.4804 83.5326C58.0305 82.828 56.4707 82.5203 56.1177 82.5336C55.6355 82.5523 55.172 82.6721 54.7018 82.7614C54.558 83.0211 54.5739 83.3874 54.807 83.6192C55.0907 83.8989 55.4637 84.1227 55.8593 84.2293C56.4787 84.2426 57.0941 84.0281 57.4804 83.5326Z" fill="#FAEDE6"/>
<path d="M72.1443 56.5269C70.3421 57.125 68.6984 58.0108 67.0254 58.8886C66.3328 59.2522 65.6321 59.6105 64.9462 59.9875C65.6401 59.6079 61.054 61.3061 61.4856 59.761C61.5082 59.6811 61.4097 59.6758 61.3644 59.7064C61.3204 59.7371 61.2778 59.7677 61.2325 59.7983C61.1753 59.837 61.1073 59.9169 61.1193 59.9915C61.5735 62.786 64.2482 61.5526 65.8359 60.7467C70.1503 58.5595 75.1293 55.5692 79.5489 59.472C79.7101 59.6145 79.9406 59.3401 79.9006 59.1843C79.1347 56.1127 74.6538 55.6944 72.1443 56.5269Z" fill="#FAD6BE"/>
<path d="M39.3368 57.7102C41.4641 57.9154 43.4194 57.3572 45.4254 58.0352C47.4128 58.7052 51.0079 62.588 52.533 60.3809C52.6476 60.2171 53.0259 60.566 52.858 60.6979C52.7994 60.7445 52.7422 60.7898 52.6835 60.8364C52.6303 60.8764 52.549 60.8111 52.5397 60.7565C53.0938 64.7858 47.8737 60.8458 46.0302 60.2424C40.5783 58.4548 35.8377 57.9633 30.9612 61.7901C30.8027 61.914 30.523 61.6663 30.5962 61.4918C32.0361 58.1005 36.0055 57.3892 39.3368 57.7102Z" fill="#FAD6BE"/>
<path d="M33.1564 57.271C33.8304 56.6356 34.599 56.1361 35.4608 55.875C37.4721 55.0492 39.8458 54.8947 42.298 55.3636C44.0975 55.7072 51.4116 58.7922 52.5971 59.9896C52.6717 60.0642 52.8595 60.0469 52.8475 60.1535C52.8168 60.5211 52.629 60.7729 52.4745 61.0925C52.2574 61.5428 51.8884 62.0156 51.3996 62.1754C51.3476 62.1941 51.285 62.1808 51.2198 62.1541C51.1745 62.2114 51.1385 62.2807 51.0866 62.3339C47.2317 60.1361 44.0123 57.8598 39.3316 58.1475C36.0722 58.3513 32.6996 59.2304 30.4312 61.4495C31.0092 59.6686 31.9576 58.2873 33.1564 57.271Z" fill="#424241"/>
<path d="M35.6034 57.4587C38.9721 55.9948 42.3314 56.6302 45.5815 58.0568C46.8229 58.6016 48.1469 59.1437 49.1912 60.0242C49.6694 60.4291 50.2222 61.0059 50.8243 61.243C51.4836 61.5 52.0617 61.3176 52.5519 60.9473C52.5266 60.9952 52.5013 61.0405 52.476 61.0911C52.2588 61.5413 51.8899 62.0142 51.401 62.174C51.3491 62.1927 51.2865 62.1794 51.2212 62.1527C51.1759 62.21 51.1399 62.2792 51.088 62.3325C47.2332 60.1347 44.0137 57.8584 39.333 58.1461C36.8489 58.3019 34.3021 58.8533 32.2268 60.0894C33.1672 59.0252 34.2035 58.0661 35.6034 57.4587Z" fill="#424241"/>
<path d="M80.1762 58.6618C80.1203 58.5645 80.063 58.4753 80.0057 58.382C80.0044 58.3754 80.0071 58.3701 80.0057 58.3661C79.9711 58.3048 79.9325 58.2541 79.8952 58.1942C79.8432 58.1143 79.7913 58.0357 79.7406 57.9558C79.7193 57.9292 79.702 57.8999 79.6807 57.8719C75.9618 52.4493 69.5002 55.0693 64.1322 57.0833C63.6567 57.2458 63.1625 57.4243 62.6377 57.6201C62.635 57.5908 62.639 57.5575 62.639 57.5269C62.6204 57.5402 62.6017 57.5508 62.5831 57.5628C62.1022 57.9211 61.1672 58.5405 61.1125 59.2119C61.4282 60.6131 62.3753 61.5975 64.2108 60.5772C66.5085 59.3038 68.8981 58.2781 71.4249 57.5122C73.6707 56.8316 75.4996 56.9648 77.3457 57.7107C78.101 58.0717 78.8549 58.5326 79.6514 59.0867C79.8752 59.2465 80.3174 58.9135 80.1762 58.6618Z" fill="#424241"/>
<path d="M73.8106 55.8237C71.3477 55.9862 68.8942 57.0718 66.719 58.1454C64.7357 59.1217 62.9015 60.5829 61.2258 59.5933C61.6228 60.7774 62.5498 61.502 64.2122 60.5789C66.5099 59.3055 68.8995 58.2799 71.4263 57.514C73.6721 56.8333 75.5009 56.9665 77.3471 57.7125C78.1023 58.0734 78.8563 58.5343 79.6528 59.0884C79.7061 59.1257 79.7727 59.1337 79.8419 59.1231C78.2462 57.478 76.2029 55.6652 73.8106 55.8237Z" fill="#424241"/>
<path d="M61.5694 62.2747C59.6007 61.9684 58.6497 60.7363 58.9054 57.5515C58.9187 57.3903 58.7203 57.4982 58.6909 57.5928C58.2354 59.0966 58.1568 60.3686 58.9787 61.7446C59.5101 62.6384 60.4492 63.2897 61.4722 62.7436C61.6174 62.6663 61.8744 62.32 61.5694 62.2747Z" fill="#E9C8B2"/>
<path d="M55.1532 59.8577C54.7616 60.4505 54.1076 61.4894 54.4233 62.2154C54.5192 62.4338 54.8375 62.2074 54.8895 62.0689C55.0147 61.7319 55.0253 61.9356 55.1039 61.588C55.1918 61.2017 55.3077 60.264 55.3823 59.8764C55.4143 59.7125 55.2065 59.7752 55.1532 59.8577Z" fill="#E9C8B2"/>
<path d="M69.531 98.2576C69.8187 97.7994 70.1144 97.3451 70.4381 96.9082C70.4354 96.8816 70.4394 96.8536 70.4341 96.827C69.8813 96.0464 69.154 95.435 68.4441 94.7943C68.472 95.0394 68.4774 95.2846 68.3708 95.5456C68.2603 95.8214 67.9712 95.9945 67.6795 95.8333C66.1797 95.0048 64.516 94.1803 63.5156 92.7524C61.5816 91.8892 59.6195 91.3098 57.1686 91.7361C56.3987 91.9971 55.6182 92.2249 54.8456 92.4727C53.8732 92.8949 52.9329 93.4091 52.0164 93.8686C50.8722 94.448 48.131 96.5739 46.8576 95.7933C46.2502 95.828 45.772 95.6495 45.5575 95.178C45.2219 95.7468 45.0221 96.3888 44.9155 97.0428C45.0674 97.6275 45.5789 98.0751 46.5486 98.1337C48.4227 98.2469 50.795 96.6245 52.5426 96.0891C55.3265 95.2379 58.4354 95.832 61.2379 96.2835C63.7274 96.6845 66.7937 96.6552 68.5853 98.508C68.7251 98.6532 68.8743 98.7184 69.0208 98.7358C69.1953 98.5813 69.3618 98.4187 69.531 98.2576Z" fill="#FAD6BE"/>
<path d="M58.1437 100.083C59.0801 100.104 60.2043 100.097 61.1008 100.406C61.1927 100.438 61.2886 100.485 61.3832 100.525C60.5746 99.3768 59.4384 98.5497 58.0252 98.2726C56.7358 98.0208 55.4025 98.7455 54.2796 99.5047C53.9612 99.875 53.6815 100.276 53.4231 100.697C54.9842 100.329 56.4947 100.044 58.1437 100.083Z" fill="#FAD6BE"/>
<path d="M67.7741 96.2286C65.9892 93.5419 62.3422 91.713 59.1027 91.7597C57.3045 91.7863 55.4903 92.7933 53.9026 93.5113C53.3351 93.767 52.769 94.0321 52.2083 94.3078C51.4317 94.5409 47.6728 96.1819 46.482 96.09C46.2395 96.07 45.9905 95.8915 46.0091 95.6225C46.0278 95.3774 45.9958 95.0924 45.9785 94.8046C45.6708 95.2362 45.3604 95.6984 45.1526 96.1633C45.0567 96.3791 45.082 96.5549 45.1713 96.7001C46.6818 97.7204 49.515 95.8689 50.9229 95.3854C51.3438 95.2415 51.7474 95.1376 52.1443 95.0604C52.2416 95.0111 52.3388 94.9618 52.44 94.9139C54.9762 94.1306 57.9345 94.9192 60.524 95.1203C62.0718 95.2402 66.6898 96.4643 67.577 96.4603C67.6635 96.459 67.8434 96.3325 67.7741 96.2286Z" fill="#9E4C0B"/>
<path d="M66.0572 95.7254C65.4045 95.451 61.3672 94.5785 59.962 94.4373C58.1211 94.2535 56.271 93.8499 54.4714 94.0164C55.4065 93.6355 56.3496 93.2772 57.3153 92.9935C60.5001 92.0637 64.259 93.5596 66.6779 95.5722C67.7888 96.4953 66.3662 95.8573 66.0572 95.7254Z" fill="white"/>
<path d="M57.0367 98.9531C58.2662 98.9824 59.7953 99.053 60.8569 99.7656L60.8596 99.7643C60.5293 99.4246 60.1749 99.0876 59.798 98.7879C58.9322 98.2724 58.113 97.8729 56.9395 98.0087C56.6398 98.0433 56.3215 98.0939 56.0018 98.1672C55.9791 98.1805 55.9578 98.1872 55.9338 98.2005C55.3038 98.5601 54.7444 98.9971 54.1982 99.4539C55.0894 99.0983 56.0604 98.9304 57.0367 98.9531Z" fill="#9E4C0B"/>
<path d="M70.213 96.1625C69.9866 95.7163 69.5523 95.4898 69.0835 95.3566C68.9156 95.306 68.6399 95.5205 68.7278 95.7057C68.8704 95.9987 69.0328 96.4969 68.9676 96.8179C68.8917 97.1948 68.7332 97.5265 68.8997 97.9048C69.0622 98.2738 69.5723 97.9607 69.7148 97.7503C69.9826 97.352 70.4701 96.6674 70.213 96.1625Z" fill="#9E4C0B"/>
<path d="M52.2442 93.3256C52.3641 93.2617 52.4813 93.1964 52.6012 93.1378C53.5016 92.6889 54.4714 92.3599 55.4597 92.1148C56.183 91.7752 56.8983 91.4142 57.6015 91.0599C56.4241 90.976 55.3585 91.293 54.2596 91.7419C53.0954 92.2174 52.0191 93.0872 50.8523 93.5707C51.3172 93.5254 51.782 93.4402 52.2442 93.3256Z" fill="#FAEDE6"/>
<path d="M57.6402 97.061C56.7132 97.085 55.2959 97.2355 54.6765 97.8962C55.3225 97.9761 55.9752 98.0014 56.6266 98.0067C57.1141 97.9801 57.591 97.9108 58.0079 97.6045C58.0412 97.5792 58.0838 97.5312 58.1198 97.474C57.9826 97.3314 57.8201 97.1916 57.6402 97.061Z" fill="#FAEDE6"/>
</svg>
