<svg width="121" height="122" viewBox="0 0 121 122" fill="none" xmlns="http://www.w3.org/2000/svg">
<path d="M30.5222 70.0288C27.5066 71.1344 24.6414 72.5183 22.1693 74.3365C20.1433 75.8256 18.5516 77.6918 17.3581 79.7724C17.0597 80.2918 16.8533 80.81 16.6868 81.3321C16.6801 81.1084 16.6841 80.8846 16.6814 80.6635C16.463 81.2708 16.2925 81.8956 16.158 82.5256C16.1859 82.9918 16.2232 83.454 16.2685 83.9188C16.2539 85.3281 16.5176 86.756 16.8253 88.2332C16.8479 88.3411 16.9252 88.3744 17.0158 88.3664C17.2076 89.1722 17.4207 89.9768 17.6711 90.7733C18.9405 94.7959 21.1796 98.5002 23.5199 102.089C25.2249 104.703 26.9258 107.467 29.8509 109.134C30.0334 109.237 30.2398 108.968 30.2465 108.836C30.2798 108.216 30.0387 107.584 29.727 106.956C29.9614 107.323 30.2145 107.688 30.4916 108.053C31.6677 109.598 33.1316 110.869 34.7873 111.92C38.8072 113.532 43.0563 114.521 47.3973 114.501C32.5855 105.578 28.1686 86.7134 30.5222 70.0288Z" fill="#1F1F1D"/>
<path d="M46.313 117.828C44.1525 117.92 42.016 117.72 39.9167 117.283C42.3183 118.068 44.8558 118.595 47.4292 118.927C47.0336 118.589 46.666 118.216 46.313 117.828Z" fill="#1F1F1D"/>
<path d="M70.8244 113.779C75.8474 112.339 80.6572 110.166 84.929 107.338C84.7545 107.54 84.5773 107.741 84.3908 107.936C83.9886 108.353 83.4038 108.898 83.264 109.458C82.8031 111.305 88.0605 108.31 88.6679 107.972C97.1807 103.249 103.785 94.239 103.707 84.8351C103.666 79.8934 101.135 75.3047 96.8983 72.3663C94.1237 70.4416 90.7498 69.2867 87.3039 68.4263C87.196 69.3001 87.0495 70.1725 86.9229 71.025C86.4155 74.4988 85.7455 77.994 84.873 81.4066C83.3252 87.4578 81.2407 93.4571 77.9693 98.9103C76.291 101.709 74.3782 104.357 72.2204 106.856C70.4035 108.96 68.2284 111.588 65.647 112.922C65.5924 112.95 65.5378 112.975 65.4832 113.005C66.9457 113.61 68.8518 113.809 70.8244 113.779Z" fill="#1F1F1D"/>
<path d="M25.979 83.6574C27.5641 77.3197 26.2854 71.3777 22.7849 66.3028C21.9804 63.5655 20.5392 60.9681 17.9245 61.9725C15.7893 62.793 14.6677 64.3914 14.3081 66.3734C14.4906 68.6631 15.1419 70.9195 15.6987 73.1905C15.7466 73.3357 15.7986 73.4849 15.8386 73.6301C16.4127 75.6427 16.6031 77.7007 17.076 79.732C17.6474 82.1842 18.372 84.3473 20.7683 85.4515C22.685 86.3333 25.4076 85.9471 25.979 83.6574Z" fill="#9E4C0B"/>
<path d="M21.5819 84.6844C18.2786 83.9292 17.847 80.0624 17.4341 77.4983C16.9226 74.3268 13.213 66.1976 16.5057 63.6749C16.7868 63.2579 17.1464 62.9076 17.6126 62.6679C19.3961 61.7448 20.8214 63.0515 21.6072 64.6179C21.7538 64.847 21.8976 65.0974 22.0455 65.3771C22.5463 66.3229 22.9526 67.2872 23.2816 68.2649C24.9412 71.3138 25.9496 74.5799 25.7538 78.3548C25.6179 80.9615 25.6299 85.6088 21.5819 84.6844Z" fill="#F9CEB2"/>
<path d="M21.5819 84.6844C18.2786 83.9292 17.847 80.0624 17.4341 77.4983C16.9226 74.3268 13.213 66.1976 16.5057 63.6749C16.7868 63.2579 17.1464 62.9076 17.6126 62.6679C19.3961 61.7448 20.8214 63.0515 21.6072 64.6179C21.7538 64.847 21.8976 65.0974 22.0455 65.3771C22.5463 66.3229 22.9526 67.2872 23.2816 68.2649C24.9412 71.3138 25.9496 74.5799 25.7538 78.3548C25.6179 80.9615 25.6299 85.6088 21.5819 84.6844Z" fill="#FAD6BE"/>
<path d="M18.3026 74.1633C18.5223 74.4537 18.9726 74.4603 19.2043 74.1953C20.3299 72.9179 20.3951 70.3898 19.5733 68.9312C19.3362 68.5077 18.6795 67.8417 18.1654 67.7351C17.0505 67.506 16.4444 68.5676 16.1727 69.4334C16.2713 69.1177 16.0821 68.5836 16.1221 68.2346C16.1647 67.8204 16.2899 67.4114 16.5137 67.0558C16.8773 66.4777 17.6792 66.0408 18.4105 66.3725C19.5919 66.9079 20.0755 68.2586 20.3791 69.3508C20.6948 70.4857 20.888 71.6538 20.9133 72.8247C20.9373 74.0235 20.7281 75.1783 20.5243 76.3518C20.5097 76.437 20.499 76.5263 20.483 76.6128C20.479 76.6421 20.4604 76.6515 20.4431 76.6595C20.2859 77.2469 20.0928 77.8023 19.861 78.3018C19.7731 78.491 19.5107 78.1779 19.5307 78.0514C19.7398 76.6768 19.8224 75.2822 19.8503 73.8876C19.7251 74.3405 19.532 74.9678 19.1297 75.117C18.2959 75.4274 17.855 73.9395 17.5047 72.9618C17.7578 73.3588 18.0029 73.7651 18.3026 74.1633Z" fill="#9E4C0B"/>
<path d="M93.4724 85.4515C95.8687 84.3473 96.5933 82.1842 97.166 79.732C97.6376 77.7007 97.8294 75.6427 98.4035 73.6301C98.4434 73.4849 98.4954 73.3357 98.5446 73.1905C99.1001 70.9195 99.7528 68.6617 99.9339 66.3734C99.5743 64.3927 98.4527 62.793 96.3176 61.9725C93.7042 60.9681 92.2629 63.5655 91.4584 66.3028C87.9566 71.379 86.6792 77.3197 88.2643 83.6574C88.8344 85.9484 91.557 86.3347 93.4724 85.4515Z" fill="#9E4C0B"/>
<path d="M88.4895 78.3597C88.295 74.5848 89.3033 71.3187 90.963 68.2698C91.292 67.2921 91.6982 66.3277 92.1977 65.382C92.3442 65.1023 92.4894 64.8519 92.6359 64.6228C93.4218 63.0564 94.8471 61.7497 96.6306 62.6728C97.0955 62.9125 97.4565 63.2628 97.7362 63.6797C101.03 66.2012 97.3192 74.3317 96.8078 77.5032C96.3962 80.0673 95.9633 83.9327 92.6613 84.6893C88.6133 85.6124 88.624 80.965 88.4895 78.3597Z" fill="#F9CEB2"/>
<path d="M88.4895 78.3597C88.295 74.5848 89.3033 71.3187 90.963 68.2698C91.292 67.2921 91.6982 66.3277 92.1977 65.382C92.3442 65.1023 92.4894 64.8519 92.6359 64.6228C93.4218 63.0564 94.8471 61.7497 96.6306 62.6728C97.0955 62.9125 97.4565 63.2628 97.7362 63.6797C101.03 66.2012 97.3192 74.3317 96.8078 77.5032C96.3962 80.0673 95.9633 83.9327 92.6613 84.6893C88.6133 85.6124 88.624 80.965 88.4895 78.3597Z" fill="#FAD6BE"/>
<path d="M95.939 74.1633C95.7206 74.4537 95.269 74.4603 95.0373 74.1953C93.9131 72.9179 93.8478 70.3898 94.6696 68.9312C94.9054 68.5077 95.5634 67.8417 96.0776 67.7351C97.1924 67.506 97.7972 68.5676 98.0702 69.4334C97.9717 69.1177 98.1595 68.5836 98.1222 68.2346C98.0795 67.8204 97.9544 67.4114 97.7306 67.0558C97.3669 66.4777 96.5651 66.0408 95.8338 66.3725C94.6523 66.9079 94.1688 68.2586 93.8651 69.3508C93.5494 70.4857 93.355 71.6538 93.331 72.8247C93.307 74.0235 93.5161 75.1783 93.7186 76.3518C93.7332 76.437 93.7439 76.5263 93.7599 76.6128C93.7639 76.6421 93.7825 76.6515 93.7985 76.6595C93.957 77.2469 94.1502 77.8023 94.3806 78.3018C94.4685 78.491 94.7309 78.1779 94.7109 78.0514C94.5018 76.6768 94.4192 75.2822 94.3913 73.8876C94.5165 74.3405 94.7096 74.9678 95.1119 75.117C95.9457 75.4274 96.3853 73.9395 96.7369 72.9618C96.4838 73.3588 96.2387 73.7651 95.939 74.1633Z" fill="#9E4C0B"/>
<path d="M95.3798 49.1242C95.2267 44.8659 94.7232 40.5942 94.1344 36.3637C94.0745 32.9898 93.9693 29.3188 92.0285 26.4817C89.9946 23.5047 86.4075 21.6518 83.232 20.1827C74.646 16.2066 65.4766 14.3086 56.082 13.6172C48.4816 13.0591 41.4287 13.8211 34.5449 17.3016C29.7751 19.7138 25.502 23.4247 23.1377 28.1933C23.1018 28.1147 22.9606 28.1027 22.9246 28.2119C22.7368 28.7714 22.5596 29.3335 22.3932 29.8929C22.0615 30.7667 21.7884 31.6711 21.59 32.6062C21.5766 32.6648 21.6006 32.7034 21.6326 32.7354C20.9786 35.5019 20.5683 38.3071 20.4245 41.2002C20.1727 46.2192 20.8214 51.2568 20.8867 56.2757C20.9106 58.0713 20.9213 59.8655 20.9333 61.6637C21.8191 65.7316 21.3116 70.6653 21.2849 74.7439C21.2703 76.923 21.1904 79.1221 21.1744 81.3213C21.2703 82.7478 21.4261 84.1717 21.6832 85.5796C23.2083 93.9552 29.0971 100.513 36.5323 104.374C38.3838 105.334 49.6271 113.208 61.7203 112.305C68.8052 109.773 75.0736 105.109 81.5284 100.906C84.1538 98.9795 86.7166 96.7964 88.5494 94.1071C90.5767 91.1341 91.8088 87.8347 92.556 84.3289C92.7598 83.3699 92.9143 82.4068 93.0475 81.4385C92.9596 75.571 93.5084 69.5011 94.0478 63.6723C94.0345 63.6963 94.0185 63.7203 94.0052 63.7442C94.0292 63.4006 94.0545 63.0556 94.0838 62.7119C94.4754 58.1046 95.545 53.7849 95.3798 49.1242Z" fill="#F9CEB2"/>
<path d="M95.3798 49.1242C95.2267 44.8659 94.7232 40.5942 94.1344 36.3637C94.0745 32.9898 93.9693 29.3188 92.0285 26.4817C89.9946 23.5047 86.4075 21.6518 83.232 20.1827C74.646 16.2066 65.4766 14.3086 56.082 13.6172C48.4816 13.0591 41.4287 13.8211 34.5449 17.3016C29.7751 19.7138 25.502 23.4247 23.1377 28.1933C23.1018 28.1147 22.9606 28.1027 22.9246 28.2119C22.7368 28.7714 22.5596 29.3335 22.3932 29.8929C22.0615 30.7667 21.7884 31.6711 21.59 32.6062C21.5766 32.6648 21.6006 32.7034 21.6326 32.7354C20.9786 35.5019 20.5683 38.3071 20.4245 41.2002C20.1727 46.2192 20.8214 51.2568 20.8867 56.2757C20.9106 58.0713 20.9213 59.8655 20.9333 61.6637C21.8191 65.7316 21.3116 70.6653 21.2849 74.7439C21.2703 76.923 21.1904 79.1221 21.1744 81.3213C21.2703 82.7478 21.4261 84.1717 21.6832 85.5796C23.2083 93.9552 29.0971 100.513 36.5323 104.374C38.3838 105.334 49.6271 113.208 61.7203 112.305C68.8052 109.773 75.0736 105.109 81.5284 100.906C84.1538 98.9795 86.7166 96.7964 88.5494 94.1071C90.5767 91.1341 91.8088 87.8347 92.556 84.3289C92.7598 83.3699 92.9143 82.4068 93.0475 81.4385C92.9596 75.571 93.5084 69.5011 94.0478 63.6723C94.0345 63.6963 94.0185 63.7203 94.0052 63.7442C94.0292 63.4006 94.0545 63.0556 94.0838 62.7119C94.4754 58.1046 95.545 53.7849 95.3798 49.1242ZM85.8694 90.5293C82.7605 95.1394 78.5767 98.7104 74.1638 102.024C69.5604 105.482 64.2205 109.147 58.2891 109.586C52.4323 110.019 46.437 107.522 41.438 104.668C36.5576 101.879 31.3215 98.3188 27.9223 93.7541C21.6552 85.3399 21.8524 73.3706 24.3885 63.6443C24.5137 63.1621 25.1584 63.2101 25.3036 63.6443C25.7045 64.8365 26.1241 66.0206 26.6835 67.1248C26.6635 58.5814 33.7071 52.405 40.6974 48.1266C45.077 45.444 49.6791 42.9971 54.3437 40.8526C57.4366 39.4313 60.68 38.0807 63.4399 36.052C66.3077 33.9408 67.9274 31.0424 70.2544 28.4437C70.4809 28.1893 70.987 28.3078 71.047 28.6568C71.9061 33.7996 73.0356 38.9878 75.5145 43.6271C77.9467 48.1799 81.2633 52.1425 84.1871 56.373C87.7222 61.4918 90.6233 67.0862 90.5847 73.4651C90.5474 79.4018 89.2287 85.5503 85.8694 90.5293Z" fill="#FAD6BE"/>
<path d="M95.3798 49.1242C95.2267 44.8659 94.7232 40.5942 94.1344 36.3637C94.0745 32.9898 93.9693 29.3188 92.0285 26.4817C89.9946 23.5047 86.4075 21.6518 83.232 20.1827C74.646 16.2066 65.4766 14.3086 56.082 13.6172C48.4816 13.0591 41.4287 13.8211 34.5449 17.3016C29.7751 19.7138 25.502 23.4247 23.1377 28.1933C23.1018 28.1147 22.9606 28.1027 22.9246 28.2119C22.7368 28.7714 22.5596 29.3335 22.3932 29.8929C22.0615 30.7667 21.7884 31.6711 21.59 32.6062C21.5766 32.6648 21.6006 32.7034 21.6326 32.7354C20.9786 35.5019 20.5683 38.3071 20.4245 41.2002C20.1727 46.2192 20.8214 51.2568 20.8867 56.2757C20.9106 58.0713 20.9213 59.8655 20.9333 61.6637C21.8191 65.7316 21.3116 70.6653 21.2849 74.7439C21.2703 76.923 21.1904 79.1221 21.1744 81.3213C21.2703 82.7478 21.4261 84.1717 21.6832 85.5796C23.2083 93.9552 29.0971 100.513 36.5323 104.374C38.85 105.578 48.6934 112.45 56.2805 112.719C57.6391 112.767 60.3177 112.78 61.6231 112.315C68.7439 109.79 75.0456 105.125 81.5271 100.907C84.1525 98.9808 86.7152 96.7977 88.548 94.1084C90.5753 91.1354 91.8074 87.836 92.5547 84.3302C92.7585 83.3712 93.4018 80.3915 93.5364 79.4232C93.4551 73.9606 93.4325 70.3403 93.9346 64.8844C93.9386 64.8165 93.9386 64.7472 93.9426 64.6806C93.9466 64.674 93.9506 64.6673 93.9546 64.6606C93.9839 64.3303 94.0159 64.004 94.0452 63.6736C94.0319 63.6976 94.0159 63.7216 94.0026 63.7456C94.0265 63.4019 94.0518 63.0569 94.0812 62.7133C94.4754 58.1046 95.545 53.7849 95.3798 49.1242ZM93.5763 60.6727C92.6945 66.7146 93.0702 72.8657 92.5587 78.949C92.5201 79.0275 92.5067 79.1168 92.532 79.2087C92.4681 79.9386 92.3988 80.6699 92.3043 81.3972C91.8554 84.8617 90.9496 88.2463 89.3592 91.3632C87.5104 94.9862 84.5281 97.6995 81.338 100.133C78.1665 102.552 74.7313 104.624 71.32 106.688C67.6863 108.883 63.6344 111.552 59.4093 112.108C58.084 112.102 56.7866 111.881 55.4013 111.82C47.9715 111.494 30.6555 100.974 27.5826 96.3635C24.8467 92.2623 22.8474 88.2796 22.244 83.4311C21.7152 79.1514 21.903 74.8064 21.8324 70.5054C21.7498 65.4985 21.7711 60.4915 21.6965 55.4859C21.6273 50.9198 21.0558 46.391 21.1025 41.8196C21.1424 38.1446 21.6419 34.4936 22.4731 30.9172C24.7242 25.1204 29.4674 20.8247 34.9818 17.9942C41.4274 14.6829 48.2618 13.9836 55.3827 14.4364C64.3923 15.0052 72.9557 16.826 81.2953 20.2879C84.592 21.6559 87.8927 23.3355 90.4168 25.9062C93.4991 29.0431 92.8158 33.4693 93.571 37.4333C93.587 37.5186 93.6323 37.5758 93.6922 37.6078C93.9786 40.6994 94.3635 43.7816 94.5593 46.8812C94.8537 51.6071 94.2556 56.0133 93.5763 60.6727Z" fill="#9E4C0B"/>
<path d="M120.6 93.1876C119.177 87.7717 117.158 82.5356 115.089 77.3049C113.978 74.4983 112.797 71.7677 112.011 68.884C108.352 58.2014 107.429 47.0552 105.47 35.8398C104.505 30.3187 102.871 24.1676 100.111 18.7783C98.6205 16.2981 96.8969 14.0004 94.7217 12.0517C93.2086 10.6958 91.6262 9.41971 90.097 8.08372C89.5656 7.76271 89.0288 7.44701 88.496 7.12866C84.2136 4.96817 79.6262 3.74274 74.8444 3.87993C71.3612 2.23492 67.8261 0.966867 63.7595 0.404765C57.2966 -0.491668 50.67 0.184984 44.3417 1.60889C34.6834 3.78004 25.9148 9.13999 18.7314 15.8266C17.5912 16.8895 16.5043 18.0244 15.448 19.1926C14.5449 20.6231 13.5912 22.023 12.8733 23.5548C11.5986 26.2854 10.5023 29.1239 9.4274 31.9344C9.37679 32.0676 9.33149 32.2022 9.27954 32.3354C8.77072 34.7889 7.8743 37.1478 7.53331 39.6453C7.05246 43.1538 6.76607 46.6117 6.80603 50.1574C6.838 53.0798 6.94323 56.0036 6.99251 58.922C7.22295 62.3612 7.34283 65.7937 6.94989 69.3568C6.76075 71.0671 6.47437 72.7588 6.12406 74.4371C5.82702 76.7561 5.58594 79.1203 4.89863 81.3501C4.07545 84.0194 3.0125 86.6115 2.08011 89.2422C2.05613 89.3088 2.0335 89.3754 2.00952 89.442C-0.0031259 96.8665 -0.806313 104.089 1.59128 111.598C1.75511 112.037 1.93492 112.47 2.12273 112.897C5.00517 118.35 9.97884 122.753 16.2152 121.892C13.442 121.237 11.3575 119.267 9.54728 117.096C7.69314 114.874 7.0338 112.388 6.55827 109.792C7.92091 113.215 10.1573 116.228 13.2582 117.941C18.8406 121.029 25.5792 121.394 31.432 119.063C32.0513 119.367 32.7027 119.634 33.3713 119.875C36.4829 120.376 39.5198 120.86 42.7326 120.473C45.0902 120.188 47.1988 119.436 49.2328 118.424C48.6533 118.265 48.1006 118.108 47.6171 117.993C42.5382 116.795 38.1852 114.012 34.5315 110.329C30.6807 106.449 28.0367 101.992 25.8429 97.0064C24.5749 94.1213 23.4999 91.1816 22.7993 88.1513C22.3917 86.9911 22.0254 85.8123 21.7524 84.6362C17.7937 85.1303 16.0035 73.0625 15.5679 69.8444C16.459 67.5067 17.6565 64.5989 18.746 62.0122C19.123 63.2616 19.5199 64.519 19.9235 65.7911C20.0581 66.89 20.2579 67.9862 20.4883 69.0784C20.5416 69.843 20.5775 70.6089 20.6242 71.3775C21.0318 73.3675 21.4393 75.3561 21.7151 77.3675C21.803 77.2622 21.8656 77.145 21.8682 77.0371C22.0294 71.5893 22.1759 65.9629 23.4413 60.6442C23.6211 59.8917 23.8915 59.1284 24.2019 58.3559C24.2285 59.9823 24.5975 61.5021 25.4593 62.7901C25.6817 63.1218 26.3065 62.5117 26.1733 62.196C26.1107 62.0482 26.06 61.891 26.0081 61.7338C26.1226 61.6579 26.2239 61.554 26.2518 61.4448C29.8895 47.7252 47.0123 43.4149 58.0226 37.2877C62.7498 34.6584 68.9543 30.2481 71.866 24.8495C71.8181 24.9974 71.7808 25.1452 71.7302 25.2918C71.898 26.6664 72.1444 28.0597 72.5507 29.5075C72.9436 30.9075 73.4311 32.2874 73.9839 33.6434C75.4664 38.304 77.5456 42.8368 79.7661 46.9407C84.4161 55.5414 90.8843 61.6046 90.9495 71.9116C90.9509 72.3924 92.4746 68.4298 92.7597 66.7474C92.769 66.842 92.7877 66.9339 92.7943 67.0298C92.9329 67.7731 93.0541 68.523 93.1726 69.2783C93.5562 67.9729 94.113 66.7181 94.6791 65.4701C94.803 65.0825 94.9282 64.7162 95.0521 64.3339C95.1147 64.3099 95.1679 64.2619 95.2026 64.21V64.2127C95.3957 63.9369 95.6688 63.6173 95.8979 63.3682C96.0657 63.187 96.2176 63.1351 96.3627 63.1697C96.4107 63.2203 96.4547 63.2763 96.5066 63.3256C96.5639 63.3788 96.6278 63.4002 96.6971 63.4068C96.7251 63.4348 96.753 63.4574 96.7783 63.4921C96.8023 63.5187 96.8116 63.5573 96.8316 63.588C96.9422 64.0435 97.054 64.4991 97.146 64.9439C97.2898 65.6579 97.4323 66.3732 97.5735 67.0858C97.6215 67.492 97.6734 67.8956 97.7054 68.3086C98.0264 72.5736 97.7893 83.8463 92.2988 85.3221L92.2948 85.3248C92.159 85.3621 92.0084 85.4833 91.9352 85.6112C91.8539 85.7257 91.802 85.8509 91.8073 85.9548C89.836 92.1046 87.132 97.2888 83.2399 102.47C79.1813 107.877 72.6719 114.04 65.7215 115.142C65.4312 115.188 64.945 115.646 65.1368 115.977C67.1201 119.399 72.536 118.963 76.2909 118.433C80.0711 118.392 83.9326 117.315 87.4477 115.506C87.3372 115.653 87.2372 115.806 87.128 115.955C86.5006 116.37 85.8586 116.733 85.1993 117.022C84.8556 117.174 84.119 118.076 84.7837 118.32C88.777 119.78 93.0487 119.05 96.9368 117.338C96.7237 117.567 96.5066 117.788 96.2988 118.033C96.2082 118.141 96.1137 118.297 96.0604 118.456C102.314 119.108 108.869 117.829 113.784 114.212C115.928 112.232 117.66 109.804 118.891 107.011C119.181 106.384 119.433 105.742 119.647 105.084C119.653 105.066 119.659 105.053 119.665 105.036C119.685 104.976 119.699 104.917 119.718 104.857C119.777 104.665 119.838 104.475 119.89 104.283C120.982 100.619 121.103 96.8865 120.6 93.1876Z" fill="#1F1F1D"/>
<path d="M118.816 103.813C118.555 104.563 118.239 105.281 117.902 105.987C117.833 106.13 117.764 106.268 117.694 106.408C117.585 106.625 117.479 106.844 117.361 107.056C116.733 108.23 116.035 109.328 115.368 110.292C114.106 112.11 112.379 113.598 110.422 114.709C109.501 115.277 108.502 115.752 107.466 116.137C104.625 117.417 101.489 118.099 98.246 118.009C98.1554 118.005 98.0769 117.974 98.0103 117.929C97.9996 117.934 97.9863 117.939 97.9783 117.945C97.9876 117.939 97.9956 117.931 98.0049 117.926C97.7332 117.746 97.6746 117.309 98.0143 117.123C99.6207 116.244 100.901 115.006 102.13 113.705C97.4775 116.49 92.1988 118.211 86.7429 117.929C86.3486 117.907 86.0929 117.418 86.4086 117.121C87.8898 115.726 89.5334 114.527 90.9587 113.066C91.4662 112.546 92.7022 111.436 93.4508 110.348C93.3603 110.411 93.2737 110.479 93.1844 110.544C93.2177 110.513 93.255 110.483 93.2897 110.452C93.3429 110.403 93.3776 110.35 93.4055 110.294C89.8997 112.872 85.9291 114.798 81.7 116.072C77.6347 117.297 70.2542 119.928 66.707 116.294C66.4473 116.027 66.5845 115.614 66.9215 115.503C74.695 112.946 81.3443 107.23 85.8425 100.483C87.9897 97.2627 90.5644 93.5904 91.313 89.7276C91.5048 88.7379 91.6087 87.1089 92.4252 86.3484C92.4359 86.2658 92.4545 86.1858 92.4638 86.1019C94.6869 85.725 96.0682 83.3634 96.9766 80.9591C97.6506 78.0727 98.2287 75.077 98.5071 72.1147C98.7722 73.6704 99.0172 75.2315 99.2011 76.806C100.105 84.4836 99.6806 92.1678 97.933 99.6816C99.7192 96.028 99.9044 91.5698 100.369 87.6324C100.775 84.1958 100.787 80.778 100.701 77.3534C100.409 74.122 99.7618 70.9172 99.0585 67.7604C98.9333 67.2009 98.7442 66.5949 98.5324 65.9662C98.3619 64.8833 98.0103 63.9362 97.4961 62.9252C97.1032 61.6745 96.8115 60.4397 96.8554 59.3368C96.9939 58.9013 97.1445 58.4697 97.2723 58.0315C97.2843 58.0102 97.295 57.9902 97.3083 57.9702C97.3696 57.7464 97.4162 57.5173 97.4735 57.2922C97.8997 55.7258 98.2314 54.1354 98.4804 52.533C98.5897 48.0149 98.3965 43.514 96.9646 39.1584C96.1601 36.7182 95.0652 34.4165 94.0422 32.0682C93.8398 31.6047 93.62 31.0599 93.3683 30.5005C95.0013 35.5247 97.0885 40.1814 97.6147 45.5906C98.2833 52.4611 95.7738 58.6309 94.0502 65.1124C94.0183 65.2376 94.0516 65.2962 94.1128 65.3202C93.8598 65.4227 93.5068 65.3255 93.4535 65.0178C93.3722 64.5556 93.2724 64.1 93.1831 63.6405C93.8038 57.4854 93.1631 51.1317 90.5204 45.6346C90.6163 45.8703 90.7109 46.1035 90.7962 46.3419C91.5474 48.4771 92.2214 50.6709 92.6317 52.902C93.4375 57.2856 91.7339 67.3887 91.6273 68.1293C91.4888 65.5479 90.5657 63.117 89.4522 60.798C86.9827 55.6605 83.5301 51.0998 80.6837 46.178C78.2395 42.3033 76.0363 38.2567 74.6018 33.909C73.6947 31.1638 72.6104 28.1881 72.2841 25.3017C72.1189 23.8378 72.4599 22.4379 72.7503 21.0167C72.4453 21.6613 72.1123 22.298 71.7193 22.9041C69.3044 27.6953 64.4653 31.586 60.3135 34.4765C54.9495 38.2114 48.7944 40.8101 43.0335 43.8604C36.0338 47.566 27.8314 52.5903 25.7682 60.7887C25.1834 57.6292 26.3263 53.4641 27.3705 50.7894C28.0206 49.1298 28.8677 47.5567 29.8294 46.0542C30.4421 44.8101 31.1494 43.6179 31.9326 42.4684C32.885 40.9233 33.924 39.4328 35.0508 38.0009C33.19 39.8311 31.4291 41.7918 29.8174 43.9616C27.946 46.4831 25.595 50.6416 24.636 54.7188C24.2284 55.5247 23.8195 56.3319 23.4452 57.1537C22.7712 60.0095 22.2131 62.8972 21.7189 65.8037C21.6376 66.2765 20.9024 66.2499 20.8025 65.8037C19.7409 61.0178 17.4419 56.7115 17.25 51.7231C17.1541 49.2256 17.1288 46.6416 17.4099 44.1507C17.5031 43.3262 17.7988 42.4405 18.0492 41.5627C17.0942 43.3982 16.8345 45.7731 16.7838 48.0135C16.3936 52.1614 17.0742 56.0268 18.1372 59.9042C17.1142 62.3471 16.1085 64.7927 15.1615 67.2569C14.6513 69.448 14.0852 71.6298 13.5404 73.821C12.7479 77.0031 11.6437 80.8952 12.0459 84.381C12.311 82.1193 12.6746 79.9388 13.1262 77.9142C13.7469 75.1396 14.0652 73.2429 15.0336 70.6122C15.2441 74.9145 17.6177 87.0077 21.33 85.6864C22.2117 90.4602 24.0019 94.9184 26.0625 99.3047C27.224 101.778 28.4628 104.436 30.1225 106.711C31.3918 108.306 32.7558 109.833 34.201 111.293C36.9955 114.12 40.2483 116.868 44.1524 117.945C44.3175 117.99 44.4121 118.099 44.4574 118.226C45.2739 118.485 46.1011 118.716 46.9509 118.885C44.1031 119.546 41.2433 119.72 38.4581 119.347C33.2127 118.997 27.3239 115.711 24.0126 112.583C22.9337 111.564 21.9879 110.451 21.1728 109.269C21.9813 110.868 22.9776 112.388 24.1271 113.787C25.3925 115.325 27.1894 116.754 29.1887 117.75C29.4525 117.935 29.7202 118.114 30.0012 118.286C27.4491 118.809 24.8904 118.878 22.4368 118.556C15.1109 118.372 8.49084 113.858 5.42459 107.259C5.69765 111.21 5.94407 114.708 8.50283 118.136C9.06227 118.885 9.75357 119.719 10.5368 120.485C5.10757 118.054 2.58478 111.674 1.56447 105.797C0.885154 101.898 1.19683 97.978 1.95074 94.0899C2.03199 93.4466 2.12525 92.8005 2.24246 92.1625C2.65138 89.9181 3.35734 87.7949 4.1259 85.6957C4.12191 85.6744 4.11658 85.6544 4.11125 85.6344C4.7546 83.4712 5.41793 81.3347 6.00801 79.2342C8.81319 69.2189 8.41358 59.9242 7.72361 49.6905C7.28538 43.1704 8.2644 36.9233 10.4622 30.7948C10.8032 29.8411 13.1755 24.8861 14.1958 22.1995C14.3996 21.9437 14.6167 21.6946 14.8231 21.4429C16.0712 19.1918 18.253 17.2564 20.0685 15.7246C20.3576 15.4782 20.664 15.2571 20.9597 15.0213C27.5584 9.16055 35.5716 4.96477 44.1151 2.76298C48.1963 1.71071 52.3788 1.22053 56.5745 1.17258C59.5129 0.669088 62.6791 0.908851 65.3417 1.51624C69.4629 2.46063 73.6747 3.56884 77.6014 5.26447C77.2404 5.07666 76.8768 4.88352 76.5159 4.69971C76.7516 4.72901 76.9887 4.75698 77.2245 4.7996C84.0789 5.52155 90.1142 8.93279 95.7592 13.8798C96.1455 14.4486 96.5118 15.024 96.8661 15.6061C97.4375 16.2787 97.973 16.9874 98.4578 17.7519C101.017 21.7759 102.628 26.4152 103.531 31.1798C105.199 37.1485 105.821 43.5673 106.731 49.6039C107.2 52.7088 107.638 55.8057 108.145 58.8973C109.371 63.181 110.868 67.3621 112.363 71.6125C113.613 75.1729 114.995 78.7467 116.163 82.3564C119.371 89.1336 121.296 96.682 118.816 103.813Z" fill="#424241"/>
<path opacity="0.5" d="M116.163 82.3564C114.995 78.7467 113.613 75.1729 112.363 71.6125C110.868 67.3634 109.371 63.181 108.146 58.8973C107.638 55.8057 107.2 52.7088 106.731 49.6039C105.821 43.5673 105.199 37.1484 103.532 31.1798C102.628 26.4152 101.017 21.7759 98.458 17.7519C97.9731 16.9874 97.4377 16.2787 96.8663 15.6061C96.5133 15.024 96.147 14.4486 95.7594 13.8798C90.1144 8.93145 84.0804 5.52155 77.2247 4.7996C76.9889 4.75698 76.7518 4.72901 76.516 4.69971C76.877 4.88352 77.2406 5.07666 77.6016 5.26447C73.6749 3.56884 69.4631 2.46063 65.3419 1.51624C62.6793 0.908851 59.5131 0.669088 56.5747 1.17258C54.9017 1.19123 53.2341 1.30445 51.5704 1.47228C58.2211 1.16725 65.3113 1.83991 70.9723 5.34839C69.5737 5.3071 68.1697 5.34705 66.8457 5.34172C62.8444 5.32041 58.8777 5.52687 54.8951 5.91049C49.374 6.44062 43.9461 7.59679 39.3201 10.5019C40.3777 10.0823 41.4512 9.73198 42.5994 9.41896C46.3716 8.39598 50.1465 7.95644 53.9574 7.76463C57.1129 7.401 60.2897 7.24115 63.4625 7.13725C64.4188 7.23582 65.3752 7.36636 66.3303 7.55417C67.0695 7.69936 67.8327 7.8592 68.6066 8.03103C67.1654 8.75697 65.8108 9.63609 64.5787 10.5405C65.5417 10.0677 66.5567 9.69735 67.5131 9.38566C70.1464 8.52786 73.2153 7.53287 76.0219 7.68738C80.536 7.9338 84.793 12.1669 87.2452 16.364C86.2556 14.2235 84.8184 12.3121 83.3279 10.394C83.0135 9.98906 83.3945 9.38167 83.8966 9.6494C87.0574 11.3264 89.8253 13.5029 92.1843 16.0496C98.3781 21.335 102.298 29.5321 103.891 37.3376C105.183 43.6646 105.081 50.1234 106.028 56.489C106.712 61.0991 107.821 65.6225 108.818 70.1699C109.189 71.2968 109.56 72.4197 109.934 73.5466C110.152 74.2006 110.365 74.8599 110.574 75.5246C113.134 81.2828 116.187 86.8838 116.79 93.1935C117.208 97.5651 116.798 102.156 114.672 106.075C113.129 108.92 110.84 112.447 107.345 112.915C107.007 112.96 106.668 112.714 106.767 112.338C107.801 108.414 108.57 104.402 108.609 100.384C108.255 101.605 107.79 102.797 107.171 103.945C104.613 108.697 99.8872 113.633 94.6578 115.318C94.2822 115.439 93.8972 114.964 94.1263 114.627C95.3265 112.866 96.9395 111.58 98.4606 110.112C100.11 108.521 101.292 106.623 102.049 104.454C102.189 104.053 102.317 103.65 102.439 103.245C100.677 106.214 98.3221 108.594 95.132 109.486C94.6844 109.612 94.3315 109.016 94.6778 108.695C99.8632 103.856 101.805 96.1971 102.555 89.372C103.485 80.9231 102.138 72.5795 100.07 64.3904C99.9325 63.8496 100.646 63.6045 100.938 64.0374C102.482 66.3165 103.734 68.7687 105.075 71.1676C104.785 70.2006 104.48 69.2376 104.175 68.2732C102.957 65.6079 101.799 62.9106 101.006 60.0987C99.6555 55.3049 99.7247 50.4418 99.1413 45.5334C98.4726 39.9283 96.9515 34.0915 94.173 29.1378C92.5999 26.3353 90.3714 24.0989 88.1697 21.8199C89.8 24.7143 91.0841 27.7632 92.0551 30.9081C95.14 38.2593 96.2722 46.527 95.1693 54.3019C95.164 54.3405 95.16 54.3818 95.1546 54.4218C95.0707 54.9945 94.2755 54.7907 94.2236 54.3019C94.081 52.9459 93.8226 51.6312 93.487 50.3392C93.3911 50.2873 93.3165 50.194 93.2925 50.0475C93.2272 49.6306 93.1327 49.2283 93.0501 48.8194C91.7487 44.6809 89.6615 40.8114 87.6315 36.9327C88.3042 39.7192 88.6718 42.5643 88.7078 45.3562C88.7118 45.6772 88.4387 45.8397 88.1803 45.8091C87.81 44.6542 87.4171 43.51 87.0228 42.3858C86.5886 41.1444 86.137 39.7698 85.6056 38.4205C84.9103 37.4242 84.195 36.4412 83.4544 35.4768C85.2846 40.4784 86.5127 45.6492 88.0271 50.7281C88.1084 51.4035 88.1816 52.0814 88.2349 52.7621C88.2709 53.223 87.7155 53.3242 87.4277 53.0964C85.1154 51.2729 83.7474 48.5343 82.5473 45.9063C81.9745 44.6502 81.3578 43.4128 80.7411 42.1754C76.4614 34.992 73.7042 26.7575 73.0142 18.4299C69.0195 22.9534 65.0329 27.5075 60.4082 31.4022C55.3773 35.6393 49.4898 39.4794 42.6887 39.5247C42.4569 39.5274 42.2944 39.3476 42.2451 39.1438C42.9697 38.4378 43.6597 37.6972 44.3337 36.974C44.7599 36.5158 45.1968 36.0615 45.6257 35.6033C50.9151 31.3796 55.8355 26.5164 59.1495 21.1485C59.316 20.8808 58.999 20.8275 58.8471 21.0206C56.5161 24.0017 53.4285 26.6164 50.3623 29.0832C48.4322 30.4312 46.5941 31.9483 44.7133 33.3243C42.5941 34.8694 40.4003 36.5104 37.7217 36.8061C37.382 36.8434 37.1143 36.3759 37.3101 36.1002C39.3294 33.2537 42.409 31.0266 45.1768 28.8168C41.8815 30.5591 38.4609 32.1988 35.4533 34.4152C33.8296 35.6087 32.2698 36.8954 30.9684 38.4445C29.8975 39.7179 28.8825 41.0192 27.5718 42.0662C28.1846 40.1361 28.9265 38.2687 30.1626 36.3786C32.5176 32.7715 35.9101 30.0556 39.328 27.5194C39.4932 27.3982 39.5292 27.0026 39.2428 27.1505C35.6651 29.002 31.031 32.5997 27.9794 36.8487C23.9102 41.0698 21.0451 46.0568 19.9968 52.2919C17.3768 32.2574 34.2518 20.1415 51.3946 14.5978C50.2784 14.7736 49.1635 14.9614 48.0633 15.2145C45.0943 15.8978 42.1772 16.9434 39.372 18.1262C38.5635 18.4685 37.7736 18.8428 36.9797 19.2105C34.1319 20.7409 31.4213 22.5245 28.9025 24.5291C23.1177 29.1285 18.1959 34.908 16.102 42.1155C13.9722 49.4441 15.6385 57.0804 13.538 64.3944C11.3388 72.0654 9.54463 79.378 10.4118 87.4419C11.2376 95.1275 13.7377 102.404 17.2515 109.264C17.5033 109.756 16.9092 110.171 16.5056 109.833C9.6685 104.1 6.6582 96.0359 6.31055 87.4179C5.04782 92.0293 5.03982 96.8445 4.54698 101.618C4.49104 102.155 3.79839 102.26 3.61591 101.738C2.12807 97.5038 2.65688 92.9497 3.2696 88.5954C3.3029 88.3503 3.33353 88.1079 3.36683 87.8642C2.90729 89.2641 2.50371 90.684 2.23465 92.1599C2.11743 92.7979 2.02418 93.4439 1.94293 94.0872C1.18902 97.9753 0.877341 101.895 1.55666 105.794C2.5783 111.671 5.10109 118.051 10.529 120.482C9.74576 119.718 9.05313 118.882 8.49502 118.134C5.93626 114.705 5.68983 111.207 5.41678 107.257C8.48436 113.855 15.103 118.371 22.429 118.553C24.8826 118.876 27.4413 118.805 29.9934 118.283C29.7124 118.111 29.4433 117.931 29.1809 117.747C27.1816 116.752 25.3834 115.323 24.1193 113.785C22.9685 112.385 21.9735 110.866 21.165 109.267C21.6485 109.966 22.1919 110.631 22.7647 111.278C18.8539 105.493 17.4127 98.6933 16.9172 91.5325C16.8799 90.9837 17.7098 90.9051 17.8483 91.4113C19.2775 96.642 20.9239 102.005 24.082 106.487C25.795 108.919 27.5652 111.582 30.0654 113.276C31.416 114.191 32.9078 115.078 33.6404 116.591C33.7883 116.896 33.6071 117.312 33.2288 117.299C32.1246 117.256 31.0337 117.062 29.9868 116.738C32.6654 118.128 35.6477 119.157 38.4503 119.345C41.2355 119.718 44.0939 119.543 46.9431 118.882C46.0932 118.713 45.2661 118.483 44.4496 118.223C44.4056 118.096 44.311 117.987 44.1445 117.942C40.2405 116.864 36.9877 114.118 34.1932 111.29C32.748 109.829 31.384 108.304 30.1146 106.708C28.4536 104.433 27.2162 101.776 26.0547 99.302C23.9941 94.9158 22.2026 90.4576 21.3221 85.6837C17.6099 87.0037 15.2363 74.9105 15.0258 70.6095C14.0574 73.2415 13.7391 75.137 13.1184 77.9115C12.6655 79.9375 12.3018 82.1166 12.0381 84.3783C11.6359 80.8925 12.7401 77.0004 13.5326 73.8183C14.0774 71.6272 14.6435 69.4453 15.1537 67.2542C16.0994 64.79 17.1064 62.3445 18.1293 59.9016C17.0677 56.0242 16.3858 52.1587 16.776 48.0109C16.828 45.7705 17.0864 43.3955 18.0414 41.56C17.7897 42.4378 17.4953 43.3236 17.4021 44.1481C17.121 46.6376 17.1463 49.223 17.2422 51.7205C17.434 56.7088 19.7317 61.0165 20.7947 65.801C20.8946 66.2472 21.6285 66.2739 21.7111 65.801C22.2052 62.8933 22.7634 60.0055 23.4373 57.151C23.8103 56.3292 24.2206 55.5207 24.6281 54.7161C25.5859 50.6389 27.9368 46.4804 29.8096 43.9589C31.4213 41.7891 33.1809 39.8284 35.043 37.9983C33.9162 39.4302 32.8772 40.9207 31.9248 42.4658C31.1416 43.614 30.4343 44.8074 29.8216 46.0515C28.8599 47.554 28.0127 49.1257 27.3627 50.7867C26.3184 53.4614 25.1769 57.6265 25.7603 60.786C27.8249 52.5876 36.0274 47.5633 43.0257 43.8577C48.7865 40.8074 54.9417 38.2087 60.3057 34.4738C64.4575 31.5834 69.2979 27.6926 71.7115 22.9014C72.1045 22.2954 72.4375 21.6587 72.7425 21.014C72.4521 22.4339 72.1111 23.8352 72.2763 25.299C72.604 28.1855 73.6882 31.1598 74.594 33.9064C76.0285 38.254 78.2316 42.3006 80.6759 46.1754C83.5223 51.0958 86.9749 55.6565 89.4444 60.7953C90.5579 63.1144 91.481 65.5453 91.6195 68.1267C91.7274 67.3861 93.431 57.2829 92.6238 52.8993C92.2122 50.6682 91.5396 48.4744 90.7884 46.3392C90.7031 46.0994 90.6099 45.8677 90.5126 45.6319C93.1553 51.1291 93.7973 57.4813 93.1753 63.6378C93.2645 64.0974 93.3644 64.5542 93.4457 65.0151C93.499 65.3215 93.852 65.42 94.105 65.3175C94.0438 65.2922 94.0091 65.2336 94.0424 65.1097C95.766 58.6282 98.2755 52.4584 97.6068 45.588C97.0807 40.1774 94.9935 35.5221 93.3604 30.4978C93.6122 31.0572 93.832 31.602 94.0344 32.0655C95.0574 34.4152 96.1523 36.7156 96.9568 39.1558C98.3901 43.5114 98.5819 48.0122 98.4726 52.5303C98.2236 54.1327 97.8919 55.7231 97.4657 57.2896C97.4084 57.5147 97.3617 57.7437 97.3005 57.9675C97.2872 57.9875 97.2765 58.0075 97.2645 58.0288C97.1367 58.4657 96.9875 58.8973 96.8476 59.3342C96.8036 60.437 97.0954 61.6718 97.4883 62.9225C98.0024 63.9335 98.3528 64.8806 98.5246 65.9635C98.7364 66.5922 98.9255 67.1983 99.0507 67.7577C99.754 70.9145 100.401 74.1193 100.693 77.3507C100.78 80.7739 100.769 84.1932 100.361 87.6297C99.8965 91.5671 99.7114 96.0253 97.9252 99.679C99.6728 92.1652 100.098 84.4809 99.1932 76.8033C99.0081 75.2275 98.7644 73.6664 98.4993 72.112C98.2196 75.0743 97.6428 78.07 96.9688 80.9564C96.0604 83.362 94.6791 85.7223 92.456 86.0993C92.4467 86.1832 92.428 86.2631 92.4174 86.3457C91.6009 87.1063 91.497 88.7353 91.3052 89.725C90.7071 92.8125 88.9422 95.7736 87.1613 98.4842C89.4604 95.9227 91.465 93.0962 92.5786 89.8741C92.7757 89.3027 93.6788 89.5292 93.4936 90.1152C92.7344 92.5182 92.3788 95.0889 91.3798 97.4132C90.466 99.5364 89.126 101.52 87.6329 103.289C87.3451 103.786 87.0628 104.285 86.819 104.804C89.7521 103.235 91.6515 99.8828 93.764 97.4612C94.081 97.0989 94.6751 97.4772 94.5566 97.9154C92.3921 105.89 87.6395 112.78 79.5623 115.508C79.1654 115.643 78.8364 115.154 79.0322 114.818C80.1124 112.942 81.4857 111.279 82.8204 109.588C81.2073 110.605 79.4131 111.338 77.5536 111.844C77.5124 111.855 77.4791 111.849 77.4404 111.851C76.8424 112.224 76.2376 112.59 75.6302 112.94C73.0768 114.416 69.9826 115.518 67.0935 116.059C66.9403 116.089 66.7805 116.116 66.6153 116.145C66.638 116.194 66.6539 116.246 66.6965 116.29C70.2437 119.925 77.6242 117.293 81.6895 116.068C85.9186 114.794 89.8879 112.868 93.3951 110.29C93.3671 110.346 93.3311 110.399 93.2792 110.448C93.2446 110.479 93.2073 110.509 93.174 110.54C93.2619 110.475 93.3498 110.407 93.4404 110.344C92.6918 111.432 91.457 112.542 90.9482 113.062C89.523 114.523 87.8793 115.722 86.3981 117.117C86.0824 117.416 86.3382 117.905 86.7324 117.925C92.1896 118.207 97.4683 116.486 102.12 113.701C100.89 115.004 99.6102 116.24 98.0038 117.119C97.6641 117.305 97.7227 117.742 97.9945 117.922C97.9851 117.927 97.9771 117.935 97.9678 117.941C97.9771 117.935 97.9905 117.93 97.9998 117.925C98.0677 117.969 98.145 118.001 98.2355 118.005C101.48 118.094 104.614 117.413 107.456 116.133C108.492 115.748 109.491 115.273 110.411 114.705C112.369 113.594 114.097 112.108 115.357 110.288C116.026 109.324 116.724 108.226 117.351 107.052C117.468 106.84 117.575 106.621 117.684 106.404C117.753 106.264 117.824 106.126 117.892 105.983C118.23 105.279 118.546 104.561 118.806 103.809C121.296 96.686 119.372 89.1376 116.163 82.3564Z" fill="#424241"/>
<path opacity="0.5" d="M24.1271 113.789C22.9762 112.389 21.9812 110.87 21.1727 109.271C21.6562 109.97 22.1997 110.635 22.7724 111.282C19.9646 107.129 18.4328 102.448 17.607 97.4891C17.2806 96.4887 16.9836 95.4764 16.7558 94.4428C16.1631 91.7415 15.6156 88.879 15.5091 86.0752C13.9306 96.9762 16.8864 108.642 24.5866 116.615C24.9396 116.979 24.5773 117.469 24.1324 117.406C16.0898 116.285 6.58205 110.637 4.1405 102.757C3.56375 105.357 3.3919 108.005 3.96865 110.545C4.4535 112.683 5.32198 114.568 6.63799 116.309C7.45717 117.392 8.59601 118.966 9.93733 119.844C9.40586 119.269 8.90903 118.684 8.50278 118.139C5.94401 114.71 5.69759 111.213 5.42453 107.262C8.49211 113.861 15.1108 118.376 22.4368 118.559C24.8903 118.881 27.4491 118.81 30.0012 118.288C29.7201 118.116 29.4511 117.937 29.1887 117.753C27.1893 116.755 25.3925 115.326 24.1271 113.789Z" fill="#424241"/>
<path opacity="0.5" d="M44.4576 118.224C44.4136 118.097 44.319 117.988 44.1525 117.943C40.2484 116.865 36.9957 114.119 34.2012 111.291C32.756 109.83 31.392 108.305 30.1226 106.709C28.4616 104.434 27.2242 101.776 26.0627 99.3029C24.0021 94.9166 22.2106 90.4584 21.3301 85.6846C21.3048 85.6939 21.2808 85.6952 21.2555 85.7045C20.784 91.4721 22.4663 97.3888 25.3035 102.452C27.0564 105.579 29.1369 108.744 31.6824 111.286C33.9641 113.562 36.5841 115.413 39.1442 117.359C39.4506 117.595 39.4759 118.119 39.0297 118.228C36.2072 118.922 33.5312 118.362 31.095 117.021C30.7234 116.94 30.3557 116.849 29.9934 116.739C32.6721 118.129 35.6544 119.158 38.4569 119.345C41.2421 119.718 44.1006 119.544 46.9497 118.883C46.1012 118.715 45.2727 118.485 44.4576 118.224Z" fill="#424241"/>
<path opacity="0.5" d="M71.5263 23.2632C67.6328 28.8083 61.5696 33.1879 55.7168 35.9105C46.7951 40.0596 36.4362 41.1839 29.9067 49.3183C29.607 49.69 28.985 49.2917 29.1155 48.8628C29.8788 46.336 31.0296 44.0263 32.3616 41.8179C32.2204 42.039 32.0672 42.2521 31.9314 42.4732C31.1482 43.6214 30.4409 44.8149 29.8281 46.0589C28.8664 47.5614 28.0193 49.1332 27.3693 50.7942C26.325 53.4688 25.1835 57.634 25.7669 60.7935C27.8315 52.595 36.0339 47.5708 43.0322 43.8651C48.7931 40.8149 54.9482 38.2162 60.3122 34.4812C64.3588 31.6614 69.0554 27.8892 71.5263 23.2632Z" fill="#424241"/>
<path opacity="0.5" d="M77.4498 111.852C76.8518 112.225 76.247 112.592 75.6396 112.942C73.3353 114.274 70.5954 115.277 67.9607 115.862C70.277 116.798 73.7029 115.703 75.8821 115.363C76.9863 115.192 78.0665 114.958 79.1295 114.677C80.1964 112.861 81.5284 111.234 82.8298 109.588C81.2167 110.606 79.4225 111.338 77.563 111.844C77.5204 111.856 77.4871 111.851 77.4498 111.852Z" fill="#424241"/>
<path opacity="0.5" d="M107.608 105.831C107.799 105.236 107.991 104.642 108.188 104.062C108.23 103.94 108.307 103.861 108.396 103.808C108.515 102.669 108.601 101.527 108.612 100.383C108.258 101.605 107.793 102.797 107.173 103.945C105.439 107.166 102.707 110.469 99.4998 112.791C102.738 111.077 105.462 108.794 107.608 105.831Z" fill="#424241"/>
<path opacity="0.5" d="M116.163 82.3539C114.995 78.7442 113.613 75.1704 112.363 71.61C111.398 68.8688 110.442 66.1515 109.548 63.4209C109.874 66.3313 110.403 69.2151 111.181 72.0349C113.073 78.8947 116.919 85.1178 118.419 92.0948C120.48 101.681 113.576 113.824 103.449 115.513C103.015 115.586 102.627 115.069 102.995 114.721C104.754 113.056 105.813 110.893 106.652 108.633C105.185 110.3 103.498 111.766 101.601 112.903C98.2368 114.923 93.3724 117.048 89.3791 116.458C89.1726 116.428 89.0261 116.196 89.0261 116.001C89.0261 115.377 89.6987 115.18 90.1156 114.795C91.0773 113.904 91.9685 112.94 92.7011 111.85C93.5988 110.515 94.374 109.115 94.9428 107.634C92.3094 109.441 89.6135 111.166 86.8309 112.687C84.5492 113.934 82.161 114.801 79.7048 115.463C79.6595 115.478 79.6169 115.497 79.5702 115.513C79.5236 115.529 79.4797 115.535 79.4357 115.535C77.5589 116.025 75.6475 116.402 73.7068 116.715C71.5356 117.067 68.6079 117.585 66.6765 116.244C66.6885 116.261 66.6912 116.28 66.7058 116.296C70.2529 119.931 77.6335 117.299 81.6988 116.073C85.9278 114.8 89.8972 112.874 93.4043 110.295C93.3764 110.351 93.3404 110.404 93.2885 110.454C93.2538 110.484 93.2165 110.515 93.1832 110.546C93.2711 110.48 93.3591 110.412 93.4496 110.35C92.701 111.438 91.4663 112.548 90.9575 113.067C89.5322 114.528 87.8885 115.727 86.4074 117.123C86.0917 117.421 86.3474 117.91 86.7417 117.93C92.1989 118.213 97.4776 116.492 102.129 113.706C100.899 115.009 99.6194 116.245 98.013 117.124C97.6734 117.311 97.732 117.748 98.0037 117.927C97.9944 117.933 97.9864 117.941 97.9771 117.946C97.9864 117.941 97.9997 117.935 98.0091 117.93C98.077 117.974 98.1542 118.006 98.2448 118.01C101.49 118.099 104.624 117.419 107.465 116.139C108.501 115.754 109.5 115.278 110.421 114.711C112.379 113.6 114.106 112.113 115.366 110.294C116.035 109.329 116.733 108.232 117.36 107.057C117.477 106.845 117.584 106.627 117.693 106.41C117.763 106.27 117.833 106.131 117.901 105.989C118.239 105.284 118.555 104.566 118.815 103.815C121.296 96.6835 119.372 89.1351 116.163 82.3539Z" fill="#424241"/>
<path opacity="0.5" d="M104.716 114.244C105.928 113.895 107.08 113.378 108.162 112.734C107.898 112.809 107.628 112.873 107.348 112.91C107.01 112.956 106.671 112.709 106.77 112.334C107.083 111.145 107.356 109.947 107.606 108.745C106.884 110.718 106.017 112.631 104.716 114.244Z" fill="#424241"/>
<path opacity="0.5" d="M95.1772 109.467C94.5938 110.663 93.8931 111.804 93.1099 112.885C92.3067 113.997 91.357 114.978 90.3101 115.857C90.7643 115.476 92.737 115.249 94.0823 114.959C94.053 114.849 94.057 114.727 94.1289 114.622C95.329 112.861 96.9421 111.576 98.4632 110.108C100.112 108.516 101.295 106.618 102.052 104.45C102.191 104.049 102.319 103.645 102.442 103.24C100.689 106.195 98.3473 108.567 95.1772 109.467Z" fill="#424241"/>
<path opacity="0.5" d="M84.4415 51.3522C82.229 48.0821 80.1351 44.7161 78.3636 41.1824C75.3466 35.1617 73.1768 28.6936 72.5521 21.9937C72.3323 23.0859 72.1578 24.1794 72.2844 25.305C72.612 28.1914 73.6963 31.1658 74.602 33.9123C76.0366 38.26 78.2397 42.3066 80.6839 46.1814C83.5304 51.1017 86.9829 55.6625 89.4524 60.8013C90.566 63.1203 91.4891 65.5512 91.6276 68.1326C91.7355 67.392 93.4391 57.2889 92.6319 52.9053C92.3349 51.2976 91.9007 49.7071 91.3998 48.1447C91.0428 47.5147 90.6686 46.8913 90.2863 46.2719C90.6179 47.3921 90.9483 48.511 91.184 49.6539C91.846 52.8466 91.8261 56.3099 91.1361 59.5053C91.0548 59.8796 90.6006 59.9395 90.3436 59.7198C89.1594 58.7048 88.4801 57.3528 87.6543 56.0541C86.6393 54.4517 85.5031 52.9226 84.4415 51.3522Z" fill="#424241"/>
<path opacity="0.5" d="M94.1076 56.3118C93.9691 53.5746 93.0247 51.161 91.7939 48.862C93.3417 53.5479 93.6894 58.6574 93.1845 63.6444C93.2738 64.104 93.3737 64.5609 93.4549 65.0217C93.5082 65.3281 93.8612 65.4266 94.1143 65.3241C94.053 65.2988 94.0184 65.2402 94.0517 65.1163C95.7753 58.6348 98.2847 52.465 97.6161 45.5946C97.6014 45.4454 97.5735 45.3029 97.5575 45.1523C97.4576 49.1283 96.7197 53.0351 94.9947 56.5462C94.771 56.9964 94.1303 56.7554 94.1076 56.3118Z" fill="#424241"/>
<path opacity="0.5" d="M34.4009 38.6599C35.1095 37.6236 35.8381 36.5967 36.5654 35.5684C28.5627 41.0588 21.7496 48.1397 21.061 58.2003C21.0356 58.5693 20.5388 58.8809 20.2538 58.5346C18.1319 55.9599 17.5618 52.0265 17.1902 48.7138C17.1915 49.7235 17.2102 50.7304 17.2488 51.7254C17.4406 56.7138 19.7383 61.0214 20.8012 65.806C20.9011 66.2522 21.6351 66.2788 21.7176 65.806C22.2118 62.8982 22.7699 60.0105 23.4439 57.156C23.8169 56.3342 24.2271 55.5256 24.6347 54.7211C25.5924 50.6439 27.9434 46.4854 29.8162 43.9639C31.2374 42.0485 32.7785 40.3023 34.4009 38.6599Z" fill="#424241"/>
<path opacity="0.5" d="M54.1903 10.0383C44.9222 10.5831 35.9286 13.6893 28.5867 18.9614C23.6836 21.9024 18.3729 28.5664 18.5621 28.1055C21.9427 19.9044 29.2313 13.8905 36.8437 9.71467C40.9103 7.48225 45.162 5.56018 49.6721 4.42399C53.1074 3.56086 56.5918 2.98943 60.0963 2.52323C57.391 2.39402 54.5632 2.41667 51.8579 2.90285C37.5829 4.20954 24.8398 11.5541 16.1658 23.3689C13.94 26.4006 12.2777 29.7838 11.0643 33.3349C9.48185 40.0709 9.37394 47.1451 9.49515 54.1074C9.59772 59.9948 10.5967 66.1513 9.63503 71.9615C9.85614 71.3701 10.0732 70.7787 10.281 70.1859C11.1362 65.825 10.9217 61.4973 10.9404 56.6249C10.9577 52.6009 11.3253 48.6196 11.8341 44.6423C11.6104 48.3732 11.7582 52.0735 12.4176 55.2889C12.5214 55.7897 13.1448 55.2982 13.1568 54.9679C13.5458 44.3799 16.7678 32.7422 24.4508 25.0686C33.1953 16.332 45.8187 12.9434 57.5123 10.7004C57.5882 10.6844 57.6774 10.6218 57.7547 10.5378C56.5785 10.3167 55.3891 10.1489 54.1903 10.0383Z" fill="#424241"/>
<path opacity="0.5" d="M83.9152 40.4753C83.9085 40.438 83.9005 40.4021 83.8925 40.3661C82.4673 35.4564 81.9319 30.5999 81.2286 25.5623C82.4886 28.4661 83.6515 31.7894 86.1663 33.2839C86.4367 33.4424 86.755 33.0455 86.8123 32.8324C87.0427 31.9852 87.1106 30.9969 87.0587 29.9392C88.8356 33.9086 90.2209 38.0005 91.9338 42.0045C90.9015 36.462 90.0291 30.8317 88.2735 25.5011C87.1653 22.1311 85.3444 18.8677 83.2186 16.0212C82.0517 14.4588 80.7144 11.9147 78.791 11.0582C81.4057 15.1221 83.9245 19.7881 83.9831 24.5553C83.9871 24.9776 83.4677 25.1681 83.1759 24.8897C81.6455 23.4365 80.7957 21.5503 79.9112 19.6776C79.9086 21.8807 79.9485 24.0851 80.0417 26.2896C80.0657 26.8557 79.2812 26.8916 79.112 26.4095C78.2729 24.0012 77.7787 21.525 77.4497 18.9996C77.3072 17.9087 77.2512 16.7458 77.1353 15.5963C77.0328 14.9756 76.9488 14.3735 76.8783 13.8061C76.7903 13.3572 76.6825 12.9164 76.5386 12.4928C76.2376 11.6123 75.6342 11.4299 74.9002 11.607C74.5326 11.8721 74.2249 12.1425 74.153 12.2037C73.2313 12.987 72.3028 13.7622 71.3638 14.5241C70.157 15.5031 69.0062 16.5341 67.8154 17.5251C67.2133 18.0259 64.9103 20.3396 64.1191 18.9849C63.3598 17.6862 64.889 15.9173 65.6229 14.977C66.7071 13.5864 68.1004 12.3289 69.2286 10.937C66.8323 11.8934 64.516 13.3519 62.3342 14.6373C60.5693 15.6763 58.7311 16.8977 56.6399 17.0695C56.251 17.1015 55.9846 16.5154 56.3056 16.2623C56.7398 15.924 59.6822 13.9673 61.9199 12.4022C61.2087 12.6113 60.4921 12.8058 59.7688 12.9843C57.3059 14.1485 54.7152 14.8864 52.1404 15.7615C50.1038 16.4541 48.0419 17.296 46.0159 18.251C42.8711 19.559 39.8355 21.3479 37.2674 23.0329C34.7885 24.6566 31.6557 26.7851 29.1076 29.2586C27.8368 30.8091 26.7087 32.4687 25.7336 34.2309C27.047 32.8017 28.684 31.6429 30.2904 30.5733C32.379 29.1827 34.4888 27.86 36.6933 26.7025C40.7892 24.1304 45.2447 22.1497 49.6842 20.2716C50.4182 19.9626 51.1494 19.6456 51.8807 19.3299C48.0033 21.9926 44.4149 25.1374 40.6054 27.828C40.3683 27.9932 40.1498 28.4447 40.2244 28.7138C41.9254 28.5247 43.7062 27.7601 45.1901 27.2659C45.8108 27.0582 46.4235 26.8344 47.0402 26.6186C48.6053 25.8274 50.1318 24.9376 51.6196 24.0652C54.939 22.576 57.8787 20.253 61.1088 18.5654C63.1747 17.4864 60.4641 21.8993 60.5853 21.7382C59.7741 22.8184 59.0402 23.9546 58.2956 25.0801C56.4108 27.9226 54.1371 30.4507 51.886 33.0002C51.8234 33.0708 51.7675 33.188 51.7342 33.3066C52.251 33.2013 52.7665 33.0881 53.2726 32.9243C54.6419 32.4807 55.9606 31.8733 57.2193 31.17C59.4624 29.5663 61.5004 27.5443 63.3971 25.7781C64.155 25.0721 64.8503 24.3236 65.5217 23.5537C67.2186 22.1204 68.8064 20.5314 70.2969 18.9463C71.6782 17.4744 73.2792 15.924 74.5513 14.2257C74.1304 17.6756 75.0348 21.9206 75.6954 24.6672C77.2872 31.2966 80.0737 38.5067 84.2215 43.9758C84.3694 44.1716 84.6385 44.0158 84.7903 43.8027C84.4307 42.7118 84.1243 41.6049 83.9152 40.4753Z" fill="#424241"/>
<path opacity="0.5" d="M9.91613 94.6633C9.36734 92.0712 9.04366 89.4432 9.13157 86.7872C9.22615 83.9327 9.48722 81.0849 9.14357 78.2598C7.56915 87.657 6.96574 97.7961 13.6803 105.534C13.8229 105.699 14.1066 105.544 14.2478 105.345C12.1539 102.102 10.7087 98.4115 9.91613 94.6633Z" fill="#424241"/>
<path opacity="0.5" d="M110.281 77.8079C108.637 73.1685 107.019 68.3507 105.576 63.4477C105.424 62.6405 105.294 61.8293 105.162 61.0207C104.252 56.8716 103.677 52.6785 103.32 48.3668C103.205 46.9948 103.103 45.6189 102.983 44.2416C102.611 41.475 102.182 38.7152 101.603 35.9659C100.635 31.3759 98.8883 27.5011 96.5333 24.0179C95.2599 22.2517 93.8254 20.6147 92.2456 19.1108C95.9206 24.3975 98.775 30.3076 100.051 36.5453C101.003 41.2007 101.302 45.9479 101.295 50.6911C101.294 51.7847 101.291 52.8809 101.302 53.9772C102.63 61.1673 104.714 68.2961 107.003 75.1239C107.569 77.6321 108.187 80.0696 108.597 82.5445C107.773 78.4153 105.835 74.5259 104 70.6924C103.733 70.3287 102.182 68.0191 101.909 67.6607C103.934 72.6784 105.394 80.2241 105.336 85.5068C105.269 91.9284 104.131 97.9783 101.603 103.78C103.895 101.14 105.684 98.7295 106.931 96.0309C106.679 98.0209 106.326 100.051 105.967 102.222C106.919 101.471 107.753 100.489 108.353 99.5754C108.491 99.3662 108.712 99.3276 108.901 99.3849C109.756 97.7479 110.244 95.9856 110.609 94.1062C111.389 98.4059 110.844 102.835 110.828 107.185C112.353 105.94 113.4 103.884 114.072 101.721C115.602 93.8198 112.873 85.1259 110.281 77.8079Z" fill="#424241"/>
<path opacity="0.5" d="M30.369 115.23C22.73 110.537 20.1366 102.631 17.9082 94.3749C17.8736 94.247 17.6565 94.4055 17.6698 94.5054C18.9005 103.014 21.4739 112.081 30.1159 115.596C30.2944 115.67 30.5635 115.348 30.369 115.23Z" fill="#424241"/>
<path d="M80.1299 58.0157C79.456 57.3723 78.6861 56.8648 77.8243 56.5998C75.8129 55.7606 73.442 55.6034 70.9898 56.079C69.1916 56.4293 63.4733 58.1915 61.4207 60.6277C61.4061 60.8515 61.4194 61.0686 61.4407 61.2844C61.6179 61.9264 61.9229 62.5565 62.3385 63.0706C66.1307 60.8675 69.3288 58.6151 73.9535 58.9081C77.2115 59.1133 80.5841 60.0057 82.8525 62.2608C82.2758 60.4492 81.3274 59.048 80.1299 58.0157Z" fill="#424241"/>
<path d="M77.6819 58.208C74.3132 56.7242 70.954 57.3675 67.7026 58.8154C66.4611 59.3695 65.1398 59.9209 64.0955 60.8134C63.6146 61.2236 63.0645 61.811 62.4625 62.0495C62.2174 62.148 61.9856 62.1654 61.7632 62.1494C61.9204 62.4824 62.1122 62.7927 62.3373 63.0711C66.1295 60.868 69.3276 58.6156 73.9523 58.9086C76.4338 59.0645 78.9806 59.6252 81.0571 60.8786C80.1181 59.7984 79.0818 58.826 77.6819 58.208Z" fill="#424241"/>
<path d="M73.9495 58.461C71.8223 58.6688 69.8682 58.1027 67.8596 58.7914C66.1826 59.3668 63.3654 62.2479 61.6099 61.7924C61.815 62.3278 62.1094 62.8353 62.485 63.2482C62.6821 63.3481 62.9046 63.4001 63.155 63.3694C64.5443 62.9592 66.1733 62.0454 67.0631 61.7484C72.5149 59.9342 77.4513 58.7208 82.3264 62.6062C82.4836 62.7327 82.7619 62.481 82.6887 62.3038C81.2475 58.8566 77.2795 58.136 73.9495 58.461Z" fill="#FAD6BE"/>
<path d="M50.1917 62.1022C50.3369 61.8292 50.4941 61.4642 50.582 61.0926C50.5913 60.9408 50.5939 60.7862 50.5833 60.6277C48.532 58.1915 42.8138 56.4293 41.0142 56.079C38.562 55.6034 36.1884 55.7606 34.1771 56.5998C33.3153 56.8648 32.5467 57.3723 31.8728 58.0157C30.6753 59.0466 29.7296 60.4492 29.1528 62.2608C31.4186 60.007 34.7925 59.1146 38.0506 58.9081C42.5074 58.6257 45.6389 60.7076 49.2513 62.8308C49.6243 62.655 50.0052 62.4539 50.1917 62.1022Z" fill="#424241"/>
<path d="M50.145 62.1587C49.9519 62.1587 49.7521 62.1334 49.539 62.0495C48.9369 61.811 48.3841 61.2236 47.906 60.8134C46.8617 59.9209 45.5377 59.3695 44.2989 58.8154C41.0475 57.3675 37.6869 56.7242 34.3183 58.208C32.9183 58.826 31.882 59.7984 30.9417 60.88C33.0182 59.6266 35.565 59.0658 38.0479 58.91C42.5047 58.6276 45.6362 60.7095 49.2486 62.8327C49.6002 62.6662 49.9479 62.4717 50.145 62.1587Z" fill="#424241"/>
<path d="M37.6618 58.461C39.6931 58.6688 41.5579 58.1027 43.4746 58.7914C45.3741 59.4734 48.8066 63.4147 50.2638 61.173C50.3704 61.0065 50.7353 61.3608 50.5715 61.4953C50.5155 61.5419 50.4609 61.5886 50.405 61.6352C50.353 61.6765 50.2758 61.6112 50.2691 61.5539C50.7966 65.6445 45.9974 62.3598 44.2379 61.7471C39.0298 59.9329 34.3158 58.7195 29.6605 62.6049C29.51 62.7314 29.2436 62.4797 29.3142 62.3025C30.6888 58.8566 34.4783 58.136 37.6618 58.461Z" fill="#FAD6BE"/>
<path d="M83.9034 69.8521C83.6263 69.9613 83.1055 70.3343 82.8325 70.4448C83.2334 68.2351 81.4219 66.0226 79.8315 64.66C78.3983 63.4319 76.6853 62.4435 74.7672 62.4475C75.5012 62.325 76.2497 62.2358 77.0076 62.1545C72.9517 61.5351 69.2847 62.8831 66.726 65.6057C65.3447 67.4971 64.4882 70.0959 64.9118 72.3909C65.402 75.0336 70.6394 74.3409 72.4069 74.1718C75.5771 73.8681 80.0246 73.1421 82.947 71.2041C83.332 70.8072 83.657 70.3596 83.9034 69.8521Z" fill="#FAD6BE"/>
<path d="M82.541 70.4744C82.4291 69.9669 81.9602 69.0705 81.7937 68.575C81.1344 66.894 80.3645 65.5593 78.4251 64.4231C76.5284 63.3123 74.6516 63.1524 72.4351 63.5334C67.8957 64.3126 65.8551 68.0595 65.9377 71.5573C65.7965 72.126 65.7885 72.7254 66.5104 72.9612C68.5071 73.6166 70.7502 73.5566 72.8667 73.4767C75.207 73.3875 78.3039 72.9266 80.507 71.7305C80.5257 71.7171 82.0815 71.0738 82.541 70.4744Z" fill="#81400F"/>
<path d="M68.836 73.1017C66.4544 72.8419 66.1281 71.2995 66.3438 70.4616C66.878 67.1223 69.1717 64.3425 73.6911 63.8216C78.2426 63.2968 80.4417 66.7654 81.827 69.6931C81.2702 71.8123 75.6345 73.075 72.4537 73.1509C71.5506 73.1683 69.9456 73.1976 68.836 73.1017Z" fill="white"/>
<path d="M73.9176 62.3158C73.2449 62.369 72.5856 62.4543 71.9436 62.5715C67.8863 63.8076 65.1011 67.1775 65.2556 71.0323C65.2596 71.0883 65.3103 71.0936 65.3609 71.0789C65.4235 70.8938 65.4807 70.7087 65.5553 70.5275C65.8231 68.3843 66.5996 66.3917 68.3845 64.7373C70.1467 63.107 72.828 62.4809 75.3895 62.3118C74.8114 62.2998 74.1787 62.2944 73.9176 62.3158Z" fill="#81400F"/>
<mask id="mask0_7_6785" style="mask-type:luminance" maskUnits="userSpaceOnUse" x="66" y="63" width="16" height="11">
<path d="M68.8363 73.0978C66.4546 72.838 66.1283 71.2956 66.3441 70.4577C66.8782 67.1184 69.1719 64.3386 73.6914 63.8177C78.2428 63.2929 80.4419 66.7615 81.8272 69.6892C81.2704 71.8084 75.6348 73.0711 72.454 73.147C71.5509 73.1643 69.9458 73.1937 68.8363 73.0978Z" fill="white"/>
</mask>
<g mask="url(#mask0_7_6785)">
<path d="M78.6224 68.9878C78.6224 72.395 76.5352 75.1589 73.9591 75.1589C71.383 75.1589 69.2944 72.395 69.2944 68.9878C69.2944 65.5778 71.383 62.814 73.9591 62.814C76.5352 62.814 78.6224 65.5778 78.6224 68.9878Z" fill="#220300"/>
<path d="M73.9592 63.2407C71.6003 63.2407 69.6902 65.7662 69.6902 68.887C69.6902 72.0066 71.6003 74.5334 73.9592 74.5334C76.3155 74.5334 78.2269 72.0066 78.2269 68.887C78.2269 65.7675 76.3155 63.2407 73.9592 63.2407Z" fill="#7F4A23"/>
<path d="M76.8495 68.647C76.8495 70.7968 75.5308 72.5404 73.9044 72.5404C72.2794 72.5404 70.9634 70.7968 70.9634 68.647C70.9634 66.4971 72.2807 64.7549 73.9044 64.7549C75.5308 64.7549 76.8495 66.4971 76.8495 68.647Z" fill="#0A000B"/>
<path d="M73.2143 67.3824C73.0038 68.3414 72.3512 69.0128 71.7598 68.8809C71.1684 68.7504 70.8606 67.8686 71.0711 66.9082C71.2829 65.9518 71.9329 65.2792 72.5257 65.411C73.1184 65.5402 73.4248 66.4234 73.2143 67.3824Z" fill="#FFFAE2"/>
<path d="M76.286 71.7538C73.4981 74.7468 70.7569 72.4252 70.6263 68.9433C70.6223 68.8488 70.0016 69.4095 70.0056 69.4748C70.1348 71.3969 70.9167 73.1351 72.7629 73.9343C74.3559 74.623 75.8011 73.6133 76.6776 72.3799C76.7468 72.28 76.3592 71.6739 76.286 71.7538Z" fill="#7F4A23"/>
<path d="M77.2597 67.0381C77.2597 67.0381 77.7632 69.2692 76.6589 71.2019L77.0732 71.4483C77.0732 71.4483 78.4665 69.6728 77.2597 67.0381Z" fill="#7F4A23"/>
</g>
<path d="M28.9189 69.8521C29.196 69.9613 29.7168 70.3343 29.9899 70.4448C29.5889 68.2351 31.4018 66.0226 32.9909 64.66C34.4254 63.4319 36.1397 62.4435 38.0564 62.4475C37.3238 62.325 36.5713 62.2358 35.8147 62.1545C39.8706 61.5351 43.5376 62.8831 46.0977 65.6057C47.4776 67.4971 48.3354 70.0959 47.9105 72.3909C47.419 75.0336 42.1843 74.3409 40.4154 74.1718C37.2452 73.8681 32.7977 73.1421 29.8753 71.2041C29.4917 70.8072 29.1667 70.3596 28.9189 69.8521Z" fill="#FAD6BE"/>
<path d="M32.3141 71.7305C34.5199 72.9266 37.6141 73.3861 39.9545 73.4767C42.0737 73.558 44.3167 73.6166 46.3121 72.9612C47.034 72.7254 47.0287 72.126 46.8875 71.5573C46.9701 68.0581 44.9295 64.3126 40.39 63.5334C38.1736 63.1524 36.2955 63.3123 34.4 64.4231C32.458 65.5607 31.6908 66.894 31.0314 68.575C30.8649 69.0705 30.3961 69.9669 30.2842 70.4744C30.7424 71.0738 32.2981 71.7171 32.3141 71.7305Z" fill="#81400F"/>
<path d="M38.9035 62.3158C39.5775 62.369 40.2355 62.4543 40.8775 62.5715C44.9348 63.8076 47.72 67.1775 47.5641 71.0323C47.5628 71.0883 47.5122 71.0936 47.4589 71.0789C47.399 70.8938 47.3417 70.7087 47.2671 70.5275C46.9967 68.3843 46.2241 66.3917 44.4379 64.7373C42.6744 63.107 39.9944 62.4809 37.4316 62.3118C38.0124 62.2998 38.6438 62.2944 38.9035 62.3158Z" fill="#81400F"/>
<path d="M40.3686 73.1456C37.1892 73.0696 31.5535 71.8069 30.998 69.6877C32.3833 66.76 34.5811 63.2915 39.1312 63.8163C43.6507 64.3384 45.9444 67.1183 46.4785 70.4563C46.6969 71.2954 46.3706 72.8365 43.989 73.0963C42.8768 73.1935 41.2717 73.1642 40.3686 73.1456Z" fill="white"/>
<mask id="mask1_7_6785" style="mask-type:luminance" maskUnits="userSpaceOnUse" x="30" y="63" width="17" height="11">
<path d="M40.3689 73.147C37.1894 73.0711 31.5537 71.8084 30.9983 69.6892C32.3836 66.7614 34.5814 63.2929 39.1315 63.8177C43.6509 64.3399 45.9446 67.1198 46.4787 70.4577C46.6972 71.2969 46.3709 72.838 43.9893 73.0977C42.877 73.195 41.272 73.1657 40.3689 73.147Z" fill="white"/>
</mask>
<g mask="url(#mask1_7_6785)">
<path d="M43.9468 69.0958C43.9468 72.5044 41.8583 75.2669 39.2822 75.2669C36.7061 75.2669 34.6189 72.5044 34.6189 69.0958C34.6189 65.6859 36.7061 62.9233 39.2822 62.9233C41.8583 62.9233 43.9468 65.6859 43.9468 69.0958Z" fill="#220300"/>
<path d="M39.281 63.3501C36.9234 63.3501 35.0146 65.8769 35.0146 68.9977C35.0146 72.1159 36.9247 74.6441 39.281 74.6441C41.6387 74.6441 43.5487 72.1159 43.5487 68.9977C43.5501 65.8782 41.64 63.3501 39.281 63.3501Z" fill="#7F4A23"/>
<path d="M42.1713 68.7563C42.1713 70.9075 40.8539 72.6498 39.2289 72.6498C37.6038 72.6498 36.2852 70.9075 36.2852 68.7563C36.2852 66.6078 37.6038 64.8643 39.2289 64.8643C40.8552 64.8643 42.1713 66.6078 42.1713 68.7563Z" fill="#0A000B"/>
<path d="M38.5376 67.4918C38.3272 68.4508 37.6745 69.1235 37.0844 68.9903C36.4917 68.8597 36.1827 67.9779 36.3958 67.0189C36.6062 66.0612 37.2563 65.3885 37.849 65.5204C38.4404 65.651 38.7494 66.5341 38.5376 67.4918Z" fill="#FFFAE2"/>
<path d="M41.6079 71.8622C38.8187 74.8565 36.0801 72.5335 35.9469 69.053C35.9443 68.9571 35.3236 69.5179 35.3289 69.5831C35.4581 71.5065 36.24 73.2435 38.0848 74.0427C39.6779 74.7326 41.1244 73.723 41.9995 72.4882C42.0715 72.3883 41.6825 71.7836 41.6079 71.8622Z" fill="#7F4A23"/>
<path d="M42.5816 67.1475C42.5816 67.1475 43.0864 69.3772 41.9822 71.3113L42.3978 71.5564C42.3978 71.5564 43.791 69.7808 42.5816 67.1475Z" fill="#7F4A23"/>
</g>
<path d="M52.6255 71.0059C52.6255 71.0059 54.2919 73.2369 54.5063 74.8167C54.5063 74.8167 53.9748 79.6345 51.6199 82.4597C51.6199 82.4597 53.7497 78.176 53.3288 74.7781L52.6255 71.0059Z" fill="#AC641B"/>
<path d="M57.5847 87.4087C56.5045 87.7324 54.8622 86.9971 53.1745 86.2139C51.4895 85.4333 49.9964 84.1906 51.1952 82.8066C51.1952 82.8066 51.1312 84.1373 55.704 84.774C55.704 84.774 56.7669 85.1709 59.656 84.1799C59.656 84.1799 58.0749 85.7903 55.8998 85.6291C53.722 85.4653 52.2994 84.5116 52.2994 84.5116C52.2994 84.5116 53.4516 85.8636 56.4486 86.8239C56.4486 86.8239 57.3796 87.4899 59.6467 85.753C59.6467 85.753 58.6677 87.077 57.5847 87.4087Z" fill="#AC641B"/>
<path d="M57.5847 87.4087C56.5045 87.7324 54.8622 86.9971 53.1745 86.2139C51.4895 85.4333 49.9964 84.1906 51.1952 82.8066C51.1952 82.8066 51.1312 84.1373 55.704 84.774C55.704 84.774 56.7669 85.1709 59.656 84.1799C59.656 84.1799 62.6117 82.5869 59.6467 85.7543C59.6467 85.7543 58.6677 87.077 57.5847 87.4087Z" fill="#FAD6BE"/>
<path d="M54.4025 80.2239C54.9127 78.6881 55.6546 77.1776 55.664 75.5512C55.6746 73.5026 54.8155 72.2625 53.606 70.8706C53.5874 70.9252 53.578 70.9811 53.6007 71.0264C53.8684 71.6072 54.1242 72.1613 54.3506 72.6968C54.7968 74.2472 54.906 75.7723 54.4718 77.476C54.0735 79.0504 53.1185 80.3664 52.6177 81.8649C53.2504 81.3401 53.8524 80.8019 54.4025 80.2239Z" fill="#FAEDE6"/>
<path d="M57.197 83.6448C57.7471 82.9282 56.1874 82.6165 55.8344 82.6298C55.3549 82.6498 54.8887 82.7696 54.4198 82.8602C54.2746 83.1253 54.2906 83.4969 54.525 83.73C54.8074 84.0151 55.1804 84.2415 55.576 84.3507C56.1967 84.3641 56.8107 84.1483 57.197 83.6448Z" fill="#FAEDE6"/>
<path d="M69.7815 95.4685C71.3892 92.7779 73.3059 93.7436 71.8887 91.6577C71.8807 92.5701 71.276 93.2321 69.567 93.5438C65.4485 94.2977 60.9876 93.6144 56.8185 93.1642C54.6154 92.9244 52.5228 92.7939 50.3517 93.1042C48.7053 93.3387 47.0736 93.637 45.3873 93.7129C43.0124 93.8222 41.2262 93.0176 39.8848 91.6377C39.2202 96.7632 42.088 94.3883 43.4732 95.8774C44.3044 96.7699 44.8692 98.3936 45.6391 99.6203C49.3314 103.201 57.5165 103.702 62.2797 102.163C65.8041 101.023 67.2187 99.1422 68.8944 96.6034C69.1701 96.1865 69.4658 95.8122 69.7815 95.4685Z" fill="#F9CEB2"/>
<path d="M71.3732 91.0601C71.1774 90.9868 71.0363 91.188 71.1548 91.3078C71.569 91.7274 71.4652 92.2189 71.2134 92.6478C69.8814 93.1433 68.3656 93.1913 66.8911 93.3378C64.6067 93.5682 62.2784 93.5256 59.97 93.5069C56.688 93.4803 53.2182 92.6372 50.004 93.1926C49.3447 93.2232 48.68 93.2659 47.9941 93.3431C46.0001 93.5709 42.1586 94.9775 41.1476 92.7557C40.9252 92.2695 40.0247 92.5972 40.2458 93.0834C40.8106 94.3301 41.7177 94.6645 43.0417 94.6871C45.3634 96.3574 46.2345 99.2146 49.101 100.359C51.8355 101.45 55.2481 102.024 58.2531 101.928C60.8478 101.847 63.5704 101.073 65.4286 99.6781C66.3956 98.9535 66.8858 98.0158 67.3573 97.0501C68.1591 95.409 69.2074 94.5126 70.927 93.4683C70.9444 93.4577 70.9497 93.4417 70.9603 93.4284C71.2147 93.3471 71.4758 93.2685 71.7116 93.17C71.8394 93.1633 71.9633 93.1273 72.0512 93.0487C72.0579 93.0421 72.0606 93.0354 72.0686 93.0288L72.0752 93.0274C72.1938 92.9688 72.2484 92.8836 72.2644 92.793C72.6173 92.1816 72.1511 91.3478 71.3732 91.0601ZM66.7286 96.8569C65.3699 99.6262 62.9124 100.954 59.1562 101.242C56.1699 101.471 52.74 100.858 49.9321 99.9978C46.8832 99.064 45.9321 96.2096 43.42 94.6911C43.6385 94.6871 43.8702 94.6751 44.11 94.6618C47.3747 94.454 50.3823 93.3378 53.715 93.2645C53.743 93.2645 53.7536 93.2472 53.7483 93.2286C56.3337 93.4257 58.9937 93.9652 61.4845 94.0637C63.693 94.149 66.5701 94.2515 69.0516 93.8666C67.9154 94.5805 67.2481 95.794 66.7286 96.8569Z" fill="#9E4C0B"/>
<path d="M66.7287 96.8584C65.3701 99.6276 62.9126 100.956 59.1564 101.243C56.17 101.472 52.7401 100.86 49.9323 99.9992C46.8833 99.0655 45.9323 96.211 43.4202 94.6925C43.6386 94.6885 43.8704 94.6765 44.1101 94.6632C47.3748 94.4554 50.3825 93.3392 53.7151 93.266C53.7431 93.266 53.7538 93.2486 53.7485 93.23C56.3339 93.4271 58.9939 93.9666 61.4847 94.0652C63.6931 94.1504 66.5702 94.253 69.0517 93.868C67.9156 94.582 67.2482 95.7954 66.7287 96.8584Z" fill="#8C0C00"/>
<path d="M67.0802 94.0771C65.1381 94.201 63.1294 94.1291 61.4871 94.0651C58.9949 93.9666 56.3363 93.4271 53.7509 93.23C53.7562 93.25 53.7455 93.2659 53.7176 93.2659C51.1881 93.3232 48.8451 93.9759 46.4355 94.3795C47.1508 95.4997 47.9154 96.3642 49.8894 96.7132C51.7769 97.0408 53.6443 97.4084 55.569 97.5003C58.8311 97.6495 61.9147 97.2912 64.9196 96.532C65.7828 95.8087 66.4781 94.9656 67.0802 94.0771Z" fill="white"/>
<path opacity="0.6" d="M61.4871 94.0651C58.9949 93.9666 56.3363 93.4271 53.7509 93.23C53.7562 93.25 53.7455 93.2659 53.7176 93.2659C51.1881 93.3232 48.8451 93.9759 46.4355 94.3795C46.4982 94.4807 46.5647 94.5766 46.63 94.6725C49.2114 94.4914 51.7063 93.9746 54.3423 94.0785C57.4378 94.2037 60.4974 94.6113 63.569 94.9762C63.8527 95.0095 64.0325 95.2253 63.9486 95.4384C63.6982 96.0751 63.256 96.5893 62.6846 97.0195C63.4358 96.8823 64.1791 96.7211 64.9196 96.5347C65.7841 95.8101 66.4794 94.9669 67.0815 94.0785C65.1381 94.201 63.1294 94.1291 61.4871 94.0651Z" fill="#B8A997"/>
<path d="M57.9945 99.0883C55.0521 98.8179 52.7198 99.2189 50.4368 100.142C53.15 100.922 56.3455 101.455 59.156 101.241C60.5093 101.137 61.6868 100.893 62.7124 100.5C61.2792 99.7876 59.7341 99.2508 57.9945 99.0883Z" fill="#FF7858"/>
<path d="M47.8237 92.5923C46.3385 92.7948 44.9372 93.3009 43.4267 93.1531C42.7328 93.0838 42.1134 92.6682 41.5393 92.2487C42.1454 94.1414 44.4977 93.4408 45.9695 93.1811C50.2133 92.4311 54.3371 92.3539 58.6221 92.4392C55.0511 91.5534 51.5239 92.0862 47.8237 92.5923Z" fill="#FAEDE6"/>
<path d="M55.0789 103.006C54.2851 102.978 52.8705 103.051 51.9688 102.605C52.5242 103.551 54.6048 103.922 55.4333 104.125C57.4313 104.612 59.5012 103.817 61.282 102.97C61.3966 102.915 61.5098 102.771 61.5658 102.628C59.5012 103.279 57.2727 103.082 55.0789 103.006Z" fill="#FAEDE6"/>
</svg>
