<svg width="120" height="120" viewBox="0 0 120 120" fill="none" xmlns="http://www.w3.org/2000/svg">
<circle cx="109.5" cy="48.5" r="1.5" fill="white"/>
<path d="M111.334 69.4611L111.542 67.9241C111.879 67.9095 112.183 67.8387 112.454 67.7116C112.726 67.5846 112.964 67.4162 113.17 67.2067C113.376 66.9971 113.542 66.7538 113.67 66.4768C113.798 66.2031 113.883 65.9053 113.927 65.5835C114.006 65.0022 113.93 64.4618 113.7 63.9623C113.47 63.4661 113.09 63.0467 112.562 62.704C112.032 62.3647 111.36 62.1397 110.546 62.0292C109.725 61.9178 109.014 61.9552 108.413 62.1413C107.812 62.3307 107.336 62.6357 106.985 63.0563C106.633 63.4769 106.419 63.9746 106.341 64.5493C106.298 64.8679 106.299 65.1758 106.346 65.4732C106.395 65.7742 106.49 66.0529 106.629 66.3093C106.768 66.5656 106.95 66.791 107.174 66.9853C107.402 67.1834 107.672 67.3355 107.985 67.4415L107.772 68.9779C107.287 68.8285 106.852 68.6073 106.467 68.3143C106.085 68.0249 105.768 67.6759 105.516 67.267C105.266 66.8619 105.091 66.4134 104.991 65.9215C104.89 65.4295 104.878 64.906 104.953 64.351C105.071 63.4774 105.384 62.7271 105.89 62.1001C106.4 61.4735 107.069 61.0158 107.898 60.7268C108.726 60.4411 109.677 60.3711 110.751 60.5168C111.828 60.663 112.726 60.9854 113.444 61.4843C114.166 61.9835 114.687 62.6028 115.009 63.3421C115.333 64.0818 115.436 64.8868 115.318 65.7572C115.246 66.2925 115.101 66.7813 114.883 67.2234C114.669 67.6693 114.389 68.0577 114.043 68.3888C113.7 68.7202 113.301 68.9787 112.844 69.1643C112.391 69.3503 111.887 69.4493 111.334 69.4611Z" fill="white"/>
<path d="M112.614 77.4732L103.016 74.0759L103.512 72.6746L113.11 76.0719L112.614 77.4732Z" fill="white"/>
<path d="M101.331 78.5435L108.111 82.0578L107.427 83.3775L100.647 79.8633L101.331 78.5435ZM108.812 83.2665C108.931 83.037 109.109 82.8795 109.348 82.794C109.588 82.713 109.815 82.7282 110.03 82.8395C110.248 82.9524 110.391 83.1294 110.46 83.3706C110.531 83.6162 110.506 83.8538 110.387 84.0833C110.268 84.3128 110.089 84.4681 109.849 84.5491C109.611 84.6345 109.383 84.6208 109.165 84.508C108.95 84.3966 108.807 84.2181 108.737 83.9725C108.668 83.7314 108.693 83.496 108.812 83.2665Z" fill="white"/>
<path d="M96.5136 86.4297C96.9635 85.8433 97.4836 85.4403 98.074 85.2207C98.6651 85.0058 99.2827 84.9658 99.9269 85.1008C100.571 85.2358 101.197 85.5363 101.804 86.0023C102.42 86.4744 102.874 87.0068 103.167 87.5993C103.463 88.1939 103.582 88.8034 103.525 89.4279C103.468 90.0524 103.22 90.65 102.782 91.2206C102.429 91.6808 102.029 92.0254 101.582 92.2545C101.137 92.4857 100.678 92.5947 100.203 92.5815C99.7265 92.571 99.2683 92.4304 98.8284 92.1598L99.7091 91.012C100.042 91.1668 100.397 91.2098 100.776 91.141C101.152 91.0748 101.485 90.8537 101.773 90.4777C102.025 90.149 102.16 89.7945 102.176 89.4141C102.192 89.0384 102.094 88.6602 101.881 88.2793C101.67 87.9005 101.349 87.5456 100.918 87.2147C100.476 86.8758 100.044 86.6503 99.6198 86.5383C99.1961 86.4263 98.8023 86.4249 98.4385 86.5343C98.0727 86.6463 97.7617 86.8693 97.5054 87.2033C97.3339 87.4268 97.2194 87.6605 97.1617 87.9045C97.1046 88.1532 97.1062 88.3988 97.1665 88.6414C97.2248 88.8867 97.344 89.118 97.5239 89.3354L96.6432 90.4832C96.2837 90.1406 96.0318 89.7447 95.8876 89.2956C95.7433 88.8466 95.7203 88.3757 95.8185 87.8829C95.9147 87.3927 96.1464 86.9083 96.5136 86.4297Z" fill="white"/>
<path d="M93.1217 94.5931L94.3008 95.9725L94.1033 96.1393L93.866 100.572L92.5067 101.721L92.7817 96.6707L92.9602 96.5198L93.1217 94.5931ZM92.4936 91.7323L99.0668 99.508L97.9316 100.468L91.3583 92.692L92.4936 91.7323ZM88.8107 94.8456L93.2419 95.852L93.1306 97.3067L87.4173 96.0235L88.8107 94.8456Z" fill="white"/>
<path d="M79.5922 105.891L78.0955 101.611L79.4987 101.12L82.8598 110.731L81.4754 111.215L80.2248 107.639L80.1356 107.67C80.1024 108.117 79.952 108.516 79.6846 108.866C79.4172 109.216 79.0035 109.488 78.4435 109.684C77.9492 109.857 77.4819 109.906 77.0416 109.832C76.5982 109.759 76.2042 109.556 75.8597 109.224C75.5132 108.895 75.2349 108.431 75.0248 107.83L73.4214 103.245L74.8245 102.755L76.3689 107.171C76.5538 107.699 76.8332 108.062 77.2071 108.257C77.5822 108.456 78.0122 108.471 78.4971 108.301C78.8287 108.185 79.1013 108.011 79.3149 107.778C79.5253 107.547 79.658 107.269 79.713 106.944C79.766 106.623 79.7257 106.272 79.5922 105.891Z" fill="white"/>
<path d="M66.0372 104.75C66.7858 104.675 67.4466 104.77 68.0196 105.035C68.5896 105.305 69.0507 105.716 69.403 106.27C69.7522 106.828 69.9665 107.501 70.0457 108.289C70.124 109.068 70.0479 109.768 69.8174 110.391C69.5836 111.014 69.2213 111.518 68.7305 111.904C68.2363 112.29 67.6364 112.519 66.9307 112.59C66.502 112.633 66.0793 112.604 65.6627 112.503C65.2461 112.401 64.8626 112.215 64.5123 111.944C64.1619 111.673 63.8699 111.304 63.6365 110.838C63.4034 110.375 63.2522 109.799 63.1829 109.11L63.1301 108.585L69.17 107.978L69.2814 109.086L64.6909 109.547C64.7301 109.937 64.8439 110.273 65.0324 110.557C65.2212 110.845 65.4678 111.062 65.7723 111.208C66.0735 111.354 66.4154 111.408 66.7979 111.369C67.2134 111.327 67.5659 111.189 67.8553 110.953C68.1418 110.721 68.3527 110.433 68.488 110.09C68.6204 109.75 68.6675 109.391 68.6294 109.011L68.5423 108.146C68.4912 107.638 68.3587 107.215 68.1448 106.877C67.9276 106.539 67.648 106.292 67.3059 106.137C66.9641 105.984 66.5772 105.93 66.1452 105.973C65.8649 106.002 65.6133 106.067 65.3905 106.169C65.1679 106.275 64.9807 106.417 64.8287 106.596C64.6768 106.774 64.5683 106.986 64.5031 107.233L63.0778 107.121C63.1485 106.698 63.3133 106.317 63.5724 105.977C63.8284 105.642 64.1655 105.366 64.5835 105.151C64.9986 104.94 65.4832 104.806 66.0372 104.75Z" fill="white"/>
<path d="M58.2921 105.409L57.4694 113.001L56.041 112.846L56.1717 111.64L56.0926 111.631C55.9099 112.025 55.6313 112.32 55.2566 112.516C54.8784 112.715 54.4668 112.79 54.022 112.742C53.9297 112.732 53.8213 112.717 53.6968 112.697C53.569 112.676 53.4694 112.657 53.398 112.64L53.5512 111.226C53.6087 111.249 53.7122 111.278 53.8616 111.315C54.0107 111.354 54.161 111.382 54.3126 111.399C54.6619 111.436 54.9813 111.396 55.2709 111.277C55.5568 111.162 55.7929 110.982 55.9793 110.739C56.1653 110.499 56.2762 110.214 56.3119 109.885L56.8142 105.249L58.2921 105.409Z" fill="white"/>
<path d="M47.3459 103.449C48.0615 103.681 48.6282 104.034 49.046 104.507C49.4596 104.983 49.7161 105.545 49.8156 106.194C49.9109 106.846 49.8363 107.548 49.5918 108.301C49.3503 109.045 48.9988 109.656 48.5372 110.134C48.0725 110.61 47.5378 110.926 46.9332 111.082C46.3255 111.236 45.6843 111.204 45.0097 110.985C44.5998 110.852 44.2246 110.656 43.884 110.395C43.5434 110.135 43.2673 109.81 43.0556 109.421C42.8439 109.032 42.725 108.577 42.6989 108.056C42.6717 107.538 42.765 106.95 42.9789 106.291L43.1416 105.79L48.9154 107.664L48.5716 108.723L44.1833 107.299C44.0626 107.671 44.0313 108.025 44.0896 108.361C44.1467 108.7 44.2854 108.998 44.5054 109.254C44.7223 109.509 45.0136 109.696 45.3793 109.814C45.7765 109.943 46.155 109.958 46.5148 109.859C46.8704 109.762 47.1792 109.583 47.4413 109.323C47.6992 109.065 47.8869 108.755 48.0046 108.393L48.2732 107.565C48.4307 107.08 48.4796 106.639 48.4199 106.243C48.357 105.847 48.2002 105.508 47.9496 105.228C47.698 104.951 47.3656 104.746 46.9527 104.612C46.6847 104.525 46.4281 104.484 46.1829 104.488C45.9366 104.495 45.708 104.55 45.4971 104.652C45.2862 104.754 45.1014 104.905 44.9426 105.104L43.6826 104.429C43.9177 104.07 44.222 103.787 44.5956 103.58C44.965 103.376 45.3844 103.26 45.8537 103.231C46.3189 103.204 46.8163 103.277 47.3459 103.449Z" fill="white"/>
<path d="M27.2363 101.8L27.966 100.856L31.2661 103.408L30.5364 104.352L27.2363 101.8ZM28.5324 105.115L27.3563 104.206L31.7744 98.4906C31.9507 98.2625 32.0494 98.0643 32.0704 97.8963C32.0894 97.7308 32.0614 97.5855 31.9863 97.4605C31.9066 97.336 31.8025 97.2241 31.674 97.1248C31.5796 97.0518 31.4919 96.9945 31.411 96.9529C31.33 96.9113 31.2669 96.8792 31.2215 96.8566L31.7601 95.7209C31.8485 95.7474 31.9658 95.7962 32.112 95.8673C32.2601 95.9357 32.4296 96.0416 32.6205 96.1849C32.9339 96.4189 33.1798 96.6969 33.3581 97.0191C33.5364 97.3412 33.6149 97.6868 33.5936 98.0557C33.5723 98.4247 33.4207 98.7914 33.139 99.1559L28.5324 105.115Z" fill="white"/>
<path d="M26.474 90.609C26.9402 91.1524 27.2224 91.7334 27.3209 92.352C27.4193 92.9707 27.3406 93.584 27.0849 94.192C26.8292 94.8001 26.4021 95.3609 25.8034 95.8745C25.2021 96.3903 24.5804 96.7294 23.938 96.8918C23.2957 97.0542 22.6763 97.0398 22.0798 96.8484C21.4833 96.6571 20.952 96.2897 20.4858 95.7464C20.0197 95.203 19.7374 94.622 19.639 94.0034C19.5405 93.3847 19.6204 92.7703 19.8787 92.1601C20.1369 91.5499 20.5666 90.987 21.1678 90.4712C21.7665 89.9575 22.3857 89.6206 23.0256 89.4603C23.6654 89.3001 24.2836 89.3156 24.8801 89.507C25.4765 89.6983 26.0079 90.0657 26.474 90.609ZM25.5237 91.4178C25.2215 91.0656 24.8781 90.8537 24.4934 90.7819C24.1087 90.7102 23.7142 90.7517 23.3099 90.9065C22.9033 91.0587 22.5139 91.2945 22.1416 91.6139C21.7718 91.9312 21.4808 92.2791 21.2685 92.6578C21.0515 93.0361 20.948 93.4218 20.9579 93.8151C20.9678 94.2084 21.1238 94.5811 21.4259 94.9333C21.7302 95.288 22.077 95.5014 22.4664 95.5735C22.8536 95.643 23.2517 95.6006 23.6607 95.4462C24.0651 95.2915 24.4522 95.0555 24.822 94.7382C25.1943 94.4188 25.4876 94.0711 25.7021 93.6949C25.9144 93.3163 26.0143 92.9314 26.0019 92.5403C25.9874 92.1466 25.828 91.7725 25.5237 91.4178Z" fill="white"/>
<path d="M18.4241 79.3943L8.813 82.7555L6.70573 76.7298L7.95404 76.2932L9.55419 80.8688L12.4826 79.8447L10.9924 75.5836L12.236 75.1486L13.7262 79.4098L16.6686 78.3808L15.0488 73.7489L16.2971 73.3123L18.4241 79.3943Z" fill="white"/>
<path d="M7.32253 68.8903L10.0967 66.8945L6.95779 65.5244L6.78265 63.9081L10.8352 65.8643L14.3724 63.0657L14.5476 64.6819L11.8958 66.6995L14.9177 68.0973L15.0933 69.7185L11.0414 67.7673L7.4982 70.5115L7.32253 68.8903Z" fill="white"/>
<path d="M16.8625 59.6169L6.43738 58.3654L6.61041 56.9241L7.83951 57.0716L7.85432 56.9482C7.70664 56.8437 7.53881 56.6984 7.35085 56.5122C7.16289 56.3261 7.00876 56.0806 6.88846 55.7757C6.76488 55.4705 6.73133 55.0826 6.78782 54.612C6.8613 53.9999 7.08154 53.4722 7.44855 53.0289C7.81556 52.5856 8.30669 52.2623 8.92194 52.0591C9.53759 51.8526 10.2551 51.7985 11.0745 51.8969C11.8939 51.9952 12.5801 52.2162 13.1331 52.5596C13.6827 52.9027 14.0869 53.3317 14.3455 53.8468C14.6009 54.3615 14.6918 54.9249 14.6183 55.537C14.563 55.9977 14.4405 56.3652 14.2506 56.6395C14.0612 56.9105 13.853 57.1159 13.6259 57.2555C13.3988 57.3952 13.1993 57.4997 13.0274 57.5692L13.0167 57.6581L17.0397 58.141L16.8625 59.6169ZM10.402 57.3742C10.9351 57.4382 11.4116 57.417 11.8317 57.3105C12.2517 57.2041 12.5929 57.018 12.8551 56.7524C13.114 56.4864 13.269 56.1411 13.3199 55.7166C13.3728 55.2756 13.3003 54.893 13.1022 54.5688C12.9008 54.2442 12.6068 53.9819 12.2202 53.782C11.834 53.5787 11.3875 53.4467 10.8808 53.3858C10.3806 53.3258 9.92228 53.3475 9.50593 53.4511C9.08997 53.5514 8.74884 53.7374 8.48253 54.0093C8.21663 54.2778 8.05701 54.6342 8.00368 55.0784C7.95232 55.5062 8.01911 55.8814 8.20403 56.2041C8.38936 56.5234 8.67038 56.7825 9.0471 56.9813C9.42382 57.18 9.87544 57.311 10.402 57.3742Z" fill="white"/>
<path d="M6.38021 43.9661L16.0882 47.036L15.64 48.4533L5.93203 45.3835L6.38021 43.9661Z" fill="white"/>
<path d="M18.956 39.967C18.6172 40.5977 18.177 41.0704 17.6354 41.3851C17.0938 41.6999 16.4933 41.8476 15.834 41.8282C15.1747 41.8089 14.4976 41.6125 13.8027 41.2392C13.1049 40.8643 12.5645 40.4065 12.1815 39.8659C11.7985 39.3252 11.5887 38.7422 11.5522 38.1169C11.5157 37.4915 11.6669 36.8635 12.0057 36.2328C12.3445 35.6022 12.7848 35.1295 13.3264 34.8147C13.868 34.4999 14.4699 34.353 15.1321 34.3739C15.7943 34.3949 16.4744 34.5928 17.1722 34.9677C17.867 35.341 18.4045 35.7972 18.7846 36.3363C19.1647 36.8754 19.373 37.4576 19.4095 38.083C19.446 38.7083 19.2948 39.3363 18.956 39.967ZM17.8591 39.372C18.0787 38.9633 18.1527 38.5665 18.0809 38.1819C18.0092 37.7972 17.8283 37.4441 17.5382 37.1227C17.2496 36.7984 16.8893 36.5201 16.4572 36.288C16.028 36.0574 15.5985 35.9113 15.1688 35.8497C14.7378 35.7837 14.3406 35.8262 13.9773 35.9771C13.614 36.1281 13.3226 36.4079 13.1029 36.8167C12.8818 37.2284 12.8077 37.6288 12.8808 38.018C12.9555 38.4042 13.1385 38.7603 13.43 39.0862C13.7201 39.4076 14.0797 39.6836 14.5089 39.9142C14.941 40.1464 15.3712 40.2947 15.7993 40.3592C16.229 40.4207 16.6241 40.3752 16.9844 40.2227C17.3464 40.0673 17.6379 39.7837 17.8591 39.372Z" fill="white"/>
<path d="M22.6353 33.2899L16.7856 28.3812L17.7092 27.2806L18.6385 28.0604L18.6896 27.9994C18.4643 27.6286 18.3744 27.233 18.4199 26.8126C18.4651 26.3876 18.6315 26.0037 18.9191 25.6609C18.9788 25.5898 19.0516 25.5082 19.1376 25.4159C19.2258 25.3212 19.2971 25.2491 19.3516 25.1996L20.4408 26.1136C20.3898 26.1486 20.3076 26.2182 20.1944 26.3222C20.0786 26.424 19.9717 26.5334 19.8737 26.6502C19.6479 26.9193 19.5037 27.2072 19.4411 27.5138C19.3781 27.8157 19.3958 28.1118 19.4941 28.4019C19.5899 28.69 19.7647 28.9405 20.0186 29.1536L23.5909 32.1512L22.6353 33.2899Z" fill="white"/>
<path d="M30.2692 25.3262C29.679 25.7928 29.0711 26.0686 28.4453 26.1535C27.82 26.2338 27.2098 26.1353 26.6146 25.8581C26.0199 25.5762 25.4769 25.1246 24.9856 24.5032C24.5004 23.8896 24.1872 23.2584 24.046 22.6095C23.9074 21.9586 23.941 21.3384 24.1467 20.7489C24.3551 20.1574 24.7375 19.6417 25.2939 19.2018C25.6318 18.9346 26.0036 18.7315 26.4092 18.5925C26.8148 18.4535 27.2382 18.4039 27.6795 18.4437C28.1209 18.4835 28.5654 18.6369 29.0132 18.904C29.4589 19.1685 29.8966 19.5724 30.3262 20.1158L30.653 20.5291L25.8913 24.2941L25.2006 23.4205L28.8197 20.559C28.5771 20.2522 28.2999 20.0299 27.9881 19.892C27.6741 19.7514 27.3496 19.7017 27.0145 19.7428C26.6819 19.7817 26.3649 19.9205 26.0633 20.1589C25.7357 20.4179 25.5134 20.7247 25.3965 21.0791C25.2801 21.4288 25.2573 21.7848 25.3283 22.1471C25.3997 22.5046 25.5536 22.8329 25.79 23.1319L26.3296 23.8144C26.6462 24.2148 26.9857 24.4999 27.3481 24.6697C27.7131 24.8374 28.0816 24.8946 28.4536 24.8414C28.8235 24.7855 29.1787 24.6229 29.5193 24.3536C29.7403 24.1789 29.9171 23.9884 30.0498 23.7821C30.1804 23.5732 30.2616 23.3526 30.2935 23.1204C30.3254 22.8882 30.3024 22.6507 30.2246 22.408L31.4855 21.7343C31.654 22.1292 31.7205 22.5393 31.685 22.9645C31.65 23.3852 31.5143 23.7988 31.278 24.2053C31.0423 24.6072 30.706 24.9808 30.2692 25.3262Z" fill="white"/>
<path d="M41.7794 17.7024L38.8198 7.96025L42.2924 6.9053C43.0503 6.67505 43.7201 6.62224 44.3018 6.74689C44.8835 6.87153 45.3708 7.13571 45.7637 7.53943C46.1555 7.93998 46.442 8.43835 46.6231 9.03455C46.8052 9.63393 46.8437 10.2111 46.7387 10.7661C46.6358 11.3169 46.3763 11.808 45.96 12.2393C45.5459 12.6664 44.9615 12.9947 44.2067 13.2239L41.8188 13.9494L41.4401 12.7031L43.6949 12.0181C44.1738 11.8726 44.5372 11.6721 44.7852 11.4167C45.0323 11.158 45.1817 10.8632 45.2336 10.5323C45.2854 10.2013 45.2555 9.85186 45.1437 9.48399C45.032 9.11612 44.863 8.81067 44.6367 8.56765C44.4105 8.32462 44.1222 8.168 43.7718 8.09779C43.4245 8.02662 43.0067 8.06521 42.5183 8.21358L40.6727 8.77429L43.2493 17.2559L41.7794 17.7024Z" fill="white"/>
<path d="M52.0939 14.7981L51.4175 7.19175L52.8486 7.06447L52.9561 8.27277L53.0353 8.26573C53.1376 7.84403 53.3532 7.50042 53.6823 7.2349C54.0144 6.96578 54.4033 6.81141 54.849 6.77177C54.9415 6.76355 55.0507 6.75716 55.1767 6.75261C55.3061 6.74776 55.4075 6.74706 55.481 6.75051L55.607 8.16679C55.5461 8.15557 55.4388 8.14681 55.2852 8.1405C55.1313 8.1309 54.9784 8.13285 54.8265 8.14636C54.4766 8.17748 54.1712 8.2795 53.9104 8.45244C53.6526 8.62177 53.4561 8.84389 53.3208 9.11879C53.1852 9.39039 53.1321 9.69126 53.1615 10.0214L53.5746 14.6664L52.0939 14.7981Z" fill="white"/>
<path d="M63.4061 14.5557C62.6952 14.4704 62.0945 14.233 61.6038 13.8436C61.1131 13.4543 60.7565 12.9491 60.5339 12.3282C60.3113 11.7073 60.2471 11.0052 60.3411 10.222C60.4355 9.43551 60.6645 8.76532 61.0281 8.21144C61.3917 7.65755 61.8579 7.24951 62.4269 6.98733C62.9958 6.72514 63.6356 6.63671 64.3465 6.72204C65.0573 6.80737 65.658 7.04473 66.1487 7.43412C66.6394 7.82351 66.9959 8.3303 67.218 8.95451C67.4402 9.57872 67.5041 10.2841 67.4096 11.0706C67.3156 11.8538 67.087 12.5207 66.7238 13.0713C66.3606 13.6219 65.8946 14.0282 65.3256 14.2904C64.7567 14.5526 64.1169 14.641 63.4061 14.5557ZM63.5597 13.3173C64.0204 13.3726 64.4168 13.2967 64.7488 13.0895C65.0807 12.8824 65.3434 12.5851 65.5368 12.1977C65.7335 11.8107 65.8611 11.3737 65.9195 10.8867C65.9776 10.4029 65.9569 9.94978 65.8574 9.52724C65.7616 9.10181 65.5771 8.74751 65.304 8.46436C65.0309 8.18121 64.664 8.01198 64.2032 7.95667C63.7392 7.90097 63.3394 7.97816 63.0037 8.18823C62.6714 8.39869 62.4066 8.69906 62.2096 9.08934C62.0162 9.47672 61.8905 9.91228 61.8324 10.396C61.7739 10.8831 61.7928 11.3376 61.889 11.7598C61.9885 12.1823 62.175 12.5335 62.4485 12.8134C62.7253 13.0937 63.0957 13.2616 63.5597 13.3173Z" fill="white"/>
<path d="M73.3486 8.34145L74.7659 8.78964L72.3136 16.5447C72.1598 17.0313 71.9414 17.4142 71.6585 17.6932C71.3787 17.9732 71.0392 18.1457 70.6397 18.2105C70.2435 18.2764 69.7941 18.2299 69.2916 18.071C69.2411 18.055 69.1937 18.0401 69.1494 18.0261C69.102 18.0111 69.0536 17.994 69.004 17.9749L69.3892 16.7566C69.4335 16.7706 69.473 16.7831 69.5077 16.7941C69.5393 16.8041 69.5757 16.8156 69.6168 16.8286C69.9517 16.9345 70.222 16.9209 70.4274 16.7877C70.6351 16.6587 70.7924 16.4251 70.8993 16.087L73.3486 8.34145ZM74.4054 7.43986C74.1589 7.36191 73.9732 7.2128 73.8481 6.99251C73.7273 6.77006 73.7034 6.54349 73.7763 6.31279C73.8503 6.07894 74.0001 5.90733 74.2259 5.79797C74.4558 5.68644 74.694 5.66965 74.9405 5.74759C75.187 5.82554 75.3707 5.97574 75.4915 6.19819C75.6165 6.41847 75.6421 6.64555 75.5681 6.8794C75.4952 7.11009 75.3437 7.2812 75.1138 7.39273C74.888 7.50209 74.6519 7.5178 74.4054 7.43986Z" fill="white"/>
<path d="M79.605 18.9562C78.9423 18.6001 78.4476 18.1518 78.1209 17.6113C77.7987 17.0695 77.6465 16.4704 77.6643 15.814C77.6866 15.1563 77.8852 14.4785 78.2601 13.7807C78.6303 13.0916 79.085 12.5534 79.6243 12.1659C80.1665 11.7799 80.749 11.5642 81.3716 11.5188C81.9972 11.4749 82.6224 11.6207 83.2472 11.9564C83.6268 12.1604 83.9609 12.4208 84.2497 12.7377C84.5384 13.0546 84.7523 13.4235 84.8912 13.8442C85.0301 14.265 85.066 14.7339 84.9989 15.251C84.9333 15.7651 84.7367 16.3272 84.4088 16.9374L84.1594 17.4017L78.812 14.5287L79.3391 13.5477L83.4033 15.7312C83.5884 15.3867 83.6822 15.044 83.6848 14.703C83.689 14.3591 83.6056 14.0415 83.4348 13.7503C83.2668 13.4607 83.0135 13.2248 82.6748 13.0429C82.3069 12.8452 81.9371 12.7632 81.5654 12.7968C81.1982 12.829 80.8625 12.9496 80.5583 13.1587C80.2586 13.3664 80.0185 13.6381 79.8381 13.9738L79.4264 14.7403C79.1848 15.1899 79.0581 15.6147 79.0464 16.0148C79.0376 16.4164 79.1315 16.7772 79.3282 17.0974C79.5265 17.4146 79.8169 17.676 80.1994 17.8815C80.4475 18.0148 80.6926 18.1013 80.9347 18.1411C81.1783 18.1779 81.4129 18.1648 81.6387 18.1017C81.8645 18.0386 82.0732 17.9232 82.265 17.7553L83.3844 18.6446C83.0891 18.9562 82.7392 19.1802 82.3348 19.3166C81.9349 19.4517 81.5015 19.4916 81.0345 19.4363C80.572 19.3797 80.0955 19.2197 79.605 18.9562Z" fill="white"/>
<path d="M88.6884 24.8274C88.1327 24.3401 87.7646 23.7946 87.5842 23.1911C87.4084 22.5873 87.4089 21.9684 87.5858 21.3344C87.7627 20.7004 88.1036 20.0956 88.6084 19.52C89.1198 18.9369 89.6807 18.5185 90.2912 18.2648C90.9039 18.0086 91.5199 17.9295 92.1393 18.0275C92.7587 18.1255 93.3388 18.4116 93.8795 18.8858C94.3156 19.2683 94.6333 19.6902 94.8326 20.1515C95.0341 20.6104 95.1128 21.0762 95.0686 21.5488C95.0269 22.0236 94.8566 22.4716 94.5577 22.8928L93.4701 21.9389C93.6463 21.6173 93.7125 21.2654 93.6686 20.8831C93.6273 20.5029 93.4285 20.1566 93.0721 19.8441C92.7607 19.5709 92.4157 19.4139 92.0372 19.3729C91.6634 19.3316 91.2795 19.4049 90.8855 19.5928C90.4937 19.7782 90.1186 20.0752 89.7602 20.4838C89.393 20.9025 89.1397 21.3195 89.0001 21.735C88.8606 22.1504 88.8335 22.5433 88.9188 22.9134C89.0066 23.2858 89.2087 23.6108 89.5252 23.8883C89.737 24.0741 89.9628 24.2038 90.2024 24.2773C90.4468 24.3505 90.692 24.365 90.9381 24.3207C91.1866 24.2786 91.4253 24.1749 91.654 24.0096L92.7417 24.9635C92.3762 25.2998 91.9647 25.5252 91.5071 25.6398C91.0496 25.7543 90.5782 25.7464 90.0929 25.6162C89.61 25.4881 89.1419 25.2252 88.6884 24.8274Z" fill="white"/>
<path d="M101.836 27.3036L100.892 28.0334L98.3406 24.7333L99.2846 24.0035L101.836 27.3036ZM101.416 23.7696L102.325 24.9457L96.6102 29.3637C96.3821 29.5401 96.2367 29.7069 96.174 29.8643C96.114 30.0196 96.1045 30.1673 96.1457 30.3072C96.1915 30.4478 96.2641 30.5823 96.3634 30.7108C96.4364 30.8052 96.5068 30.8827 96.5746 30.9434C96.6425 31.004 96.6955 31.051 96.7338 31.0842L95.9264 32.0477C95.8475 31.9998 95.7463 31.923 95.6228 31.8174C95.4966 31.7139 95.3593 31.5687 95.2107 31.3819C94.9662 31.0765 94.7983 30.7455 94.707 30.3889C94.6156 30.0322 94.6266 29.678 94.7402 29.3263C94.8537 28.9746 95.0927 28.6579 95.4572 28.3762L101.416 23.7696Z" fill="white"/>
<path d="M106.302 38.1626L105.49 37.0611C105.62 36.9341 105.727 36.7811 105.812 36.6021C105.899 36.4261 105.941 36.2239 105.939 35.9956C105.937 35.7673 105.868 35.5151 105.731 35.2388C105.544 34.8616 105.303 34.5887 105.009 34.42C104.718 34.2499 104.44 34.2303 104.176 34.3611C103.947 34.4744 103.805 34.6502 103.749 34.8886C103.693 35.127 103.714 35.4569 103.812 35.8783L104.1 37.0889C104.267 37.7907 104.275 38.371 104.125 38.8299C103.975 39.2888 103.657 39.6381 103.173 39.8778C102.763 40.0807 102.339 40.1428 101.901 40.064C101.467 39.9867 101.055 39.782 100.665 39.4499C100.276 39.1208 99.9452 38.68 99.6717 38.1275C99.2923 37.3612 99.1462 36.655 99.2332 36.0091C99.3232 35.3617 99.644 34.8331 100.196 34.4232L101.029 35.6138C100.733 35.8602 100.561 36.1507 100.512 36.4855C100.466 36.8189 100.543 37.186 100.741 37.587C100.957 38.0236 101.221 38.3278 101.531 38.4995C101.845 38.6697 102.134 38.6894 102.398 38.5585C102.612 38.4526 102.752 38.2835 102.818 38.051C102.886 37.8215 102.876 37.525 102.788 37.1615L102.469 35.8774C102.298 35.1667 102.296 34.5797 102.462 34.1164C102.63 33.6561 102.958 33.3054 103.445 33.0642C103.849 32.8642 104.258 32.8021 104.673 32.8779C105.088 32.9536 105.478 33.1486 105.845 33.4628C106.214 33.7755 106.526 34.1888 106.78 34.7027C107.146 35.4423 107.274 36.1039 107.164 36.6875C107.056 37.2696 106.769 37.7613 106.302 38.1626Z" fill="white"/>
</svg>
